<svg version="1.1" viewBox="0 0 586 522" xmlns="http://www.w3.org/2000/svg">
 <defs>
  <clipPath id="a">
   <path d="m0 500h500v-500h-500z"/>
  </clipPath>
 </defs>
 <g transform="matrix(1.3333 0 0 -1.3333 0 522)">
  <g transform="translate(287.04 150.06)">
   <path d="m0 0v.255l-.298-.212z" fill-rule="evenodd"/>
  </g>
  <g transform="translate(104.41 142.66)">
   <path d="m0 0v.255l-.298-.213z" fill-rule="evenodd"/>
  </g>
  <g transform="translate(217.16 239.14)">
   <path d="m0 0c19.35 0 36.835-1.134 49.463-2.968 11.555-1.678 18.701-3.485 18.701-5.023 0-1.997-2.201-3.991-4.502-5.53-.304-.114-.573-.291-.795-.512-.668-.416-1.324-.789-1.916-1.108-2.56 2.298-9.091 4.102-18.312 5.254-10.929 1.365-26.006 2.209-42.639 2.209-16.634 0-31.71-.844-42.64-2.209-9.22-1.152-15.751-2.956-18.311-5.254-.592.32-1.248.692-1.917 1.108-.221.221-.49.398-.794.512-2.301 1.539-4.502 3.533-4.502 5.53 0 1.538 7.146 3.345 18.701 5.023 12.627 1.834 30.113 2.968 49.463 2.968m0 30.105c29.826 0 56.777-2.179 76.24-5.703 18.476-3.345 29.904-7.506 29.904-11.687 0-6.387-7.093-12.303-11.763-15.505l-.738-.097c-2.882 4.14-13.076 7.574-28.076 9.91-16.831 2.622-40.016 4.243-65.567 4.243s-48.736-1.621-65.568-4.243c-15-2.336-25.193-5.77-28.075-9.91l-.738.097c-4.67 3.202-11.763 9.118-11.763 15.505 0 4.181 11.427 8.342 29.904 11.687 19.463 3.524 46.414 5.703 76.24 5.703m80.698-2.03c24.76 10.001 40.8 22.801 45.124 26.481.747-.156 1.491-.313 2.225-.471 30.683-6.625 50.07-15.298 51.398-24.556-7.742-2.431-39.339-11.892-69.479-14.274-2.632 5.165-13.258 9.596-29.268 12.82m-206.52 26.481c4.324-3.68 20.364-16.481 45.123-26.481-16.01-3.224-26.635-7.655-29.268-12.82-30.139 2.382-61.736 11.843-69.478 14.274 1.327 9.258 20.715 17.931 51.398 24.556.734.158 1.477.315 2.225.471m168.47 20.045c1.141 0 2.067-.925 2.067-2.067 0-1.14-.926-2.066-2.067-2.066s-2.066.926-2.066 2.066c0 1.142.925 2.067 2.066 2.067m19.088-2.46c1.142 0 2.067-.925 2.067-2.067 0-1.14-.925-2.065-2.067-2.065-1.141 0-2.066.925-2.066 2.065 0 1.142.925 2.067 2.066 2.067m-61.736 3.394c1.141 0 2.066-.925 2.066-2.065 0-1.142-.925-2.067-2.066-2.067-1.142 0-2.066.925-2.066 2.067 0 1.14.924 2.065 2.066 2.065m-20.806 0c1.142 0 2.067-.925 2.067-2.065 0-1.142-.925-2.067-2.067-2.067-1.14 0-2.066.925-2.066 2.067 0 1.14.926 2.065 2.066 2.065m-21.842-.934c1.14 0 2.066-.925 2.066-2.067 0-1.14-.926-2.066-2.066-2.066-1.142 0-2.067.926-2.067 2.066 0 1.142.925 2.067 2.067 2.067m-19.088-2.46c1.14 0 2.065-.925 2.065-2.067 0-1.14-.925-2.065-2.065-2.065-1.142 0-2.067.925-2.067 2.065 0 1.142.925 2.067 2.067 2.067m82.541 3.394c1.141 0 2.066-.925 2.066-2.065 0-1.142-.925-2.067-2.066-2.067s-2.066.925-2.066 2.067c0 1.14.925 2.065 2.066 2.065m31.244-91.288c-.231-.759-.403-1.67-.185-2.305.113-.324.187-.649.262-.961-.474-.084-.976-.168-1.504-.254l.821-4.147c3.565.799 6.342 1.746 8.174 2.822.226.023.451.08.671.175.015.007 2.292.988 4.886 2.669 8.7 1.339 15.759 2.953 20.642 4.759 3.125 1.155 5.468 2.472 6.923 3.938.48.269 1.67.956 3.223 1.993 25.913 3.47 47.538 8.308 62.738 14.051 16.089 6.08 25.282 13.41 25.282 21.527 0 12.036-21.015 22.591-54.994 29.928-9.449 2.04-19.926 3.858-31.248 5.413-6.886 11.137-20.035 20.68-37.167 27.407-16.979 6.668-37.929 10.607-60.573 10.607-22.645 0-43.594-3.939-60.573-10.607-17.132-6.727-30.281-16.27-37.167-27.407-11.322-1.555-21.8-3.373-31.248-5.413-33.979-7.337-54.995-17.892-54.995-29.928 0-8.117 9.194-15.447 25.283-21.527 15.199-5.743 36.825-10.581 62.738-14.051 1.553-1.037 2.743-1.724 3.223-1.993 1.455-1.466 3.797-2.783 6.923-3.938 4.883-1.806 11.942-3.42 20.641-4.759 2.594-1.681 4.871-2.662 4.887-2.669.219-.095.444-.152.67-.175 1.769-1.039 4.421-1.958 7.811-2.739l.114 3.509c.048.009.098.016.147.024 1.817.285 1.39 2.89 1.017 4.307 2.33.377 5.169.774 8.43 1.183 10.757 1.342 25.64 2.173 42.099 2.173s31.342-.831 42.099-2.173c4.007-.501 7.379-.988 9.95-1.439m24.852 93.78c-5.229 3.405-11.262 6.46-17.95 9.086-16.476 6.47-36.862 10.293-58.951 10.293-22.09 0-42.475-3.823-58.952-10.293-14.586-5.727-26.061-13.498-32.86-22.477 3.16.398 6.38.777 9.657 1.135-.094.236-.146.493-.146.761 0 1.142.925 2.067 2.067 2.067 1.141 0 2.066-.925 2.066-2.067 0-.116-.01-.23-.028-.342 23.707 2.436 50.219 3.799 78.196 3.799 21.182 0 41.523-.781 60.445-2.218h.01c7.816-.552 21.001-.226 20.755 3.463-.241 3.62-4.159 6.677-4.309 6.793m69.774-68.83c0 1.214 1.7.491 1.7 0 0-1.522-1.7-.63-1.7 0m-22.953-.283c0-.897 1.7-1.2 1.7.095 0 .975-1.7.871-1.7-.095m47.228 7.084c0-.332-.243-.723-.452-.879-.789-.594-1.226 1.017-1.223 1.059.038.594 1.675 1.083 1.675-.18m-68.859 36.366c.517-.401.53-.378 1.228-.378.33.381.284.234.284.85 0 .343-.08.527-.189.756-.323.075-.915.221-1.187-.054l-.104-.182c-.008-.023-.013-.048-.019-.074-.039-.178-.013-.704-.013-.918m66.781-33.249c0-1.879 1.794-1.698 1.794-.661 0 1.427-1.794 1.785-1.794.661m-51.951-17.569c0-.704.983-1.595 1.737-.226.245.446.238.795.058 1.17-.505.118-1.11.24-1.48-.22-.152-.191-.315-.434-.315-.724m-160.77 55.351v-.566c.861-.576 1.336-.56 2.173 0v.944c-.13.083-.079.067-.211.15l-.117.072c-.149.076-.377.136-.621.156h-.367c-.45-.041-.857-.248-.857-.756m190.42-45.716c0-.717 1.89-1.068 1.89.661 0 .687-.44 1.393-1.091 1.005-.3-.179-.799-1.45-.799-1.666m26.637 9.256c0-.466.022-.105.118-.449.091-.327.077-.926.603-1.095 1.044-.337 1.832 2.395-.249 2.395-.371 0-.472-.468-.472-.851m-102.86 31.171c0-1.254 1.744-.859 1.977-.75.636.297.583 1.6-.749 1.6-.631 0-1.228-.209-1.228-.85m38.822-52.612c-.149 0-.922.458-.44 1.284 1.246 2.133 2.045.52 2.045.038 0-.281-.842-1.322-1.605-1.322m33.154 9.823c.939 0 1.182 2.834.189 2.834-1.166 0-1.28-1.798-.924-2.34.007-.009.249-.317.25-.318.146-.128.225-.176.485-.176m22.008 5.762c.389-.091.775-.2 1.134-.283.675 1.01.909 2.441-.19 3.022-1.044-.552-1.193-1.668-.944-2.739m-103.71 41.75c0-.843.729-.891 1.497-.881 2.057.027 1.516 1.363.978 1.561-.654.24-2.475.376-2.475-.68m76.698-47.039c0 1.396-.909 2.182-1.523.296-.125-.384-.241-.647-.394-1.025-.135-.336-.25-.718 0-.996.22-.242.741-.302 1.055-.159.509.233.862 1.135.862 1.884m21.443 3.494c1.026-1.533 2.549.226 2.549 1.512 0 1.148-1.055 1.13-1.451.412-.201-.364-.313-.684-.53-.981-.262-.358-.445-.412-.568-.943m-5.857-1.133c0-1.544 2.077-.961 2.077 1.511 0 .814-.342.944-.944.944-.452 0-.585-.677-.701-1.092-.096-.346-.432-1.125-.432-1.363m-243.42 40.9c0-.938.486-.851 1.322-.851 2.812 0 2.399 1.701 1.134 1.701-.904 0-2.456.156-2.456-.85m214.32-49.59c.323 0 .725.6.854.847 1.174 2.253-.506 3.377-1.11 1.961-.138-.323-.621-1.877-.544-2.188.087-.359.396-.62.8-.62m4.818 3.4c0-.419.837-1.591 1.764.408.251.542.939 3.181-.348 3.181-.773 0-.757-.597-.967-1.582zm-10.769-2.078c0-.5.311-.661 1.039-.661.112 0 .515.67.598.819.515.928 2.309 5.126-.031 5.321-.483-.722-.246-1.275-.742-2.752-.158-.466-.275-.873-.458-1.337-.142-.358-.406-.965-.406-1.39m-2.55 3.873c0 .441.082 1.794-.567 1.794-.784 0-.768-1.087-.983-1.849-1.025-3.604-2.863-4.885-2.944-5.546-.124-1 .99-.483 1.568-.068 1.515 1.087 2.926 3.751 2.926 5.669m-40.333 43.072c.478-.713 2.4-.681 3.429-.821 1.338-.181 2.44-.301 3.694-.556 3.06-.624 6.25-.701 9.407-.701 1.923 0 3.679 1.163-1.42 1.508-1.272.086-2.564.255-3.783.372-2.168.209-5.879.86-7.548.86-.988 0-3.532.26-3.779-.662m-9.068 4.818c.57-.852 4.566-.957 5.911-1.173 2.25-.36 4.608-.29 6.567-.519.71-.083 1.623.047 2.351-.009l11.987-1.142c1.802-.199 4.294-.479 6.065-.284.214.024.431-.004.644.017.387.04.627.201.952.276-.013.598-.43.662-1.522.839l-3.117.379c-.451.049-.694.067-1.118.109-.718.071-1.425.209-2.173.283l-8.544.996c-1.379.235-5.347.232-6.858.226l-6.809.465c-.631.073-1.676.006-2.353.01-.704.002-1.551-.019-1.983-.473m-150.09-2.551c.227-.848 2.406-.357 3.304-.28 2.954.253 7.868 1.032 11.131 1.431 1.438.176 3.094.42 4.559.541 3.62.3 7.907.754 11.611.954 1.143.061 6.223.062 6.801.849-.437.596-2.499.563-3.31.564-.517.001-.66.079-1.086.097h-1.392c-1.313-.021-2.537-.089-3.945-.09l-4.998-.292c-2.983-.234-6.549-.632-9.517-1.063-3.18-.461-9.209-1.395-12.223-2.322-.477-.147-.673-.032-.935-.389m117.59 11.366c-2.246-6.503-8.381-23.274-14.256-30.601-6.221.201-12.623.306-19.158.306s-12.938-.105-19.159-.306c-5.875 7.327-12.009 24.099-14.256 30.601 10.829.436 21.997.663 33.415.663 11.417 0 22.586-.227 33.414-.663" fill-rule="evenodd"/>
  </g>
  <g transform="translate(165.61 208.81)">
   <path d="m0 0c.676 1.227 1.184 3.353.788 4.961-.315 1.283-.712.983-1.804 1.24-.176.041-.373.087-.585.136l-1.235-8.667c1.294.468 2.28 1.32 2.836 2.33" fill-rule="evenodd"/>
  </g>
  <g transform="translate(271.47 108.06)">
   <path d="m0 0c-.666-.358-.547-1.146-.542-2.027.033-5.809.505-10.346 1.223-16.12.489-3.934 1.013-5.285 1.517-8.314.926-5.559 2.208-21.275 2.586-26.844.174-2.559.921-13.511 1.308-15.915.109-.678.18-1.404.668-1.644.885.469.548 3.196.552 4.348.01 3.649-.736 10.094-.838 13.943-.106 3.958-1.066 13.941-1.505 18.251-.307 2.994-.529 6.013-1.103 8.778-.282 1.362-.642 2.57-.93 4.023-.974 4.903-2.029 19.458-2.936 21.521" fill-rule="evenodd"/>
  </g>
  <g transform="translate(164.05 215.43)">
   <path d="m0 0c.567-.082 1.1.005 1.544.355 1.382 1.096 2.474 5.567 1.415 7.602-.287.552-.658.951-1.298 1.168-.076.025-.161.046-.252.061l-.102-.022z" fill-rule="evenodd"/>
  </g>
  <g transform="translate(200.98 78.148)">
   <path d="m0 0c.723.422.76 3.161.755 4.058-.035 6.612.9 28.213-.552 31.811-.656-.138-.645-.392-.784-1.765l-.234-6.661c.009-3.099-.106-6.299-.106-9.441 0-4.488.237-9.855.209-14.09-.007-1.156-.069-3.274.712-3.912" fill-rule="evenodd"/>
  </g>
  <g transform="translate(192.98 97.898)">
   <path d="m0 0c.723.422.76 3.161.755 4.058-.035 6.612.9 28.213-.552 31.811-.656-.138-.645-.392-.784-1.765l-.234-6.661c.009-3.099-.106-6.299-.106-9.441 0-4.488.237-9.855.209-14.09-.007-1.156-.069-3.274.712-3.912" fill-rule="evenodd"/>
  </g>
  <g transform="translate(226.97 105.23)">
   <path d="m0 0c-.411-.246-.302-.044-.468-.757l-.271-3.24c.023-4.649-.574-27.19.302-30.216.196-.68.001-.361.437-.612.748.519.73 3.096.725 3.959-.009 1.455.104 2.796.103 4.358-.003 5.925.312 19.294-.249 24.84-.063.633-.079 1.312-.579 1.668" fill-rule="evenodd"/>
  </g>
  <g transform="translate(264.33 209.12)">
   <path d="m0 0c-.723-.93-.554-6.465-.451-7.965.182-2.66.25-5.501.295-8.133.056-3.305.435-8.49.734-11.918.101-1.149.108-2.796.906-3.271 1.028.976.527 6.109.456 7.781-.114 2.759-.023 5.474-.222 8.254-.186 2.606-.19 5.5-.445 8.104-.18 1.84-.195 4.006-.535 5.85-.148.802-.216 1.063-.382 1.194-.118.036-.238.069-.356.104" fill-rule="evenodd"/>
  </g>
  <g transform="translate(171.98 13.267)">
   <path d="m0 0c1.213-.137 1.214 1.325 1.395 2.856.144 1.227.22 2.58.346 3.874.442 4.525.459 11.463.949 15.933.183 1.661 1.032 6.274.326 7.502-.737-.054-.817-.478-1.009-1.17-.752-2.702-1.474-10.54-1.653-13.215-.17-2.539-.326-5.478-.327-7.986-.001-2.093-.667-6.697-.027-7.794" fill-rule="evenodd"/>
  </g>
  <g transform="translate(175.17 225.86)">
   <path d="m0 0c-1.451.135-1.578-2.547-1.831-4.308-.442-3.085-1.042-7.873-1.225-10.947-.055-.937-1.058-8.491.832-7.272.898.579 1.492 6.438 1.62 7.568.207 1.84.424 3.632.579 5.519.161 1.987.968 7.552.025 9.44" fill-rule="evenodd"/>
  </g>
  <g transform="translate(224.67 31.517)">
   <path d="m0 0c1.261 5.203-6.35 6.798-7.602 1.945-1.314-5.091 6.391-6.949 7.602-1.945" fill-rule="evenodd"/>
  </g>
  <g transform="translate(171.29 102.4)">
   <path d="m0 0c.291-1.81 2.017-3.649 4.221-3.419 5.208.545 4.639 8.331-.818 7.815-1.926-.182-3.759-2.186-3.403-4.396" fill-rule="evenodd"/>
  </g>
  <g transform="translate(210.08 3.4834)">
   <path d="m0 0h.474c.963 1.895.779 15.729.602 19.318-.072 1.465.214 5.205-.74 5.896-.771-.228-.777-1.784-.824-2.572-.283-4.781-.493-19.679.488-22.642" fill-rule="evenodd"/>
  </g>
  <g transform="translate(220.09 172.41)">
   <path d="m0 0c.044-1.594-.158-5.808.932-6.253.871.534.637 2.511.75 3.599.317 3.067.395 16.86-.578 18.111-1.079.022-.869-1.781-.964-2.767-.314-3.229-.173-9.337-.14-12.69" fill-rule="evenodd"/>
  </g>
  <g transform="translate(214.34 81.959)">
   <path d="m0 0c-.674-.387-.696-1.56-.756-2.361-.337-4.549-.18-9.841-.128-14.39.013-1.066-.05-4.563.884-5.093.486.263.473.463.582 1.032.407 2.134.449 14.106.27 15.788-.155 1.433.199 4.348-.852 5.024" fill-rule="evenodd"/>
  </g>
  <g transform="translate(232.14 57.501)">
   <path d="m0 0c.772.321.802 1.359.87 2.228.249 3.16.299 14.646-.016 17.626-.158 1.499-.163 1.9-.992 1.991-.808-1.978-.647-8.255-.647-11.082 0-2.369-.231-9.503.785-10.763" fill-rule="evenodd"/>
  </g>
  <g transform="translate(210.79 230.32)">
   <path d="m0 0-.04-.255c-.099-.648-.113-1.132-.161-1.873-.212-3.305-.296-18.939-.154-21.766.101-2.027-.06-6.692.85-7.427.459.276.194-.236.487.671.57 1.769.426 13.723.426 15.578 0 4.077.243 11.548-.45 15.146-.32-.024-.64-.048-.958-.074" fill-rule="evenodd"/>
  </g>
  <g transform="translate(220.29 126.68)">
   <path d="m0 0c-.918-.548-.803-4.012-.861-5.116-.133-2.495-.203-15.734.696-16.672.92.102.811 1.201.907 2.113.223 2.114.279 12.743.16 14.705-.087 1.427.107 4.34-.902 4.97" fill-rule="evenodd"/>
  </g>
  <g transform="translate(214.78 90.996)">
   <path d="m0 0c.692.467.713 1.514.767 2.392l.218 8.717c0 1.977-.055 6.706-.25 8.722-.14 1.45-.141 1.898-.935 2.039-.838-1.464-.881-14.308-.628-16.782.145-1.416-.234-4.363.828-5.088" fill-rule="evenodd"/>
  </g>
  <g transform="translate(219.86 68.697)">
   <path d="m0 0c-.905-.407-.856-3.978-.852-5.08.009-2.402-.528-16.255.768-16.648.728-.22.77 1.478.807 2.122.263 4.707.236 9.954.1 14.669-.035 1.202.179 4.473-.823 4.937" fill-rule="evenodd"/>
  </g>
  <g transform="translate(207.54 122.4)">
   <path d="m0 0c-.834-.647-.789-3.849-.784-5.185.016-4.833-.249-9.697.126-14.53.08-1.044.141-1.878.819-2.159.959 1.044.639 3.563.735 5.2.107 1.822.099 3.852.099 5.824 0 1.983-.005 3.923-.1 5.817-.069 1.368.186 4.702-.895 5.033" fill-rule="evenodd"/>
  </g>
  <g transform="translate(220.29 77.81)">
   <path d="m0 0c.994.616.851 3.689.91 5.124.077 1.871.002 3.919.002 5.81 0 1.551.273 10.878-.902 10.818-1.136-.058-.877-9.271-.877-10.818 0-2.748-.108-5.956.155-8.722.09-.938.079-1.839.712-2.212" fill-rule="evenodd"/>
  </g>
  <g transform="translate(235.68 44.83)">
   <path d="m0 0c-.607-.046-.607-.143-.743-.815-.439-2.19.392-11.97.401-15.262.005-1.637-.498-3.915 0-5.275 1.008.099 1.09 1.036 1.303 1.998.609 2.756.403 5.705.368 8.505-.024 1.96-.555 9.981-1.329 10.849" fill-rule="evenodd"/>
  </g>
  <g transform="translate(207.66 91.513)">
   <path d="m0 0c-.678-.276-.733-1.345-.786-2.332l-.218-8.717c0-2.025.107-3.821.103-5.81-.003-1.202-.113-4.372.901-5.012 1.046.901.683 3.478.782 5.142.111 1.874.097 3.854.097 5.826 0 1.98-.013 3.938-.102 5.819-.047.988-.035 1.89-.103 2.895-.06.857-.093 1.759-.674 2.189" fill-rule="evenodd"/>
  </g>
  <g transform="translate(211.29 196.09)">
   <path d="m0 0c-.92-.487-.791-3.893-.858-5.095l.036-11.859c.137-1.32-.267-4.525.968-4.801 1.055 1.105.767 8.781.767 10.997 0 1.872.088 3.966-.005 5.811-.054 1.056-.096 3.06-.304 4.086-.207 1.017-.412.801-.604.861" fill-rule="evenodd"/>
  </g>
  <g transform="translate(220.83 230.69)">
   <path d="m0 0c-.5-.399-.527-1.334-.563-2.22-.133-3.236-.41-16.091.17-18.621.139-.605.113-.68.585-.883.894.564.822 3.874.816 5.122-.008 1.925.104 3.853.103 5.812 0 2.011-.109 3.975-.102 5.958.004 1.043.052 3.988-.696 4.835-.104-.001-.209-.001-.313-.003" fill-rule="evenodd"/>
  </g>
  <g transform="translate(232.78 110.25)">
   <path d="m0 0c-.387-.14-.226.09-.479-.411-.498-.98-.523-9.43-.523-10.498l.224-8.716c.054-.882.073-1.891.778-2.148.604.415.632 1.397.674 2.292.247 5.221.179 9.186.1 14.378-.014.92.181 4.536-.774 5.103" fill-rule="evenodd"/>
  </g>
  <g transform="translate(252.24 207.81)">
   <path d="m0 0c.271.174.338.229.477.72.067.238.106.55.146.862.449 3.522.313 9.109.167 12.683-.062 1.523.231 5.534-.778 6.355-.857-.308-.733-1.63-.838-2.647-.248-2.399-.249-12.73-.027-15.156.045-.49.074-1.171.17-1.738.116-.674.1-.895.683-1.079" fill-rule="evenodd"/>
  </g>
  <g transform="translate(215.5 186.56)">
   <path d="m0 0c-.738-.375-.76-1.465-.784-2.397l-.21-8.566c-.001-1.997.114-3.921.104-5.81-.006-1.191-.109-4.585.89-4.998.967.68.75 3.891.782 5.291l-.001 11.321c-.015 1.456.153 4.436-.781 5.159" fill-rule="evenodd"/>
  </g>
  <g transform="translate(263.81 59.694)">
   <path d="m0 0c0-2.07.334-4.518.596-6.43.208-1.519.434-5.083 1.48-5.386 1.181 1.054-.189 9.211-.191 11.089l.003 1.018c-.095 1.899-.081 5.533-.344 6.903-.126.66-.305 1.679-1.064 1.375-.429-.38-.48-7.176-.48-8.569" fill-rule="evenodd"/>
  </g>
  <g transform="translate(256.74 219.12)">
   <path d="m0 0c-.668-.474-.673-1.053-.755-2.118l-.234-8.139c0-1.932.107-3.61.102-5.521-.002-.913.094-3.023.292-3.944.118-.552.082-.567.449-.884 1.208.34.838 3.447.958 4.78.153 1.693.118 9.343-.01 11.119-.109 1.513.241 4.012-.802 4.707" fill-rule="evenodd"/>
  </g>
  <g transform="translate(194.01 7.6719)">
   <path d="m0 0c.469.197.067-.186.427.338.705 1.024.563 14.093.445 15.373-.089.976.152 4.505-.863 4.469-.841-.031-.83-3.841-.865-4.615-.09-1.942-.065-11.668.149-13.602.087-.784.071-1.687.707-1.963" fill-rule="evenodd"/>
  </g>
  <g transform="translate(259.52 133.33)">
   <path d="M 0,0 C 0,-1.616 1.73,-2.922 3.278,-2.833 7.506,-2.59 7.106,3.638 3.036,3.498 1.149,3.434 0,2.047 0,0" fill-rule="evenodd"/>
  </g>
  <g transform="translate(237.03 178.8)">
   <path d="m0 0c.264-1.447 1.893-2.779 3.681-2.438 1.597.306 2.894 1.799 2.518 3.734-.758 3.896-6.988 3.053-6.199-1.296" fill-rule="evenodd"/>
  </g>
  <g transform="translate(179.67 192.3)">
   <path d="m0 0c.637-4.143 6.589-3.453 6.258.731-.332 4.193-6.872 3.264-6.258-.731" fill-rule="evenodd"/>
  </g>
  <g transform="translate(235.56 207.41)">
   <path d="m0 0c1.019 4.16-4.956 5.429-6.071 1.684-.586-1.967.787-3.606 2.189-3.94 1.693-.403 3.452.496 3.882 2.256" fill-rule="evenodd"/>
  </g>
  <g transform="translate(169.25 30.698)">
   <path d="m0 0c-1.271-.062-1.396-1.793-1.752-3.575-.478-2.402-1.807-13.25-.622-14.196 1.11-.888 1.198 2.917 1.266 3.631.148 1.565.301 3.215.449 4.79.156 1.67.327 3.059.52 4.739.172 1.493.648 3.404.139 4.611" fill-rule="evenodd"/>
  </g>
  <g transform="translate(202.78 16.701)">
   <path d="m0 0c.004-1.875.187-6.769.886-8.497.387-.96 1.206-1.105 1.206.218l.019 1.746c-.253 3.847-.175 7.262-.23 11.18-.028 1.272.097 3.379-.78 3.908-.682-.177-.671-.576-.786-1.414-.211-1.555-.316-5.45-.315-7.141" fill-rule="evenodd"/>
  </g>
  <g transform="translate(245.27 54.013)">
   <path d="m0 0c-.644-.319-.62-1.167-.618-2.016.002-.855-.04-1.732.046-2.578.173-1.683.335-2.954.586-4.54l1.072-6.625c.134-.804.2-1.455.946-1.56 1.439 1.159-.56 10.756-.961 13.451-.175 1.171-.217 3.544-1.071 3.868" fill-rule="evenodd"/>
  </g>
  <g transform="translate(157.8 10.409)">
   <path d="m0 0c.851.213.831.837.958 1.736l.763 6.637c.196 1.672.946 7.783-.07 8.766-.821-.027-.851-.781-.964-1.568-.459-3.197-1.914-13.864-.687-15.571" fill-rule="evenodd"/>
  </g>
  <g transform="translate(258.33 66.289)">
   <path d="m0 0c-.938-.669-.612-2.966-.511-4.163.271-3.174.188-5.478.594-9.036.101-.89.208-3.588 1.096-3.633 1.004-.051.625 3.37.559 4.137-.259 2.987-.203 5.747-.588 8.973-.139 1.164-.228 3.395-1.15 3.722" fill-rule="evenodd"/>
  </g>
  <g transform="translate(234.81 153.36)">
   <path d="m0 0c1.052.292.799 2.345.922 3.537.157 1.525.089 9.109-.139 10.694-.085.588-.125.976-.373 1.208-.202.014-.405.029-.607.041-.621-.674-.547-2.359-.599-3.334-.14-2.585-.156-6.103.002-8.68.065-1.052-.066-2.911.794-3.466" fill-rule="evenodd"/>
  </g>
  <g transform="translate(248.31 113.86)">
   <path d="m0 0c1.052.292.799 2.345.922 3.537.157 1.525.089 9.109-.139 10.694-.085.588-.125.976-.373 1.208-.202.014-.405.029-.607.041-.621-.674-.547-2.359-.599-3.334-.14-2.585-.156-6.103.002-8.68.065-1.052-.066-2.911.794-3.466" fill-rule="evenodd"/>
  </g>
  <g transform="translate(231.62 229.06)">
   <path d="m0 0c-.667-.266-.685-.756-.758-1.605-.274-3.184-.312-9.495.014-12.639.08-.771.121-1.248.744-1.452.908.464.74 2.358.79 3.627.097 2.493.165 8.186-.115 10.586-.085.737-.099 1.192-.675 1.483" fill-rule="evenodd"/>
  </g>
  <g transform="translate(242.28 208.93)">
   <path d="m0 0c-.968-.456-.86-2.447-.897-3.59v-8.582c.035-.935-.05-3.098.897-3.528.352.208.366.155.536.676.389 1.194.346 5.956.346 7.216 0 1.538.274 7.058-.882 7.808" fill-rule="evenodd"/>
  </g>
  <g transform="translate(246.72 213.6)">
   <path d="m0 0c.617.288.659.74.73 1.501l.24 6.248c0 1.47-.11 2.851-.104 4.214.005 1.151.035 3.122-.72 3.685-.75-.148-.752-.646-.831-1.392-.319-3.068-.201-7.61-.124-10.722.029-1.147-.138-3.018.809-3.534" fill-rule="evenodd"/>
  </g>
  <g transform="translate(215.99 8.5674)">
   <path d="m0 0c.104-.729.034-2.989.835-3.056.894-.075.828 2.279.895 3.055.163 1.876.161 5.964.006 7.845-.069.842.001 3.109-.903 3.051-.883-.057-.75-2.402-.817-3.1-.118-1.223-.177-6.682-.016-7.795" fill-rule="evenodd"/>
  </g>
  <g transform="translate(177.4 11.022)">
   <path d="m0 0c1.277.337 1.06 4.015 1.095 5.683.041 1.947.421 4.325.421 6.241.001 3.178-1.048 2.408-1.609-.26-.256-1.213-.589-3.179-.589-4.388 0-1.741-.268-6.134.682-7.276" fill-rule="evenodd"/>
  </g>
  <g transform="translate(271.94 42.568)">
   <path d="m0 0c1.113.389.733 2.109.665 3.188-.162 2.567-.582 4.696-.852 7.123-.102.907.094 3.157-.902 3.018-1.678-.234-.204-8.755.081-10.466.188-1.126.149-2.372 1.008-2.863" fill-rule="evenodd"/>
  </g>
  <g transform="translate(186.31 7.3926)">
   <path d="m0 0c1.126-.077 1.206.734 1.422 1.642.219.916.307 1.694.418 2.677l.395 6.877c0 1.037-1.488 2.033-1.959-3.195-.094-1.041-.209-2.187-.238-3.191-.048-1.69-.461-3.241-.038-4.81" fill-rule="evenodd"/>
  </g>
  <g transform="translate(222.47 22.801)">
   <path d="m0 0c-.523-.202-.581-.35-.703-1.052-.289-1.667-.155-6.633.044-8.285.133-1.112.103-2.253 1.133-2.423.862 1.008.499 4.486.457 5.952-.044 1.552.166 5.308-.931 5.808" fill-rule="evenodd"/>
  </g>
  <g transform="translate(226.6 229.38)">
   <path d="m0 0c-1.243-.025-1.146-.948-1.199-2.073-.098-2.019-.407-7.429.494-8.738l.676.031c.909 1.592.862 8.891.029 10.78" fill-rule="evenodd"/>
  </g>
  <g transform="translate(190.14 209.88)">
   <path d="m0 0c-.746-1.253-.583-3.969-.583-5.832 0-.993-.185-5.808 1.196-4.939.938.588.69 7.122.56 8.687-.089 1.072.013 2.042-1.173 2.084" fill-rule="evenodd"/>
  </g>
  <g transform="translate(179.63 173.72)">
   <path d="m0 0c.088-.711.032-2.306.866-2.345.889-.042.792 1.619.856 2.341.149 1.683.138 4.572-.01 6.255-.079.895-.037 2.258-.851 2.25-.768-.007-.769-1.658-.83-2.302-.105-1.107-.161-5.152-.031-6.199" fill-rule="evenodd"/>
  </g>
  <g transform="translate(201.09 229.66)">
   <path d="m0 0c-.16-.796-.145-1.773-.187-2.382-.092-1.361-.056-2.973.06-4.213.076-.805-.014-3.545 1.056-3.047 1.097.51.772 7.735.609 9.245-.02.196-.051.367-.085.52-.487-.04-.971-.081-1.453-.123" fill-rule="evenodd"/>
  </g>
  <g transform="translate(196.54 218.29)">
   <path d="m0 0c.877 1.193.719 6.791.547 8.732-.101 1.137.031 2.086-1.071 2.146-.955-.881-.738-6.925-.584-8.714.089-1.057-.061-2.079 1.108-2.164" fill-rule="evenodd"/>
  </g>
  <g transform="translate(206.35 229.13)">
   <path d="m0 0c-.859-.367-.817-1.447-.848-2.409-.032-1.034-.106-1.918-.106-3.049 0-1.027-.115-5.25.862-5.437 1.466-.279.98 7.309.915 8.631-.051 1.047 0 1.943-.823 2.264" fill-rule="evenodd"/>
  </g>
  <g transform="translate(214.51 212.49)">
   <path d="m0 0c.001-1.038-.065-3.722.85-4.248.969.288.874 1.418.936 2.498.141 2.437.103 3.705-.01 6.105-.047.997.028 2.151-.926 2.271-1.047-.147-.85-5.585-.85-6.626" fill-rule="evenodd"/>
  </g>
  <g transform="translate(187.19 219.45)">
   <path d="m0 0c.813.462.78 1.304.83 2.348.059 1.227.224 4.298-.012 6.465-.569-.073-1.13-.145-1.684-.217-.121-2.035-.059-5.165.014-6.278.072-1.062-.024-1.941.852-2.318" fill-rule="evenodd"/>
  </g>
  <g transform="translate(198.8 19.065)">
   <path d="m0 0c-.932-.239-.878-1.356-.936-2.366-.095-1.671-.098-7.176 1.248-7.98 1.362-.813.653 3.754.552 4.944-.135 1.579.092 4.812-.864 5.402" fill-rule="evenodd"/>
  </g>
  <g transform="translate(197.97 180.68)">
   <path d="m0 0c.271-2.857 4.78-2.596 4.474.411-.299 2.933-4.745 2.456-4.474-.411" fill-rule="evenodd"/>
  </g>
  <g transform="translate(240.37 98.039)">
   <path d="m0 0c.406-3.063 4.749-2.371 4.471.43-.121 1.213-1.163 2.123-2.425 1.997-1.133-.114-2.203-1.233-2.046-2.427" fill-rule="evenodd"/>
  </g>
  <g transform="translate(228.82 19.605)">
   <path d="m0 0c1.107.044 1.018.759 1.132 1.811.16 1.464.428 6.698-.556 7.712-.996-.017-1.009-.709-1.07-1.682-.124-1.933-.404-6.571.494-7.841" fill-rule="evenodd"/>
  </g>
  <g transform="translate(240.05 32.969)">
   <path d="m0 0c.021-1.078.001-2.376 1.199-2.342.863 1.015.661 5.988.405 7.168-.141.651-.195.732-.741.86-1.201-.085-.863-4.489-.863-5.686" fill-rule="evenodd"/>
  </g>
  <g transform="translate(251.88 48.655)">
   <path d="m0 0c.001-1.414.612-4.741 1.124-5.763.563-.073.847.076 1.269.23.04 1.636-.578 6.53-1.033 6.977-.471.464-1.36.266-1.36-.573z" fill-rule="evenodd"/>
  </g>
  <g transform="translate(181.44 10.601)">
   <path d="m0 0c.071-.576.09-1.519.217-2.038.136-.552 1.771-2.672 1.663 3.491-.01.519-.101 1.746-.224 2.152-.178.59-.817 1.027-1.286.327-.271-.407-.463-3.194-.37-3.932" fill-rule="evenodd"/>
  </g>
  <g transform="translate(162.38 15.685)">
   <path d="m0 0c0-.659.187-3.079 1.366-2.122.764.62.612 6.183-.076 6.647-1.573 1.064-1.291-3.713-1.29-4.525" fill-rule="evenodd"/>
  </g>
  <g transform="translate(229.92 31.917)">
   <path d="m0 0c.694 1.233.574 5.643-1.054 4.551-.629-.422-.486-2-.381-2.853.141-1.132.146-1.929 1.435-1.698" fill-rule="evenodd"/>
  </g>
  <g transform="translate(251.78 55.191)">
   <path d="m0 0c.721 2.229-2.219 2.771-2.812 1.227-.837-2.183 2.261-2.929 2.812-1.227" fill-rule="evenodd"/>
  </g>
  <g transform="translate(258.79 116.05)">
   <path d="m0 0c.259-1.871 3.223-1.733 3.032.423-.173 1.953-3.321 1.667-3.032-.423" fill-rule="evenodd"/>
  </g>
  <g transform="translate(262.13 83.515)">
   <path d="m0 0c.788 2.015-2.326 2.831-2.859 1.087-.642-2.096 2.146-2.906 2.859-1.087" fill-rule="evenodd"/>
  </g>
  <g transform="translate(169.82 74.8)">
   <path d="m0 0c.537-1.67 3.388-1.15 2.886 1.003-.418 1.799-3.587 1.171-2.886-1.003" fill-rule="evenodd"/>
  </g>
  <g transform="translate(186.79 180.25)">
   <path d="m0 0c.142-1.913 3.119-1.893 3.063.128-.058 2.128-3.209 1.839-3.063-.128" fill-rule="evenodd"/>
  </g>
  <g transform="translate(186.21 54.61)">
   <path d="m0 0c-.092-2.106 2.96-2.125 3.028-.141.069 1.961-2.938 2.211-3.028.141" fill-rule="evenodd"/>
  </g>
  <g transform="translate(239.02 78.431)">
   <path d="m0 0c.292-1.806 3.381-1.484 2.99.661-.336 1.839-3.336 1.468-2.99-.661" fill-rule="evenodd"/>
  </g>
  <g transform="translate(173.7 124.18)">
   <path d="m0 0c.302-1.734 3.259-1.615 3.017.562-.211 1.887-3.387 1.567-3.017-.562" fill-rule="evenodd"/>
  </g>
  <g transform="translate(252.41 157.59)">
   <path d="m0 0c.189-1.838 3.184-1.894 3.038.286-.136 2.047-3.239 1.652-3.038-.286" fill-rule="evenodd"/>
  </g>
  <g transform="translate(186.24 98.475)">
   <path d="m0 0c.319-1.687 3.334-1.437 2.967.698-.323 1.882-3.387 1.51-2.967-.698" fill-rule="evenodd"/>
  </g>
  <g transform="translate(250.52 134.52)">
   <path d="m0 0c-.058-2.006 3.013-2.071 3.105-.149.039.805-.632 1.585-1.533 1.587-.828.003-1.551-.716-1.572-1.438" fill-rule="evenodd"/>
  </g>
  <g transform="translate(190.97 25.27)">
   <path d="m0 0c.592 1.911-2.469 2.658-2.902.841-.483-2.023 2.274-2.871 2.902-.841" fill-rule="evenodd"/>
  </g>
  <g transform="translate(248.75 206.98)">
   <path d="m0 0c-1.839-.001-1.77-3.171.267-3.021 1.833.136 1.815 3.023-.121 3.021z" fill-rule="evenodd"/>
  </g>
  <g transform="translate(211.21 31.329)">
   <path d="m0 0c.675 1.359.524 5.045-1.039 3.929-.467-.332-.512-1.881-.438-2.517.139-1.202.198-1.684 1.477-1.412" fill-rule="evenodd"/>
  </g>
  <g transform="translate(241.28 189.51)">
   <path d="m0 0c0-2.577 1.882-2.617 1.882-.436v1.017c0 2.145-1.882 2.135-1.882-.435z" fill-rule="evenodd"/>
  </g>
  <g transform="translate(257.16 224.1)">
   <path d="m0 0c-1.337.157-1.359-.154-1.413-1.439-.035-.848-.086-2.105.514-2.389 1.759-.834 1.469 2.916.899 3.828" fill-rule="evenodd"/>
  </g>
  <g transform="translate(199.96 23.527)">
   <path d="m0 0c-.001 2.634-1.894 2.716-1.893.001 0-.822.047-1.992 1.02-1.917.832.065.873 1.187.873 1.916" fill-rule="evenodd"/>
  </g>
  <g transform="translate(270.49 114.49)">
   <path d="m0 0c-.534-1.026-.482-2.403.077-3.336 1.474-.236 1.439.463 1.41 1.85-.025 1.294-.162 1.707-1.487 1.486" fill-rule="evenodd"/>
  </g>
  <g transform="translate(174.21 47.348)">
   <path d="m0 0c0-.756.099-1.386.932-1.364 1.043.026.847 1.299.846 2.381 0 1.128-1.778 2.537-1.778-1.017" fill-rule="evenodd"/>
  </g>
  <g transform="translate(193.54 33.87)">
   <path d="m0 0c-1.329-3.964 2.143-4.541 1.525-.865-.172 1.026-.544 1.071-1.525.865" fill-rule="evenodd"/>
  </g>
  <g transform="translate(256.97 69.851)">
   <path d="m0 0c.748-.164 1.148-.157 1.441.514 1.695 3.886-2.628 3.222-1.441-.514" fill-rule="evenodd"/>
  </g>
  <g transform="translate(159.45 29.863)">
   <path d="m0 0c.987.397 1.49 3.045.148 3.054-1.494.009-1.259-2.312-.855-3.008z" fill-rule="evenodd"/>
  </g>
  <g transform="translate(220.56 160.47)">
   <path d="m0 0c1.271-.267 1.772.206 1.571 1.716-.08.599-.032.526-.389.778-1.684 1.187-1.662-1.499-1.182-2.494" fill-rule="evenodd"/>
  </g>
  <g transform="translate(216.92 25.104)">
   <path d="m0 0c-.922-1.116-.714-3.29.706-2.853.723.223 1.335 3.053-.706 2.853" fill-rule="evenodd"/>
  </g>
  <g transform="translate(211.68 125.8)">
   <path d="m0 0c.245.98.151 3.098-1.327 2.246-.756-.435-.377-2.12-.071-2.685.765-.057.992.056 1.398.439" fill-rule="evenodd"/>
  </g>
  <g transform="translate(209.69 66.419)">
   <path d="m0 0c-.204-.896-.641-2.904.824-2.627 1.178.223.839 1.731.635 2.632-.728.19-.739.201-1.459-.005" fill-rule="evenodd"/>
  </g>
  <g transform="translate(233.29 82.578)">
   <path d="m0 0c.825 4.478-3.028 2.518-1.36-.215.592-.066.882.11 1.36.215" fill-rule="evenodd"/>
  </g>
  <g transform="translate(216.44 189.81)">
   <path d="m0 0c.134.45.235 1.224.116 1.817-.168.847-.509.773-1.458.644-.323-.536-.483-1.279-.268-2.105.272-1.043.819-.559 1.61-.356" fill-rule="evenodd"/>
  </g>
  <g transform="translate(242.04 131.18)">
   <path d="m0 0c.134.45.235 1.224.116 1.817-.168.847-.509.773-1.458.644-.323-.536-.483-1.279-.268-2.105.272-1.043.819-.559 1.61-.356" fill-rule="evenodd"/>
  </g>
  <g transform="translate(215.69 118.39)">
   <path d="m0 0c-1.952 1.218-1.934-2.217-1.122-2.537 1.404-.555 1.651 1.558 1.122 2.537" fill-rule="evenodd"/>
  </g>
  <g transform="translate(233.07 116.01)">
   <path d="m0 0c-1.521.001-1.097-1.85-.794-2.722.855-.195 1.594.007 1.595 1.161 0 .765.073 1.561-.801 1.561" fill-rule="evenodd"/>
  </g>
  <g transform="translate(207.16 212.56)">
   <path d="m0 0c.311.458.386 1.02.331 1.655-.148 1.722-2.774 1.578-1.605-1.654z" fill-rule="evenodd"/>
  </g>
  <g transform="translate(208.26 97.158)">
   <path d="m0 0c-2.277.579-1.563-2.278-1.269-2.554.399-.374 1.366-.044 1.518.558.179.707-.015 1.549-.249 1.996" fill-rule="evenodd"/>
  </g>
  <g transform="translate(220.75 41.272)">
   <path d="m0 0c.243.531.53 1.924-.074 2.398-1.111.871-2.109-.411-1.243-2.48z" fill-rule="evenodd"/>
  </g>
  <g transform="translate(220.51 204.28)">
   <path d="m0 0c1.207-.493 1.585-.093 1.631 1.117.047 1.23-.399 1.477-1.615 1.469-.283-1.099-.422-1.437-.016-2.586" fill-rule="evenodd"/>
  </g>
  <g transform="translate(212.23 201.8)">
   <path d="m0 0c-1.44.18-1.654.054-1.604-1.5.05-1.534 1.145-1.527 1.684-.708.275.554.07 1.718-.08 2.208" fill-rule="evenodd"/>
  </g>
  <g transform="translate(219.97 74.835)">
   <path d="m0 0c-.351-.554-.679-2.496.223-2.765 1.509-.449 1.255 1.229 1.212 2.24-.373.321-.68.532-1.435.525" fill-rule="evenodd"/>
  </g>
  <g transform="translate(215.16 222.16)">
   <path d="m0 0c.322-.083.892-.018 1.171.253.126.121 1.183 2.743-1.249 2.413-.382-.648-.59-2.044.078-2.666" fill-rule="evenodd"/>
  </g>
  <g transform="translate(201.49 217.65)">
   <path d="m0 0c-.304-.607-.474-1.125-.329-1.896.177-.946.643-.872 1.56-.78.356.836.362 1.426.108 2.463z" fill-rule="evenodd"/>
  </g>
  <g transform="translate(213.91 87.587)">
   <path d="m0 0c-.351-.789-.364-1.802.015-2.606.668-.097.992.072 1.419.252.199.87.172 1.668-.134 2.356-.751.178-.538.184-1.3-.002" fill-rule="evenodd"/>
  </g>
  <g transform="translate(244.69 56.503)">
   <path d="m0 0c1.093-.144 1.347-.121 1.491.809.076.493.037 1.387-.336 1.67-1.38 1.05-1.848-1.243-1.155-2.479" fill-rule="evenodd"/>
  </g>
  <g transform="translate(262.13 178.5)">
   <path d="m0 0c.721 1.29-1.319 2.267-1.955 1.054-.741-1.414 1.241-2.332 1.955-1.054" fill-rule="evenodd"/>
  </g>
  <g transform="translate(186.04 216.12)">
   <path d="m0 0c.121-1.222 2.222-1.473 2.199.142-.023 1.622-2.34 1.286-2.199-.142" fill-rule="evenodd"/>
  </g>
  <g transform="translate(184.25 76.106)">
   <path d="m0 0c0-1.359 2.239-1.376 2.198.137-.041 1.463-2.198 1.342-2.198.009z" fill-rule="evenodd"/>
  </g>
  <g transform="translate(174.31 144.95)">
   <path d="m0 0c.227-1.331 2.425-1.179 2.171.422-.09.57-.609 1.002-1.314.863-.471-.093-.959-.693-.857-1.285" fill-rule="evenodd"/>
  </g>
  <g transform="translate(162.49 23.237)">
   <path d="m0 0c.163-1.396 2.026-1.564 1.87.417-.118 1.508-2.085 1.432-1.87-.417" fill-rule="evenodd"/>
  </g>
  <g transform="translate(237.43 43.717)">
   <path d="m0 0c.002-1.374 2.331-1.593 2.205.147-.101 1.424-2.207 1.121-2.205-.147" fill-rule="evenodd"/>
  </g>
  <g transform="translate(182.69 114.16)">
   <path d="m0 0c.213-1.178 2.404-1.177 2.182.416-.201 1.438-2.453 1.091-2.182-.416" fill-rule="evenodd"/>
  </g>
  <g transform="translate(248.03 217.14)">
   <path d="m0 0c.197-1.303 2.431-1.272 2.169.415-.202 1.291-2.393 1.059-2.169-.415" fill-rule="evenodd"/>
  </g>
  <g transform="translate(199.24 210.9)">
   <path d="m0 0c.558 1.39-1.604 2.068-2.06.752-.461-1.332 1.5-2.148 2.06-.752" fill-rule="evenodd"/>
  </g>
  <g transform="translate(84.329 222.47)">
   <path d="m0 0c-1.049.103-1.058-2.581-1.185-4.346-.224-3.093-.507-7.892-.544-10.969-.011-.938-.5-8.511.824-7.251.629.599.875 6.469.932 7.601.093 1.843.194 3.64.246 5.528.056 1.991.464 7.571-.273 9.437" fill-rule="evenodd"/>
  </g>
  <g transform="translate(59.647 236.4)">
   <path d="m0 0-.029-.255c-.072-.648-.082-1.132-.117-1.873-.152-3.305-.212-18.939-.111-21.766.074-2.027-.042-6.692.613-7.427.331.276.141-.236.352.671.41 1.769.306 13.723.306 15.578 0 4.077.175 11.548-.324 15.146-.231-.024-.461-.048-.69-.074" fill-rule="evenodd"/>
  </g>
  <g transform="translate(95.636 182.84)">
   <path d="m0 0c-.36-.399-.379-1.334-.406-2.22-.095-3.236-.295-16.091.124-18.621.099-.605.08-.68.421-.883.643.564.591 3.874.587 5.122-.005 1.925.075 3.853.075 5.812 0 2.011-.079 3.975-.074 5.958.003 1.043.037 3.988-.501 4.835-.075-.001-.15-.001-.226-.003" fill-rule="evenodd"/>
  </g>
  <g transform="translate(99.793 181.53)">
   <path d="m0 0c-.896-.025-.825-.948-.864-2.073-.07-2.019-.293-7.429.356-8.738l.487.031c.655 1.592.622 8.891.021 10.78" fill-rule="evenodd"/>
  </g>
  <g transform="translate(59.915 316)">
   <path d="m0 0c-.538-1.253-.42-3.969-.42-5.832 0-.993-.133-5.808.861-4.939.676.588.497 7.122.404 8.687-.064 1.072.009 2.042-.845 2.084" fill-rule="evenodd"/>
  </g>
  <g transform="translate(72.316 218.58)">
   <path d="m0 0c-.538-1.253-.42-3.969-.42-5.832 0-.993-.133-5.808.861-4.939.676.588.497 7.122.404 8.687-.064 1.072.009 2.042-.845 2.084" fill-rule="evenodd"/>
  </g>
  <g transform="translate(89.779 337.29)">
   <path d="m0 0c-.115-.796-.104-1.773-.134-2.382-.067-1.361-.041-2.973.043-4.213.054-.805-.01-3.545.76-3.047.791.51.557 7.735.439 9.245-.015.196-.036.367-.061.52-.351-.04-.699-.081-1.047-.123" fill-rule="evenodd"/>
  </g>
  <g transform="translate(91.568 318.26)">
   <path d="m0 0c-.619-.367-.589-1.447-.611-2.409-.023-1.034-.076-1.918-.076-3.049 0-1.027-.084-5.25.621-5.437 1.055-.279.705 7.309.659 8.631-.037 1.047 0 1.943-.593 2.264" fill-rule="evenodd"/>
  </g>
  <g transform="translate(91.083 164.64)">
   <path d="m0 0c.001-1.038-.047-3.722.612-4.248.699.288.63 1.418.675 2.498.101 2.437.074 3.705-.008 6.105-.033.997.02 2.151-.667 2.271-.755-.147-.612-5.585-.612-6.626" fill-rule="evenodd"/>
  </g>
  <g transform="translate(71.401 322.04)">
   <path d="m0 0c.586.462.562 1.304.598 2.348.042 1.227.161 4.298-.008 6.465-.41-.073-.815-.145-1.214-.217-.087-2.035-.042-5.165.011-6.278.051-1.062-.018-1.941.613-2.318" fill-rule="evenodd"/>
  </g>
  <g transform="translate(85.79 307.15)">
   <path d="m0 0c.224.458.278 1.02.239 1.655-.107 1.722-1.999 1.578-1.157-1.654z" fill-rule="evenodd"/>
  </g>
  <g transform="translate(95.406 156.43)">
   <path d="m0 0c.87-.493 1.142-.093 1.175 1.117.034 1.23-.287 1.477-1.163 1.469-.203-1.099-.304-1.437-.012-2.586" fill-rule="evenodd"/>
  </g>
  <g transform="translate(96.246 306.38)">
   <path d="m0 0c-1.44.18-1.654.054-1.604-1.5.05-1.534 1.145-1.527 1.684-.708.275.554.07 1.718-.08 2.208" fill-rule="evenodd"/>
  </g>
  <g transform="translate(63.864 307.38)">
   <path d="m0 0c-.218-.607-.341-1.125-.237-1.896.127-.946.464-.872 1.124-.78.257.836.261 1.426.077 2.463z" fill-rule="evenodd"/>
  </g>
  <g transform="translate(61.731 329.4)">
   <path d="m0 0c-.218-.607-.341-1.125-.237-1.896.127-.946.464-.872 1.124-.78.257.836.261 1.426.077 2.463z" fill-rule="evenodd"/>
  </g>
  <g transform="translate(70.575 318.71)">
   <path d="m0 0c.087-1.222 1.6-1.473 1.584.142-.017 1.622-1.686 1.286-1.584-.142" fill-rule="evenodd"/>
  </g>
  <g transform="translate(65.978 233.75)">
   <path d="m0 0c.401 1.39-1.156 2.068-1.484.752-.332-1.332 1.081-2.148 1.484-.752" fill-rule="evenodd"/>
  </g>
  <g transform="translate(84.816 325.66)">
   <path d="m0 0c.224.83.278 1.848.239 3-.107 3.121-1.999 2.861-1.157-2.998z" fill-rule="evenodd"/>
  </g>
  <g transform="translate(80.731 333.06)">
   <path d="m0 0c-.218-.607-.341-1.125-.237-1.896.127-.946.464-.872 1.124-.78.257.836.261 1.426.077 2.463z" fill-rule="evenodd"/>
  </g>
  <g transform="translate(79.112 322.65)">
   <path d="m0 0c.401 2.519-1.156 3.749-1.484 1.363-.332-2.415 1.081-3.893 1.484-1.363" fill-rule="evenodd"/>
  </g>
  <g transform="translate(67.858 195.09)">
   <path d="m0 0c.224.458.278 1.02.239 1.655-.107 1.722-1.999 1.578-1.157-1.654z" fill-rule="evenodd"/>
  </g>
  <g transform="translate(63.774 200.18)">
   <path d="m0 0c-.218-.607-.341-1.125-.237-1.896.127-.946.464-.872 1.124-.78.257.836.261 1.426.077 2.463z" fill-rule="evenodd"/>
  </g>
  <g transform="translate(62.155 193.42)">
   <path d="m0 0c.401 1.39-1.156 2.068-1.484.752-.332-1.332 1.081-2.148 1.484-.752" fill-rule="evenodd"/>
  </g>
  <g transform="translate(385.69 158.02)">
   <path d="m0 0c.225.795.278 1.769.239 2.872-.107 2.987-1.999 2.738-1.157-2.87z" fill-rule="evenodd"/>
  </g>
  <g transform="translate(381.61 166.84)">
   <path d="m0 0c-.219-1.054-.342-1.952-.237-3.291.127-1.641.464-1.512 1.124-1.353.256 1.452.26 2.475.077 4.275z" fill-rule="evenodd"/>
  </g>
  <g transform="translate(379.99 155.12)">
   <path d="m0 0c.4 2.412-1.156 3.59-1.484 1.306-.332-2.312 1.08-3.727 1.484-1.306" fill-rule="evenodd"/>
  </g>
  <g transform="translate(409.36 157.17)">
   <path d="m0 0c.225 1.909.278 4.247.239 6.897-.107 7.174-1.999 6.576-1.157-6.892z" fill-rule="evenodd"/>
  </g>
  <g transform="translate(405.27 172.68)">
   <path d="m0 0c-.219-1.054-.342-1.952-.237-3.291.127-1.641.464-1.512 1.124-1.353.256 1.452.26 2.475.077 4.275z" fill-rule="evenodd"/>
  </g>
  <g transform="translate(403.66 160.96)">
   <path d="m0 0c.4 2.412-1.156 3.59-1.484 1.306-.332-2.312 1.08-3.727 1.484-1.306" fill-rule="evenodd"/>
  </g>
  <g transform="translate(227.55 112.03)">
   <path d="m0 0c-1.53-.002-1.312-2.27.12-2.163 1.234.093 1.538 2.165-.12 2.163" fill-rule="evenodd"/>
  </g>
  <g transform="translate(238.9 153.96)">
   <path d="m0 0c.188-1.225 2.459-1.22 2.169.41-.254 1.429-2.381.972-2.169-.41" fill-rule="evenodd"/>
  </g>
  <g transform="translate(248.21 190.42)">
   <path d="m0 0c.104-1.273 2.256-1.395 2.201.144-.057 1.604-2.307 1.164-2.201-.144" fill-rule="evenodd"/>
  </g>
  <g transform="translate(179.58 27.941)">
   <path d="m0 0c.676 1.115.204 2.25-1.168 2.321-.609-1.299-.873-2.717 1.168-2.321" fill-rule="evenodd"/>
  </g>
  <g transform="translate(269.67 61.582)">
   <path d="m0 0c.002-1.604 2.647-.276 1.224.666-.561.37-1.224.006-1.224-.666" fill-rule="evenodd"/>
  </g>
  <g transform="translate(166.25 43.571)">
   <path d="m0 0c0 .729-.822 1.039-1.312.622-.485-.414-.359-1.35.469-1.351.549 0 .842.168.843.729" fill-rule="evenodd"/>
  </g>
  <g transform="translate(196.8 189.67)">
   <path d="m0 0c.293-.155.694-.446 1.129-.14.264.186.451.671.225 1.083-.251.456-1.713.793-1.354-.943" fill-rule="evenodd"/>
  </g>
  <g transform="translate(174.17 171.81)">
   <path d="m0 0c1.657.421 1.068 2.02-.544 1.388-.156-1.103-.1-.89.544-1.388" fill-rule="evenodd"/>
  </g>
  <g transform="translate(207.28 17.137)">
   <path d="m0 0c0-1.244 2.163-.836 1.231.736l-.563.056c-.442.055-.668-.289-.668-.646z" fill-rule="evenodd"/>
  </g>
  <g transform="translate(164.29 225.44)">
   <path d="m0 0c.103 1.312 1.249 2.291 2.56 2.188s2.291-1.25 2.187-2.56c-1.472-18.265-8.485-94.186-20.006-216.85-4.333.34 13.791 199.02 15.259 217.22" fill-rule="evenodd"/>
  </g>
  <g transform="translate(265.73 225.07)">
   <path d="m0 0c-.103 1.311.877 2.457 2.188 2.56s2.458-.876 2.56-2.188c1.34-16.324 18.586-207.49 14.979-207.77-8.123 85.737-18.383 191.02-19.727 207.4" fill-rule="evenodd"/>
  </g>
  <g transform="translate(277.22 252.88)">
   <path d="m0 0c.079-.295.034-.225.311-.351.521-.237 3.435-.315 4.292-.43 1.316-.179 3.25-.159 4.977-.407.38-.055.905-.086 1.204-.119.467-.049.79-.085 1.212-.11.801-.049 1.655-.195 2.456-.284 1.582-.175 3.141-.429 4.696-.688 3.284-.546 8.613-1.673 11.582-3.152.375-.188.584-.335.912-.506.593-.308 1.148-.55 1.74-.904.316-.19.596-.262.906-.417 1.63-.814.982.788-1.576 2.297-1.356.8-1.595 1.032-3.16 1.657-2.259.9-4.824 1.667-7.44 2.194-4.662.942-14.398 2.376-19.925 1.773-.712-.078-1.834-.072-2.187-.553" fill-rule="evenodd"/>
  </g>
  <g transform="translate(277.97 262.98)">
   <path d="m0 0c.147-.553.819-.553 1.595-.767 1.752-.482 12.739-1.776 14.988-2.108 6.132-.902 8.587-1.22 14.25-2.847.427-.123 2.416-.828 2.416-.134 0 .662-2.215 1.49-2.875 1.754-3.927 1.576-10.864 2.536-15.326 3.187-4.049.59-10.172 1.198-14.292 1.198-.393 0-.591-.057-.756-.283" fill-rule="evenodd"/>
  </g>
  <g transform="translate(286.76 258.26)">
   <path d="m0 0v-.378c.454-.105.55-.298 1.834-.527l4.183-.54c5.026-.73 9.141-1.167 13.949-2.77 1.242-.415 2.393-.806 3.553-1.264 1.126-.443 2.306-.81 3.427-1.295.807-.349 2.648-1.161 3.658-1.161.417 0 .397.341.218.583-1.114 1.518-12.926 5.836-15.44 6.205-2.753.404-9.664 1.43-12.36 1.43h-1.794c-.636 0-.774-.178-1.228-.283" fill-rule="evenodd"/>
  </g>
  <g transform="translate(214.22 299.73)">
   <path d="m0 0c.144-.539 1.08-.618 1.611-.655l4.394-.14c.738-.112 3.383-.139 4.345-.283l2.209-.153c1.596-.02 2.922-.09 4.538-.09 1.342 0 2.427.097 3.683.093.798-.001 2.674 0 3.117.662-.228.34-.254.347-.674.459-.953.253-2.223.293-3.202.293-.519.001-.607.076-1.035.098-.397.022-.832-.015-1.231-.004-.477.015-.524.096-1.032.102-.408.005-.831-.019-1.236-.007-.475.015-.522.095-1.032.102-.409.004-.826-.013-1.235-.008-.509.007-.557.088-1.032.101-.405.012-.83-.018-1.234-.006-.476.014-.523.095-1.033.102-1.931.022-9.111.44-9.921-.666" fill-rule="evenodd"/>
  </g>
  <g transform="translate(281 248.91)">
   <path d="m0 0c.64-.428.647-.499 1.795-.566l6.603-.576c1.599-.154 4.645-.516 6.237-.847.69-.144 2.746-.843 2.746.1 0 1.682-10.732 2.74-12.752 2.74-1.169 0-2.97.039-4.048-.298-.419-.131-.391-.194-.581-.553" fill-rule="evenodd"/>
  </g>
  <g transform="translate(377.82 277.62)">
   <path d="m0 0c0-.895 2.127-1.365 3.4-1.983l5.383-2.646c.722-.355 4.904-2.928 5.196-2.928.255 0 .261.045.473.095.267 1.148-1.596 2.213-2.389 2.808-1.003.753-4.053 2.477-5.235 2.981-1.599.683-4.429 2.051-6.167 2.051-.268 0-.661-.189-.661-.378" fill-rule="evenodd"/>
  </g>
  <g transform="translate(270.32 323.62)">
   <path d="m0 0c0-.895 2.127-1.365 3.4-1.983l5.383-2.646c.722-.355 4.904-2.928 5.196-2.928.255 0 .261.045.473.095.267 1.148-1.596 2.213-2.389 2.808-1.003.753-4.053 2.477-5.235 2.981-1.599.683-4.429 2.051-6.167 2.051-.268 0-.661-.189-.661-.378" fill-rule="evenodd"/>
  </g>
  <g transform="translate(261.63 232.09)">
   <path d="m0 0c-.269-1.152.144-1.146 1.377-1.362.721-.126 1.333-.26 2.063-.392 3.881-.703 6.244-.86 9.935-2.156 3.644-1.277 1.271 1.971-4.413 2.955-1.354.234-7.896 1.369-8.962.955" fill-rule="evenodd"/>
  </g>
  <g transform="translate(300.55 253.63)">
   <path d="m0 0c0-.721.896-.788 1.437-.925 1.509-.384 3.973-1.28 5.269-1.909.264-.128.499-.206.789-.346l1.604-.758c.311-.174.445-.27.787-.44.802-.396 2.484-1.573 3.338-1.573.221 0 .378.156.378.377 0 1.095-4.103 3.415-5.208 3.86-2.546 1.026-4.496 2.186-7.638 2.186-.289 0-.756-.178-.756-.472" fill-rule="evenodd"/>
  </g>
  <g transform="translate(322.18 266.38)">
   <path d="m0 0c-.066-.25.007-.077-.095-.283.137-.258.221-.386.514-.526 1.35-.643 3.598-1 5.411-2.523l.915-.785c.431-.319.983-1.102 1.284-1.55.342-.508.498-.877.72-1.547 1.122-3.399 2.411.093-.059 3.437-.794 1.075-1.623 1.691-2.756 2.437-1.137.747-4.49 2.057-5.934 1.34" fill-rule="evenodd"/>
  </g>
  <g transform="translate(270.89 232.85)">
   <path d="m0 0c0-.859 2.984-1.075 4.085-1.299.659-.134 4.201-.968 4.699-.968.314 0 .454.354.567.567-.955 1.805-6.154 2.362-8.312 2.362-.486 0-1.039-.186-1.039-.662" fill-rule="evenodd"/>
  </g>
  <g transform="translate(122.69 239.65)">
   <path d="m0 0c0-1.293 1.484.085 1.726.26 1.061.767 2.76 1.269 4.005 1.849.783.365 1.248.556 1.637 1.292-.569.85-1.597.401-2.822-.011-1.443-.487-4.546-1.639-4.546-3.39" fill-rule="evenodd"/>
  </g>
  <g transform="translate(375.64 270.26)">
   <path d="m0 0c0-.465 4.616-2.739 6.801-2.739.303 0 .171.03.272.199.677 1.124-1.588 1.707-2.795 2.189-.902.36-2.821 1.201-3.712 1.201-.348 0-.566-.484-.566-.85" fill-rule="evenodd"/>
  </g>
  <g transform="translate(381.69 272.05)">
   <path d="m0 0c0-.553.519-.735 1.15-1.117.871-.526 4.085-2.284 4.8-2.284.388 0 .581.695.661 1.039-.24.161-.325.303-.563.475-1 .717-4.627 2.642-5.482 2.642-.365 0-.566-.755-.566-.755" fill-rule="evenodd"/>
  </g>
  <g transform="translate(223.1 296.23)">
   <path d="m0 0v-.566c.706-.474.58-.478 2.183-.652 1.154-.125 3.843-.53 4.901.179v.661c-.628.421-.364.368-1.536.542-.366.055-.593.097-.921.118l-1.96.118c-.884.133-1.929.094-2.667-.4" fill-rule="evenodd"/>
  </g>
  <g transform="translate(306.22 243.62)">
   <path d="m0 0c0-.807 1.214-.997 2.722-1.906.545-.329 1.798-1.269 2.203-1.281.815-.022 1.247 1.031-1.203 2.659-.784.519-3.722 1.875-3.722.528" fill-rule="evenodd"/>
  </g>
  <g transform="translate(155.75 227.18)">
   <path d="m0 0c0-.358.402-.473.756-.473.556 0 3.1 1.252 3.833 1.551 1.223.5.843.895.795 1.472-2.095.488-5.384-1.662-5.384-2.55" fill-rule="evenodd"/>
  </g>
  <g transform="translate(365.63 266.57)">
   <path d="m0 0c0-.307.091-.429.266-.585.097-.087.135-.095.27-.201l1.315-.953c.328-.217 3.061-1.794 3.061-.716 0 .94-.064.768-1.077 1.459-.149.102-.146.106-.284.202-.193.135-.313.227-.494.341-.423.265-3.057 2.047-3.057.453" fill-rule="evenodd"/>
  </g>
  <g transform="translate(360.25 265.63)">
   <path d="m0 0c0-.676 1.628-1.62 2.116-1.945.425-.284 1.444-1.113 1.967-.73 1.687 1.235-3.208 3.431-3.516 3.431-.407 0-.567-.352-.567-.756" fill-rule="evenodd"/>
  </g>
  <g transform="translate(332.95 262.7)">
   <path d="m0 0c0-.747.946-4.156 1.983-4.156 1.314 0 .358 2.183.069 2.902-.511 1.269-.512 1.727-1.391 1.727-.318 0-.661-.167-.661-.473" fill-rule="evenodd"/>
  </g>
  <g transform="translate(368.75 269.31)">
   <path d="m0 0c0-.783.153-.775 1.34-1.494.539-.328 1.264-.774 1.872-.774.369 0 .703.661.599.98-.132.405-3.811 3.152-3.811 1.288" fill-rule="evenodd"/>
  </g>
  <g transform="translate(120.61 242.49)">
   <path d="m0 0c.794-1.186 1.588-.294 2.854.547.499.332.629.362.74.778.473 1.784-1.864.554-2.368.189-.162-.118-.207-.174-.365-.298-.44-.348-.694-.499-.861-1.216" fill-rule="evenodd"/>
  </g>
  <g transform="translate(118.25 245.7)">
   <path d="m0 0c0-.569.352-.473.944-.473.269 0 2.369 1.137 2.538 1.531.395.917-.428 1.585-2.217.51-.443-.266-1.265-.945-1.265-1.568" fill-rule="evenodd"/>
  </g>
  <g transform="translate(315.76 254.2)">
   <path d="m0 0c.498 0 .755.383.755.85 0 .764-3.644 2.57-3.468.671.066-.707 2.359-1.521 2.713-1.521" fill-rule="evenodd"/>
  </g>
  <g transform="translate(156.5 231.91)">
   <path d="m0 0c-.915 0-1.502-.286-2.145-.596-1.253-.605-.104-1.492.091-1.528.377-.07 1.729.398 2.114.554.441.177.553.323.56.814.007.439-.068.756-.62.756" fill-rule="evenodd"/>
  </g>
  <g transform="translate(282.32 258.73)">
   <path d="m0 0c0-.699-.038-1.11 1.505-1.331 2.422-.348 1.86 1.803-.561 1.803-.341 0-.944.037-.944-.472" fill-rule="evenodd"/>
  </g>
  <g transform="translate(267.68 232.57)">
   <path d="m0 0c.724 0 1.7-.173 1.7 1.039 0 .791-2.709 1.037-2.963-.07-.137-.603.557-.969 1.263-.969" fill-rule="evenodd"/>
  </g>
  <g transform="translate(274.67 250.04)">
   <path d="m0 0c0-1.157.387-1.134 2.172-1.134.766 0 .661.549.661.946 0 1.082-2.833.91-2.833.188" fill-rule="evenodd"/>
  </g>
  <g transform="translate(209.3 300.1)">
   <path d="m0 0c0-.731-.048-.524.095-1.134.787-.183 1.486-.124 2.266.095.319.663.285 1.511-.566 1.511h-.8c-.502-.022-.995-.117-.995-.472" fill-rule="evenodd"/>
  </g>
  <g transform="translate(299.13 253.16)">
   <path d="m0 0c.982 0 1.545 1.259-.079 1.715-2.215.623-2.37-1.715.079-1.715" fill-rule="evenodd"/>
  </g>
  <g transform="translate(317.55 267.61)">
   <path d="m0 0c0-.769-.071-.858.497-1.108 1.856-.814 2.646.596 1.365 1.27-.494.261-1.862.879-1.862-.162" fill-rule="evenodd"/>
  </g>
  <g transform="translate(232.35 294.72)">
   <path d="m0 0c1.073 0 1.416-.011 1.416 1.039 0 .768-2.147 1.013-2.331-.034-.115-.656.267-1.005.915-1.005" fill-rule="evenodd"/>
  </g>
  <g transform="translate(319.06 253.54)">
   <path d="m0 0v-.756l.55-.408c1.156-.785 1.622.391 1.622.597 0 .68-2.172 1.98-2.172.567" fill-rule="evenodd"/>
  </g>
  <g transform="translate(358.45 262.7)">
   <path d="m0 0c0-.967 2.172-1.479 2.172-.566 0 .833-.127 1.417-1.511 1.417-.307 0-.661-.584-.661-.851" fill-rule="evenodd"/>
  </g>
  <g transform="translate(337.77 258.26)">
   <path d="m0 0c1.223 0 1.238 2.267.095 2.267-.954 0-1.419-2.267-.095-2.267" fill-rule="evenodd"/>
  </g>
  <g transform="translate(130.53 244.19)">
   <path d="m0 0c0-1.419 2.172-1.259 2.172-.188 0 .594.093.944-.85.944-.479 0-1.322-.337-1.322-.756" fill-rule="evenodd"/>
  </g>
  <g transform="translate(379.14 272.62)">
   <path d="m0 0c.496 0 .567.87.567 1.417-.591.157-.47.473-1.511.473-.359 0-.77-.946-.542-1.288.201-.303.994-.602 1.486-.602" fill-rule="evenodd"/>
  </g>
  <g transform="translate(115.23 251.55)">
   <path d="m0 0c.611 0 1.79-.055 1.863.766.018.187-.099.444-.209.603-.414.604-1.373.36-1.876-.299-.299-.391-.323-1.07.222-1.07" fill-rule="evenodd"/>
  </g>
  <g transform="translate(274.01 252.21)">
   <path d="m0 0c1.029 0 1.039.229 1.039 1.134 0 .55-2.024 1.107-2.117-.325-.036-.549.447-.809 1.078-.809" fill-rule="evenodd"/>
  </g>
  <g transform="translate(258.23 231.81)">
   <path d="m0 0c0-1.11 2.078-1.164 2.078-.094 0 .605.007.945-1.134.945-.618 0-.944-.24-.944-.851" fill-rule="evenodd"/>
  </g>
  <g transform="translate(375.93 277.53)">
   <path d="m0 0c.663 0 1.398 1.89-.851 1.89-.316 0-.396-.286-.413-.453-.008-.089-.037-.684-.024-.739.097-.385.804-.698 1.288-.698" fill-rule="evenodd"/>
  </g>
  <g transform="translate(116.64 249.66)">
   <path d="m0 0c0-1.389 2.314-.915 2.12.136-.282 1.519-2.12.469-2.12-.136" fill-rule="evenodd"/>
  </g>
  <g transform="translate(301.49 245.6)">
   <path d="m0 0c0-.855.269-1.134 1.322-1.134.245 0 .304.155.426.33.72 1.037-.353 1.465-1.275 1.465-.306 0-.473-.343-.473-.661" fill-rule="evenodd"/>
  </g>
  <g transform="translate(371.86 271.86)">
   <path d="m0 0c0-.647.205-1.028.943-1.24 1.119-.322 1.524 1.712.149 1.749-.364.011-.338-.333-1.092-.509" fill-rule="evenodd"/>
  </g>
  <g transform="translate(316.32 245.51)">
   <path d="m0 0c.217 0 .55.124.759.187.362.107.431.141.658.38-.082.985-1.754 1.896-2.033.227-.107-.64.601-.794.616-.794" fill-rule="evenodd"/>
  </g>
  <g transform="translate(374.51 266.67)">
   <path d="m0 0c0-.442.072-.533.389-.744 1.084-.72 1.659-.04 1.566.834-.044.422-.587.567-1.011.666-.204-.305-.095-.283-.44-.41-.298-.111-.504.018-.504-.346" fill-rule="evenodd"/>
  </g>
  <g transform="translate(122.59 248.91)">
   <path d="m0 0c0-1.462 1.795-1.585 1.795 0 0 .707-.775.806-1.346.495-.16-.087-.449-.302-.449-.495" fill-rule="evenodd"/>
  </g>
  <g transform="translate(340.32 259.77)">
   <path d="m0 0c0-.515-.09-1.134.757-1.134 1.103 0 1.039 1.034.749 1.411-.097.126-.283.223-.501.258-.403.066-1.005-.139-1.005-.535" fill-rule="evenodd"/>
  </g>
  <g transform="translate(313.4 243.15)">
   <path d="m0 0c1.115-1.666 1.555-.256 1.89.378-.191.284-.703.841-1.04.662-.243-.128-.119-.113-.234-.233-.719-.743-.219.021-.616-.807" fill-rule="evenodd"/>
  </g>
  <g transform="translate(162.36 230.4)">
   <path d="m0 0c0-.295.443-1.229.661-1.229.406 0 .513.111.851.19.045.462.093.721.093 1.322l-.171.109c-.764.419-1.434-.247-1.434-.392" fill-rule="evenodd"/>
  </g>
  <g transform="translate(354.67 260.43)">
   <path d="m0 0c1.045 0 .799 1.7 0 1.7-.432 0-1.108-1.7 0-1.7" fill-rule="evenodd"/>
  </g>
  <g transform="translate(309.24 75.824)">
   <path d="m0 0v.172l-.2-.143z" fill-rule="evenodd"/>
  </g>
  <g transform="translate(186.21 70.842)">
   <path d="m0 0v.172l-.2-.144z" fill-rule="evenodd"/>
  </g>
  <g transform="translate(126.97 309.82)">
   <path d="m0 0c12.396 6.199 51.086 10.526 89.284 10.355 25.57-.113 53.763-1.788 71.346-5.846 9.277-2.142 20.633-7.136 16.128-8.147l-14.857-3.336s-33.116 3.332-67.908 3.765c-20.313.253-41.198-1.881-56.397-2.552-41.234-1.818-44.266-1.818-44.266-1.818z" fill-rule="evenodd"/>
  </g>
  <g transform="translate(58.547 277.62)">
   <path d="m0 0c0-.895-2.127-1.365-3.4-1.983l-5.384-2.646c-.722-.355-4.903-2.928-5.195-2.928-.256 0-.261.045-.473.095-.268 1.148 1.596 2.213 2.388 2.808 1.003.753 4.054 2.477 5.236 2.981 1.599.683 4.428 2.051 6.167 2.051.268 0 .661-.189.661-.378" fill-rule="evenodd"/>
  </g>
  <g transform="translate(60.719 270.26)">
   <path d="m0 0c0-.465-4.616-2.739-6.801-2.739-.303 0-.171.03-.272.199-.676 1.124 1.588 1.707 2.796 2.189.901.36 2.82 1.201 3.711 1.201.349 0 .566-.484.566-.85" fill-rule="evenodd"/>
  </g>
  <g transform="translate(54.674 272.05)">
   <path d="m0 0c0-.553-.519-.735-1.15-1.117-.871-.526-4.085-2.284-4.8-2.284-.388 0-.582.695-.662 1.039.241.161.326.303.564.475 1 .717 4.627 2.642 5.482 2.642.364 0 .566-.755.566-.755" fill-rule="evenodd"/>
  </g>
  <g transform="translate(70.731 266.57)">
   <path d="m0 0c0-.307-.09-.429-.265-.585-.098-.087-.135-.095-.271-.201l-1.314-.953c-.328-.217-3.061-1.794-3.061-.716 0 .94.064.768 1.076 1.459.15.102.147.106.284.202.194.135.313.227.495.341.423.265 3.056 2.047 3.056.453" fill-rule="evenodd"/>
  </g>
  <g transform="translate(76.115 265.63)">
   <path d="m0 0c0-.676-1.627-1.62-2.115-1.945-.425-.284-1.444-1.113-1.967-.73-1.687 1.235 3.208 3.431 3.516 3.431.406 0 .566-.352.566-.756" fill-rule="evenodd"/>
  </g>
  <g transform="translate(67.614 269.31)">
   <path d="m0 0c0-.783-.152-.775-1.34-1.494-.539-.328-1.264-.774-1.871-.774-.369 0-.704.661-.6.98.133.405 3.811 3.152 3.811 1.288" fill-rule="evenodd"/>
  </g>
  <g transform="translate(77.91 262.7)">
   <path d="m0 0c0-.967-2.172-1.479-2.172-.566 0 .833.127 1.417 1.511 1.417.307 0 .661-.584.661-.851" fill-rule="evenodd"/>
  </g>
  <g transform="translate(98.597 258.26)">
   <path d="m0 0c-1.224 0-1.238 2.267-.095 2.267.953 0 1.419-2.267.095-2.267" fill-rule="evenodd"/>
  </g>
  <g transform="translate(57.225 272.62)">
   <path d="m0 0c-.496 0-.567.87-.567 1.417.591.157.47.473 1.511.473.359 0 .77-.946.542-1.288-.201-.303-.995-.602-1.486-.602" fill-rule="evenodd"/>
  </g>
  <g transform="translate(60.435 277.53)">
   <path d="m0 0c-.663 0-1.399 1.89.851 1.89.316 0 .395-.286.412-.453.009-.089.038-.684.024-.739-.096-.385-.803-.698-1.287-.698" fill-rule="evenodd"/>
  </g>
  <g transform="translate(64.497 271.86)">
   <path d="m0 0c0-.647-.204-1.028-.942-1.24-1.119-.322-1.524 1.712-.15 1.749.365.011.338-.333 1.092-.509" fill-rule="evenodd"/>
  </g>
  <g transform="translate(61.852 266.67)">
   <path d="m0 0c0-.442-.072-.533-.39-.744-1.084-.72-1.658-.04-1.566.834.045.422.588.567 1.012.666.204-.305.094-.283.439-.41.299-.111.505.018.505-.346" fill-rule="evenodd"/>
  </g>
  <g transform="translate(96.046 259.77)">
   <path d="m0 0c0-.515.09-1.134-.756-1.134-1.103 0-1.04 1.034-.75 1.411.098.126.283.223.502.258.403.066 1.004-.139 1.004-.535" fill-rule="evenodd"/>
  </g>
  <g transform="translate(81.688 260.43)">
   <path d="m0 0c-1.045 0-.799 1.7 0 1.7.433 0 1.109-1.7 0-1.7" fill-rule="evenodd"/>
  </g>
  <g transform="translate(51.213 337.19)">
   <path d="m0 0c.209-.633 1.33-1.1 1.922-1.311.142-.019.279-.065.406-.133.172-.055.349-.102.524-.149 1.234 1.538 4.637 2.975 6.309 3.638 5.031 1.997 10.434 3.583 15.668 4.941 5.237 1.357 10.728 2.595 16.096 3.291 1.783.233 5.457.631 7.283-.114.13.125.26.254.385.384.078.121.175.227.289.313.417.473 1.169 1.425 1.045 2.081-.702.497-6.221-.071-7.046-.163-6.187-.68-12.589-2.089-18.607-3.65-6.019-1.558-12.299-3.435-18.036-5.845-.767-.323-5.867-2.507-6.238-3.283m-10.574-.261c1.241 2.646 7.183 5.34 9.58 6.377 3.488 1.507 7.09 2.813 10.695 4.005 4.386 1.451 8.833 2.743 13.305 3.9 4.471 1.159 8.987 2.192 13.525 3.054 3.73.708 7.513 1.318 11.293 1.693 2.6.259 9.102.792 11.474-.921 1.362 1.582 3.295 4.316 2.732 6.484-.221.859-2.576 1.168-3.259 1.244-2.751.311-5.837.152-8.592-.054-4.373-.325-8.765-.967-13.08-1.741-5.281-.946-10.53-2.123-15.724-3.469-5.191-1.345-10.353-2.867-15.427-4.603-4.148-1.421-8.3-2.993-12.28-4.832-2.508-1.16-5.282-2.52-7.536-4.127-.559-.399-2.467-1.811-2.246-2.67.563-2.168 3.58-3.619 5.54-4.34m.856 12.205c-3.937.582-7.842 1.499-11.619 2.74-2.177.715-4.393 1.549-6.465 2.544-.207-.102-.413-.205-.619-.31-3.369-1.695-16.517-8.486-16.543-13.392 2.951-.143 5.929-.172 8.882-.129 4.995.073 10.04.375 14.989 1.07.891.124 1.781.262 2.668.417.853 2.77 5.771 5.568 8.707 7.06m62.338 16.157c3.291.123 8.949.065 11.041-1.944.849.297 1.694.609 2.534.932 4.662 1.8 9.221 3.985 13.623 6.346 2.6 1.397 5.188 2.869 7.7 4.427-2.405 4.276-17.197 3.826-20.966 3.671-.23-.009-.461-.019-.691-.03-1.329-1.873-2.86-3.683-4.414-5.364-2.701-2.919-5.67-5.617-8.827-8.038m-46.515 2.05c1.201-1.79 2.471-3.56 3.815-5.24 1.11-1.39 2.498-3.04 3.922-4.144 2.297.675 4.603 1.31 6.922 1.91 2.316.599 4.641 1.166 6.977 1.693.708 1.654 1.118 3.773 1.413 5.526.359 2.121.61 4.285.791 6.433-4.012-.876-8.005-1.83-11.979-2.861-3.974-1.03-7.929-2.134-11.861-3.317m41.203 12.895c.471.113.948-.08 1.214-.455.234-.09.467-.182.699-.278.634.09 1.267.179 1.903.263-3.823 2.708-8.93 4.026-13.476 4.576-7.499.908-15.464.045-22.751-1.844-7.287-1.888-14.669-5.002-20.783-9.438-2.055-1.493-4.011-3.167-5.727-5.042-.452-.589-.905-1.534-.896-2.326.471.593.96 1.168 1.452 1.72 1.2 1.351 3.167 3.41 4.786 4.215 1.795.891 3.451 1.953 5.139 3.021 1.971 1.247 3.884 2.377 6.057 3.251 13.715 5.513 28.479 7.319 42.383 2.337m-39.799-47.56-.013-.015-.138-.004-.057-.008-.018.006c-1.041-.033-2.281-.016-3.29.257-.099-.008-.199-.005-.299.01-.68.112-1.393.294-2.051.511-2.6-.263-5.523-.474-8.122-.211-.998.1-2.172.311-3.056.818-.432.115-.862.252-1.287.399-4.539-.548-9.115-.955-13.685-1.107-3.634-.121-7.352-.096-10.969.294-3.631.392-10.666 1.54-11.779 5.835-1.748 6.745 13.219 14.556 17.735 16.829 3.579 1.8 7.249 3.44 10.954 4.966 1.801 5.615 6.59 10.4 11.248 13.781 6.361 4.613 14.021 7.862 21.603 9.828 7.581 1.965 15.854 2.845 23.655 1.9 5.713-.691 12.225-2.548 16.527-6.582 3.978.465 7.982.817 11.986.981 5.19.213 11.243.179 16.318-1.041 2.704-.649 6.57-2.012 7.359-5.056 1.112-4.294-4.48-8.714-7.462-10.819-2.972-2.099-6.21-3.928-9.445-5.586-4.07-2.087-8.266-3.956-12.5-5.681-.3-.335-.611-.662-.932-.974-.527-.872-1.451-1.627-2.273-2.2-2.145-1.492-4.803-2.725-7.203-3.761-.47-.507-1.002-1.011-1.548-1.443-.079-.061-.162-.112-.252-.152-.716-.696-1.726-1.285-2.609-1.749l-.008-.012-.071-.031-.141-.071-.013.005c-.956-.407-1.942-.783-2.914-1.15-2.694-1.019-5.426-1.946-8.176-2.805-8.802-2.744-17.927-4.808-27.074-5.962" fill-rule="evenodd"/>
  </g>
  <g transform="translate(75.396 346.67)">
   <path d="m0 0c-7.187-1.863-13.573-3.968-18.087-5.864-4.129-1.737-6.61-3.095-6.463-3.667.193-.742 1.202-1.27 2.206-1.62.123-.014.24-.052.344-.114.289-.089.567-.166.817-.228.731 1.102 2.982 2.4 6.297 3.715 3.927 1.56 9.447 3.324 15.624 4.925 6.179 1.603 11.861 2.741 16.052 3.285 3.535.46 6.136.418 7.307-.189.189.176.397.378.605.596.061.105.145.195.245.266.707.794 1.333 1.747 1.141 2.487-.149.573-2.977.555-7.431.067-4.865-.535-11.471-1.797-18.657-3.659m-2.898 11.181c11.079 2.872 21.298 4.657 28.867 5.222 7.185.535 11.83.09 12.233-1.464.614-2.371-1.452-5.252-2.877-6.89l-.266-.107c-1.468 1.261-5.585 1.555-11.381.979-6.504-.648-15.273-2.278-24.762-4.736-9.492-2.462-17.948-5.295-23.947-7.889-5.345-2.311-8.801-4.568-9.474-6.383l-.283-.036c-2.042.741-5.247 2.255-5.861 4.627-.403 1.553 3.442 4.199 9.981 7.219 6.89 3.183 16.691 6.588 27.77 9.458m-29.779-8.521c-10.159 1.33-17.349 4.541-19.31 5.49-.263-.129-.524-.259-.781-.388-10.758-5.416-17.126-10.502-16.728-14.069 3.11-.157 15.757-.63 27.183 1.387.48 2.17 3.999 4.84 9.636 7.58m74.16 29.717c-1.253-1.783-5.977-8.082-14.212-14.181 6.257.344 10.631-.279 12.106-1.945 10.966 3.787 21.79 10.343 24.433 11.992-1.385 3.311-9.421 4.665-21.456 4.172-.287-.012-.58-.024-.871-.038m-64.506-8.773c-.424-.111-.678-.544-.569-.967.111-.425.543-.678.967-.569.424.11.678.542.567.967-.109.424-.542.678-.965.569m-6.852-2.751c-.424-.111-.68-.543-.57-.967.112-.425.543-.679.967-.57.423.11.678.544.568.967-.111.424-.542.679-.965.57m22.604 7.203c.423.111.856-.144.965-.568.111-.425-.144-.856-.569-.967-.423-.109-.856.145-.965.57-.11.422.144.856.569.965m7.728 2.003c.423.11.855-.145.965-.569s-.145-.857-.568-.965c-.424-.111-.856.143-.967.568-.11.424.146.856.57.966m8.202 1.756c-.423-.11-.678-.543-.568-.967.109-.423.542-.676.965-.569.425.11.679.544.571.966-.111.424-.544.679-.968.57m7.327.923c-.423-.108-.677-.541-.569-.965.109-.425.543-.679.966-.57.425.111.679.543.569.967-.11.425-.542.679-.966.568m-30.985-6.683c-.423-.112-.678-.543-.569-.969.109-.424.543-.677.965-.567.425.109.679.542.57.965-.111.424-.543.68-.966.571m-2.817-36.918c.159-.259.311-.58.29-.838-.012-.131-.007-.259-.005-.382.184.015.378.033.583.051l.094-1.619c-1.401-.047-2.523.037-3.307.26-.086-.012-.176-.012-.268.001-.006.001-.945.146-2.071.521-3.36-.339-6.136-.42-8.125-.22-1.272.13-2.268.393-2.95.797-.204.054-.712.194-1.389.429-9.958-1.204-18.456-1.49-24.656-.82-6.561.711-10.682 2.547-11.463 5.562-1.159 4.472 5.631 10.414 17.545 16.411 3.313 1.666 7.031 3.35 11.086 5.02 1.485 4.799 5.452 9.609 11.167 13.756 5.664 4.112 13.068 7.591 21.478 9.772 8.411 2.18 16.57 2.733 23.52 1.89 7.012-.849 12.814-3.128 16.444-6.602 4.355.514 8.421.848 12.127.999 13.327.545 22.149-1.352 23.308-5.823.782-3.015-1.928-6.623-7.319-10.429-5.091-3.598-12.658-7.476-21.95-11.259-.476-.534-.853-.906-1.003-1.051-.401-.685-1.144-1.398-2.194-2.129-1.64-1.141-4.106-2.42-7.209-3.754-.802-.875-1.552-1.459-1.559-1.462-.071-.057-.15-.099-.232-.131-.557-.554-1.452-1.152-2.637-1.768l-.38 1.291c-.019 0-.039-.002-.057-.004-.702-.068-.795.939-.792 1.502-.902-.085-1.994-.211-3.245-.373-4.125-.537-9.734-1.659-15.847-3.245-6.113-1.584-11.561-3.324-15.428-4.86-1.439-.571-2.646-1.078-3.556-1.493m-18.259 32.442c1.615 1.768 3.561 3.483 5.791 5.102 5.498 3.99 12.702 7.371 20.907 9.498 8.205 2.128 16.144 2.668 22.889 1.852 5.967-.722 10.979-2.504 14.368-5.185-1.212-.156-2.445-.325-3.696-.507.012.096.007.197-.02.296-.109.423-.542.679-.966.568-.425-.109-.678-.542-.569-.965.01-.044.026-.085.044-.125-9.04-1.379-19.02-3.423-29.41-6.116-7.869-2.039-15.349-4.289-22.24-6.643l-.003-.001c-2.85-.958-7.778-2.106-8.041-.713-.259 1.369.9 2.882.946 2.939m-19.291-32.283c.061-.234-.485-.73-.63-.164-.049.183.513.614.63.164m8.553 2.105c.086-.334-.516-.61-.64-.13-.095.363.548.488.64.13m-18.223-1.917c.032-.122.158-.244.251-.281.35-.146.357.495.352.511-.072.216-.727.239-.603-.23m22.075 20.137c-.154-.198-.161-.191-.419-.259-.16.112-.128.061-.188.289-.033.128-.022.203-.002.3.111.059.318.171.445.094l.057-.059c.005-.006.009-.016.013-.024.033-.063.074-.262.094-.341m-21.603-18.778c.18-.697-.503-.804-.604-.418-.138.531.494.836.604.418m20.987-1.525c.068-.261-.213-.687-.625-.251-.132.142-.165.273-.134.43.176.09.389.194.571.061.076-.058.16-.132.188-.24m54.384 36.036.055-.211c-.264-.296-.443-.336-.806-.207l-.092.35c.04.042.023.032.065.075l.035.037c.049.043.128.088.217.119l.136.034c.17.03.342-.008.39-.197m-66.328-35.312c.068-.266-.6-.579-.765.063-.066.255.029.56.306.478.129-.038.437-.461.459-.541m-10.786.874c.046-.173.003-.041-.001-.179-.002-.13.061-.351-.119-.465-.355-.225-.91.714-.137.914.137.035.22-.128.257-.27m35.206 21.48c.122-.467-.566-.487-.662-.469-.265.049-.37.538.124.666.234.062.477.04.538-.197m-9.354-23.278c.056.014.297.259.039.518-.667.674-.809-.004-.763-.183.026-.104.441-.41.724-.335m-13.26.457c-.349-.091-.713.938-.343 1.034.432.112.647-.546.567-.781-.001-.004-.06-.141-.06-.142-.043-.061-.069-.087-.164-.111m-8.729.021c-.136-.072-.269-.15-.395-.216-.348.311-.572.82-.22 1.142.44-.104.604-.505.615-.926m34.503 25.491c.081-.313-.186-.4-.472-.472-.766-.188-.694.361-.513.487.219.15.883.378.985-.015m-23.96-24.856c-.135.519.128.898.537.257.084-.131.152-.217.244-.343.083-.113.163-.242.096-.369-.058-.113-.247-.184-.376-.162-.21.037-.429.34-.501.617m-8.301-.767c-.235-.667-.969-.161-1.093.317-.111.426.283.521.5.294.109-.117.182-.226.291-.314.131-.109.205-.11.302-.297m2.285.143c.148-.572-.682-.556-.918.361-.079.304.035.386.26.444.167.043.283-.198.366-.34.068-.12.268-.375.292-.465m86.475 38.626c.09-.349-.1-.364-.409-.444-1.045-.27-1.055.401-.586.522.336.087.898.295.995-.078m-74.833-39.052c-.12-.031-.327.153-.398.233-.654.722-.139 1.302.222.835.084-.107.412-.639.414-.762.001-.141-.087-.267-.238-.306m-2.117.798c.039-.154-.157-.671-.694-.018-.146.178-.655 1.091-.177 1.215.286.076.337-.148.51-.494zm4.2.266c.047-.186-.052-.276-.323-.345-.041-.011-.255.198-.3.246-.28.295-1.351 1.681-.501 1.979.249-.221.215-.45.541-.951.103-.156.186-.297.299-.452.086-.119.245-.32.284-.477m.573 1.684c-.041.164-.203.658.04.721.29.076.389-.33.543-.592.727-1.24 1.533-1.54 1.627-1.777.142-.359-.321-.274-.576-.177-.668.259-1.448 1.112-1.634 1.825m10.836 19.88c-.179.319-1.1-.021-1.468-.117-.619-.161-1.936-.759-2.72-1.046-.443-.161-.906-.349-1.369-.502-1.861-.619-1.097-.882-.383-.697 1.173.304 2.35.639 3.426 1.165.443.216.839.367 1.318.564.37.15 1.087.322 1.196.633m2.905 2.665c-.131-.372-1.605-.797-2.082-1.006-.804-.351-1.684-.551-2.391-.825-.255-.1-.607-.139-.872-.229l-4.343-1.58c-.65-.247-1.548-.591-2.224-.688-.083-.012-.16-.044-.241-.056-.148-.022-.253.014-.381.012-.051.222.096.287.485.457l1.121.441c.162.062.25.092.404.147.261.096.511.216.78.315l3.078 1.193c.49.219 1.964.6 2.526.744l2.484.828c.226.088.621.164.874.231.262.068.577.142.782.016m55.994 13.501c-.002-.338-.858-.365-1.199-.424-1.123-.19-3.023-.374-4.273-.538-.551-.073-1.189-.143-1.746-.24-1.373-.236-3.01-.481-4.403-.762-.431-.087-2.319-.577-2.609-.341.105.265.874.452 1.177.528.19.051.236.095.392.141l.517.135c.491.118.952.211 1.474.346l1.885.372c1.13.201 2.493.397 3.636.522 1.226.136 3.556.369 4.765.314.19-.007.252.054.384-.053m-44.772-7.099c1.461-2.2 5.354-7.839 8.241-9.995 2.291.675 4.66 1.33 7.087 1.959 2.426.629 4.816 1.206 7.146 1.731 1.476 3.286 2.141 10.107 2.349 12.738-4.065-.881-8.233-1.872-12.476-2.97-4.241-1.1-8.366-2.26-12.347-3.463" fill-rule="evenodd"/>
  </g>
  <g transform="translate(97.333 345.06)">
   <path d="m0 0-.448-2.07s-16.934-7.291-38.343-9.97l-2.734 2.239s5.916 3.296 13.354 5.665c7.437 2.368 28.17 7.729 28.171 4.136" fill-rule="evenodd"/>
  </g>
  <g transform="translate(102.69 378.12)">
   <path d="m0 0c-15.968 7.497-32.677 4.964-46.417-.56-4.395-1.767-7.08-4.229-11.171-6.259-3.284-1.633-10.127-10.362-8.349-10.338l5.867.078s8.818 6.48 21.821 9.75c7.592 1.911 18.101 3.409 23.858 4.516 15.619 3.001 17.568.567 17.568.567z" fill-rule="evenodd"/>
  </g>
  <g transform="translate(70.657 369.46)">
   <path d="m0 0c-.001-.214-.342-.334-.535-.398l-1.619-.475c-.263-.114-1.242-.378-1.587-.524l-.805-.27c-.592-.16-1.077-.313-1.677-.47-.499-.129-.911-.198-1.376-.32-.297-.077-.994-.256-1.223-.053.051.147.062.152.207.234.328.186.797.322 1.161.418.193.05.218.086.374.135.146.048.31.076.458.118.176.052.185.086.374.137.15.041.311.072.46.116.175.051.185.086.371.137.153.041.311.075.463.116.186.051.197.086.371.137.15.044.311.073.46.116.175.052.185.088.374.138.715.194 3.342 1.041 3.749.708" fill-rule="evenodd"/>
  </g>
  <g transform="translate(67.696 367.31)">
   <path d="m0 0 .053-.21c-.216-.244-.168-.235-.748-.453-.414-.157-1.375-.567-1.837-.405l-.062.245c.193.217.099.172.517.349.131.055.211.094.331.133l.717.233c.315.134.707.221 1.029.108" fill-rule="evenodd"/>
  </g>
  <g transform="translate(72.445 370.07)">
   <path d="m0 0c.071-.271.068-.188.074-.43-.275-.143-.54-.188-.851-.182-.181.216-.252.534.065.615l.297.078c.188.04.38.052.415-.081" fill-rule="evenodd"/>
  </g>
  <g transform="translate(64.403 365.85)">
   <path d="m0 0c-.399-.102-.525-.14-.626.251-.074.284.701.583.868.212.107-.233 0-.399-.242-.463" fill-rule="evenodd"/>
  </g>
  <g transform="translate(110.44 355.96)">
   <path d="m0 0c.125-.479-.558-.112-.665-.07-.468.183-1.147.206-1.667.301-.325.061-.516.086-.731.322.13.372.554.303 1.049.268.582-.041 1.847-.172 2.014-.821" fill-rule="evenodd"/>
  </g>
  <g transform="translate(99.358 348.14)">
   <path d="m0 0c.035-.132-.104-.213-.235-.248-.207-.052-1.272.167-1.572.208-.504.068-.401.25-.438.47.731.383 2.161-.099 2.245-.43" fill-rule="evenodd"/>
  </g>
  <g transform="translate(110.94 357.21)">
   <path d="m0 0c-.181-.517-.562-.263-1.113-.072-.217.075-.268.074-.349.218-.349.617.637.385.86.297.072-.027.095-.045.165-.074.197-.087.305-.12.437-.369" fill-rule="evenodd"/>
  </g>
  <g transform="translate(111.5 358.63)">
   <path d="m0 0c.054-.212-.085-.209-.305-.268-.101-.025-.989.194-1.09.326-.234.302.006.629.774.401.191-.056.561-.228.621-.459" fill-rule="evenodd"/>
  </g>
  <g transform="translate(98.622 349.82)">
   <path d="m0 0c.34.088.585.038.855-.016.523-.103.183-.543.113-.576-.134-.063-.681-.017-.838.004-.181.023-.236.066-.286.246-.047.164-.049.288.156.342" fill-rule="evenodd"/>
  </g>
  <g transform="translate(107.09 356.89)">
   <path d="m0 0c.136-.527-.686-.676-.788-.28-.058.221-.125.343.224.433.178.047.524.002.564-.153" fill-rule="evenodd"/>
  </g>
  <g transform="translate(112.06 361.1)">
   <path d="m0 0c-.229-.061-.66-.192-.767.105-.025.068-.005.175.021.244.095.263.475.266.725.069.148-.116.223-.366.021-.418" fill-rule="evenodd"/>
  </g>
  <g transform="translate(111.72 360.26)">
   <path d="m0 0c.135-.517-.773-.563-.8-.154-.042.591.742.378.8.154" fill-rule="evenodd"/>
  </g>
  <g transform="translate(109.58 359.4)">
   <path d="m0 0c.142-.542-.514-.761-.667-.172-.068.262.21.373.453.313.068-.016.196-.069.214-.141" fill-rule="evenodd"/>
  </g>
  <g transform="translate(96.594 348.7)">
   <path d="m0 0c.028-.108-.046-.498-.127-.521-.152-.038-.203-.008-.335-.011-.061.168-.105.26-.163.484l.054.055c.244.229.556.047.571-.007" fill-rule="evenodd"/>
  </g>
  <g transform="translate(51.765 345.99)">
   <path d="m0 0c0-.117.01-.086-.08-.16-.171-.138-1.246-.447-1.554-.573-.472-.192-1.192-.371-1.809-.63-.136-.055-.328-.119-.436-.161-.169-.061-.285-.105-.44-.157-.291-.095-.596-.231-.884-.342-.572-.216-1.125-.461-1.679-.707-1.166-.52-3.037-1.451-3.998-2.287-.121-.104-.184-.179-.289-.275-.191-.171-.374-.314-.56-.502-.099-.102-.196-.156-.297-.243-.527-.459-.441.198.364 1.005.428.428.495.537 1.015.919.752.552 1.631 1.084 2.553 1.532 1.639.799 5.119 2.269 7.231 2.576.271.04.687.15.863.005" fill-rule="evenodd"/>
  </g>
  <g transform="translate(50.513 349.67)">
   <path d="m0 0c-.001-.22-.251-.285-.519-.439-.605-.347-4.561-1.886-5.364-2.225-2.191-.925-3.071-1.28-5.02-2.43-.145-.086-.817-.539-.884-.281-.064.244.678.764.899.926 1.307.963 3.792 1.989 5.386 2.66 1.448.608 3.664 1.425 5.193 1.821.145.038.225.035.309-.032" fill-rule="evenodd"/>
  </g>
  <g transform="translate(47.705 347.07)">
   <path d="m0 0 .037-.14c-.159-.084-.177-.164-.631-.373l-1.503-.603c-1.796-.754-3.281-1.314-4.913-2.372-.422-.273-.813-.53-1.198-.811-.376-.274-.779-.523-1.15-.811-.265-.208-.872-.687-1.246-.784-.155-.04-.182.09-.136.196.267.67 4.239 3.412 5.136 3.792.984.413 3.453 1.46 4.454 1.72l.668.172c.235.063.302.01.482.014" fill-rule="evenodd"/>
  </g>
  <g transform="translate(50.744 344.15)">
   <path d="m0 0c-.194-.221-.192-.248-.611-.384l-2.398-.849c-.579-.211-1.675-.638-2.234-.914-.243-.12-.94-.578-1.03-.227-.161.623 3.722 2.05 4.472 2.245.434.112 1.1.3 1.532.279.168-.009.164-.035.269-.15" fill-rule="evenodd"/>
  </g>
  <g transform="translate(12.02 345.5)">
   <path d="m0 0c.084-.332-.661-.711-1.074-1.063l-1.744-1.501c-.233-.203-1.54-1.56-1.648-1.587-.096-.026-.102-.01-.185-.011-.209.401.38.974.617 1.272.3.377 1.267 1.311 1.658 1.613.527.406 1.446 1.188 2.093 1.355.099.024.263-.007.283-.078" fill-rule="evenodd"/>
  </g>
  <g transform="translate(59.555 339.77)">
   <path d="m0 0c.212-.403.058-.439-.379-.639-.255-.117-.47-.225-.728-.345-1.375-.634-2.237-.92-3.484-1.756-1.23-.826-.661.609 1.356 1.523.48.216 2.8 1.268 3.235 1.217" fill-rule="evenodd"/>
  </g>
  <g transform="translate(43.028 344.03)">
   <path d="m0 0c.069-.268-.258-.379-.445-.482-.524-.289-1.352-.859-1.774-1.215-.085-.075-.164-.127-.26-.205l-.522-.438c-.098-.093-.14-.142-.25-.238-.259-.225-.772-.824-1.088-.907-.082-.019-.156.023-.178.105-.104.407 1.196 1.663 1.563 1.936.847.625 1.46 1.243 2.628 1.546.106.028.298.007.326-.102" fill-rule="evenodd"/>
  </g>
  <g transform="translate(33.766 346.68)">
   <path d="m0 0c.049-.087.004-.031.062-.098-.025-.107-.045-.164-.139-.244-.44-.369-1.241-.718-1.767-1.457l-.264-.381c-.13-.159-.259-.503-.33-.699-.077-.221-.099-.373-.116-.644-.091-1.372-.905-.198-.311 1.283.191.475.441.785.791 1.17.35.387 1.469 1.196 2.074 1.07" fill-rule="evenodd"/>
  </g>
  <g transform="translate(56.046 339.16)">
   <path d="m0 0c.081-.32-1.005-.687-1.394-.877-.231-.113-1.466-.763-1.651-.812-.117-.03-.205.088-.267.157.182.763 2.058 1.469 2.861 1.676.18.047.405.031.451-.144" fill-rule="evenodd"/>
  </g>
  <g transform="translate(13.535 342.97)">
   <path d="m0 0c.044-.172-1.452-1.46-2.263-1.672-.111-.028-.066-.003-.121.049-.358.352.427.787.829 1.081.3.222.93.718 1.263.804.129.034.257-.124.292-.262" fill-rule="evenodd"/>
  </g>
  <g transform="translate(11.118 343.06)">
   <path d="m0 0c.052-.205-.123-.323-.321-.525-.274-.28-1.297-1.242-1.563-1.31-.145-.038-.283.202-.345.321.073.083.091.145.164.231.303.362 1.463 1.427 1.78 1.509.137.034.285-.226.285-.226" fill-rule="evenodd"/>
  </g>
  <g transform="translate(41.886 339.76)">
   <path d="m0 0c.078-.299-.355-.486-.827-.97-.171-.175-.547-.644-.695-.688-.301-.086-.564.262.191 1.103.241.268 1.202 1.055 1.331.555" fill-rule="evenodd"/>
  </g>
  <g transform="translate(17.609 342.57)">
   <path d="m0 0c.03-.114.007-.167-.042-.242-.027-.042-.041-.05-.082-.101l-.395-.482c-.102-.111-.965-.961-1.069-.56-.091.349-.051.293.258.646.046.053.045.053.087.103.058.069.096.113.151.175.132.138.938 1.054 1.092.461" fill-rule="evenodd"/>
  </g>
  <g transform="translate(19.699 342.74)">
   <path d="m0 0c.066-.251-.449-.759-.599-.926-.13-.146-.428-.553-.66-.461-.745.297.862 1.584.977 1.614.149.038.243-.077.282-.227" fill-rule="evenodd"/>
  </g>
  <g transform="translate(30.121 344.27)">
   <path d="m0 0c.071-.276.048-1.635-.337-1.733-.488-.127-.343.775-.304 1.071.068.52.023.69.35.774.119.032.261.002.291-.112" fill-rule="evenodd"/>
  </g>
  <g transform="translate(16.187 343.28)">
   <path d="m0 0c.074-.29.018-.301-.354-.684-.168-.173-.395-.408-.62-.467-.137-.035-.325.178-.318.307.01.164 1.113 1.537 1.292.844" fill-rule="evenodd"/>
  </g>
  <g transform="translate(37.325 342.77)">
   <path d="m0 0c-.185-.049-.319.069-.362.243-.075.282 1.105 1.304 1.222.582.043-.269-.729-.791-.86-.825" fill-rule="evenodd"/>
  </g>
  <g transform="translate(49.309 347.68)">
   <path d="m0 0c.067-.259.12-.408-.432-.639-.866-.362-.863.491.036.724.126.033.346.105.396-.085" fill-rule="evenodd"/>
  </g>
  <g transform="translate(57.265 339.37)">
   <path d="m0 0c-.268-.07-.615-.228-.731.222-.076.295.906.646 1.108.259.109-.211-.115-.414-.377-.481" fill-rule="evenodd"/>
  </g>
  <g transform="translate(52.986 345.18)">
   <path d="m0 0c.113-.43-.034-.458-.698-.629-.284-.074-.298.14-.337.286-.103.402.966.611 1.035.343" fill-rule="evenodd"/>
  </g>
  <g transform="translate(43.598 343.99)">
   <path d="m0 0c-.364-.095-.695.319-.133.645.762.445 1.044-.409.133-.645" fill-rule="evenodd"/>
  </g>
  <g transform="translate(35.366 347.58)">
   <path d="m0 0c.075-.284.108-.311-.077-.459-.612-.481-1.042-.034-.63.339.158.145.608.507.707.12" fill-rule="evenodd"/>
  </g>
  <g transform="translate(36.161 342.21)">
   <path d="m0 0 .072-.281-.165-.205c-.354-.403-.64-.012-.659.067-.066.252.615.943.752.419" fill-rule="evenodd"/>
  </g>
  <g transform="translate(20.648 341.82)">
   <path d="m0 0c.093-.359-.665-.759-.753-.419-.08.31-.09.538.425.672.115.03.303-.154.328-.253" fill-rule="evenodd"/>
  </g>
  <g transform="translate(28.759 342.16)">
   <path d="m0 0c-.455-.118-.678.723-.253.832.354.091.744-.705.253-.832" fill-rule="evenodd"/>
  </g>
  <g transform="translate(12.01 343.51)">
   <path d="m0 0c-.186-.048-.294.269-.347.471.204.116.129.221.516.321.132.035.377-.275.325-.425-.046-.133-.312-.32-.494-.367" fill-rule="evenodd"/>
  </g>
  <g transform="translate(53.024 346.05)">
   <path d="m0 0c-.383-.099-.408-.014-.495.321-.053.204.644.607.817.083.066-.201-.089-.342-.322-.404" fill-rule="evenodd"/>
  </g>
  <g transform="translate(60.845 340)">
   <path d="m0 0c.107-.413-.659-.633-.763-.234-.058.223-.092.35.331.458.231.06.375.003.432-.224" fill-rule="evenodd"/>
  </g>
  <g transform="translate(12.728 345.65)">
   <path d="m0 0c-.245-.064-.7.566.136.784.116.03.175-.068.195-.129.013-.032.081-.251.081-.272.002-.153-.231-.337-.412-.383" fill-rule="evenodd"/>
  </g>
  <g transform="translate(43.451 340.95)">
   <path d="m0 0c.082-.316.009-.447-.383-.548-.091-.023-.128.028-.19.08-.367.318-.01.579.333.669.113.029.209-.082.24-.201" fill-rule="evenodd"/>
  </g>
  <g transform="translate(14.784 343.93)">
   <path d="m0 0c.063-.241.023-.402-.231-.552-.385-.227-.731.489-.224.636.134.039.158-.092.455-.084" fill-rule="evenodd"/>
  </g>
  <g transform="translate(37.951 339.49)">
   <path d="m0 0c-.08-.021-.216-.007-.299-.004-.146.004-.175.011-.281.078-.065.373.468.873.732.278.102-.226-.147-.352-.152-.352" fill-rule="evenodd"/>
  </g>
  <g transform="translate(14.302 341.75)">
   <path d="m0 0c.041-.163.024-.205-.074-.313-.333-.373-.613-.176-.661.158-.025.161.162.267.31.346.104-.094.063-.097.203-.111.124-.012.185.055.222-.08" fill-rule="evenodd"/>
  </g>
  <g transform="translate(27.666 342.48)">
   <path d="m0 0c.05-.189.143-.412-.171-.494-.412-.106-.485.285-.414.453.022.056.081.11.16.145.143.062.386.044.425-.104" fill-rule="evenodd"/>
  </g>
  <g transform="translate(39.264 338.89)">
   <path d="m0 0c-.252-.724-.553-.243-.737-.041.043.124.18.379.321.346.104-.024.057-.031.112-.064.338-.207.078.029.304-.241" fill-rule="evenodd"/>
  </g>
  <g transform="translate(22.269 341.34)">
   <path d="m0 0c-.387-.101-.458.556-.163.632.161.042.576-.524.163-.632" fill-rule="evenodd"/>
  </g>
  <g transform="translate(-32.839 -77.5)">
   <g clip-path="url(#a)">
    <g transform="translate(439.34 272.78)">
     <path d="m0 0c-.104-.251-.324-.453-.678-.46-2.429-.055-4.659-1.019-7.032-1.436-.941-.165-1.888-.308-2.834-.447.021-.046.061-.072.088-.108-1.949-.395-3.891-.812-5.82-1.247-8.732-1.969-17.376-4.666-25.573-8.281-2.697-1.19-10.19-4.229-11.937-8.052-.968 2.992 4.327 7.156 8.3 9.386 10.298 5.779 22.357 9.419 34.419 11.499 3.602.89 7.279.701 10.983.68.966-.006.988-1.446.084-1.534m-13.122-14.858c.004.001.007.001.01.002.017.005.043.013.063.02.011-.002.021-.006.029-.008-.041-.01-.082-.022-.125-.031-.095-.05-.205-.082-.334-.088-.006-.001-.015-.001-.022-.001-2.097-.485-4.173-1.055-6.21-1.734-.133-.031-.259-.077-.384-.137-.854-.289-1.705-.577-2.543-.898-.139-.054-.299-.117-.465-.184-.345-.071-.674-.217-.966-.424-1.157-.551-2.404-1.332-2.746-2.317-.236.036-.477.045-.706.051-.24.005-.477.019-.717.027-.29-.363-.786-.275-1.078.042-.147.008-.292.01-.438.017-.026.001-.054.005-.079.007.132.053.256.12.373.199-.093.195-.116.427-.004.672.394.866 1.098 1.601 1.922 2.097-.015.013-.028.025-.04.04.666.305 1.339.597 2.025.859 2.281.941 4.635 1.71 7.024 2.374.088.135.213.254.41.314 1.503.46 3.088.469 4.644.546.862.041.972-1.094.357-1.445m-1.37 21.722c2.337.377 4.721.508 7.083.345.519-.18 1.092-.219 1.629-.304.258-.041.509-.109.765-.164.025-.009.06-.008.084-.018.256-.057.518-.1.774-.166-.003-.02-.016-.036-.016-.056-.014-.15.018-.289.071-.415-.136-.035-.276-.05-.417-.078-.005-.382-.253-.763-.745-.771-.11-.002-.216-.027-.323-.034-.113-.072-.243-.122-.418-.114-.197.01-.386.001-.576-.003-1.181-.23-2.323-.672-3.49-.975-1.689-.436-3.378-.863-5.05-1.362-.309-.092-.55.009-.718.185-.122-.011-.243-.033-.365-.043-.108-.08-.198-.169-.264-.267-1.132-.253-2.259-.513-3.381-.783-4.678-1.121-9.91-2.47-15.052-4.251 4.19 5.911 14.133 8.259 20.409 9.274m38.037-2.677c-5.316 2.271-11.99 1.896-17.629 1.667-.17-.007-.343-.022-.513-.03-1.483 1.881-5.518 2.913-7.187 3.181-5.716.916-11.631.608-17.251-.814-4.937-1.25-10.156-2.89-14.349-5.891-1.501-1.073-5.506-3.929-6.412-6.567-5.693-2.365-11.013-5.38-15.008-9.38-5.499-5.51-2.511-9.258 2.508-11.28 4.723-3.391 17.358-2.519 25.212-1 1.422.189 2.839.388 4.234.595.353.053.684.148.979.275 6.848 1.146 13.899 2.458 20.477 4.74 3.276.226 7.025 1.672 10.542 3.324 6.757 2.484 14.074 6.199 16.248 10.101 3.624 3.78 5.012 8.148-1.851 11.079"/>
    </g>
   </g>
  </g>
 </g>
</svg>
