<svg width="760" height="90" version="1.1" viewBox="0 0 201.08 23.813" xmlns="http://www.w3.org/2000/svg">
 <g transform="translate(0 -273.19)">
  <g>
   <path d="m69.164 277.91 11.919 7.0343-11.928 7.0397 0.0091-14.074z" style="stroke-width:.3471"/>
   <path d="m92.271 285.01c0-6.2333-5.0512-11.292-11.275-11.292-3.5938 0-6.7827 1.695-8.8478 4.3206l1.4115 0.89511c1.7618-2.1564 4.4538-3.5288 7.4535-3.5288 5.3021 0 9.6052 4.3031 9.6052 9.6052s-4.3031 9.6052-9.6052 9.6052c-2.9911 0-5.6742-1.3659-7.4363-3.5116l-1.4115 0.89511c2.0656 2.6148 5.2455 4.3034 8.8306 4.3034 6.2237 0 11.275-5.0589 11.275-11.292z" style="stroke-width:.3471"/>
   <path d="m87.899 285.03c0-3.8103-3.0924-6.9027-6.9026-6.9027-2.0286 0-3.8491 0.87745-5.1124 2.2722l1.4632 0.91232c0.9411-0.92947 2.2277-1.4976 3.6493-1.4976 2.8791 0 5.2157 2.3521 5.2157 5.2502 0 2.8981-2.3366 5.2502-5.2157 5.2502-1.4481 0-2.7556-0.58899-3.7009-1.5492l-1.4115 0.89511c1.2633 1.3948 3.0838 2.2722 5.1124 2.2722 3.8103 0 6.9026-3.0924 6.9026-6.9027z" style="stroke-width:.3471"/>
   <path d="m61.931 274.34c-4.4292 0-5.26 6.3085-2.7684 6.3085 2.4913 0 7.1977-6.3085 2.7684-6.3085z"/>
   <path d="m54.576 279.87c1.3267 0.081 2.7822-5.0629 0.28877-4.7394-2.4925 0.32352-1.616 4.6584-0.28877 4.7394z"/>
   <path d="m48.496 283.06c0.94355-0.41534 0.12152-4.4778-1.4829-3.3699-1.6037 1.1081 0.53938 3.785 1.4829 3.3699z"/>
   <path d="m51.155 280.94c1.1232-0.229 1.1848-4.8364-0.81825-4.0099-2.0034 0.82671-0.30408 4.2392 0.81825 4.0099z"/>
   <path d="m57.02 291.25c0.1993 1.522-1.1166 2.2736-2.4052 1.2924-4.1024-3.1234 6.7924-4.6816 6.0743-8.9487-0.59609-3.542-11.464-2.4515-12.701 3.0906-0.83769 3.7485 3.4482 8.9489 7.9202 8.9489 2.2 0 4.7376-1.9865 5.2123-4.503 0.36258-1.919-4.2666-1.15-4.1002 0.11972z"/>
   <path id="path5692_2_" transform="matrix(.13309 0 0 .13309 93.817 269.69)" d="m191.74 140.02-29.803 9.4297-38.016-55.658v50.182l-28.282 4.2588v-117.7l28.584-2.7363-0.30273 51.701 37.713-50.483 30.41 6.9922-39.232 50.485z"/>
   <path d="m115.62 290.56-0.3287 0.10398c-0.048 0.0151-0.10021-3e-3 -0.12841-0.0446 0 0-0.64842-0.94891-1.4857-2.1743-1.0009 1.9589-3.0373 3.3007-5.3888 3.3007-3.3409 0-6.0496-2.7087-6.0496-6.0498 0-2.4579 1.4661-4.5716 3.5706-5.5185v-1.5606c-0.38302 0.134-0.75324 0.29549-1.1049 0.48707-3.2e-4 -2.7e-4 -7.9e-4 -9.1e-4 -2e-3 -1e-3l-2.8497-1.869c-0.0768-0.0502-0.17793-0.0398-0.24246 0.0252l-1.4931 1.4928c-0.0628 0.063-0.0746 0.16077-0.0283 0.237l1.748 2.8789c-0.31004 0.52125-0.55835 1.0833-0.73595 1.6762l-3.2093 0.66753c-0.08929 0.0185-0.15362 0.0976-0.15362 0.18924v2.1112c0 0.0893 0.06096 0.16663 0.147 0.18742l3.1149 0.76136c0.1661 0.68664 0.42357 1.3377 0.76376 1.9359l-1.8029 2.7494c-0.0503 0.0768-0.03977 0.17806 0.02521 0.24278l1.4926 1.4928c0.0628 0.0626 0.16077 0.0747 0.23732 0.0287l2.8252-1.7159c0.55497 0.32024 1.1535 0.57225 1.786 0.74316l0.65914 3.1694c0.0186 0.0898 0.0981 0.15376 0.18911 0.15376h2.1115c0.0888 0 0.1661-0.0606 0.18729-0.14765l0.77656-3.1761c0.65206-0.17598 1.2688-0.43826 1.8373-0.77306l2.7842 1.8257c0.0765 0.0504 0.17767 0.0403 0.24265-0.0247l1.4931-1.4928c0.0632-0.0632 0.0746-0.16077 0.0282-0.23681z" style="stroke-width:.13309"/>
   <path d="m134.25 274.21c-2.4866 0.11217-4.9312 1.085-6.7837 2.7532-2.1846 1.918-3.5128 4.7479-3.6472 7.6477v0.98959c0.14216 2.892 1.4682 5.7118 3.6472 7.6254 1.8458 1.6615 4.2782 2.6312 6.7548 2.7522h0.99619c2.9176-0.1466 5.7597-1.496 7.6721-3.7105 1.6126-1.8147 2.5488-4.1859 2.6976-6.6026v-1.0096c-0.11884-2.9398-1.475-5.8108-3.7006-7.7399-1.8158-1.617-4.1913-2.5566-6.6124-2.7054zm2.9326 5.754c0.21598 2e-3 0.431 0.0137 0.64237 0.0334 1.1972 0.13438 2.4132 0.59749 3.2218 1.5226 0.54864 0.60197 0.83192 1.394 0.94298 2.1902 0.34762 0.11994 0.69755 0.2332 1.0463 0.3476-0.31874 0.18102-0.63652 0.36324-0.94859 0.55538 0.0977 1.5893-0.48631 3.1674-1.4525 4.4147-1.0495 1.115-2.4456 1.8846-3.9261 2.2567-2.1646 0.53975-4.5523 0.20873-6.4503-0.97852-1.1984-0.74633-2.1803-1.8557-2.7178-3.1662-0.47312-1.2828-0.46751-2.6887-0.21651-4.0181 0.2099 0.80518 0.82745 1.4948 1.6271 1.7424 0.73522 0.23102 1.6481 0.14882 2.1945-0.44313 1.2394-1.1406 1.9847-2.7487 3.3796-3.7282 0.76613-0.55405 1.7213-0.73649 2.6573-0.7288zm1.6556 2.4031a0.65425 0.65425 0 0 0-0.65421 0.6542 0.65425 0.65425 0 0 0 0.65421 0.65443 0.65425 0.65425 0 0 0 0.65441-0.65443 0.65425 0.65425 0 0 0-0.11845-0.374 0.19159 0.18751 0 0 1 0.0125 0.0664 0.19159 0.18751 0 0 1-0.19165 0.18739 0.19159 0.18751 0 0 1-0.19148-0.18739 0.19159 0.18751 0 0 1 0.19148-0.18758 0.19159 0.18751 0 0 1 0.10058 0.0282 0.65425 0.65425 0 0 0-0.45732-0.18719zm0.45731 0.18719a0.65425 0.65425 0 0 1 0.0787 0.093 0.19159 0.18751 0 0 0-0.0787-0.093zm-5.6744 2.0959c-0.0526 0-0.10561 2e-3 -0.15865 7e-3 -0.45979 0.0644-0.89528 0.3165-1.1263 0.72743-0.56086 0.94181-1.6769 1.3472-2.7108 1.4927 1.4038 0.38426 2.8597 0.92179 4.3302 0.58528 0.57641-0.15216 0.92172-0.71292 1.0706-1.256 0.10724-0.80588-0.61509-1.5445-1.405-1.5568z" style="enable-background:new;stroke-width:.17331"/>
   <path d="m167.49 283.28c-1.409-1.5907-2.6788-2.6181-4.5585 0.0607-1.1185 1.594-7.8306 10.725-9.0622 12.18-0.35777 0.4225-0.56735 0.71613-0.84203 0.88632 4.3e-4 -0.57815 4.6364-7.9198 5.9338-10.047 1.5584-2.5556 1.5089-2.4064 1.3224-2.4057-0.26402 9.6e-4 -0.80101 0.39041-1.6175 1.2612-1.491 1.5902-5.9069 7.5086-6.2114 7.4173 0.10577-0.42992 3.5602-5.7271 5.1286-7.9184 1.3521-1.889 0.83523-2.033 0.0603-1.8486-3.302 0.78752-7.2511 2.6914-7.3788 2.6227 0.0478-0.0986 13.3-9.4177 15.071-9.5958 0.2061-0.0207 0.64094-0.38831 1.4158-0.69447 0.8412-0.33235 1.4073-0.60268 1.5474-0.51721-0.61387 0.86055-0.9371 1.0337-0.94257 1.3113-9e-3 0.45454-0.17072 1.1899-0.34787 1.4247 3.4246 2.2814 4.7607 10.06 5.739 16.317 0.23348 1.485 0.44985 2.6003 0.50503 3.2629-0.28906-0.74375-3.0272-10.629-5.7622-13.716z"/>
   <path d="m188.17 281.59c-0.5112-0.5556-0.84788-1.2695-0.95141-2.0174-0.10353-0.74787 0.0266-1.5264 0.36759-2.2 0.34103-0.67358 0.89151-1.2392 1.5556-1.5985 0.66405-0.35924 1.4387-0.51045 2.1891-0.4273 1.2078 0.13382 2.3281 0.89737 2.8943 1.9726l6.8061 0.93803h-7.7572c-0.48409-0.61917-1.2152-1.0395-1.9938-1.1464-0.55572-0.0763-1.1321 4e-3 -1.6457 0.22961-0.51362 0.22549-0.96293 0.59537-1.2829 1.0561-0.31995 0.46073-0.5096 1.0109-0.54147 1.571-0.0319 0.56002 0.0941 1.1282 0.3597 1.6223z"/>
   <path d="m189.12 284.13-10.417-7.4843c-0.49857 0.98495-0.69582 2.1199-0.55878 3.2153 0.13703 1.0954 0.60779 2.1468 1.3336 2.9786 0.95258 1.0916 2.3444 1.7884 3.7892 1.897-0.68198-0.21981-1.3068-0.61451-1.7982-1.136-0.49144-0.52143-0.84848-1.1685-1.0276-1.8623-0.20505-0.79439-0.17475-1.648 0.0861-2.4259z"/>
   <path d="m188.55 286.16-9.1532-2.5737c-0.0732 0.85561 0.095 1.7306 0.48036 2.498 0.38534 0.76742 0.98659 1.425 1.7166 1.8773 1.0836 0.67144 2.4481 0.87207 3.6791 0.54094-1.2331 9e-3 -2.455-0.60357-3.1861-1.5966-0.41251-0.56036-0.67191-1.2323-0.74296-1.9245z"/>
   <path d="m192.72 280.41c-0.17006 0.3527-0.2883 0.73033-0.34976 1.117-0.19062 1.1994 0.16604 2.4108 0.52149 3.5721 0.35546 1.1612 0.7178 2.3697 0.53854 3.5708-0.13393 0.8974-0.57187 1.7373-1.1846 2.4064s-1.3947 1.1721-2.2349 1.5147c-1.3845 0.56447-2.9415 0.69709-4.4016 0.37491v3.9927l1.2006-2.8501c1.556 0.35486 3.2218 0.21131 4.6941-0.40453 1.054-0.44087 2.0159-1.1272 2.7097-2.035 0.69373-0.90781 1.1078-2.0424 1.0785-3.1846-0.0352-1.3727-0.684-2.6449-1.3119-3.8661-0.62789-1.2212-1.2641-2.5032-1.2709-3.8763-5.5e-4 -0.11076 3e-3 -0.22155 0.0108-0.33204z"/>
   <path d="m0.016103 273.98c-0.21386 0.11724 1.7106 1.3739 5.3076 2.8566 3.5973 1.4827 8.5659 5.2396 8.1763 5.8462-1.1684 1.6477-1.8565 3.6189-1.3809 6.9942 0.08578 0.59415-1.7588 1.6246-1.6247 2.5211 0.11219 0.68214 2.0611-0.67496 2.2743-0.40678 0.13042 0.48136-1.0426 2.9165-0.56833 3.0906 0.34685 0.1032 3.3967-2.8966 3.5739-2.8465 5.0284 1.522 11.571 0.37362 11.697 0.32542-0.01192-0.0265 4.7071 2.2207 5.1173 1.9521 1.0347-1.1218-1.9616-2.703-1.4621-3.3346 0.219-0.33066 3.6491 1.2423 3.8181 0.81309 0.24588-0.74298-1.5919-2.3026-1.8684-2.7647-0.2405-0.42613-0.29178-1.1152 0.32502-1.5457 0.61703-0.43058 6.9253-2.847 6.6607-4.7168-0.4574-3.3974-8.0011-3.6177-8.1228-3.9037-0.05726-0.13432 0.33256-4.8581-1.8684-3.9855-1.3551 0.505-0.25016 3.515-0.16251 3.9041 0.08087 0.35827-0.60206 0.31952-0.73085 0.16226-0.28748-0.35148-1.2364-3.4876-2.356-2.9274-1.5702 0.86677-0.09263 3.5719-0.40582 3.6596-0.58174 0.3255-0.5485 1.1206-1.0148 1.7683-0.76895 1.1034-6.524-0.51702-8.384-0.62982-1.3617-0.0805-2.663 1.0372-2.786 0.8949-1.658-1.6624-5.0883-4.5564-8.8464-5.518-2.1075-0.57262-5.2426-2.23-5.3684-2.2089zm32.883 6.3558a0.6514 0.74256 0 0 1 0.65142 0.7427 0.6514 0.74256 0 0 1-0.65142 0.7427 0.6514 0.74256 0 0 1-0.65096-0.7427 0.6514 0.74256 0 0 1 0.65096-0.7427zm-1.4617 0.4511c0.27673 1.196 0.70868 1.5761 2.0049 1.538-1.6499 1.5147-2.6526-1.0796-2.0049-1.538zm3.4949 3.1281c0.10268-8e-3 0.18128 6e-3 0.22642 0.0498 0.64999 0.23589-2.7932 1.4765-2.8161 1.3012-0.03456-0.1208 1.8709-1.2927 2.5897-1.351zm0.42226 0.79299c0.03558-3e-3 0.06686 2e-3 0.09312 0.0159 0.61353 0.6103-1.9424 1.963-1.9136 1.9155-0.20597-0.12461 1.2868-1.89 1.8205-1.9315z"/>
   <path d="m40.285 277.38c-0.20825-0.17246-1.8413 2.4073-1.4802 2.675 0.21713 0.16263 1.5732-2.583 1.4802-2.675z"/>
   <path d="m38.408 277.02c-0.10307-0.11982-0.64999 2.6602-0.3971 2.7833 0.21713 0.16264 0.5953-2.6387 0.3971-2.7833z"/>
  </g>
 </g>
</svg>
