<svg width="760" height="90" version="1.1" viewBox="0 0 201.08 23.813" xmlns="http://www.w3.org/2000/svg">
 <g transform="translate(0 -273.19)">
  <g>
   <path d="m69.164 277.91 11.919 7.0343-11.928 7.0397.0091-14.074z" style="stroke-width:.3471"/>
   <path d="m92.271 285.01c0-6.2333-5.0512-11.292-11.275-11.292-3.5938 0-6.7827 1.695-8.8478 4.3206l1.4115.89511c1.7618-2.1564 4.4538-3.5288 7.4535-3.5288 5.3021 0 9.6052 4.3031 9.6052 9.6052s-4.3031 9.6052-9.6052 9.6052c-2.9911 0-5.6742-1.3659-7.4363-3.5116l-1.4115.89511c2.0656 2.6148 5.2455 4.3034 8.8306 4.3034 6.2237 0 11.275-5.0589 11.275-11.292z" style="stroke-width:.3471"/>
   <path d="m87.899 285.03c0-3.8103-3.0924-6.9027-6.9026-6.9027-2.0286 0-3.8491.87745-5.1124 2.2722l1.4632.91232c.9411-.92947 2.2277-1.4976 3.6493-1.4976 2.8791 0 5.2157 2.3521 5.2157 5.2502s-2.3366 5.2502-5.2157 5.2502c-1.4481 0-2.7556-.58899-3.7009-1.5492l-1.4115.89511c1.2633 1.3948 3.0838 2.2722 5.1124 2.2722 3.8103 0 6.9026-3.0924 6.9026-6.9027z" style="stroke-width:.3471"/>
   <path d="m61.931 274.34c-4.4292 0-5.26 6.3085-2.7684 6.3085 2.4913 0 7.1977-6.3085 2.7684-6.3085z"/>
   <path d="m54.576 279.87c1.3267.081 2.7822-5.0629.28877-4.7394-2.4925.32352-1.616 4.6584-.28877 4.7394z"/>
   <path d="m48.496 283.06c.94355-.41534.12152-4.4778-1.4829-3.3699-1.6037 1.1081.53938 3.785 1.4829 3.3699z"/>
   <path d="m51.155 280.94c1.1232-.229 1.1848-4.8364-.81825-4.0099-2.0034.82671-.30408 4.2392.81825 4.0099z"/>
   <path d="m57.02 291.25c.1993 1.522-1.1166 2.2736-2.4052 1.2924-4.1024-3.1234 6.7924-4.6816 6.0743-8.9487-.59609-3.542-11.464-2.4515-12.701 3.0906-.83769 3.7485 3.4482 8.9489 7.9202 8.9489 2.2 0 4.7376-1.9865 5.2123-4.503.36258-1.919-4.2666-1.15-4.1002.11972z"/>
   <path id="path5692_2_" transform="matrix(.13309 0 0 .13309 93.817 269.69)" d="m191.74 140.02-29.803 9.4297-38.016-55.658v50.182l-28.282 4.2588v-117.7l28.584-2.7363-.30273 51.701 37.713-50.483 30.41 6.9922-39.232 50.485z"/>
   <path d="m115.62 290.56-.3287.10398c-.048.0151-.10021-.003-.12841-.0446 0 0-.64842-.94891-1.4857-2.1743-1.0009 1.9589-3.0373 3.3007-5.3888 3.3007-3.3409 0-6.0496-2.7087-6.0496-6.0498 0-2.4579 1.4661-4.5716 3.5706-5.5185v-1.5606c-.38302.134-.75324.29549-1.1049.48707-.00032-.00027-.00079-.00091-.002-.001l-2.8497-1.869c-.0768-.0502-.17793-.0398-.24246.0252l-1.4931 1.4928c-.0628.063-.0746.16077-.0283.237l1.748 2.8789c-.31004.52125-.55835 1.0833-.73595 1.6762l-3.2093.66753c-.08929.0185-.15362.0976-.15362.18924v2.1112c0 .0893.06096.16663.147.18742l3.1149.76136c.1661.68664.42357 1.3377.76376 1.9359l-1.8029 2.7494c-.0503.0768-.03977.17806.02521.24278l1.4926 1.4928c.0628.0626.16077.0747.23732.0287l2.8252-1.7159c.55497.32024 1.1535.57225 1.786.74316l.65914 3.1694c.0186.0898.0981.15376.18911.15376h2.1115c.0888 0 .1661-.0606.18729-.14765l.77656-3.1761c.65206-.17598 1.2688-.43826 1.8373-.77306l2.7842 1.8257c.0765.0504.17767.0403.24265-.0247l1.4931-1.4928c.0632-.0632.0746-.16077.0282-.23681z" style="stroke-width:.13309"/>
   <path d="m134.25 274.21c-2.4866.11217-4.9312 1.085-6.7837 2.7532-2.1846 1.918-3.5128 4.7479-3.6472 7.6477v.98959c.14216 2.892 1.4682 5.7118 3.6472 7.6254 1.8458 1.6615 4.2782 2.6312 6.7548 2.7522h.99619c2.9176-.1466 5.7597-1.496 7.6721-3.7105 1.6126-1.8147 2.5488-4.1859 2.6976-6.6026v-1.0096c-.11884-2.9398-1.475-5.8108-3.7006-7.7399-1.8158-1.617-4.1913-2.5566-6.6124-2.7054zm2.9326 5.754c.21598.002.431.0137.64237.0334 1.1972.13438 2.4132.59749 3.2218 1.5226.54864.60197.83192 1.394.94298 2.1902.34762.11994.69755.2332 1.0463.3476-.31874.18102-.63652.36324-.94859.55538.0977 1.5893-.48631 3.1674-1.4525 4.4147-1.0495 1.115-2.4456 1.8846-3.9261 2.2567-2.1646.53975-4.5523.20873-6.4503-.97852-1.1984-.74633-2.1803-1.8557-2.7178-3.1662-.47312-1.2828-.46751-2.6887-.21651-4.0181.2099.80518.82745 1.4948 1.6271 1.7424.73522.23102 1.6481.14882 2.1945-.44313 1.2394-1.1406 1.9847-2.7487 3.3796-3.7282.76613-.55405 1.7213-.73649 2.6573-.7288zm1.6556 2.4031a.65425.65425 0 00-.65421.6542.65425.65425 0 00.65421.65443.65425.65425 0 00.65441-.65443.65425.65425 0 00-.11845-.374.19159.18751 0 01.0125.0664.19159.18751 0 01-.19165.18739.19159.18751 0 01-.19148-.18739.19159.18751 0 01.19148-.18758.19159.18751 0 01.10058.0282.65425.65425 0 00-.45732-.18719zm.45731.18719a.65425.65425 0 01.0787.093.19159.18751 0 00-.0787-.093zm-5.6744 2.0959c-.0526 0-.10561.002-.15865.007-.45979.0644-.89528.3165-1.1263.72743-.56086.94181-1.6769 1.3472-2.7108 1.4927 1.4038.38426 2.8597.92179 4.3302.58528.57641-.15216.92172-.71292 1.0706-1.256.10724-.80588-.61509-1.5445-1.405-1.5568z" style="enable-background:new;stroke-width:.17331"/>
   <path d="m167.49 283.28c-1.409-1.5907-2.6788-2.6181-4.5585.0607-1.1185 1.594-7.8306 10.725-9.0622 12.18-.35777.4225-.56735.71613-.84203.88632.00043-.57815 4.6364-7.9198 5.9338-10.047 1.5584-2.5556 1.5089-2.4064 1.3224-2.4057-.26402.00096-.80101.39041-1.6175 1.2612-1.491 1.5902-5.9069 7.5086-6.2114 7.4173.10577-.42992 3.5602-5.7271 5.1286-7.9184 1.3521-1.889.83523-2.033.0603-1.8486-3.302.78752-7.2511 2.6914-7.3788 2.6227.0478-.0986 13.3-9.4177 15.071-9.5958.2061-.0207.64094-.38831 1.4158-.69447.8412-.33235 1.4073-.60268 1.5474-.51721-.61387.86055-.9371 1.0337-.94257 1.3113-.009.45454-.17072 1.1899-.34787 1.4247 3.4246 2.2814 4.7607 10.06 5.739 16.317.23348 1.485.44985 2.6003.50503 3.2629-.28906-.74375-3.0272-10.629-5.7622-13.716z"/>
   <path d="m188.17 281.59c-.5112-.5556-.84788-1.2695-.95141-2.0174-.10353-.74787.0266-1.5264.36759-2.2.34103-.67358.89151-1.2392 1.5556-1.5985.66405-.35924 1.4387-.51045 2.1891-.4273 1.2078.13382 2.3281.89737 2.8943 1.9726l6.8061.93803h-7.7572c-.48409-.61917-1.2152-1.0395-1.9938-1.1464-.55572-.0763-1.1321.004-1.6457.22961-.51362.22549-.96293.59537-1.2829 1.0561-.31995.46073-.5096 1.0109-.54147 1.571-.0319.56002.0941 1.1282.3597 1.6223z"/>
   <path d="m189.12 284.13-10.417-7.4843c-.49857.98495-.69582 2.1199-.55878 3.2153.13703 1.0954.60779 2.1468 1.3336 2.9786.95258 1.0916 2.3444 1.7884 3.7892 1.897-.68198-.21981-1.3068-.61451-1.7982-1.136-.49144-.52143-.84848-1.1685-1.0276-1.8623-.20505-.79439-.17475-1.648.0861-2.4259z"/>
   <path d="m188.55 286.16-9.1532-2.5737c-.0732.85561.095 1.7306.48036 2.498.38534.76742.98659 1.425 1.7166 1.8773 1.0836.67144 2.4481.87207 3.6791.54094-1.2331.009-2.455-.60357-3.1861-1.5966-.41251-.56036-.67191-1.2323-.74296-1.9245z"/>
   <path d="m192.72 280.41c-.17006.3527-.2883.73033-.34976 1.117-.19062 1.1994.16604 2.4108.52149 3.5721.35546 1.1612.7178 2.3697.53854 3.5708-.13393.8974-.57187 1.7373-1.1846 2.4064s-1.3947 1.1721-2.2349 1.5147c-1.3845.56447-2.9415.69709-4.4016.37491v3.9927l1.2006-2.8501c1.556.35486 3.2218.21131 4.6941-.40453 1.054-.44087 2.0159-1.1272 2.7097-2.035.69373-.90781 1.1078-2.0424 1.0785-3.1846-.0352-1.3727-.684-2.6449-1.3119-3.8661-.62789-1.2212-1.2641-2.5032-1.2709-3.8763-.00055-.11076.003-.22155.0108-.33204z"/>
   <path d="m.016103 273.98c-.21386.11724 1.7106 1.3739 5.3076 2.8566 3.5973 1.4827 8.5659 5.2396 8.1763 5.8462-1.1684 1.6477-1.8565 3.6189-1.3809 6.9942.08578.59415-1.7588 1.6246-1.6247 2.5211.11219.68214 2.0611-.67496 2.2743-.40678.13042.48136-1.0426 2.9165-.56833 3.0906.34685.1032 3.3967-2.8966 3.5739-2.8465 5.0284 1.522 11.571.37362 11.697.32542-.01192-.0265 4.7071 2.2207 5.1173 1.9521 1.0347-1.1218-1.9616-2.703-1.4621-3.3346.219-.33066 3.6491 1.2423 3.8181.81309.24588-.74298-1.5919-2.3026-1.8684-2.7647-.2405-.42613-.29178-1.1152.32502-1.5457.61703-.43058 6.9253-2.847 6.6607-4.7168-.4574-3.3974-8.0011-3.6177-8.1228-3.9037-.05726-.13432.33256-4.8581-1.8684-3.9855-1.3551.505-.25016 3.515-.16251 3.9041.08087.35827-.60206.31952-.73085.16226-.28748-.35148-1.2364-3.4876-2.356-2.9274-1.5702.86677-.09263 3.5719-.40582 3.6596-.58174.3255-.5485 1.1206-1.0148 1.7683-.76895 1.1034-6.524-.51702-8.384-.62982-1.3617-.0805-2.663 1.0372-2.786.8949-1.658-1.6624-5.0883-4.5564-8.8464-5.518-2.1075-.57262-5.2426-2.23-5.3684-2.2089zm32.883 6.3558a.6514.74256 0 01.65142.7427.6514.74256 0 01-.65142.7427.6514.74256 0 01-.65096-.7427.6514.74256 0 01.65096-.7427zm-1.4617.4511c.27673 1.196.70868 1.5761 2.0049 1.538-1.6499 1.5147-2.6526-1.0796-2.0049-1.538zm3.4949 3.1281c.10268-.008.18128.006.22642.0498.64999.23589-2.7932 1.4765-2.8161 1.3012-.03456-.1208 1.8709-1.2927 2.5897-1.351zm.42226.79299c.03558-.003.06686.002.09312.0159.61353.6103-1.9424 1.963-1.9136 1.9155-.20597-.12461 1.2868-1.89 1.8205-1.9315z"/>
   <path d="m40.285 277.38c-.20825-.17246-1.8413 2.4073-1.4802 2.675.21713.16263 1.5732-2.583 1.4802-2.675z"/>
   <path d="m38.408 277.02c-.10307-.11982-.64999 2.6602-.3971 2.7833.21713.16264.5953-2.6387.3971-2.7833z"/>
  </g>
 </g>
</svg>
