<svg width="450" height="450" version="1.1" viewBox="0 0 119.06 119.06" xmlns="http://www.w3.org/2000/svg">
 <g transform="translate(0 -177.94)">
  <g id="fg">
   <path d="m58.338 238.04-53.539 18.749 53.496-18.871-55.302 12.636 55.272-12.763-56.369 6.3652 56.354-6.4942-56.727.0139 56.727-.14369-56.372-6.3376 56.386 6.2086-55.308-12.609 55.336 12.483-53.548-18.723 53.591 18.6-51.115-24.6 51.171 24.483-48.039-30.169 48.108 30.059-44.36-35.358 44.44 35.256-40.122-40.102 40.213 40.01-35.379-44.342 35.481 44.261-30.192-48.025 30.302 47.955-24.625-51.103 24.742 51.047-18.749-53.539 18.871 53.496-12.636-55.302 12.763 55.272-6.3652-56.369 6.4942 56.354-.01387-56.727.14369 56.727 6.3376-56.372-6.2086 56.386 12.609-55.308-12.483 55.336 18.723-53.548-18.6 53.591 24.6-51.115-24.483 51.171 30.169-48.039-30.059 48.108 35.358-44.36-35.256 44.44 40.102-40.122-40.01 40.213 44.342-35.379-44.261 35.481 48.025-30.192-47.955 30.302 51.103-24.625-51.047 24.742 53.539-18.749-53.496 18.871 55.302-12.636-55.272 12.763 56.369-6.3652-56.354 6.4942 56.727-.0139-56.727.14369 56.372 6.3376-56.386-6.2086 55.308 12.609-55.336-12.483 53.548 18.723-53.591-18.6 51.115 24.6-51.171-24.483 48.039 30.169-48.108-30.059 44.36 35.358-44.44-35.256 40.122 40.102-40.213-40.01 35.379 44.342-35.481-44.261 30.192 48.025-30.302-47.955 24.625 51.103-24.742-51.047 18.749 53.539-18.871-53.496 12.636 55.302-12.763-55.272 6.3652 56.369-6.4942-56.354.01387 56.727-.14369-56.727-6.3376 56.372 6.2086-56.386-12.609 55.308 12.483-55.336-18.723 53.548 18.6-53.591-24.6 51.115 24.483-51.171-30.169 48.039 30.059-48.108-35.358 44.36 35.256-44.44-40.102 40.122 40.01-40.213-44.342 35.379 44.261-35.481-48.025 30.192 47.955-30.302-51.103 24.625z" color="#000000" color-rendering="auto" enable-background="new" image-rendering="auto" shape-rendering="auto" solid-color="#000000" style="isolation:auto;mix-blend-mode:normal"/>
   <path transform="matrix(.26458 0 0 .26458 0 177.94)" d="m162.05 19.352c-2.148 0.18029-4.2856 0.28815-6.3965 0.56055l0.92773 0.12695c1.5535-0.56898 3.8207-0.31271 5.4688-0.6875zm-9.3828 0.98633c-3.493 0.21241-8.3397 2.0346-6.8438 0.37891-5.6973 2.5418-15.814 6.1096-21.492 11.434l-0.17968-1.1934c-2.6019 3.1235-11.346 9.3277-12.043 13.373l-0.69531 0.16406c-1.354 2.2924-2.2307 4.8891-3.3047 7.248-1.7708 3.0174-2.5956 1.1617-2.3438 1.6348-3.4828 7.0615-5.2124 12.995-6.707 17.861 1.065 1.5918 0.025115 9.5832 0.42773 15.979-1.7491 31.586 22.17 62.253 48.312 69.334 3.8319 1.3706 9.5299 1.3184 14.377 1.459-5.719-1.6353-6.4586-0.86648-12.029-2.8086-4.0185-1.8923-4.9-4.0532-7.7461-6.5234l1.127 1.9902c-5.5822-1.9754-3.2456-2.4444-7.7871-3.8828l1.2031-1.5723c-1.8092-0.13682-4.7917-3.0479-5.6074-4.6602l-1.9805 0.07813c-2.3781-2.9343-3.6448-5.0496-3.5527-6.6875l-0.63867 1.1387c-0.72495-1.2441-8.749-11.004-4.5859-8.7324-0.77353-0.70705-1.8031-1.1505-2.918-3.1758l0.84766-0.96875c-2.0035-2.5776-3.6864-5.8816-3.5586-6.9824 1.0689 1.4435 1.811 1.7122 2.5449 1.959-5.0593-12.553-5.3439-0.69107-9.1758-12.777l0.81055-0.06446c-0.62138-0.9359-0.99813-1.952-1.498-2.9492l0.35157-3.5176c-3.6426-4.2116-1.0177-17.906-0.49219-25.418 0.36439-3.0545 3.0407-6.3073 5.0762-11.406l-1.2402-0.21289c2.3705-4.1349 13.535-16.607 18.705-15.965 2.5047-3.1466-0.49859-0.009849-0.98828-0.80274 5.5017-5.6934 7.2324-4.0228 10.945-5.0469 4.0045-2.3768-3.4358 0.9272-1.5371-0.90625 6.9222-1.7683 4.905-4.0204 13.936-4.918 0.95253 0.54211-2.2099 0.83782-3.0039 1.541 5.7676-2.8218 18.251-2.1798 26.359 1.5664 9.409 4.397 19.98 17.394 20.396 29.623l0.47461 0.12891c-0.24038 4.8611 0.74467 10.482-0.96093 15.646l1.1602-2.4434c0.13682 3.7155-1.086 5.5177-2.1894 8.709l-1.9863 0.99219c-1.6251 3.1555 0.15764 2.0039-1.0059 4.5137-2.5367 2.2554-7.6977 7.0576-9.3496 7.4961-1.2057-0.02645 0.81737-1.4215 1.082-1.9687-3.3959 2.3321-2.7264 3.4993-7.9199 4.916l-0.15039-0.33789c-12.809 6.0259-30.601-5.915-30.367-22.209-0.13682 1.0344-0.38998 0.77526-0.67382 1.1934-0.66102-8.3835 3.8711-16.804 11.516-20.242 7.477-3.7014 16.244-2.181 21.6 2.8105-2.942-3.8536-8.7982-7.9389-15.738-7.5566-6.7981 0.10734-13.157 4.4274-15.279 9.1172-3.4828 2.1927-3.8866 8.4521-5.4043 9.5977-2.0419 15.007 3.8399 21.491 13.791 29.117 0.81463 0.5493 0.89693 0.85557 0.82227 1.1367 0.00718-0.00983 0.0075-0.02298 0.01757-0.03125 11.74 4.3855 23.867 3.3209 34.025-4.8223 2.584-2.0125 5.4069-5.4371 6.2226-5.4844-1.2287 1.8475 0.20921 0.88806-0.73437 2.5195 2.575-4.1528-1.1186-1.6887 2.6621-7.1699l1.3965 1.9219c-0.51909-3.447 4.2821-7.6322 3.7949-13.084 1.1008-1.6673 1.2272 1.7932 0.0586 5.6289 1.6212-4.2551 0.42693-4.9383 0.84375-8.4492 0.45005 1.1801 1.0407 2.4343 1.3438 3.6797-1.0561-4.1119 1.084-6.9248 1.6133-9.3145-0.52166-0.23131-1.6297 1.8182-1.8828-3.0391 0.03704-2.1096 0.58658-1.1059 0.79882-1.625-0.41425-0.23774-1.5011-1.8552-2.1621-4.957 0.47947-0.72878 1.2815 1.8887 1.9336 1.9961-0.41937-2.4663-1.1405-4.346-1.1699-6.2383-1.9051-3.9815-0.67492 0.52908-2.2207-1.7109-2.0278-6.3251 1.683-1.4676 1.9336-4.3418 3.0737 4.4532 4.8266 11.356 5.6309 14.215-0.61371-3.4854-1.6056-6.8622-2.8164-10.129 0.93335 0.39251-1.5041-7.1715 1.2129-2.1621-2.9024-10.679-12.421-20.656-21.178-25.338 1.0714 0.98066 2.4234 2.2112 1.9375 2.4043-4.3548-2.5929-3.589-2.7949-4.2129-3.8906-3.548-1.4435-3.7809 0.11583-6.1309 0.001953-6.6869-3.5467-7.9752-3.1685-14.129-5.3906l0.2793 1.3066c-4.4302-1.4755-5.161 0.56011-9.9492 0.003906-0.29152-0.22753 1.5348-0.82236 3.0371-1.041-4.2832 0.56513-4.0823-0.84368-8.2734 0.15625 1.0331-0.72493 2.1244-1.206 3.2266-1.8223zm2.8906 86.207c-0.01701 0.02328-0.02974 0.0486-0.03125 0.08008 0.00944-0.02627 0.0242-0.05353 0.03125-0.08008zm-0.03125 0.08008c-0.08287 0.23044-0.22815 0.45631-0.13672 0.80273-3.3064-1.5483-6.3348-3.8847-8.8242-6.7461 1.3208 1.9332 2.7474 3.8123 4.5898 5.2891-3.1171-1.0561-7.2821-7.5537-8.498-7.8184 5.3738 9.6212 21.802 16.873 30.404 13.275-3.9802 0.14703-9.0373 0.08071-13.51-1.5723-1.7385-0.89471-4.0522-2.6733-4.0254-3.2305zm0.60156-85.484c1.2262 0.21997 2.6487 0.38883 2.4492 0.68164 1.3412-0.29405 1.646-0.56527-2.4492-0.68164zm2.4492 0.68164-0.86719 0.17773 0.80859-0.070312 0.0586-0.10742zm-56.533 27.217c0.358 3.3141-2.492 4.5991 0.63281 2.4141 1.6749-3.773-0.65583-1.0409-0.63281-2.4141zm-2.5469 10.521c-1.9894 2.5431-0.91532 3.0865-1.125 4.8164 0.71983-2.2094 0.85011-3.5378 1.125-4.8164zm81.877 15.361c-0.28416 0.007191-0.64855 0.73001-0.83203 1.5195 0.42832 0.22262 0.76739 2.916 1.1816 1.25 0.13873-2.0687-0.06544-2.7767-0.34961-2.7695zm25.125 6.9727-0.33789 0.8457c-0.61882 4.3957-1.9556 8.7447-4.0039 12.777 2.2631-4.2551 3.7281-8.9077 4.3418-13.623zm-26.609 1.5469c-0.30687 1.5241-1.1354 2.84-1.9141 4.2285-4.2947 2.7042-0.40343-1.6063-0.00196-3.2441-4.6182 5.8124-0.63329 3.4856-0.80078 5.1094 1.3681-1.8884 2.3652-3.956 2.7168-6.0938zm-9.3652 8.875c-1.868 0.45775-3.7683 0.468-5.6836 0.29297-2.2976 0.030237 0.43408 1.1849 3.4336 1.6465 0.82852-0.64696 1.58-1.3027 2.25-1.9395zm-28.994 0.29883c0.50632 1.8629 1.5444 3.4642 2.5098 5.0918l-0.70703-2.084c-0.79911-0.88352-1.2734-1.9479-1.8027-3.0078zm-1.7676 3.1484-0.32226 1.6113c1.51 2.0508 2.7086 4.2736 4.6367 5.877-1.3872-2.708-2.4183-3.8278-4.3145-7.4883z" stroke-width="1.0757"/>
   <path d="m65.076 267.18c-6.0664-5.1807-15.184-4.463-20.364 1.6038-5.1807 6.0664-4.463 15.184 1.6038 20.364 6.0664 5.1807 15.184 4.463 20.364-1.6038 5.1807-6.0664 4.463-15.184-1.6038-20.364zm-0.78168 0.91533c4.6121 3.9388 5.8516 10.36 3.431 15.609-2.8358 1.2412-5.9258 1.9003-9.0213 1.9216-1.4872 0.0103-2.9841-0.12686-4.412-0.54261-1.4278-0.41579-2.7871-1.1205-3.8608-2.1495-0.80672-0.77306-1.4429-1.725-1.834-2.7712 2.8798 0.61452 5.8707 0.70914 8.7796 0.24764 1.9091-0.30282 3.8291-0.86017 5.3756-2.0199 0.7732-0.57985 1.4419-1.3077 1.906-2.1554 0.46416-0.84776 0.71702-1.8174 0.67091-2.7828-0.04503-0.94315-0.37417-1.8651-0.90324-2.6471-0.52907-0.78205-1.253-1.4259-2.0696-1.9-1.6331-0.94824-3.5954-1.2043-5.4774-1.0489-3.3173 0.27393-6.5842 1.8674-8.5372 4.5635-0.97625 1.3479-1.6122 2.9486-1.774 4.605-0.03611 0.36974-0.04676 0.74219-0.03503 1.1137-1.3708-0.53195-2.688-1.2022-3.9227-2.0006 0.36154-2.3501 1.3595-4.6316 3.0171-6.5726 4.7487-5.5606 13.106-6.2189 18.667-1.4699zm-1.6733 2.089c0.70687 0.60552 1.2366 1.4282 1.437 2.3372 0.18054 0.81891 0.09053 1.6877-0.20882 2.4711-0.29936 0.78333-0.80167 1.4826-1.4156 2.0538-1.2279 1.1425-2.8593 1.7586-4.4984 2.1141-2.9021 0.62957-5.948 0.51594-8.8292-0.20325-0.29491-0.0736-0.58875-0.15513-0.88024-0.24123-0.11112-0.76046-0.09828-1.5389 0.0489-2.293 0.30745-1.5758 1.1879-3.0078 2.3423-4.1236 1.1544-1.1159 2.5718-1.931 4.0584-2.5373 1.7237-0.70298 3.6266-1.1381 5.45-0.76323 0.91171 0.18743 1.7887 0.58008 2.4957 1.1855zm4.204 15.153c-0.31755 0.49129-0.67031 0.96796-1.0607 1.425-4.7487 5.5606-13.106 6.2188-18.667 1.4699-3.123-2.667-4.7001-6.4725-4.6409-10.281 1.361 0.7146 2.7927 1.2942 4.2656 1.7334 0.1634 0.75502 0.43019 1.4876 0.79922 2.1665 1.0626 1.9549 2.9312 3.3992 5.0028 4.2111 2.0716 0.81195 4.338 1.0293 6.5608 0.92945 2.648-0.11905 5.275-0.68119 7.7402-1.6542z" stroke-width=".62049"/>
   <path d="m59.409 219.17c-10.175 0-18.424 8.2485-18.424 18.424 0 10.175 8.2485 18.424 18.424 18.424 10.176 0 18.424-8.2488 18.424-18.424 0-10.176-8.2488-18.424-18.424-18.424zm6.33 5.1156c.3964.0102.79596.11677 1.1636.32895 1.1765.67928 1.5792 2.1829.89994 3.3595-.67891 1.1761-2.183 1.5788-3.3595.89937-1.1762-.67902-1.579-2.1828-.89994-3.359.46698-.80886 1.3238-1.2515 2.1959-1.2289zm-6.33 2.6223c.98923 0 1.946.1373 2.8548.38878.16083.98804.74739 1.8986 1.6825 2.4384.93368.53912 2.014.59248 2.9489.23926 1.819 1.7883 3.0025 4.2215 3.1749 6.9309l-3.5056.0515c-.32262-3.67-3.4021-6.5483-7.1557-6.5483-1.0816 0-2.1066.24042-3.0266.66844l-1.7091-3.0626c1.4275-.70715 3.0346-1.1065 4.7356-1.1065zm-5.9279 1.7954 1.7982 3.0122c-1.8472 1.3002-3.0553 3.4471-3.0553 5.878 0 2.4313 1.2082 4.5788 3.0553 5.8786l-1.7982 3.0122c-2.1526-1.4383-3.7539-3.6368-4.4189-6.212.77699-.63317 1.2732-1.5972 1.2732-2.6782 0-1.0812-.49622-2.0461-1.2732-2.6793.66507-2.5752 2.2663-4.7733 4.4189-6.2115zm-6.5997 6.431c1.3583 0 2.4595 1.1013 2.4595 2.46 0 1.3584-1.1012 2.4589-2.4595 2.4589-1.3588 0-2.46-1.1005-2.46-2.4589 0-1.3588 1.1013-2.46 2.46-2.46zm19.684 3.097 3.5056.051c-.17229 2.7097-1.3557 5.1431-3.1744 6.9314-.93521-.35344-2.016-.30031-2.9495.2387-.93521.54005-1.5217 1.4505-1.6825 2.4384-.90898.25171-1.8657.38878-2.8548.38878-1.701 0-3.3079-.39904-4.7356-1.106l1.7091-3.0632c.9201.42802 1.9449.66845 3.0266.66845 3.7537 0 6.8333-2.8772 7.1557-6.5478zm-.95756 7.754c.87204-.0227 1.7285.42045 2.1953 1.2289.67925 1.1764.27624 2.6803-.89994 3.3595-1.1765.67928-2.6802.27604-3.3595-.90048-.67914-1.1761-.27604-2.6796.9005-3.359.36754-.21221.76718-.31869 1.1636-.32898z" stroke-width=".28355"/>
   <path transform="matrix(.26458 0 0 .26458 0 177.94)" d="m36.891 111.16c-1.5787 12.992-2.3676 21.425-4.582 34.217 1.0674 0.65169 2.1945 1.3272 3.4062 2.0176 0.5765 0.32843 1.1723 0.6579 1.791 0.99219 0.59095 0.31945 1.2068 0.64171 1.8418 0.96485 0.051151 0.02601 0.096982 0.05209 0.14844 0.07812 0.68965 0.34911 1.4062 0.69951 2.1543 1.0508 0.58259 0.27358 1.2006 0.54654 1.8223 0.82031 0.18332 0.08072 0.35216 0.16151 0.53906 0.24219 0.004145 0.00179 0.007571 0.00407 0.011719 0.00586 0.8067 0.34809 1.6461 0.69481 2.5234 1.041 0.004778 0.00188 0.008892 0.00397 0.013672 0.00586 0.88156 0.34767 1.8002 0.69537 2.7598 1.0391-0.96583-0.12044-1.8977-0.25143-2.7969-0.39063-0.90003-0.13958-1.7683-0.28744-2.6055-0.44531-5.0232-0.94724-8.9506-2.218-12.225-3.7266-7.65e-4 4e-3 -0.001189 0.00773-0.001953 0.01172-0.014494-0.00668-0.030453-0.01285-0.044922-0.01953-0.31084 1.703-0.66031 3.5342-1.0254 5.4141-0.05199 0.25712-0.098167 0.49156-0.15039 0.75-0.013947 0.07106-0.017228 0.13169-0.03125 0.20312-2.61e-4 0.00134 2.62e-4 0.00258 0 0.00391-0.01584 0.0783-0.029903 0.1513-0.044922 0.22656-0.06739 0.34287-0.15332 0.74241-0.22266 1.0918-0.011041 0.04151-0.021419 0.08348-0.029297 0.12305-0.66508 3.3476-1.4366 7.0691-2.3047 11.125-0.06977 0.32478-0.13385 0.62522-0.20508 0.95507-0.81488 3.7876-1.7508 8.0009-2.7754 12.516-2.9956 13.184-6.9367 29.724-12.283 51.432 14.305-14.435 25.818-24.068 37.455-29.721-1.1448-2.1216-2.1138-4.4906-2.791-7.0527l-0.12891-0.54883c-2.6986-10.952 0.67873-20.862 7.5371-22.123 6.8582-1.261 14.6 6.6011 17.299 17.553 0.50781 2.0607 0.81528 4.093 0.91016 6.0293 12.781-0.93708 27.447 1.5392 46.834 6.6387-4.9616-5.1792-9.4055-9.8568-13.645-14.309-5.372-2.227-11.217-5.4372-21.973-7.7051 6.9444-0.08429 12.116 0.59183 16.328 1.7773-16.011-16.872-26.634-28.34-34.527-37.172-0.2156-0.24075-0.43599-0.48695-0.64648-0.72266-3.5847-4.0214-6.4918-7.3968-9.1797-10.574-3.3583-4.001-7.3355-8.9238-11.799-14.494-2.3358-2.9596-4.5763-5.8036-7.3574-9.3203z" fill-rule="evenodd" stroke-width=".62981"/>
   <path transform="matrix(.26458 0 0 .26458 0 177.94)" d="m342.9 26.734c-2.8901 0.018898-6.6115 0.742-10.387 1.7344l-0.00195-0.001953c-8.3056 2.1826-16.876 5.6784-17.441 5.916l-0.10742 0.11328 0.01758 0.14453s1.9413 3.4239 2.1582 3.8027c-2.0018 0.43435-16.435 3.6914-28.027 10.021-9.8287 5.3668-23.257 12.696-35.08 35.125l-0.34571 0.67188c-5.5092 10.628-7.5681 20.928-6.0938 30.613 0.46445 3.0459 2.4204 9.3855 6.8301 13.828 1.923 1.9455 4.3381 3.605 6.9863 4.8106 5.9708 2.7274 13.212 2.5981 19.355-0.33594 8.6734-4.1418 12.721-11.538 10.838-19.777-1.3048-5.6872-6.9821-11.795-14.951-11.912-6.4781-0.10054-11.207 3.601-13.012 7.3144-1.5627 3.2318-1.453 6.7518 0.30273 9.6484 3.1173 5.1274 9.1968 5.2404 12.395 3.3535 0.93644-0.55443 1.7718-1.2686 2.6191-2.2363 0.30736-0.33752 0.58391-0.68056 0.82422-1.1543l0.07618-0.14844 0.05273-0.08984-0.02344 0.0293c0.4405-0.92378 0.40166-1.9911-0.11133-2.8574-0.14207-0.24001-0.31826-0.46081-0.52539-0.66211-1.1495-1.0847-2.9087-1.1105-4.1055-0.07032l-0.1621 0.14258-0.19336 0.23047-0.28907 0.32422c-0.62639 0.62118-1.1719 0.96697-1.2871 1.0352-0.39076 0.19654-2.5647 0.73893-3.7598-1.2793l-0.01563-0.02344c-0.43356-0.74364-0.44224-1.4415-0.44336-1.8203 0.03213-1.2365 1.0836-3.0492 3.3145-4.1133 2.9234-1.4139 5.7723-1.1723 8.6914 0.73047 2.7195 1.7714 4.2159 5.0378 3.8106 8.3281-0.40217 3.2615-2.9208 6.0342-7.2812 8.0137-4.4011 1.9906-9.2971 1.6834-13.441-0.86132-4.0589-2.4798-6.7067-6.7088-6.9102-11.039-0.49194-10.368 7.4552-14.96 12.229-16.779 7.0651-2.6888 15.922-1.0014 22.553 4.291 1.0541 0.84346 1.7857 1.5825 2.4336 2.2539l0.97461 1.0195 9.3379-0.74805 0.14063 0.01172 0.16211-0.125-0.08985-0.22265c-0.1429-0.13872-0.33693-0.22808-1.7031-2.1582-1.2018-1.7098-4.397-6.4658-3.3652-10.377 0.39306-1.5178 1.3637-3.2368 2.3574-4.1973 4.0623-3.9678 10.697-6.8116 19.562-3.8438 4.5766 1.5382 6.7633 2.1836 7.8086 2.4297l0.35351 0.080078 0.39844 0.035156c0.28684-0.007559 11.523-1.1699 11.523-1.1699l0.1543-0.15039-0.11133-0.20117c-0.09328-0.030237-9.8654-3.9031-12.371-10.373-2.0047-5.1571 1.9788-6.949 7.4961-9.418 1.8003-0.80902 3.8539-1.725 5.8691-2.8574 5.5692-3.2505 10.941-7.8067 13.672-11.602 1.7669-2.453 2.8805-4.0452 3.3184-5.4746 0.1795-0.48508 0.08562-1.057-0.02539-1.6543l-0.0664-0.40625c-0.08202-0.49248-0.358-1.4744-0.53907-1.9961-0.07355-0.22678-0.18568-0.46471-0.39062-0.49219l-0.45508 0.39844c-1.0422 1.9292-3.9906 6.1685-7.7305 8.4844-4.6358 2.8737-16.941 3.6568-18.23 3.7305l-0.15429-0.05664c-0.57546-0.42358-3.9802-2.9409-4.6992-3.4688 9.4593 0.45204 16.57-0.40936 21.117-2.5879 5.0623-2.416 7.2591-7.2614 8.1973-9.332 0.19095-0.39712 0.32294-0.71226 0.40234-0.80664l-0.00195-0.23047c-1.2647-1.5304-8.6195-8.2198-11.68-9.0586-0.84652-0.22904-1.5754-0.49923-2.7226-0.49609zm-1.2031 4.9336c1.9475 0.091648 3.8033 1.1674 4.8086 3 0.74276 1.3457 0.91021 2.9041 0.48047 4.3828-0.43773 1.4767-1.4216 2.6946-2.7774 3.4434-2.7935 1.5188-6.3021 0.48389-7.834-2.3086-0.74573-1.3508-0.90589-2.9108-0.47266-4.3848 0.42978-1.4786 1.4133-2.7002 2.7695-3.4355 0.34935-0.19087 0.70976-0.34083 1.0762-0.45312 0.64122-0.1966 1.3001-0.27469 1.9492-0.24414zm1.0527 2.1875c-0.55626-0.029911-1.2041 0.13387-1.8125 0.49414-1.2168 0.72058-1.8095 1.9572-1.3262 2.7734 0.4774 0.8063 1.852 0.8863 3.0684 0.16602 1.2163-0.72024 1.8114-1.9672 1.334-2.7734-0.24167-0.40806-0.70741-0.63024-1.2637-0.66016z"/>
   <path d="m28.509 243.69c-.13864-.1234-.31467-.21079-.53857-.25284-.34866-.60842-.63335-.67606-.90997-.68103-.08978-.12351-.56564-1.0047-1.3793-.95679-.58215-.99002-1.442-.78959-1.7936-.01-.42806.0325-.8576.0557-1.0758.90525-.42148.078-.68036.42398-.80625 1.0895-.50115.23005-.66096.64743-.64129 1.1628-.63442.38244-.51965 1.2422-.50498 1.5138-.28953.32842-.50275.71698-.16004 1.5388-.42349.49993-.19822.97937-.0019 1.46-1.7697-.73765-3.6393-1.1036-6.111.78502l-.49156.0683c-2.0699-.81494-6.0629.0696-6.851 4.025-.64721.71063-1.0107 1.3545-1.4516 2.0166-2.1757 2.1415-1.7653 5.0265-1.4929 5.6628-.002 1.2369.06523 2.5016.52597 3.9325-.28983 1.8985.16722 3.3701 1.0485 4.5296.0129.017.026112.0343.039215.0512.87982 1.1604 2.1738 1.9964 4.0805 2.2275 1.2543.82829 2.4545 1.2328 3.6465 1.5634.53956.43344 3.2077 1.6041 5.8551.0842.75616-.24663 1.4745-.42394 2.3329-.85634 4.022.30374 5.9469-3.3048 5.7183-5.5176l.19774-.45529c2.483-1.8729 2.6335-3.7717 2.3988-5.6746.41015.3183.81131.66414 1.4067.39057.69943.55093 1.131.44964 1.5251.25902.25777.0872 1.0553.42903 1.5942-.0793.49113.15743.93565.11564 1.2919-.3052.67486.0576 1.0778-.0988 1.2663-.4838.87675.0184 1.0145-.38935 1.1611-.79265.84529-.12929 1.2693-.90343.47188-1.7306.26488-.77073-.45564-1.4657-.55069-1.5857.06956-.26777.08094-.56048-.4114-1.0598.05249-.60525-.30722-.96398-.78081-1.2566.01471-.78554-.54321-.87475-.94259-1.1568-.25717-.74232-.62658-.67632-.95683-.88626-.35535-.75267-.80315-.72331-1.3542-.79513l-.26731-.36715c-1.3193-.54064-2.8624-.13553-3.5966.15041.47277-.63061 1.2788-2.0066 1.1127-3.4223l-.28181-.35629c.07862-.55043.22739-.97372-.40208-1.5183-.11345-.37453.04957-.71261-.5966-1.1602-.10784-.30209-.1175-.64755-.32575-.90521l-.000371-.00032c-.10926-.13482-.27314-.24483-.53437-.31247-.09658-.33426-.23031-.63289-.46263-.8371zm-.5459.65615c.37522.75379.41124 1.1662.44598 1.5772.34576.0548.36615-.25949.43096-.52282.19317.63648.14938 1.0727.11942 1.5201.19262-.002.38985.07.5583-.32572.06448.50709.02676.95455-.09246 1.3549.30465.11275.42755-.11987.60359-.25165-.0199.59296-.1606 1.0668-.25427 1.5868.08532.0257.26511-.032.52283-.15772-.18455 1.5187-1.3837 4.3772-3.5918 3.2276.09998-2.4795-.36796-4.9947-1.2139-7.5334.6317 3.6093.69426 5.939.40008 7.4649-2.0181.86476-3.7721-1.285-4.3375-2.1287.20248.10692.39957.17499.57834.11639-.0098-.31196-.68403-.9329-.78303-1.6484.18669.1618.29378.22318.50435.20542-.20862-.58862-.46624-1.1983-.44376-1.6886.121.16353.2016.34095.50896.44111-.0935-.59813-.2562-1.1885-.17372-1.8058.17198.21537.34836.45454.4813.46206-.05426-.57119-.03528-1.1025.0515-1.5961.19609.33527.32651.44079.43639.47444.07783-.52201.04961-1.0864.28573-1.545.09453.2877.22282.51949.45257.58213.14937-.2707-.04225-.79922.29696-1.4448.15897.25773.32299.53438.41401.54554.36936-.45606.47954-.84123.6016-1.2295.39768.50798.97897 1.2938.99565 1.2256l.08314-.56411c.51611.39928.74913 1.032.91574 1.4931.25915.0671.29725-.2302.31273-.56386.26684.4697.46126.92947.59063 1.3804.30932.0585.24434-.37572.29966-.65178zm7.3542 9.8877c-.42643.0559-.40969.26528-.46363.45023.43903.0914.871.16691 1.4322.52405-.27106-.008-.57916-.0736-.61928.27413.3865.14392.77384.28967 1.3991.85365-.28077-.0209-.68169-.20038-.70842.11332.39952.24579.79019.55687 1.1709.94016-.32555-.0748-.62217-.1181-.62717.14955.39943.28441.94614.67874 1.192 1.2832l-.56562-.0712c-.07021-.002.53024.76897.91265 1.2885-.40677.0132-.80723.0156-1.3461.24873-.01372.0907.20884.32347.41437.54587-.71297.15323-1.1704-.17393-1.4713-.10281-.0014.23815.187.42391.43871.59228-.50518.10419-1.0414-.0745-1.5651-.13984.0029.11486.06968.26881.33992.54779-.49874-.0491-1.0154-.1738-1.551-.37958-.02848.13007.15442.36465.31566.58819-.61678-.0865-1.142-.4018-1.693-.6526.01389.32297.16295.44799.28794.60846-.47827-.11012-.99623-.5217-1.5072-.88086-.07377.19806-.04401.31784.06236.54083-.66259-.28766-1.0793-1.1041-1.3771-1.1974-.10451.15645-.0917.36428-.04313.58802-.66066-.77139-2.2599-3.0387-.88456-4.7501 1.5496.12658 3.7772.81383 7.0855 2.3931-2.2189-1.4983-4.5167-2.6254-6.9326-3.1948-.51359-2.4359 2.5619-2.8229 4.0743-2.5923-.19038.21442-.29404.37228-.29224.46135.52605.0495 1.0197.0412 1.5962.18139-.17423.13414-.43118.19039-.40445.51413.41761-.007.85879.0763 1.3299.27465zm-14.318-3.3264c.51477.43448.96454.9996 1.3188 1.6766.52274.99712-7.8385-.72973-6.9006-1.5662 1.906-1.5423 4.0373-1.4135 5.582-.11041zm4.0427 4.102c.18354.1688.35256.35599.50026.56143.97903 1.2606 1.2113 3.5654.29951 4.2476-.80462.60211-2.2875-.006-3.5837-1.7387-1.2612-1.7032-1.33-3.443-.55154-4.0279.52068-.39102 2.0342-.10806 3.1467.79531.06421.0521.12711.10628.18796.16291zm2.2344 4.2641c2.2275 2.0926 2.3175 5.1726-.34637 7.0678-1.0577.67854-.47353-7.8394.34637-7.0678zm-8.1115-4.6216a3.501 4.1307 86.829 0 1 1.1256 2.1865 3.5011 4.1308 86.829 1 1-8.2437.53991 3.501 4.1307 86.829 0 1 6.9972-2.8281 3.501 4.1307 86.829 0 1 .12089.10153zm-5.1425-3.2043c1.4287 1.1078-5.3975 4.8378-5.7538 3.3244.056199-2.0049 2.684-4.6318 5.7538-3.3244zm10.086 9.3698a3.501 4.1307 18.761 0 1-3.7615 7.1775 3.501 4.1307 18.761 0 1 2.7354-7.7952 3.501 4.1307 18.761 0 1 1.0262.61782zm2.0114 6.4135c.07702.0509.13827.12697.18101.23155.43422 3.3084-2.8029 5.1339-4.7491 4.6492-1.2767-.70315 3.4139-5.645 4.5681-4.8806zm-10.23-5.075a3.9034 3.5995 52.795 0 1-.06377 5.8077 3.9034 3.5995 52.795 1 1-4.7207-6.2177 3.9034 3.5995 52.795 0 1 4.7844.41012zm-6.7628-5.7701c.83853.69162 1.0241 2.3272.66602 4.0068-.39626 1.7026-1.9709 3.5367-3.0892 3.216-.95653-.3805-2.0764-2.2179-1.2555-4.7514.84038-1.9263 2.4071-2.9496 3.2794-2.7073.14677.0577.27955.13718.39936.23599zm11.197 13.803c.29066.27233.45449.60694.45082 1.0136-.13099.96948-1.9561 2.8654-3.9297 2.8404-2.8567.0711-4.2961-1.6759-4.2913-2.7374.12914-1.2044 2.591-2.2292 4.4483-2.1227 1.4293.1081 2.682.40717 3.3214 1.0062zm-11.713-3.6425c.41969.37217.80808.79056 1.0928 1.1858 1.0027 1.2076 1.8181 3.2302 1.2146 3.6936-.57272.46746-3.0716-.0639-4.178-1.5746-1.239-1.4937-1.0567-4.019-.58024-4.3496.4532-.3691 1.5274.22599 2.4506 1.0447z" stroke-width=".22649"/>
   <path transform="matrix(.26458 0 0 .26458 0 177.94)" d="m373.63 113.47c-0.97647 0.02902-1.9317 0.08923-2.8672 0.17382-9.5632 0.86508-16.894 4.4411-20.348 6.7559-10.146 6.8017-17.301 16.5-19.449 22.289-4.417 11.88-3.44 17.366 3.1172 24.018 4.9768 5.049 22.16 12.178 22.16 12.178s-13.063 13.654-18.096 19.332c-5.0328 5.6777-8.7022 13.56-4.8047 24.857 3.8978 11.298 13.203 14.559 13.203 14.559s12.298 5.9098 28.967-3.1133c16.669-9.023 28.812-18.23 28.812-18.23s24.029-19.702 30.252-28.395c6.2234-8.6915 14.915-17.456 9.4473-30.072-5.4678-12.616-26.328-28.246-26.328-28.246s-20.578-13.064-34.783-15.463c-3.2465-0.54832-6.3538-0.72966-9.2832-0.64258zm0.9043 2.4121c13.793 0.25835 29.295 10.728 34.395 13.773 5.5261 3.2994 21.778 15.248 27.732 24.131 5.8184 8.6808 1.4746 12.117 1.4746 12.117s-12.012 16.08-24.279 27.191c-12.268 11.111-35.613 25.6-35.613 25.6s-7.7108 5.1557-18.238 8.1445c-9.0373 2.5658-13.872 0.28027-17.465-2.2578-3.5921-2.5383-5.2214-7.2472-5.0606-12.332 0.22073-6.9775 2.8631-10.925 6.0176-14.766 5.4378-6.6219 7.4651-9.1112 12.799-14.67 5.3334-5.5584 10.254-12.537 10.254-12.537l-7.8379-3.0977s-15.714-5.0298-20.781-8.0781c-5.0677-3.0486-6.7143-8.3141-4.8203-15.148 1.8801-6.7841 11.749-15.431 14.553-18.295 0 0 8.9127-7.9089 23.457-9.6172 0.22708-0.03024 0.45092-0.04833 0.67969-0.06836h0.00195c0.90078-0.07877 1.8129-0.10707 2.7324-0.08984zm3.2109 21.107c-0.34389 0.00914-0.68254 0.03209-1.0156 0.07031-5.3296 0.61154-9.9304 6.2533-9.4199 10.428 0.51052 4.1744 6.2461 8.1875 6.2461 8.1875s8.8432 6.3491 16.301 5.1152c7.4573-1.234 7.6309-5.9004 7.6309-5.9004s1.2022-6.2188-3.7031-10.736c-4.5986-4.2352-10.881-7.3012-16.039-7.1641zm4.5312 15.803c0.32345 8.1e-4 0.64184 0.02011 0.94336 0.06055 1.686 0.223 4.3351 1.383 5.793 2.0684-0.57079 0.28385-1.2557 0.52768-2.0781 0.74414-2.1198 0.55806-5.8438-0.51323-8.8398-2.2324 0.71469-0.19465 1.9354-0.4829 3.2031-0.59375v-0.00196c0.32659-0.02853 0.65507-0.04572 0.97851-0.04492z" fill-rule="evenodd" stroke-width=".88177"/>
   <path d="m90.854 250.58c-8.0609 1.4355-13.446 9.0046-12.052 16.917l-0.0028 1.8e-4 1.9736 11.082 0.0029-2.1e-4c0.32322 1.7932 2.0655 2.982 3.8949 2.6562l11.286-2.0099c8.0614-1.4406 13.446-9.0088 12.038-16.914-1.4086-7.9097-9.0832-13.153-17.151-11.716zm4.0158 5.3669c2.4512-0.43651 5.0933 0.99223 5.5456 3.5318 0.0419 0.23555 0.0855 0.47099 0.0937 0.74509 0.0524 0.68771-0.49064 1.2853-1.1931 1.3122-0.70261 0.0257-1.2815-0.52988-1.2736-1.2204-0.0019-0.0783-0.01915-0.19874-0.0558-0.40451-0.25648-1.4402-1.5569-1.7824-2.6926-1.5801-1.1355 0.20221-1.9921 1.321-1.8048 2.381 0.23782 1.2218 0.43474 2.4412 0.65262 3.6647l2.1048-0.39079c1.6396-0.32646 2.0909 2.1007 0.44381 2.3822l-2.1233 0.39409c0.17013 0.98658 0.15155 0.80599 0.23488 1.3033 0 0 0.23251 1.2023 0.35849 2.1223 0.22353 2.7289-1.724 5.2884-4.5231 5.7869-2.9674 0.52844-5.835-1.4148-6.3546-4.3322-0.44518-3.0161 1.5736-5.8104 4.6514-6.3305l1.7117-0.31791 0.42408 2.3813-1.7112 0.3207-0.0088 2e-3c-1.6796 0.34966-2.9266 1.7322-2.6378 3.5107 0.28771 1.6156 1.8493 2.6733 3.5014 2.3791 1.6498-0.2938 2.7606-1.7064 2.4525-3.4365l-1.6089-9.0186c-0.02872-0.1676-0.04709-0.30161-0.06122-0.48959-0.11437-2.2555 1.5978-4.295 3.8751-4.7005z" stroke-width=".26458"/>
  </g>
  <g id="bg" transform="translate(.0031494 -.0012409)" fill="#fff">
   <path d="m98.368 208.62c3.8132-0.33345 8.3839 2.7611 9.823 3.6207 1.4621 0.87297 5.7618 4.0343 7.3371 6.3843 1.5394 2.2968 0.39006 3.2057 0.39006 3.2057s-3.1778 4.2546-6.4234 7.1943c-3.2459 2.9398-9.4223 6.7728-9.4223 6.7728s-2.0403 1.3643-4.8256 2.155c-2.3911 0.67886-3.6705 0.0743-4.621-0.59722-0.95042-0.67156-1.382-1.9172-1.3394-3.2625 0.0584-1.8461 0.75788-2.8904 1.5925-3.9066 1.4388-1.752 1.9751-2.4108 3.3863-3.8815 1.4111-1.4706 2.7134-3.3172 2.7134-3.3172l-2.0738-0.81948s-4.1583-1.3304-5.499-2.137c-1.3408-0.80662-1.7759-2.2001-1.2748-4.0083 0.49742-1.7949 3.1081-4.0828 3.8501-4.8406 0 0 2.3584-2.0924 6.2065-2.5443 0.06007-8e-3 0.11939-0.0126 0.17992-0.0179zm1.3036 5.5801c-1.4101 0.1618-2.6272 1.6543-2.4921 2.7587 0.13507 1.1045 1.6524 2.1663 1.6524 2.1663s2.34 1.6797 4.3131 1.3532c1.973-0.32651 2.0187-1.5609 2.0187-1.5609s0.31819-1.6455-0.97961-2.8408c-1.2978-1.1952-3.1023-2.0384-4.5123-1.8766z" fill-rule="evenodd" stroke-width=".2333"/>
   <path d="m65.739 224.29c-0.87207-0.0226-1.7287 0.41997-2.1957 1.2288-0.67902 1.1762-0.2765 2.6799 0.89967 3.3589 1.1765 0.67939 2.681 0.27691 3.3599-0.89915 0.67928-1.1766 0.27636-2.6806-0.90018-3.3599-0.3676-0.21218-0.76732-0.31845-1.1637-0.32865zm-6.3302 2.622c-1.701 0-3.308 0.39922-4.7355 1.1064l1.7094 3.0628c0.92004-0.42802 1.945-0.66868 3.0266-0.66868 3.7537 0 6.8329 2.8783 7.1555 6.5483l3.5057-0.0512c-0.1724-2.7093-1.3559-5.1429-3.1749-6.9312-0.93498 0.35322-2.0154 0.29986-2.9491-0.23926-0.9351-0.53982-1.5217-1.45-1.6825-2.438-0.90879-0.25148-1.8653-0.38912-2.8546-0.38912zm-5.9277 1.7952c-2.1525 1.4382-3.7537 3.6366-4.4188 6.2119 0.77699 0.63328 1.2733 1.5982 1.2733 2.6794 0 1.081-0.49629 2.0446-1.2733 2.6778 0.66493 2.5752 2.2661 4.7741 4.4188 6.2124l1.7983-3.0122c-1.8471-1.2998-3.055-3.4473-3.055-5.8786 0-2.4309 1.2079-4.5779 3.055-5.8781l-1.7983-3.0122zm-6.5995 6.4315c-1.3588 0-2.4603 1.101-2.4603 2.4598 0 1.3584 1.1015 2.4592 2.4603 2.4592 1.3583 0 2.4592-1.1008 2.4592-2.4592 0-1.3588-1.101-2.4598-2.4592-2.4598zm19.684 3.0969c-0.32265 3.6703-3.402 6.5473-7.1555 6.5473-1.0817 0-2.1065-0.24014-3.0266-0.66816l-1.7094 3.0633c1.4277 0.70693 3.0351 1.1058 4.736 1.1058 0.98915 0 1.9456-0.13689 2.8546-0.38859 0.16083-0.98792 0.74734-1.8985 1.6825-2.4386 0.93348-0.53902 2.0144-0.59219 2.9496-0.23875 1.8187-1.7884 3.0021-4.222 3.1744-6.9317zm-0.95755 7.7539c-0.39638 0.0103-0.79619 0.11696-1.1637 0.32917-1.1765 0.67933-1.5798 2.1828-0.9007 3.3589 0.67936 1.1765 2.1834 1.5795 3.3599 0.90018 1.1762-0.67925 1.5789-2.183 0.89967-3.3594-0.46684-0.80847-1.3231-1.2515-2.1952-1.2288z" stroke-width=".28355"/>
   <path d="m27.963 244.35c0.37522 0.75379 0.41124 1.1662 0.44598 1.5772 0.34576 0.0548 0.36615-0.25949 0.43096-0.52282 0.19317 0.63648 0.14938 1.0727 0.11942 1.5201 0.19262-2e-3 0.38985 0.07 0.5583-0.32572 0.06448 0.50709 0.02676 0.95455-0.09246 1.3549 0.30465 0.11275 0.42755-0.11987 0.60359-0.25165-0.0199 0.59296-0.1606 1.0668-0.25427 1.5868 0.08532 0.0257 0.26511-0.032 0.52283-0.15772-0.18455 1.5187-1.3837 4.3772-3.5918 3.2276 0.09998-2.4795-0.36796-4.9947-1.2139-7.5334 0.6317 3.6093 0.69426 5.939 0.40008 7.4649-2.0181 0.86476-3.7721-1.285-4.3375-2.1287 0.20248 0.10692 0.39957 0.17499 0.57834 0.11639-0.0098-0.31196-0.68403-0.9329-0.78303-1.6484 0.18669 0.1618 0.29378 0.22318 0.50435 0.20542-0.20862-0.58862-0.46624-1.1983-0.44376-1.6886 0.121 0.16353 0.2016 0.34095 0.50896 0.44111-0.0935-0.59813-0.2562-1.1885-0.17372-1.8058 0.17198 0.21537 0.34836 0.45454 0.4813 0.46206-0.05426-0.57119-0.03528-1.1025 0.0515-1.5961 0.19609 0.33527 0.32651 0.44079 0.43639 0.47444 0.07783-0.52201 0.04961-1.0864 0.28573-1.545 0.09452 0.2877 0.22282 0.51949 0.45257 0.58213 0.14937-0.2707-0.04225-0.79922 0.29696-1.4448 0.15897 0.25773 0.32299 0.53438 0.41401 0.54554 0.36936-0.45606 0.47954-0.84123 0.6016-1.2295 0.39768 0.50798 0.97897 1.2938 0.99565 1.2256l0.08314-0.56411c0.51611 0.39928 0.74913 1.032 0.91574 1.4931 0.25915 0.0671 0.29725-0.2302 0.31273-0.56386 0.26684 0.4697 0.46126 0.92947 0.59063 1.3804 0.30932 0.0585 0.24434-0.37572 0.29966-0.65178zm7.3542 9.8877c-0.42643 0.0559-0.40969 0.26528-0.46363 0.45023 0.43903 0.0914 0.871 0.16691 1.4322 0.52405-0.27106-8e-3 -0.57916-0.0736-0.61928 0.27413 0.3865 0.14392 0.77384 0.28967 1.3991 0.85365-0.28077-0.0209-0.68169-0.20038-0.70842 0.11332 0.39952 0.24579 0.79019 0.55687 1.1709 0.94016-0.32555-0.0748-0.62217-0.1181-0.62717 0.14955 0.39943 0.28441 0.94614 0.67874 1.192 1.2832l-0.56562-0.0712c-0.07021-2e-3 0.53024 0.76897 0.91265 1.2885-0.40677 0.0132-0.80723 0.0156-1.3461 0.24873-0.01372 0.0907 0.20884 0.32347 0.41437 0.54587-0.71297 0.15323-1.1704-0.17393-1.4713-0.10281-0.0014 0.23815 0.187 0.42391 0.43871 0.59228-0.50518 0.10419-1.0414-0.0745-1.5651-0.13984 0.0029 0.11486 0.06968 0.26881 0.33992 0.54779-0.49874-0.0491-1.0154-0.1738-1.551-0.37958-0.02848 0.13007 0.15442 0.36465 0.31566 0.58819-0.61678-0.0865-1.142-0.4018-1.693-0.6526 0.01389 0.32297 0.16295 0.44799 0.28794 0.60846-0.47827-0.11012-0.99623-0.5217-1.5072-0.88086-0.07376 0.19806-0.04401 0.31784 0.06236 0.54083-0.66259-0.28766-1.0793-1.1041-1.3771-1.1974-0.10451 0.15645-0.0917 0.36428-0.04313 0.58802-0.66066-0.77139-2.2599-3.0387-0.88456-4.7501 1.5496 0.12658 3.7772 0.81383 7.0855 2.3931-2.2189-1.4983-4.5167-2.6254-6.9326-3.1948-0.51359-2.4359 2.5619-2.8229 4.0743-2.5923-0.19038 0.21442-0.29404 0.37228-0.29224 0.46135 0.52605 0.0495 1.0197 0.0412 1.5962 0.18139-0.17423 0.13414-0.43118 0.19039-0.40445 0.51413 0.41762-7e-3 0.85879 0.0763 1.3299 0.27465zm-14.318-3.3264c0.51477 0.43448 0.96454 0.9996 1.3188 1.6766 0.52274 0.99712-7.8385-0.72973-6.9006-1.5662 1.906-1.5423 4.0373-1.4135 5.582-0.11041zm4.0427 4.102c0.18354 0.1688 0.35256 0.35599 0.50026 0.56143 0.97903 1.2606 1.2113 3.5654 0.29951 4.2476-0.80462 0.60211-2.2875-6e-3 -3.5837-1.7387-1.2612-1.7032-1.33-3.443-0.55154-4.0279 0.52068-0.39102 2.0342-0.10806 3.1467 0.79531 0.06421 0.0521 0.12711 0.10628 0.18796 0.16291zm2.2344 4.2641c2.2275 2.0926 2.3175 5.1726-0.34637 7.0678-1.0577 0.67854-0.47353-7.8394 0.34637-7.0678zm-8.1115-4.6216c0.66973 0.58873 1.0684 1.3631 1.1256 2.1865 0.32346 4.657-7.9202 5.1969-8.2437 0.53991-0.22107-3.1859 4.2945-5.0109 6.9972-2.8281 0.04114 0.0331 0.08144 0.067 0.12089 0.10153zm-5.1425-3.2043c1.4287 1.1078-5.3975 4.8378-5.7538 3.3244 0.0562-2.0049 2.684-4.6318 5.7538-3.3244zm10.086 9.3698c2.9768 2.7066-0.05632 8.4943-3.7615 7.1775-4.3843-1.5714-1.6574-9.3426 2.7354-7.7952 0.37657 0.13378 0.72364 0.34274 1.0262 0.61782zm2.0114 6.4135c0.07702 0.0509 0.13827 0.12697 0.18101 0.23155 0.43422 3.3084-2.8029 5.1339-4.7491 4.6492-1.2767-0.70315 3.4139-5.645 4.5681-4.8806zm-10.23-5.075c1.7647 1.6734 1.7342 4.4586-0.06377 5.8077-3.8263 2.9438-8.5843-3.323-4.7207-6.2177 1.3893-1.0672 3.409-0.89406 4.7844 0.41012zm-6.7628-5.7701c0.83853 0.69162 1.0241 2.3272 0.66602 4.0068-0.39626 1.7026-1.9709 3.5367-3.0892 3.216-0.95653-0.3805-2.0764-2.2179-1.2555-4.7514 0.84038-1.9263 2.4071-2.9496 3.2794-2.7073 0.14677 0.0577 0.27955 0.13718 0.39936 0.23599zm11.197 13.803c0.29066 0.27233 0.45449 0.60694 0.45082 1.0136-0.13099 0.96948-1.9561 2.8654-3.9297 2.8404-2.8567 0.0711-4.2961-1.6759-4.2913-2.7374 0.12914-1.2044 2.591-2.2292 4.4483-2.1227 1.4293 0.1081 2.682 0.40717 3.3214 1.0062zm-11.713-3.6425c0.41969 0.37217 0.80808 0.79056 1.0928 1.1858 1.0027 1.2076 1.8181 3.2302 1.2146 3.6936-0.57272 0.46746-3.0716-0.0639-4.178-1.5746-1.239-1.4937-1.0567-4.019-0.58024-4.3496 0.4532-0.3691 1.5274 0.22599 2.4506 1.0447z" stroke-width=".22649"/>
   <path d="m95.79 255.87c-0.30772-2e-3 -0.6172 0.0228-0.9236 0.0774l0.0015-5e-3c-2.2772 0.40554-3.9898 2.4452-3.8754 4.7007 0.01412 0.18797 0.03259 0.32193 0.06131 0.48953l1.6088 9.0184c0.30811 1.7301-0.80273 3.1427-2.4525 3.4365-1.6521 0.29421-3.2135-0.76346-3.5012-2.379-0.28876-1.7784 0.95833-3.1608 2.6379-3.5104l0.0088-2e-3 1.7114-0.32068-0.42433-2.3815-1.7119 0.31824c-3.0777 0.52015-5.0963 3.3143-4.6511 6.3304 0.51956 2.9175 3.3873 4.8608 6.3547 4.3323 2.7991-0.4985 4.7466-3.0579 4.5231-5.7868-0.12598-0.92-0.35864-2.1226-0.35864-2.1226-0.08333-0.49727-0.0649-0.31657-0.23504-1.3032l2.1236-0.39416c1.6471-0.28155 1.1958-2.7084-0.44379-2.382l-2.1051 0.39075c-0.21788-1.2235-0.41473-2.4429-0.65255-3.6647-0.1873-1.06 0.66937-2.1788 1.8049-2.381 1.1358-0.20227 2.436 0.13984 2.6924 1.58 0.03665 0.20577 0.05408 0.32613 0.05596 0.40438-0.0078 0.69048 0.57087 1.2461 1.2735 1.2204 0.70241-0.0268 1.2455-0.6247 1.1932-1.3124-8e-3 -0.2741-0.0515-0.50946-0.0934-0.74501-0.39575-2.2222-2.4683-3.5935-4.6224-3.6092zm-15.018 22.71c0.0404 0.22415 0.10325 0.43885 0.1854 0.64233-0.08214-0.20348-0.14451-0.41818-0.18492-0.64233z" stroke-width=".26458"/>
  </g>
 </g>
</svg>
