<svg width="450" height="450" version="1.1" viewBox="0 0 119.06 119.06" xmlns="http://www.w3.org/2000/svg">
 <g transform="translate(0 -177.94)">
  <g id="fg">
   <path d="m58.338 238.04-53.539 18.749 53.496-18.871-55.302 12.636 55.272-12.763-56.369 6.3652 56.354-6.4942-56.727.0139 56.727-.14369-56.372-6.3376 56.386 6.2086-55.308-12.609 55.336 12.483-53.548-18.723 53.591 18.6-51.115-24.6 51.171 24.483-48.039-30.169 48.108 30.059-44.36-35.358 44.44 35.256-40.122-40.102 40.213 40.01-35.379-44.342 35.481 44.261-30.192-48.025 30.302 47.955-24.625-51.103 24.742 51.047-18.749-53.539 18.871 53.496-12.636-55.302 12.763 55.272-6.3652-56.369 6.4942 56.354-.01387-56.727.14369 56.727 6.3376-56.372-6.2086 56.386 12.609-55.308-12.483 55.336 18.723-53.548-18.6 53.591 24.6-51.115-24.483 51.171 30.169-48.039-30.059 48.108 35.358-44.36-35.256 44.44 40.102-40.122-40.01 40.213 44.342-35.379-44.261 35.481 48.025-30.192-47.955 30.302 51.103-24.625-51.047 24.742 53.539-18.749-53.496 18.871 55.302-12.636-55.272 12.763 56.369-6.3652-56.354 6.4942 56.727-.0139-56.727.14369 56.372 6.3376-56.386-6.2086 55.308 12.609-55.336-12.483 53.548 18.723-53.591-18.6 51.115 24.6-51.171-24.483 48.039 30.169-48.108-30.059 44.36 35.358-44.44-35.256 40.122 40.102-40.213-40.01 35.379 44.342-35.481-44.261 30.192 48.025-30.302-47.955 24.625 51.103-24.742-51.047 18.749 53.539-18.871-53.496 12.636 55.302-12.763-55.272 6.3652 56.369-6.4942-56.354.01387 56.727-.14369-56.727-6.3376 56.372 6.2086-56.386-12.609 55.308 12.483-55.336-18.723 53.548 18.6-53.591-24.6 51.115 24.483-51.171-30.169 48.039 30.059-48.108-35.358 44.36 35.256-44.44-40.102 40.122 40.01-40.213-44.342 35.379 44.261-35.481-48.025 30.192 47.955-30.302-51.103 24.625z" color="#000000" color-rendering="auto" enable-background="new" image-rendering="auto" shape-rendering="auto" solid-color="#000000" style="isolation:auto;mix-blend-mode:normal"/>
   <g transform="matrix(.33828 0 0 .33828 26.028 183.06)" stroke-width=".84134">
    <g stroke-width=".84134">
     <g stroke-width=".84134">
      <path d="m51.986 57.297c-1.797.025.34.926 2.686 1.287.648-.506 1.236-1.018 1.76-1.516-1.461.358-2.948.366-4.446.229"/>
      <path d="m61.631 54.893c1.07-1.477 1.85-3.094 2.125-4.766-.24 1.192-.887 2.221-1.496 3.307-3.359 2.115-.316-1.256-.002-2.537-3.612 4.546-.496 2.726-.627 3.996"/>
      <path d="m65.191 45.629c.217-3.236-.637-2.213-.924-.978.335.174.6 2.281.924.978"/>
      <path d="m45.172 1.399c.959.172 2.072.304 1.916.533 1.049-.23 1.287-.442-1.916-.533"/>
      <path d="m47.088 1.932-.678.14.631-.056.047-.084"/>
      <path d="m76.992 46.856c.107 2.906-.85 4.316-1.713 6.812l-1.553.776c-1.271 2.468.123 1.567-.787 3.53-1.984 1.764-6.021 5.52-7.313 5.863-.943-.021.639-1.113.846-1.541-2.656 1.824-2.131 2.738-6.193 3.846l-.119-.264c-10.018 4.713-23.934-4.627-23.751-17.371-.107.809-.304.607-.526.934-.517-6.557 3.028-13.143 9.007-15.832 5.848-2.895 12.704-1.707 16.893 2.197-2.301-3.014-6.881-6.209-12.309-5.91-5.317.084-10.291 3.463-11.951 7.131-2.724 1.715-3.04 6.611-4.227 7.507-1.597 11.737 3.004 16.808 10.787 22.773 1.225.826.345.951.511 1.58-2.586-1.211-4.954-3.039-6.901-5.277 1.033 1.512 2.148 2.982 3.589 4.137-2.438-.826-5.695-5.908-6.646-6.115 4.203 7.525 17.052 13.197 23.78 10.383-3.113.115-7.068.064-10.566-1.229-1.469-.756-3.467-2.322-3.11-2.615 9.182 3.43 18.667 2.598 26.612-3.771 2.021-1.574 4.229-4.252 4.867-4.289-.961 1.445.164.695-.574 1.971 2.014-3.248-.875-1.322 2.082-5.609l1.092 1.504c-.406-2.696 3.348-5.97 2.967-10.234.861-1.304.961 1.403.047 4.403 1.268-3.328.334-3.863.66-6.609.352.923.814 1.904 1.051 2.878-.826-3.216.848-5.416 1.262-7.285-.408-.181-1.275 1.422-1.473-2.377.029-1.65.459-.865.625-1.271-.324-.186-1.174-1.451-1.691-3.877.375-.57 1.002 1.478 1.512 1.562-.328-1.929-.893-3.4-.916-4.88-1.49-3.114-.527.415-1.736-1.337-1.586-4.947 1.316-1.148 1.512-3.396 2.404 3.483 3.775 8.881 4.404 11.117-.48-2.726-1.256-5.367-2.203-7.922.73.307-1.176-5.609.949-1.691-2.27-8.352-9.715-16.156-16.564-19.818.838.767 1.896 1.73 1.516 1.881-3.406-2.028-2.807-2.186-3.295-3.043-2.775-1.129-2.957.091-4.795.002-5.23-2.774-6.238-2.479-11.051-4.217l.219 1.023c-3.465-1.154-4.037.438-7.782.004-.228-.178 1.2-.644 2.375-.815-3.35.442-3.193-.66-6.471.122.808-.567 1.662-.942 2.524-1.424-2.732.166-6.522 1.59-5.352.295-4.456 1.988-12.37 4.779-16.811 8.943l-.14-.933c-2.035 2.443-8.874 7.296-9.419 10.46l-.544.127c-1.059 1.793-1.744 3.825-2.584 5.67-1.385 2.36-2.03.908-1.833 1.278-2.724 5.523-4.077 10.164-5.246 13.97.833 1.245.02 7.495.335 12.497-1.368 24.704 17.338 48.69 37.785 54.228 2.997 1.072 7.454 1.031 11.245 1.141-4.473-1.279-5.051-.678-9.408-2.197-3.143-1.48-3.832-3.17-6.058-5.102l.881 1.557c-4.366-1.545-2.539-1.912-6.091-3.037l.941-1.229c-1.415-.107-3.748-2.385-4.386-3.646l-1.548.061c-1.86-2.295-2.851-3.949-2.779-5.23l-.5.891c-.567-.973-6.843-8.607-3.587-6.83-.605-.553-1.409-.9-2.281-2.484l.663-.758c-1.567-2.016-2.884-4.6-2.784-5.461.836 1.129 1.416 1.34 1.99 1.533-3.957-9.818-4.179-.541-7.176-9.994l.634-.051c-.486-.732-.781-1.527-1.172-2.307l.276-2.75c-2.849-3.294-.797-14.006-.386-19.881.285-2.389 2.378-4.932 3.97-8.92l-.97-.167c1.854-3.234 10.586-12.988 14.63-12.486 1.959-2.461-.389-.009-.772-.629 4.303-4.453 5.656-3.146 8.56-3.947 3.132-1.859-2.688.725-1.203-.709 5.414-1.383 3.837-3.144 10.9-3.846.745.424-1.729.655-2.35 1.205 4.511-2.207 14.275-1.705 20.617 1.225 7.359 3.439 15.627 13.605 15.953 23.17l.371.1c-.188 3.802.582 8.199-.752 12.238l.908-1.912"/>
      <path d="m32.372 59.764-.252 1.26c1.181 1.604 2.118 3.342 3.626 4.596-1.085-2.118-1.891-2.993-3.374-5.856"/>
      <path d="m35.164 59.654c-.625-.691-.995-1.523-1.409-2.352.396 1.457 1.207 2.709 1.962 3.982l-.553-1.63"/>
      <path d="m84.568 48.916-.264.662c-.484 3.438-1.529 6.84-3.131 9.994 1.77-3.328 2.915-6.968 3.395-10.656"/>
      <path d="m45.527.537c1.215-.445 2.987-.244 4.276-.537-1.68.141-3.352.225-5.003.438l.727.099"/>
      <path d="m2.872 23.219c.28 2.592-1.95 3.598.494 1.889 1.31-2.951-.512-.815-.494-1.889"/>
      <path d="m0 35.215c.563-1.728.665-2.766.88-3.766-1.556 1.989-.716 2.413-.88 3.766"/>
     </g>
    </g>
   </g>
   <g transform="matrix(.34749 .55707 -.55707 .34749 60.726 256.45)" stroke-width=".94506">
    <path d="m17.367 3.0237c-11.585 3.6633-18.007 16.024-14.343 27.609 3.6633 11.585 16.024 18.007 27.609 14.343 11.585-3.6633 18.007-16.024 14.343-27.609-3.6633-11.585-16.024-18.007-27.609-14.343zm.55275 1.748c8.8078-2.7851 18.105.78928 22.937 8.1487-.68204 4.6652-2.321 9.1896-4.7888 13.207-1.1855 1.9301-2.5694 3.754-4.2577 5.2641-1.6883 1.51-3.6947 2.6984-5.89 3.2565-1.6493.41935-3.3922.47411-5.0596.13617 3.1155-3.2261 5.6488-7.015 7.3972-11.146 1.1476-2.7112 1.9751-5.6417 1.723-8.575-.12606-1.4666-.52758-2.9174-1.249-4.2006-.72137-1.2832-1.7706-2.3916-3.0553-3.1102-1.2551-.70208-2.7118-1.0199-4.1489-.9666-1.4371.053306-2.8527.46987-4.1236 1.1429-2.5418 1.346-4.4545 3.6755-5.7708 6.2328-2.3201 4.5077-2.8943 10.014-.98449 14.711.95487 2.3481 2.5108 4.4602 4.5209 6.0045.44869.34471.92142.6587 1.411.94304-1.7924 1.3426-3.7204 2.5046-5.7474 3.4566-2.7455-2.3616-4.8895-5.4904-6.0616-9.1971-3.358-10.619 2.5285-21.95 13.148-25.308zm1.3508 3.8463c1.3523-.42536 2.8425-.44671 4.1786.027025 1.2038.42681 2.254 1.2435 3.025 2.2618.77096 1.0183 1.2697 2.2311 1.513 3.485.4866 2.5077-.03235 5.1126-.89411 7.5173-1.5258 4.2578-4.1279 8.1023-7.3799 11.246-.33286.32176-.67507.63577-1.0213.94306-1.0723-.46941-2.0679-1.1135-2.9238-1.9116-1.7886-1.6676-2.9293-3.9596-3.4407-6.3509-.51145-2.3913-.4223-4.88-.0074-7.2899.48104-2.7942 1.4526-5.604 3.4069-7.6581.97714-1.0271 2.1915-1.8439 3.5438-2.2695zm22.971 6.7823c.37891.80639.71053 1.6465.98654 2.5194 3.358 10.619-2.5285 21.95-13.148 25.308-5.964 1.8859-12.153.85633-17.027-2.2902 2.0206-1.1828 3.9236-2.5657 5.6786-4.115 1.1074.39746 2.2692.64325 3.444.71361 3.3829.20264 6.7555-1.0479 9.4747-3.0705s4.827-4.7762 6.4898-7.7292c1.9807-3.5179 3.3719-7.3659 4.1017-11.336z" stroke-width=".94506"/>
   </g>
   <path d="m59.409 219.17c-10.175 0-18.424 8.2485-18.424 18.424 0 10.175 8.2485 18.424 18.424 18.424 10.176 0 18.424-8.2488 18.424-18.424 0-10.176-8.2488-18.424-18.424-18.424zm6.33 5.1156c.3964.0102.79596.11677 1.1636.32895 1.1765.67928 1.5792 2.1829.89994 3.3595-.67891 1.1761-2.183 1.5788-3.3595.89937-1.1762-.67902-1.579-2.1828-.89994-3.359.46698-.80886 1.3238-1.2515 2.1959-1.2289zm-6.33 2.6223c.98923 0 1.946.1373 2.8548.38878.16083.98804.74739 1.8986 1.6825 2.4384.93368.53912 2.014.59248 2.9489.23926 1.819 1.7883 3.0025 4.2215 3.1749 6.9309l-3.5056.0515c-.32262-3.67-3.4021-6.5483-7.1557-6.5483-1.0816 0-2.1066.24042-3.0266.66844l-1.7091-3.0626c1.4275-.70715 3.0346-1.1065 4.7356-1.1065zm-5.9279 1.7954 1.7982 3.0122c-1.8472 1.3002-3.0553 3.4471-3.0553 5.878 0 2.4313 1.2082 4.5788 3.0553 5.8786l-1.7982 3.0122c-2.1526-1.4383-3.7539-3.6368-4.4189-6.212.77699-.63317 1.2732-1.5972 1.2732-2.6782 0-1.0812-.49622-2.0461-1.2732-2.6793.66507-2.5752 2.2663-4.7733 4.4189-6.2115zm-6.5997 6.431c1.3583 0 2.4595 1.1013 2.4595 2.46 0 1.3584-1.1012 2.4589-2.4595 2.4589-1.3588 0-2.46-1.1005-2.46-2.4589 0-1.3588 1.1013-2.46 2.46-2.46zm19.684 3.097 3.5056.051c-.17229 2.7097-1.3557 5.1431-3.1744 6.9314-.93521-.35344-2.016-.30031-2.9495.2387-.93521.54005-1.5217 1.4505-1.6825 2.4384-.90898.25171-1.8657.38878-2.8548.38878-1.701 0-3.3079-.39904-4.7356-1.106l1.7091-3.0632c.9201.42802 1.9449.66845 3.0266.66845 3.7537 0 6.8333-2.8772 7.1557-6.5478zm-.95756 7.754c.87204-.0227 1.7285.42045 2.1953 1.2289.67925 1.1764.27624 2.6803-.89994 3.3595-1.1765.67928-2.6802.27604-3.3595-.90048-.67914-1.1761-.27604-2.6796.9005-3.359.36754-.21221.76718-.31869 1.1636-.32898z" stroke-width=".28355"/>
   <g transform="matrix(.53811 -.14682 .14682 .53811 -60.788 55.564)" stroke-width=".9425">
    <g transform="matrix(.27724 0 0 .27724 10.498 256.83)" fill-rule="evenodd" stroke-width=".9425">
     <path transform="matrix(1.1433,0,0,1.1433,22.92,121.64)" d="m105.81 16.625c-7.3969 18.135-11.858 29.998-20.094 47.594 5.0494 5.3523 11.247 11.585 21.312 18.625-10.821-4.4528-18.203-8.9234-23.719-13.562-10.54 21.993-27.053 53.321-60.562 113.53 26.338-15.205 46.754-24.579 65.781-28.156-.81703-3.514-1.2816-7.3152-1.25-11.281l.03125-.84375c.41792-16.874 9.1957-29.85 19.594-28.969 10.398.88104 18.48 15.282 18.062 32.156-.0786 3.1751-.43674 6.2296-1.0625 9.0625 18.821 3.6816 39.019 13.032 65 28.031-5.123-9.4318-9.6957-17.934-14.062-26.031-6.8784-5.3312-14.053-12.27-28.688-19.781 10.059 2.6138 17.261 5.6293 22.875 9-44.398-82.662-47.994-93.646-63.219-129.38z"/>
     <path d="m197.4 253.57c-41.181-55.895-50.727-100.94-53.145-111.7 21.967 50.669 21.817 51.29 53.145 111.7z"/>
     <path transform="matrix(1.1433,0,0,1.1433,22.92,121.64)" d="m106.12 17.375c-.91722 2.2549-1.8084 4.4484-2.6562 6.5312-.94561 2.3229-1.8563 4.5447-2.75 6.7188-.89366 2.1741-1.7782 4.2808-2.6562 6.375-.87812 2.0943-1.7574 4.1667-2.6562 6.25-.89876 2.0832-1.8255 4.1715-2.7812 6.3125-.95574 2.1411-1.9511 4.3572-3 6.625-1.049 2.2678-2.1341 4.5992-3.3125 7.0625-.15994.33432-.33729.72386-.5 1.0625 5.0333 5.3312 11.212 11.533 21.219 18.531-10.788-4.439-18.146-8.9076-23.656-13.531-.2887.5894-.54625 1.1151-.84375 1.7188-1.0393 2.1089-2.1861 4.3842-3.3438 6.6875-.04815.09727-.07662.18361-.125.28125-.29342.5834-.54208 1.0904-.84375 1.6875-.0457.09175-.11035.18918-.15625.28125-4.7882 9.6044-10.707 21.076-18.312 35.312 21.063-11.873 43.797-28.985 85.062-14.25-2.0703-3.9212-3.9625-7.574-5.75-11.031-1.7875-3.4574-3.4579-6.7196-5-9.7812-1.542-3.0616-2.9788-5.9221-4.3125-8.6562s-2.5561-5.3375-3.7188-7.8125-2.2524-4.841-3.2812-7.125c-1.0289-2.284-2.0052-4.495-2.9375-6.6562-.93242-2.1614-1.8145-4.2682-2.6875-6.375-.87309-2.1068-1.7428-4.1919-2.5938-6.3125-.28464-.7092-.59007-1.4404-.875-2.1562-2.3471-5.507-4.7472-11.21-7.5312-17.75z"/>
    </g>
   </g>
   <g transform="matrix(.13249 -.078454 .078454 .13249 43.598 196.69)" stroke-width=".92408">
    <g id="XMLID_1_" stroke-width=".92408">
     <g stroke-width=".92408">
      <path transform="matrix(1.792 .49635 -.49635 1.792 952.8 -7110.2)" d="m686.72 3824.5c-7.9354-.059-16.424.9892-16.986 1.0645l-.12305.074-.0195.1328s.9039 3.5238 1.0059 3.9141c-1.8904-.096-15.551-.6766-27.42 2.1699-10.063 2.4133-23.81 5.7063-39.773 22.857l-.4707.5156c-7.4807 8.1491-11.804 16.841-12.828 25.836-.32134 2.829-.10838 8.9543 2.752 13.982 1.2454 2.1997 2.9993 4.2636 5.0703 5.9785 4.667 3.8748 11.158 5.5084 17.346 4.375 8.7367-1.5996 14.133-7.2177 14.443-15.022.20967-5.3879-3.3791-12.207-10.459-14.236-5.754-1.6541-10.866.5046-13.373 3.3809-2.1744 2.5052-2.9271 5.6719-2.0606 8.6796 1.5422 5.3263 6.938 6.8951 10.246 5.9844.96918-.2684 1.8875-.7028 2.877-1.3613.35569-.2269.68494-.4675 1.0137-.832l.10352-.1133.0684-.068-.0274.02c.61601-.7176.84015-1.6796.5918-2.5762-.0688-.2483-.17246-.4872-.30859-.7168-.76339-1.2451-2.3278-1.6934-3.6465-1.0547l-.17773.088-.22852.1582-.33594.2207c-.70875.4028-1.2792.5783-1.3984.6113-.39603.081-2.4664.04-3.0449-2.0488l-.008-.025c-.20713-.768-.0456-1.3923.0449-1.7305.32726-1.0951 1.7024-2.4588 3.9492-2.8691 2.949-.5551 5.432.3478 7.5762 2.75 1.9979 2.2368 2.5429 5.5126 1.3867 8.3496-1.1464 2.812-4.0623 4.6762-8.4297 5.3887-4.4064.7127-8.699-.743-11.781-4.0137-3.0215-3.1922-4.3623-7.6044-3.498-11.516 2.0652-9.3668 10.264-11.542 14.961-12.012 6.9512-.6921 14.444 2.9514 19.08 9.2734.7365 1.0069 1.2093 1.8423 1.625 2.5977l.62305 1.1445 8.5098 1.5879.12304.045.17578-.072-.0273-.2207c-.094-.1581-.24562-.2843-.99805-2.3359-.65903-1.8153-2.361-6.8286-.49609-10.068.71716-1.2589 1.9989-2.5571 3.1172-3.1738 4.5817-2.5581 11.186-3.4934 18.377 1.2949 3.7107 2.4773 5.506 3.5808 6.3789 4.0528l.29492.1582.34766.1269c.25783.062 10.561 1.7402 10.561 1.7402l.17383-.098-.0508-.2051c-.0755-.051-7.8569-5.8639-8.5293-12.24-.54268-5.0841 3.4434-5.7201 8.9609-6.5899 1.8012-.2868 3.8548-.6094 5.9258-1.1328 5.7526-1.5543 11.644-4.3195 14.996-7.0449 2.1684-1.7613 3.5454-2.9128 4.2812-4.082.27723-.3893.33158-.923.37696-1.4825l.0391-.3789c.0458-.4591.0375-1.401.002-1.9101-.0108-.2202-.0543-.4592-.23047-.5332l-.50195.2461c-1.3955 1.4691-5.0483 4.5386-8.9434 5.7011-4.829 1.4436-15.994-.8304-17.162-1.0761l-.125-.088c-.41099-.5168-2.8396-3.584-3.3535-4.2285 8.3282 2.6877 14.879 3.636 19.461 2.791 5.0989-.9324 8.2295-4.7235 9.5664-6.3438.26622-.3081.45913-.558.55274-.623l.0547-.2051c-.75846-1.6705-5.7035-9.4128-8.2305-10.9-.69974-.4088-1.2845-.8272-2.3086-1.1015-2.5828-.6798-6.0766-.9344-9.6836-.961zm5.6211 4.8203c2.4777-.082 4.7578 1.5867 5.3633 4.0899.33752 1.3797.10959 2.8102-.63086 4.0254-.74706 1.2114-1.9185 2.06-3.3086 2.4004-2.8585.6801-5.7377-1.0904-6.4297-3.9512-.33895-1.3849-.10568-2.8153.63672-4.0254.74045-1.2151 1.9135-2.0661 3.3008-2.3945.35772-.086.71441-.1328 1.0684-.1446z"/>
      <path d="m292.42 100.23c2.43 0 4.4 1.31 4.4 2.94 0 1.61-1.971 2.93-4.4 2.93s-4.39-1.32-4.39-2.93c0-1.63 1.96-2.94 4.39-2.94z"/>
     </g>
    </g>
   </g>
   <path d="m28.509 243.69c-.13864-.1234-.31467-.21079-.53857-.25284-.34866-.60842-.63335-.67606-.90997-.68103-.08978-.12351-.56564-1.0047-1.3793-.95679-.58215-.99002-1.442-.78959-1.7936-.01-.42806.0325-.8576.0557-1.0758.90525-.42148.078-.68036.42398-.80625 1.0895-.50115.23005-.66096.64743-.64129 1.1628-.63442.38244-.51965 1.2422-.50498 1.5138-.28953.32842-.50275.71698-.16004 1.5388-.42349.49993-.19822.97937-.0019 1.46-1.7697-.73765-3.6393-1.1036-6.111.78502l-.49156.0683c-2.0699-.81494-6.0629.0696-6.851 4.025-.64721.71063-1.0107 1.3545-1.4516 2.0166-2.1757 2.1415-1.7653 5.0265-1.4929 5.6628-.002 1.2369.06523 2.5016.52597 3.9325-.28983 1.8985.16722 3.3701 1.0485 4.5296.0129.017.026112.0343.039215.0512.87982 1.1604 2.1738 1.9964 4.0805 2.2275 1.2543.82829 2.4545 1.2328 3.6465 1.5634.53956.43344 3.2077 1.6041 5.8551.0842.75616-.24663 1.4745-.42394 2.3329-.85634 4.022.30374 5.9469-3.3048 5.7183-5.5176l.19774-.45529c2.483-1.8729 2.6335-3.7717 2.3988-5.6746.41015.3183.81131.66414 1.4067.39057.69943.55093 1.131.44964 1.5251.25902.25777.0872 1.0553.42903 1.5942-.0793.49113.15743.93565.11564 1.2919-.3052.67486.0576 1.0778-.0988 1.2663-.4838.87675.0184 1.0145-.38935 1.1611-.79265.84529-.12929 1.2693-.90343.47188-1.7306.26488-.77073-.45564-1.4657-.55069-1.5857.06956-.26777.08094-.56048-.4114-1.0598.05249-.60525-.30722-.96398-.78081-1.2566.01471-.78554-.54321-.87475-.94259-1.1568-.25717-.74232-.62658-.67632-.95683-.88626-.35535-.75267-.80315-.72331-1.3542-.79513l-.26731-.36715c-1.3193-.54064-2.8624-.13553-3.5966.15041.47277-.63061 1.2788-2.0066 1.1127-3.4223l-.28181-.35629c.07862-.55043.22739-.97372-.40208-1.5183-.11345-.37453.04957-.71261-.5966-1.1602-.10784-.30209-.1175-.64755-.32575-.90521l-.000371-.00032c-.10926-.13482-.27314-.24483-.53437-.31247-.09658-.33426-.23031-.63289-.46263-.8371zm-.5459.65615c.37522.75379.41124 1.1662.44598 1.5772.34576.0548.36615-.25949.43096-.52282.19317.63648.14938 1.0727.11942 1.5201.19262-.002.38985.07.5583-.32572.06448.50709.02676.95455-.09246 1.3549.30465.11275.42755-.11987.60359-.25165-.0199.59296-.1606 1.0668-.25427 1.5868.08532.0257.26511-.032.52283-.15772-.18455 1.5187-1.3837 4.3772-3.5918 3.2276.09998-2.4795-.36796-4.9947-1.2139-7.5334.6317 3.6093.69426 5.939.40008 7.4649-2.0181.86476-3.7721-1.285-4.3375-2.1287.20248.10692.39957.17499.57834.11639-.0098-.31196-.68403-.9329-.78303-1.6484.18669.1618.29378.22318.50435.20542-.20862-.58862-.46624-1.1983-.44376-1.6886.121.16353.2016.34095.50896.44111-.0935-.59813-.2562-1.1885-.17372-1.8058.17198.21537.34836.45454.4813.46206-.05426-.57119-.03528-1.1025.0515-1.5961.19609.33527.32651.44079.43639.47444.07783-.52201.04961-1.0864.28573-1.545.09453.2877.22282.51949.45257.58213.14937-.2707-.04225-.79922.29696-1.4448.15897.25773.32299.53438.41401.54554.36936-.45606.47954-.84123.6016-1.2295.39768.50798.97897 1.2938.99565 1.2256l.08314-.56411c.51611.39928.74913 1.032.91574 1.4931.25915.0671.29725-.2302.31273-.56386.26684.4697.46126.92947.59063 1.3804.30932.0585.24434-.37572.29966-.65178zm7.3542 9.8877c-.42643.0559-.40969.26528-.46363.45023.43903.0914.871.16691 1.4322.52405-.27106-.008-.57916-.0736-.61928.27413.3865.14392.77384.28967 1.3991.85365-.28077-.0209-.68169-.20038-.70842.11332.39952.24579.79019.55687 1.1709.94016-.32555-.0748-.62217-.1181-.62717.14955.39943.28441.94614.67874 1.192 1.2832l-.56562-.0712c-.07021-.002.53024.76897.91265 1.2885-.40677.0132-.80723.0156-1.3461.24873-.01372.0907.20884.32347.41437.54587-.71297.15323-1.1704-.17393-1.4713-.10281-.0014.23815.187.42391.43871.59228-.50518.10419-1.0414-.0745-1.5651-.13984.0029.11486.06968.26881.33992.54779-.49874-.0491-1.0154-.1738-1.551-.37958-.02848.13007.15442.36465.31566.58819-.61678-.0865-1.142-.4018-1.693-.6526.01389.32297.16295.44799.28794.60846-.47827-.11012-.99623-.5217-1.5072-.88086-.07377.19806-.04401.31784.06236.54083-.66259-.28766-1.0793-1.1041-1.3771-1.1974-.10451.15645-.0917.36428-.04313.58802-.66066-.77139-2.2599-3.0387-.88456-4.7501 1.5496.12658 3.7772.81383 7.0855 2.3931-2.2189-1.4983-4.5167-2.6254-6.9326-3.1948-.51359-2.4359 2.5619-2.8229 4.0743-2.5923-.19038.21442-.29404.37228-.29224.46135.52605.0495 1.0197.0412 1.5962.18139-.17423.13414-.43118.19039-.40445.51413.41761-.007.85879.0763 1.3299.27465zm-14.318-3.3264c.51477.43448.96454.9996 1.3188 1.6766.52274.99712-7.8385-.72973-6.9006-1.5662 1.906-1.5423 4.0373-1.4135 5.582-.11041zm4.0427 4.102c.18354.1688.35256.35599.50026.56143.97903 1.2606 1.2113 3.5654.29951 4.2476-.80462.60211-2.2875-.006-3.5837-1.7387-1.2612-1.7032-1.33-3.443-.55154-4.0279.52068-.39102 2.0342-.10806 3.1467.79531.06421.0521.12711.10628.18796.16291zm2.2344 4.2641c2.2275 2.0926 2.3175 5.1726-.34637 7.0678-1.0577.67854-.47353-7.8394.34637-7.0678zm-8.1115-4.6216a3.501 4.1307 86.829 0 1 1.1256 2.1865 3.5011 4.1308 86.829 1 1-8.2437.53991 3.501 4.1307 86.829 0 1 6.9972-2.8281 3.501 4.1307 86.829 0 1 .12089.10153zm-5.1425-3.2043c1.4287 1.1078-5.3975 4.8378-5.7538 3.3244.056199-2.0049 2.684-4.6318 5.7538-3.3244zm10.086 9.3698a3.501 4.1307 18.761 0 1-3.7615 7.1775 3.501 4.1307 18.761 0 1 2.7354-7.7952 3.501 4.1307 18.761 0 1 1.0262.61782zm2.0114 6.4135c.07702.0509.13827.12697.18101.23155.43422 3.3084-2.8029 5.1339-4.7491 4.6492-1.2767-.70315 3.4139-5.645 4.5681-4.8806zm-10.23-5.075a3.9034 3.5995 52.795 0 1-.06377 5.8077 3.9034 3.5995 52.795 1 1-4.7207-6.2177 3.9034 3.5995 52.795 0 1 4.7844.41012zm-6.7628-5.7701c.83853.69162 1.0241 2.3272.66602 4.0068-.39626 1.7026-1.9709 3.5367-3.0892 3.216-.95653-.3805-2.0764-2.2179-1.2555-4.7514.84038-1.9263 2.4071-2.9496 3.2794-2.7073.14677.0577.27955.13718.39936.23599zm11.197 13.803c.29066.27233.45449.60694.45082 1.0136-.13099.96948-1.9561 2.8654-3.9297 2.8404-2.8567.0711-4.2961-1.6759-4.2913-2.7374.12914-1.2044 2.591-2.2292 4.4483-2.1227 1.4293.1081 2.682.40717 3.3214 1.0062zm-11.713-3.6425c.41969.37217.80808.79056 1.0928 1.1858 1.0027 1.2076 1.8181 3.2302 1.2146 3.6936-.57272.46746-3.0716-.0639-4.178-1.5746-1.239-1.4937-1.0567-4.019-.58024-4.3496.4532-.3691 1.5274.22599 2.4506 1.0447z" stroke-width=".22649"/>
   <g transform="matrix(.069559 -.0060827 .0060827 .069559 72.604 199.36)" stroke-width=".98322">
    <g transform="translate(-20.805,8.9216)" fill-rule="evenodd" stroke-width=".98322">
     <path transform="matrix(3.3982,0,0,3.3982,-2091,-13051)" d="m725.3 3883.6c-10.707.032-19.197 3.2915-23.258 5.5273-11.931 6.5699-20.822 16.649-23.771 22.871-6.0604 12.767-5.5068 18.954 1.1309 26.98 5.0379 6.092 23.432 15.68 23.432 15.68s-15.837 13.899-21.979 19.717-10.984 14.218-7.752 27.146c3.2322 12.929 13.252 17.455 13.252 17.455s13.087 7.7593 32.48-.6445c19.393-8.4037 33.777-17.453 33.777-17.453s28.604-19.551 36.361-28.602c7.7573-9.0502 18.264-17.943 13.416-32.488-4.8483-14.545-26.502-33.934-26.502-33.934s-21.589-16.51-37.135-20.555c-4.7374-1.2326-9.2634-1.7136-13.453-1.7012zm.92773 2.6855c16.132 0 34.185 14.67 39.912 18.807 5.818 4.2019 22.71 19.054 28.461 29.5 5.62 10.208.46093 13.602.46093 13.602s-14.905 16.695-29.611 27.846c-14.707 11.151-42.045 24.977-42.045 24.977s-9.0666 4.978-21.051 7.2754c-10.288 1.9723-15.438-1.0347-19.182-4.2031-3.7436-3.1685-5.0964-8.5573-4.4238-14.19.92295-7.7293 4.242-11.858 8.1191-15.818 6.6837-6.8275 9.1782-9.3964 15.643-15.053 6.4644-5.6563 12.609-12.93 12.609-12.93l-8.4062-4.2031s-16.968-7.1116-22.301-10.99c-5.3332-3.8787-6.6486-9.8893-3.8809-17.297 2.7474-7.3533 14.548-15.999 17.941-18.908 0 0 10.67-7.9195 26.992-8.4043.25504-.01.50565-.01.76172-.01z"/>
     <path transform="translate(172.79,130.05)" d="m215.72 106.56c-20.32.54918-39.549 20.324-39 36.25.54918 15.926 20.875 32.969 20.875 32.969s31.286 26.884 59.844 24.688c28.557-2.1967 30.75-19.75 30.75-19.75s6.5871-23.078-10.438-41.75c-17.025-18.672-41.712-32.955-62.031-32.406zm12.031 61.062c2.4844 0 5 .1875 7.25.6875 6.2907 1.3979 15.911 6.6506 21.188 9.7188-2.2483.8834-4.918 1.5793-8.0938 2.125-8.1861 1.4067-21.883-3.8654-32.625-11.344 2.762-.49872 7.459-1.1875 12.281-1.1875z"/>
    </g>
   </g>
   <path id="voice" d="m79.966 259.94c-1.4424 3.5276-1.5399 7.6052.04901 11.397l4.4632 10.629c.7269 1.7198 2.7083 2.5272 4.4307 1.8039l10.618-4.4583c7.5824-3.1873 11.148-11.916 7.9636-19.501-3.1852-7.5863-11.918-11.154-19.504-7.9688-3.7913 1.5919-6.5787 4.5698-8.0211 8.0974zm9.6556-2.7318c.67669-1.6566 1.9856-3.0547 3.7658-3.8022.53992-.22669.94966-.32753 1.5044-.40676.80916-.11529 1.6559.23225 1.9479.92755.35288.8404-.000261 1.7081-.91214 2.091-.43402.18222-.62642.16526-1.2622.43221-1.877.78814-2.7614 2.9473-1.9765 4.8257l1.2415 2.9564c.11125.26495.41668.39011.68204.27867l2.2358-.93871c.83287-.3497 1.7846.0322 2.1352.86732.35327.84018-.04875 1.7875-.89061 2.141l-2.6998 1.1336 1.4344 3.4169c1.4948 3.56-.17996 7.6583-3.7401 9.1531-.54013.22679-.9494.32702-1.5043.40627-.80916.1153-1.6566-.23192-1.9486-.92725-.35286-.84039.000571-1.7074.91246-2.0903.43402-.18222.62642-.16527 1.2622-.43222 1.877-.78813 2.7611-2.948 1.9762-4.8264l-1.2415-2.9564c-.11122-.26493-.41637-.38941-.68172-.278l-2.2351.93841c-.8329.34972-1.7853-.0319-2.1359-.86703-.35327-.84017.04974-1.7871.8916-2.1406l2.6998-1.1336-1.4349-3.417c-.74741-1.78-.70263-3.695-.02591-5.3516zm4.0094 23.382c.22898-.11032.45016-.23152.66296-.36222-.2128.1307-.43398.25194-.66296.36222z" stroke-width=".25094"/>
  </g>
  <g id="bg">
   <g transform="matrix(.069559 -.0060827 .0060827 .069559 110.13 196.08)" enable-background="new" stroke-width=".98322">
    <g transform="translate(-20.805,8.9216)" stroke-width=".98322">
     <path d="m-162.66 155.37c54.82 0 116.17 49.853 135.63 63.912 19.771 14.279 77.171 64.747 96.714 100.24 19.098 34.689 1.5656 46.223 1.5656 46.223s-50.647 56.736-100.62 94.629c-49.977 37.893-142.88 84.874-142.88 84.874s-30.811 16.919-71.536 24.726c-34.961 6.7022-52.461-3.5194-65.184-14.286-12.722-10.767-17.325-29.077-15.039-48.218 3.1364-26.266 14.419-40.293 27.594-53.75 22.713-23.201 31.187-31.931 53.156-51.153 21.967-19.221 42.851-43.942 42.851-43.942l-28.565-14.279s-57.667-24.169-75.789-37.349c-18.123-13.181-22.592-33.605-13.187-58.778 9.3362-24.988 49.438-54.372 60.969-64.258 0 0 36.258-26.91 91.724-28.557.86668-.0347 1.7191-.0308 2.5893-.0308zm11.637 81.239c-20.32.54917-39.546 20.324-38.997 36.25.54917 15.926 20.872 32.968 20.872 32.968s31.289 26.884 59.847 24.688c28.557-2.1967 30.748-19.751 30.748-19.751s6.5927-23.08-10.432-41.752c-17.025-18.672-41.718-32.953-62.037-32.404z" fill="#fff" fill-rule="evenodd" stroke-width="3.3412"/>
    </g>
   </g>
   <path d="m65.739 224.29c-.87207-.0226-1.7287.41997-2.1957 1.2288-.67902 1.1762-.2765 2.6799.89967 3.3589 1.1765.67939 2.681.27691 3.3599-.89915.67928-1.1766.27636-2.6806-.90018-3.3599-.3676-.21218-.76732-.31845-1.1637-.32865zm-6.3302 2.622c-1.701 0-3.308.39922-4.7355 1.1064l1.7094 3.0628c.92004-.42802 1.945-.66868 3.0266-.66868 3.7537 0 6.8329 2.8783 7.1555 6.5483l3.5057-.0512c-.1724-2.7093-1.3559-5.1429-3.1749-6.9312-.93498.35322-2.0154.29986-2.9491-.23926-.9351-.53982-1.5217-1.45-1.6825-2.438-.90879-.25148-1.8653-.38912-2.8546-.38912zm-5.9277 1.7952c-2.1525 1.4382-3.7537 3.6366-4.4188 6.2119.77699.63328 1.2733 1.5982 1.2733 2.6794 0 1.081-.49629 2.0446-1.2733 2.6778.66493 2.5752 2.2661 4.7741 4.4188 6.2124l1.7983-3.0122c-1.8471-1.2998-3.055-3.4473-3.055-5.8786 0-2.4309 1.2079-4.5779 3.055-5.8781l-1.7983-3.0122zm-6.5995 6.4315c-1.3588 0-2.4603 1.101-2.4603 2.4598 0 1.3584 1.1015 2.4592 2.4603 2.4592 1.3583 0 2.4592-1.1008 2.4592-2.4592 0-1.3588-1.101-2.4598-2.4592-2.4598zm19.684 3.0969c-.32265 3.6703-3.402 6.5473-7.1555 6.5473-1.0817 0-2.1065-.24014-3.0266-.66816l-1.7094 3.0633c1.4277.70693 3.0351 1.1058 4.736 1.1058.98915 0 1.9456-.13689 2.8546-.38859.16083-.98792.74734-1.8985 1.6825-2.4386.93348-.53902 2.0144-.59219 2.9496-.23875 1.8187-1.7884 3.0021-4.222 3.1744-6.9317zm-.95755 7.7539c-.39638.0103-.79619.11696-1.1637.32917-1.1765.67933-1.5798 2.1828-.9007 3.3589.67936 1.1765 2.1834 1.5795 3.3599.90018 1.1762-.67925 1.5789-2.183.89967-3.3594-.46684-.80847-1.3231-1.2515-2.1952-1.2288z" fill="#fff" stroke-width=".28355"/>
   <path d="m89.621 257.2c.67669-1.6566 1.9856-3.0547 3.7658-3.8022.53993-.22668.94967-.32753 1.5044-.40675.80916-.1153 1.6559.23225 1.9479.92754.35288.8404-.000266 1.7082-.91214 2.091-.43403.18223-.62642.16526-1.2622.43221-1.877.78814-2.7614 2.9473-1.9765 4.8257l1.2415 2.9564c.11126.26495.41669.39011.68204.27868l2.2358-.93872c.83287-.3497 1.7846.0322 2.1352.86732.35327.84018-.04875 1.7875-.89062 2.141l-2.6998 1.1336 1.4344 3.4169c1.4948 3.56-.17995 7.6583-3.7401 9.1531-.54014.22678-.9494.32702-1.5043.40626-.80917.1153-1.6566-.23192-1.9486-.92725-.35286-.84039.000566-1.7074.91246-2.0903.43402-.18222.62642-.16527 1.2622-.43221 1.877-.78814 2.7611-2.948 1.9762-4.8264l-1.2415-2.9564c-.11126-.26493-.41637-.38941-.68171-.278l-2.2351.93841c-.83291.34972-1.7853-.0319-2.1359-.86702-.35326-.84018.04974-1.7871.8916-2.1406l2.6998-1.1336-1.4349-3.417c-.74741-1.78-.70264-3.695-.02591-5.3516zm4.0094 23.382c.22898-.11032.45015-.23152.66296-.36222-.21281.1307-.43399.25194-.66296.36222z" fill="#fff" stroke-width=".25094"/>
   <path d="m27.963 244.35c.37522.75379.41124 1.1662.44598 1.5772.34576.0548.36615-.25949.43096-.52282.19317.63648.14938 1.0727.11942 1.5201.19262-.002.38985.07.5583-.32572.06448.50709.02676.95455-.09246 1.3549.30465.11275.42755-.11987.60359-.25165-.0199.59296-.1606 1.0668-.25427 1.5868.08532.0257.26511-.032.52283-.15772-.18455 1.5187-1.3837 4.3772-3.5918 3.2276.09998-2.4795-.36796-4.9947-1.2139-7.5334.6317 3.6093.69426 5.939.40008 7.4649-2.0181.86476-3.7721-1.285-4.3375-2.1287.20248.10692.39957.17499.57834.11639-.0098-.31196-.68403-.9329-.78303-1.6484.18669.1618.29378.22318.50435.20542-.20862-.58862-.46624-1.1983-.44376-1.6886.121.16353.2016.34095.50896.44111-.0935-.59813-.2562-1.1885-.17372-1.8058.17198.21537.34836.45454.4813.46206-.05426-.57119-.03528-1.1025.0515-1.5961.19609.33527.32651.44079.43639.47444.07783-.52201.04961-1.0864.28573-1.545.09452.2877.22282.51949.45257.58213.14937-.2707-.04225-.79922.29696-1.4448.15897.25773.32299.53438.41401.54554.36936-.45606.47954-.84123.6016-1.2295.39768.50798.97897 1.2938.99565 1.2256l.08314-.56411c.51611.39928.74913 1.032.91574 1.4931.25915.0671.29725-.2302.31273-.56386.26684.4697.46126.92947.59063 1.3804.30932.0585.24434-.37572.29966-.65178zm7.3542 9.8877c-.42643.0559-.40969.26528-.46363.45023.43903.0914.871.16691 1.4322.52405-.27106-.008-.57916-.0736-.61928.27413.3865.14392.77384.28967 1.3991.85365-.28077-.0209-.68169-.20038-.70842.11332.39952.24579.79019.55687 1.1709.94016-.32555-.0748-.62217-.1181-.62717.14955.39943.28441.94614.67874 1.192 1.2832l-.56562-.0712c-.07021-.002.53024.76897.91265 1.2885-.40677.0132-.80723.0156-1.3461.24873-.01372.0907.20884.32347.41437.54587-.71297.15323-1.1704-.17393-1.4713-.10281-.0014.23815.187.42391.43871.59228-.50518.10419-1.0414-.0745-1.5651-.13984.0029.11486.06968.26881.33992.54779-.49874-.0491-1.0154-.1738-1.551-.37958-.02848.13007.15442.36465.31566.58819-.61678-.0865-1.142-.4018-1.693-.6526.01389.32297.16295.44799.28794.60846-.47827-.11012-.99623-.5217-1.5072-.88086-.07376.19806-.04401.31784.06236.54083-.66259-.28766-1.0793-1.1041-1.3771-1.1974-.10451.15645-.0917.36428-.04313.58802-.66066-.77139-2.2599-3.0387-.88456-4.7501 1.5496.12658 3.7772.81383 7.0855 2.3931-2.2189-1.4983-4.5167-2.6254-6.9326-3.1948-.51359-2.4359 2.5619-2.8229 4.0743-2.5923-.19038.21442-.29404.37228-.29224.46135.52605.0495 1.0197.0412 1.5962.18139-.17423.13414-.43118.19039-.40445.51413.41762-.007.85879.0763 1.3299.27465zm-14.318-3.3264c.51477.43448.96454.9996 1.3188 1.6766.52274.99712-7.8385-.72973-6.9006-1.5662 1.906-1.5423 4.0373-1.4135 5.582-.11041zm4.0427 4.102c.18354.1688.35256.35599.50026.56143.97903 1.2606 1.2113 3.5654.29951 4.2476-.80462.60211-2.2875-.006-3.5837-1.7387-1.2612-1.7032-1.33-3.443-.55154-4.0279.52068-.39102 2.0342-.10806 3.1467.79531.06421.0521.12711.10628.18796.16291zm2.2344 4.2641c2.2275 2.0926 2.3175 5.1726-.34637 7.0678-1.0577.67854-.47353-7.8394.34637-7.0678zm-8.1115-4.6216c.66973.58873 1.0684 1.3631 1.1256 2.1865.32346 4.657-7.9202 5.1969-8.2437.53991-.22107-3.1859 4.2945-5.0109 6.9972-2.8281.04114.0331.08144.067.12089.10153zm-5.1425-3.2043c1.4287 1.1078-5.3975 4.8378-5.7538 3.3244.0562-2.0049 2.684-4.6318 5.7538-3.3244zm10.086 9.3698c2.9768 2.7066-.05632 8.4943-3.7615 7.1775-4.3843-1.5714-1.6574-9.3426 2.7354-7.7952.37657.13378.72364.34274 1.0262.61782zm2.0114 6.4135c.07702.0509.13827.12697.18101.23155.43422 3.3084-2.8029 5.1339-4.7491 4.6492-1.2767-.70315 3.4139-5.645 4.5681-4.8806zm-10.23-5.075c1.7647 1.6734 1.7342 4.4586-.06377 5.8077-3.8263 2.9438-8.5843-3.323-4.7207-6.2177 1.3893-1.0672 3.409-.89406 4.7844.41012zm-6.7628-5.7701c.83853.69162 1.0241 2.3272.66602 4.0068-.39626 1.7026-1.9709 3.5367-3.0892 3.216-.95653-.3805-2.0764-2.2179-1.2555-4.7514.84038-1.9263 2.4071-2.9496 3.2794-2.7073.14677.0577.27955.13718.39936.23599zm11.197 13.803c.29066.27233.45449.60694.45082 1.0136-.13099.96948-1.9561 2.8654-3.9297 2.8404-2.8567.0711-4.2961-1.6759-4.2913-2.7374.12914-1.2044 2.591-2.2292 4.4483-2.1227 1.4293.1081 2.682.40717 3.3214 1.0062zm-11.713-3.6425c.41969.37217.80808.79056 1.0928 1.1858 1.0027 1.2076 1.8181 3.2302 1.2146 3.6936-.57272.46746-3.0716-.0639-4.178-1.5746-1.239-1.4937-1.0567-4.019-.58024-4.3496.4532-.3691 1.5274.22599 2.4506 1.0447z" fill="#fff" stroke-width=".22649"/>
  </g>
 </g>
</svg>
