<svg width="820" height="340" version="1.1" viewBox="0 0 216.96 89.958" xmlns="http://www.w3.org/2000/svg">
 <defs>
  <clipPath id="b">
   <path d="m1167 3327.1-55.46-474.98 98.35-37.9z"/>
  </clipPath>
  <clipPath id="a">
   <path d="m1530.2 3389.7 386.48-419.43 16.91 134.9z"/>
  </clipPath>
 </defs>
 <g transform="translate(0,-207.04)">
  <g id="fg">
   <g transform="matrix(.23886 0 0 .23886 58.809 208.13)">
    <g transform="matrix(1.2831,0,0,1.2831,-16.33,-22.716)">
     <path d="m138.43 42.503c-.018-.1772-.0125-.3503-.0401-.5262-1.7779-13.792-17.003-23.199-34.011-21.007-3.2912.4223-6.3926 1.2572-9.2601 2.4064-4.4861-4.1649-10.621-6.3968-17.061-5.5674-4.0901.5275-7.7398 2.2319-10.711 4.7242-5.537-3.6969-12.29-5.4885-19.311-4.5844-15.78 2.0353-26.875 16.889-24.773 33.194.28661 2.25.8349 4.3988 1.5715 6.4467-7.2732 6.3954-11.312 15.248-10.124 24.441 1.5147 11.751 11.153 20.792 23.773 23.909 4.4445 13.026 17.624 21.568 31.873 19.728 4.3712-.5594 8.3823-2.0686 11.896-4.2507 4.1233 5.2448 10.329 8.2494 16.824 7.4103 7.3923-.9512 13.152-6.628 15.345-14.074 1.566.4804 3.1762.8418 4.8627 1.0536 14.58 1.8208 27.765-7.6207 29.439-21.082.31984-2.5255.2063-5.0108-.28522-7.3978 9.9981-5.7073 16.078-14.818 14.861-24.23-1.3666-10.607-11.577-18.5-24.87-20.593"/>
     <path d="m127.2 152.69s-.126 2.4659-1.451 4.1454c-1.8 2.2846-7.3992 2.8107-8.8115-2.5767 0 0-8.0777 1.7833-8.86-4.5539-.70337-5.6782 6.257-6.97 6.257-6.97-2.2292-3.4393.82106-12.688 9.7226-7.2954 0 0 4.0388-7.9129 9.6436-3.5252 4.4514 3.4795 1.6338 8.8905-.9706 10.581 0 0 3.6498 2.7706 2.4895 6.6419-1.1644 3.8699-4.6162 4.3019-8.0195 3.5529"/>
    </g>
   </g>
   <path d="m86.431 254.61-43.349 2.5147c-3.4566.20146-6.1063 3.1916-5.887 6.6467l1.2835 11.8c.21923 3.4577 3.2302 6.318 6.6909 6.36l13.674.16548-1.354 2.8583 7.0258-.52382-4.4061 4.6151h6.7163l-4.4848 5.7009 10.987-7.9039h-7.0264l3.9012-4.6066 14.636.17824c3.4632.0416 6.4169-2.7538 6.5656-6.2108l1.0398-15.67c.14973-3.4591-2.5568-6.125-6.0134-5.9241"/>
   <path d="m155.03 274.37c1.1833-2.2997.27001-5.149-2.0301-6.3325l-40.329-20.751c-2.2997-1.1833-5.1494-.27022-6.3327 2.0295l-6.8633 13.339c-1.1833 2.2997-.2696 5.1492 2.0301 6.3325l20.968 10.789c2.2997 1.1833 2.678 3.6412.84146 5.4621l-6.0051 6.1123 10.608-4.6621c2.3669-1.0429 6.1844-.92886 8.4841.25444l5.4333 2.7957c2.3001 1.1835 5.1494.27023 6.3327-2.0295l6.8633-13.339"/>
   <g transform="matrix(-.32098 .039502 .039502 .32098 223.06 507.67)">
    <path d="m496.48-959.97c-37.714 0-68.916 18.119-73.979 47.75-3.75 21.931 18.339 51.384 66.209 53.39 36.086 1.5162 83.09-7.84 88.821-43.502 2.8925-18.021-9.4425-57.638-81.051-57.638"/>
    <path d="m558.21-861.84c0-8.69-8.1912-15.736-18.292-15.736-7.1212 0-13.295 3.5025-16.306 8.6176-1.435 2.2337-2.2575 4.8187-2.2575 7.5625 0 8.6762 8.1988 15.715 18.298 15.715 7.1175 0 13.292-3.4962 16.312-8.6075 1.425-2.2537 2.2462-4.8125 2.2462-7.5512"/>
    <path d="m537.57-835.02c0-5.0862-5.0288-9.2175-11.21-9.2175-4.385 0-8.165 2.0575-10.009 5.045-.88 1.32-1.3738 2.8413-1.3738 4.45 0 5.0863 5.0175 9.2075 11.2 9.2075 4.3688 0 8.1775-2.0475 10.018-5.0487.88-1.3113 1.375-2.8113 1.375-4.4363"/>
    <path d="m517.22-821.81c0-3.105-3.0712-5.6325-6.8425-5.6325-2.6775 0-4.9875 1.2588-6.1125 3.0837-.535.805-.83875 1.7338-.83875 2.7138 0 3.1037 3.0662 5.6212 6.8375 5.6212 2.6675 0 4.9925-1.2475 6.1188-3.0837.535-.7988.8375-1.7125.8375-2.7025"/>
   </g>
   <g transform="matrix(-.38936 0 0 .38936 420.24 512.15)">
    <path d="m792.42-732.67c0-23.451-33.069-42.464-73.862-42.464-28.771 0-53.698 9.4563-65.892 23.256-5.7871 6.0588-9.083 13.018-9.083 20.418 0 23.45 33.069 42.462 73.862 42.462 28.772 0 53.695-9.4537 65.892-23.255 5.79-6.0587 9.0825-13.015 9.0825-20.418"/>
    <path d="m731.27-693.65c-3.3921 15.145-13.552 23.119-27.99 28.78 18.559-2.8663 35.834-12.315 45.606-28.355-1.9912-.565-13.586.8562-17.616-.425"/>
   </g>
   <g transform="matrix(.21838 .083389 -.083389 .21838 -124.18 332.97)">
    <path d="m1252-795.16-71.701-1.5037 22.332-33.741-36.644 19.802-6.9962-39.375-33.451 30.152-14.262-17.892-19.681 24.362-19.119-15.772-3.3389 23.75-40.966-18.002 9.2896 39.475-35.893 6.0088 27.205 23.306-27.428 19.174 32.073 1.87-20.058 38.04 41.717-15.3 12.455 24.372 20.734-18.53 20.181 45.019 14.024-48.874 24.034 12.769 8.1725-24.915 35.059 15.969-8.17-36.296 31.271 1.6537-16.279-29.226 55.438-26.295"/>
    <g transform="matrix(.125 0 0 -.125 986.69 -265.57)">
     <g clip-path="url(#b)">
      <path d="m1167 3327.1-55.46-474.98 98.35-37.9-42.89 512.88"/>
     </g>
    </g>
    <g transform="matrix(.125 0 0 -.125 986.69 -265.57)">
     <g clip-path="url(#a)">
      <path d="m1530.2 3389.7 386.48-419.43 16.91 134.9-403.39 284.53"/>
     </g>
    </g>
    <path d="m1096.6-946.62-13.366 55.697 18.462-9.273-9.4922 62.89.6549-49.514-17.668 7.5168 1.3972-60.839 20.013-6.4788"/>
   </g>
  </g>
  <g id="bg" fill="#f7f7f7">
   <path d="m112.78 260.32q.44011.37674.59296.95807.16356.58662-.11632 1.1544-.63895 1.2962-2.0106 1.4856-1.3664.17866-3.0803-.66624-.69631-.34324-1.3455-.86301l5.2766-6.7064q.98403.21877 1.766.60425 2.4317 1.1987 1.7083 2.6663-.39605.80344-1.174 1.139-.77793.33556-1.6171.22814zm-1.0353-.78999q.89984.44358 1.8015.26221.90693-.19208 1.3082-1.0062.53335-1.082-1.3628-2.0166-.52491-.25875-1.0705-.39453l-1.9834 2.5109zm-3.0791 3.329q1.2319.60727 2.3315.48354 1.1156-.12917 1.6172-1.1468.33796-.68559-.10336-1.276-.43062-.58511-1.309-1.0181l-1.1141-.54918-2.3282 2.9402q.37026.30235.90588.56639z"/>
   <path d="m115.07 266.74q-1.007-.49637-1.3271-1.3866-.30946-.8849.18163-1.8812.71289-1.4462 2.2641-1.9998 1.5565-.5643 2.9384.1169.99625.4911 1.3164 1.3813.33088.89546-.15493 1.881-.70761 1.4355-2.2586 2.0158-1.535.57487-2.9598-.12746zm-.47138-3.0686q-.38548.782-.15177 1.4964.24443.71969 1.005 1.0946 1.1034.5439 2.3504.0401t1.8173-1.6607q.3802-.77129.13049-1.4803-.23372-.7144-.9943-1.0893-1.082-.53334-2.3344-.0455-1.2524.48781-1.8227 1.6448z"/>
   <path d="m124.63 269.86q-.20142.27354-.30704.48779-.17426.35351-.17802.63128l-.70069-.1723q.0513-.37417.22028-.71697.11617-.23568.24879-.39666l1.4953-1.926q.28637-.36483.43423-.66478.62311-1.2641-.70523-1.9189-.66417-.3274-1.5921-.0658-.92262.25092-1.3522.79816l-2.3333 2.9776-.62132-.30628 3.0545-3.9004q.21198-.29497.31759-.50921.15842-.32138.17818-.60458l.68469.17773q-.0513.37418-.21499.70627-.11618.23567-.2488.39666 1.3849-.6755 2.6168-.0682 1.7247.85018.92733 2.4678-.1901.38564-.52414.82018z"/>
   <path d="m126.41 271.98q-1.7342 2.1944-4.0209 1.1337l.29104-.48236q1.0599.41596 1.758.13426.68212-.27626 1.4564-1.2528l3.6699-4.6356.63203.31156zm5.2147-6.3108q-.13202.26782-.41461.35488-.2666.0816-.53441-.0504-.40708-.20067-.22225-.5756.13201-.26781.39318-.36543.27188-.0923.52898.0344.18211.0898.25785.26026.081.15978-.009.34189z"/>
   <path d="m130.24 274.21q-1.007-.49638-1.3271-1.3866-.30946-.8849.18163-1.8812.71289-1.4462 2.2641-1.9998 1.5564-.5643 2.9384.1169.99625.4911 1.3164 1.3813.33089.89546-.15493 1.881-.7076 1.4355-2.2586 2.0158-1.535.57486-2.9598-.12746zm-.47138-3.0686q-.38549.78201-.15177 1.4964.24443.71969 1.005 1.0946 1.1034.54391 2.3504.0401 1.247-.5038 1.8173-1.6607.3802-.77129.13049-1.4803-.23372-.71441-.9943-1.0893-1.082-.53335-2.3344-.0455-1.2524.4878-1.8227 1.6447z"/>
   <path d="m139.3 278.45-.68997-.16701q.13126-.40134.27383-.69058.0634-.12854.2221-.39651-1.4866.63869-2.8364-.0267-1.5533-.76569-.77705-2.3404.20066-.40708.59837-.91675l1.3789-1.7437q.21198-.29497.31759-.50922.15842-.32137.17818-.60457l.68469.17773q-.067.43302-.23068.7651-.095.19283-.21168.34838l-1.3947 1.7759q-.33947.41854-.53486.8149-.61255 1.2426.52297 1.8024.80343.39605 1.6996.19869.89621-.19736 1.4053-.85187l2.3387-2.9616.63203.31156-2.9274 3.6967q-.20685.25755-.37055.58963-.1637.33209-.27897.72799z"/>
   <path d="m146.73 275.9q-.0537-.0531-.18226-.11648-.79272-.39077-1.704-.0277-.90602.35231-1.4735 1.0712l-2.0628 2.6449-.62132-.30628 3.0438-3.9057q.20142-.27354.30703-.48779.17426-.35351.17803-.63127l.6954.183q-.0516.32077-.17833.57787-.1637.33208-.42924.60065 1.368-.8303 2.5142-.26527.14997.0739.29482.18527z"/>
   <path d="m53.478 263.72c-.07469-.0597-.13444-.0896-.22406-.0896h-2.0165c-.19418 0-.2838.0896-.29874.28381l-.20912 3.57c-.8813.0861-1.2628.0543-2.0613.0747l.23899-3.57c.01495-.16431-.1195-.31368-.31368-.31368l-1.9119.0448c-.19418 0-.28381.10456-.29874.2838l-.65723 9.7539c0 .19418.1195.32861.31368.32861l2.1958-.0448c.20912 0 .29874-.10456.29874-.29874l.05975-3.555c.68017-.27428 1.3098-.39526 2.0166-.46312-.02117 1.2263-.14677 2.776-.1942 3.7343v.17925c0 .17924.13443.29874.29874.29874h2.2107c.20912 0 .29874-.0896.29874-.29874 0-1.4937 0-3.0173.04481-4.5409.04481-1.7178.16431-3.4355.28381-5.1384.01495-.0896-.01495-.1643-.07469-.23899z"/>
   <path d="m62.479 273.73-1.1203-6.2586c-.13444-.71698-.32862-1.5236-.35849-1.6431-.08963-.32862-.19418-.70205-.31368-1.0307-.22406-.50787-.56761-.98585-1.1502-1.0307-.31368-.0299-.61242-.0299-.86635.0149-.34355.0448-.67217.1195-1.0008.17925-.10456.0299-.17925.0896-.22406.17924-.47799 1.1203-.95597 2.2555-1.4041 3.3907-.32862.83647-.6423 1.6879-.91116 2.5542-.35849 1.1651-.71698 2.3601-1.0307 3.5252-.02987.20912.08962.38836.2838.38836l2.2107.0448c.14937 0 .25393-.0747.29874-.22405l.32862-1.3742 2.2555-.44811.14937 1.8223c.01492.17924.1195.26886.29874.26886h2.2555c.19418 0 .32862-.1643.29874-.35848zm-4.4812-3.9136.73192-2.4049c.07468.31368.13443.62736.19418.94104.04481.23899.07469.47798.10456.71698l.08962.71698z"/>
   <path d="m66.057 264.03-.35849 7.0503 3.4206-.0448c.17924 0 .31368.13444.31368.31368l-.04481 2.151c0 .19418-.10456.29874-.29874.29874l-5.7209.2838c-.10456 0-.16431-.0299-.22406-.0896-.05975-.0598-.08962-.11949-.08962-.22406l.46305-9.8137c.01495-.19418.1195-.28381.31368-.28381l1.9269.0448c.16431 0 .29874.14938.29874.31368z"/>
   <path d="m72.797 264.03-.35849 7.0503 3.4206-.0448c.17925 0 .31368.13444.31368.31368l-.04481 2.151c0 .19418-.10456.29874-.29874.29874l-5.7209.2838c-.10456 0-.16431-.0299-.22406-.0896-.05975-.0598-.08962-.11949-.08962-.22406l.46305-9.8137c.01495-.19418.1195-.28381.31368-.28381l1.9269.0448c.16431 0 .29874.14938.29874.31368z"/>
   <path d="m83.688 268.75c.1195-1.5535-.07469-2.6439-.5228-3.5998-.46305-.94103-1.434-1.6281-2.7484-1.6281-.61242 0-1.1651.17925-1.673.5228-1.3294.94104-1.8522 2.6588-2.0912 4.1973-.02987.14937-.04481.31368-.05975.44811-.04958.44245-.07166.90398-.05974 1.4489.01495.32861.04481.65723.10456.97091v-.0299c.02987.0149.04481.0299.04481.0448-.01495.0149-.01495.0299-.01495.0448l-.01495.0299c.1195.58255.32862 1.0904.61242 1.5236.01495.0448.04481.0747.07469.11949l.02988.0299c.58255.8066 1.3742 1.2099 2.4049 1.2099 1.1203 0 2.0314-.46305 2.7186-1.3892.78257-1.0797 1.1194-2.7487 1.195-3.8985h-.01495v-.0448zm-2.5842.50787c-.05975.58255-.17925 1.1352-.35849 1.658-.14937.44812-.4033.86635-.9261.77673-.08962 0-.14937-.0299-.20912-.0598-.38837-.23899-.43318-1.0157-.43318-1.419 0-1.0755.07468-2.2555.37343-3.3011.10456-.4033.37343-1.195.85141-1.3294.26887-.0597.46305.0598.58255.34356.2355.44273.18417.42839.22406 1.2696.01495.65723-.01495 1.2696-.07468 1.9568.24254.0655-.02891.10117-.02988.10456z"/>
   <path d="m73.682 227.74h-.7166v-4.2518h-4.5504v4.2518h-.7166v-8.5514h.7166v3.7024h4.5504v-3.7024h.7166z"/>
   <path d="m75.845 224.74q.03583 1.1585.69271 1.8632.66882.70465 1.7795.70465 1.0391 0 2.1378-.42996l.05972.58522q-1.0629.4419-2.2692.4419-1.3735 0-2.2453-.84797-.87186-.85991-.87186-2.2095 0-1.4451.83602-2.3886.84797-.95546 2.2095-.95546 2.5678 0 2.6275 3.2366zm4.2398-.59716q-.02389-.93157-.57328-1.481-.53744-.56133-1.4212-.56133-.8838 0-1.481.58522-.59716.57327-.72854 1.4571z"/>
   <path d="m84.629 227.31-.07166.59716q-2.2692-.10749-2.2692-3.2366v-6.0074h.71659v5.7566q0 .68076.05972 1.1466.05972.46578.21498.89574.1672.42995.50162.64493.33441.20304.84797.20304z"/>
   <path d="m88.221 227.31-.07166.59716q-2.2692-.10749-2.2692-3.2366v-6.0074h.71659v5.7566q0 .68076.05972 1.1466.05972.46578.21498.89574.16721.42995.50162.64493.33441.20304.84797.20304z"/>
   <path d="m95.193 224.71q0 1.3615-.87186 2.2812-.85991.91963-2.2095.91963-1.3615 0-2.2214-.90769-.85991-.91962-.85991-2.2931 0-1.3615.87186-2.2812.87186-.91963 2.2095-.91963 1.3496 0 2.2095.91963.87186.91962.87186 2.2812zm-3.0814 2.6036q1.0391 0 1.6959-.75243.66882-.75242.66882-1.8512 0-1.0988-.65688-1.8512-.65688-.75242-1.7079-.75242-1.0391 0-1.7079.75242-.65688.75243-.65688 1.8512 0 1.0988.65688 1.8512.66882.75243 1.7079.75243z"/>
   <path d="m10.84 244.16-1.2614.20499.39621-6.199.99024-.16092zm.59307-8.2638q.06897.42439-.20939.79632-.26657.37002-.69096.43898-.29471.0479-.52577-.10815t-.27895-.45077q-.06705-.4126.21322-.77274.28027-.36015.69287-.42719.28293-.046.51207.0983.24093.14235.28691.42527z"/>
   <path d="m19.299 240.22-1.1199.18199.19744-4.146-4.3618.70881-.19744 4.146-1.1199.182.42022-8.7318 1.1199-.182-.17755 3.5983 4.3618-.70882.17755-3.5983 1.1199-.18199z"/>
   <path d="m27.16 235.81q-.06837 1.3663-.97608 2.4818-.90963 1.1037-2.3714 1.3413-1.1317.18391-1.9836-.36735-.842-.56496-1.0221-1.6731-.05939-.36545-.03625-.7443.07028-1.3545.98979-2.4719.91759-1.1292 2.3676-1.3648 1.1553-.18774 1.9855.37914.8283.55509 1.0103 1.675.05939.36545.03626.7443zm-5.2601 1.4356q.12452.76626.65899 1.1513t1.2889.26243q.94309-.15325 1.553-.94206t.65102-1.7272q.02284-.30621-.02314-.58914-.12261-.75447-.66886-1.1376-.54626-.38313-1.2889-.26244-.95488.15517-1.553.94207-.59812.78689-.65102 1.7272-.01871.25714.03301.57543z"/>
   <path d="m29.669 236.27q.1092.67195.45372.93056.35631.2567 1.0359.19466l-.17712 1.0694q-2.092.23107-2.4177-1.773-.09195-.56585-.05423-1.1528l.28952-6.0365 1.1199-.18199-.2826 5.7813q-.03448.7558.03257 1.1684z"/>
   <path d="m34.856 237.86q-1.1199.182-1.9501-.38488t-1.0103-1.675q-.25862-1.5915.65793-2.9504.91656-1.3589 2.4726-1.6118 1.9687-.31992 3.1999.6295l-.16988 3.6455q.0065.33774.03139.49099.09195.56585.41997 1.0207l-1.0854.39419q-.27188-.25831-.4378-.98154-.70186 1.1909-2.1283 1.4227zm.06498-1.0148q.8252-.1341 1.4384-.75403.61315-.61994.64159-1.3385l.10314-2.1947q-.80855-.5825-2.0346-.38326-1.061.17241-1.6836 1.1811-.61271.99496-.43071 2.1149.2682 1.6504 1.9658 1.3745z"/>
   <path d="m40.965 234.17-.99024.16092.18402-6.1646 1.2732-.2069zm.2822 1.5876q.06705.4126-.19952.78262-.26848.35823-.68108.42528-.3065.0498-.52577-.10816-.22118-.16975-.27099-.47626-.06513-.40081.19156-.75712.26848-.35823.68108-.42528.29471-.0479.52577.10816.23106.15605.27895.45076z"/>
   <path d="m126.68 222.46v1.2421q-.59482-.55401-1.2713-.8281-.67064-.27409-1.4288-.27409-1.4929 0-2.286.91557-.79311.90974-.79311 2.6359 0 1.7203.79311 2.6359.7931.90974 2.286.90974.75811 0 1.4288-.27409.67648-.27409 1.2713-.82809v1.2305q-.61815.41988-1.3121.62982-.68813.20994-1.4579.20994-1.9769 0-3.1141-1.2072-1.1372-1.213-1.1372-3.3066 0-2.0994 1.1372-3.3066 1.1372-1.213 3.1141-1.213.78144 0 1.4696.20994.69396.20411 1.3004.61816z"/>
   <path d="m128 227.51v-.52485h4.9336q-.07-1.108-.67064-1.6854-.59483-.58316-1.662-.58316-.61816 0-1.2013.15162-.57734.15162-1.1488.45487v-1.0147q.57734-.24493 1.1838-.37323.60649-.12829 1.2305-.12829 1.5629 0 2.4726.90974.91557.90973.91557 2.461 0 1.6037-.86892 2.5484-.86308.9389-2.3327.9389-1.318 0-2.0877-.84559-.76395-.85143-.76395-2.3093zm1.073.31491q.0117.88058.48986 1.4054.48403.52485 1.2771.52485.89807 0 1.4346-.50736.54235-.50735.62399-1.4288z"/>
   <path d="m135.13 230.49v-.89225q1.0614-.16328 1.3879-.89807.39655-1.0322.39655-3.6739v-1.0672h4.4146v6.5315h-1.073v-5.6742h-2.2685v.64731q0 2.5193-.51319 3.6506-.54817 1.2072-2.3443 1.3763z"/>
   <path d="m149.02 226.96v.52485h-4.9336q.07 1.108.66481 1.6912.60066.57734 1.6678.57734.61816 0 1.1955-.15163.58317-.15162 1.1547-.45487v1.0147q-.57733.24493-1.1838.37323-.6065.1283-1.2305.1283-1.5629 0-2.4785-.90974-.90974-.90974-.90974-2.461 0-1.6037.86309-2.5426.86892-.94473 2.3385-.94473 1.318 0 2.0819.85142.76978.84559.76978 2.3035zm-1.073-.31491q-.0117-.88058-.49569-1.4054-.4782-.52484-1.2713-.52484-.89808 0-1.4404.50735-.53652.50735-.61816 1.4288z"/>
   <path d="m150.74 223.96h1.5687l1.8545 4.3737 1.8603-4.3737h1.557v6.5315h-1.0788v-5.5051l-1.802 4.2513h-1.073l-1.8078-4.2513v5.5051h-1.0789z"/>
   <path d="m160.66 228h-1.0032l-.13138-6.0552h1.3018zm-.48967.93157q.35829 0 .6091.25081.26275.25081.26275.60911 0 .35829-.26275.62104-.25081.25081-.6091.25081-.3583 0-.60911-.25081-.25081-.26275-.25081-.62104 0-.3583.25081-.60911t.60911-.25081z"/>
   <g>
    <path d="m167.33 253.82-.0859.6919c.66029.1334 1.3722.26466 2.216.36945.7847.0975 1.7118.15261 2.2907.18168l.0859-.69189c-.61485-.0164-1.4829-.0642-2.2929-.16478-.84377-.10479-1.6159-.23492-2.2139-.38633zm-.0848 3.4424-.67507-.15238c-.1189.33651-.2694.72051-.32285 1.1508-.13202 1.0632.79342 1.7521 2.5063 1.9648 1.1981.1488 2.2855.1553 2.9139.062l.0817-.72668c-.65903.13236-1.7632.12375-2.9276-.0209-1.35-.16765-1.9526-.69654-1.873-1.3379.0388-.31219.14504-.61601.29665-.9399z" style="white-space:pre"/>
    <path d="m178.45 254.85-.7048-.39597c-.13163.23212-.26752.42945-.39287.61093-.55728.76188-2.8347 3.9919-3.6624 5.6198l.69421.34326c.16208-.40827.6485-1.3589.9645-1.8337.4108-.61727 1.1295-1.2306 1.813-1.1457.37969.0471.56339.29272.5426.66713-.0323.46721-.1299 1.1148-.16534 1.6074-.0281.50202.18756 1.1114 1.0904 1.2235 1.2234.15194 2.0496-.7051 2.6655-2.008l-.50031-.5248c-.33045.86716-1.0319 1.9624-1.9685 1.8461-.37125-.0461-.63614-.25892-.60906-.68396.026-.41658.11514-1.0653.1601-1.5652.0575-.66972-.30355-1.0744-.86042-1.1436-.40501-.0503-.87107.046-1.3222.36703.5404-.76396 1.4906-2.0682 1.9342-2.6043.12117-.14775.23284-.28811.32136-.37993z" style="white-space:pre"/>
    <path d="m185.88 255.43-.74572-.13544c-.0209.2373-.0534.43032-.12071.69614-.0358.14979-.0925.33121-.16198.54535-.0506-.006-.0928-.0116-.14343-.0178-.50626-.0629-1.1476-.21106-1.5854-.34253l-.0733.65919c.4831.1114 1.0189.21222 1.5927.28347l.009.001c-.32935.92726-.81672 2.092-1.3518 2.8823l.60453.30641c.0948-.14245.18436-.24271.30977-.35565.64071-.60586 1.6118-.83653 2.6159-.71184.98721.12259 1.4495.67696 1.371 1.3098-.17183 1.3838-2.1122 1.4855-4.0278.97346l.086.68753c2.5304.59699 4.4179.16311 4.6358-1.5919.1226-.98721-.57683-1.7682-1.9188-1.9348-.88597-.11002-1.6706-.002-2.4686.42173.24536-.4579.53897-1.2354.77886-1.9253 1.1021.094 2.4615.11721 3.4697.071l.0722-.65074c-1.0661.0989-2.3233.0799-3.341-.004.0663-.18882.11151-.34599.15359-.47786.0694-.21414.15254-.46942.2399-.6899z" style="white-space:pre"/>
    <path d="m194.84 258.98.50914-.30519c-.20483-.28247-.60487-.7177-.81277-.90628l-.50808.29676c.28495.25815.59951.62279.81172.91472zm-1.9685-.77571-.7075.17773c.10976.15074.21864.37842.28621.52392.0803.18133.18382.45123.29062.76436-.33841.10378-.64949.1935-.89727.25699-.12336.0275-.36061.0752-.61264.10387l.23888.69797c.3025-.0912.84133-.28965 1.4581-.49583.0665.22251.133.44501.20091.65897.25595.90569.47304 2.055.58444 2.8828l.68963-.10285c-.14507-.76342-.40979-2.0814-.67628-2.9714-.0611-.19618-.12691-.42701-.20091-.65897.84665-.2632 1.747-.47704 2.304-.40785.75939.0943.96013.54762.91612.902-.0555.44719-.37794.83555-1.1964.73391-.33751-.0419-.71203-.19981-.95787-.35885l-.10181.61281c.23212.13163.64039.29371 1.0201.34087 1.1644.14461 1.7609-.38107 1.8688-1.2502.088-.70876-.3365-1.4298-1.4503-1.5681-.66658-.0828-1.6757.17748-2.5908.44081-.12047-.34056-.2283-.64525-.31281-.86139-.0457-.11693-.10249-.27834-.15326-.42171z" style="white-space:pre"/>
   </g>
  </g>
 </g>
</svg>
