<svg width="820" height="340" version="1.1" viewBox="0 0 216.96 89.958" xmlns="http://www.w3.org/2000/svg">
 <defs>
  <clipPath id="b">
   <path d="m1167 3327.1-55.46-474.98 98.35-37.9z"/>
  </clipPath>
  <clipPath id="a">
   <path d="m1530.2 3389.7 386.48-419.43 16.91 134.9z"/>
  </clipPath>
 </defs>
 <g transform="translate(0 -207.04)">
  <g id="fg">
   <g transform="matrix(.23886 0 0 .23886 58.809 208.13)">
    <g transform="matrix(1.2831 0 0 1.2831 -16.33 -22.716)">
     <path d="m138.43 42.503c-0.018-0.1772-0.0125-0.3503-0.0401-0.5262-1.7779-13.792-17.003-23.199-34.011-21.007-3.2912 0.4223-6.3926 1.2572-9.2601 2.4064-4.4861-4.1649-10.621-6.3968-17.061-5.5674-4.0901 0.5275-7.7398 2.2319-10.711 4.7242-5.537-3.6969-12.29-5.4885-19.311-4.5844-15.78 2.0353-26.875 16.889-24.773 33.194 0.28661 2.25 0.8349 4.3988 1.5715 6.4467-7.2732 6.3954-11.312 15.248-10.124 24.441 1.5147 11.751 11.153 20.792 23.773 23.909 4.4445 13.026 17.624 21.568 31.873 19.728 4.3712-0.5594 8.3823-2.0686 11.896-4.2507 4.1233 5.2448 10.329 8.2494 16.824 7.4103 7.3923-0.9512 13.152-6.628 15.345-14.074 1.566 0.4804 3.1762 0.8418 4.8627 1.0536 14.58 1.8208 27.765-7.6207 29.439-21.082 0.31984-2.5255 0.2063-5.0108-0.28522-7.3978 9.9981-5.7073 16.078-14.818 14.861-24.23-1.3666-10.607-11.577-18.5-24.87-20.593"/>
     <path d="m127.2 152.69s-0.126 2.4659-1.451 4.1454c-1.8 2.2846-7.3992 2.8107-8.8115-2.5767 0 0-8.0777 1.7833-8.86-4.5539-0.70337-5.6782 6.257-6.97 6.257-6.97-2.2292-3.4393 0.82106-12.688 9.7226-7.2954 0 0 4.0388-7.9129 9.6436-3.5252 4.4514 3.4795 1.6338 8.8905-0.9706 10.581 0 0 3.6498 2.7706 2.4895 6.6419-1.1644 3.8699-4.6162 4.3019-8.0195 3.5529"/>
    </g>
   </g>
   <path d="m86.431 254.61-43.349 2.5147c-3.4566 0.20146-6.1063 3.1916-5.887 6.6467l1.2835 11.8c0.21923 3.4577 3.2302 6.318 6.6909 6.36l13.674 0.16548-1.354 2.8583 7.0258-0.52382-4.4061 4.6151h6.7163l-4.4848 5.7009 10.987-7.9039h-7.0264l3.9012-4.6066 14.636 0.17824c3.4632 0.0416 6.4169-2.7538 6.5656-6.2108l1.0398-15.67c0.14973-3.4591-2.5568-6.125-6.0134-5.9241"/>
   <path d="m155.03 274.37c1.1833-2.2997 0.27001-5.149-2.0301-6.3325l-40.329-20.751c-2.2997-1.1833-5.1494-0.27022-6.3327 2.0295l-6.8633 13.339c-1.1833 2.2997-0.2696 5.1492 2.0301 6.3325l20.968 10.789c2.2997 1.1833 2.678 3.6412 0.84146 5.4621l-6.0051 6.1123 10.608-4.6621c2.3669-1.0429 6.1844-0.92886 8.4841 0.25444l5.4333 2.7957c2.3001 1.1835 5.1494 0.27023 6.3327-2.0295l6.8633-13.339"/>
   <g transform="matrix(-.32098 .039502 .039502 .32098 223.06 507.67)">
    <path d="m496.48-959.97c-37.714 0-68.916 18.119-73.979 47.75-3.75 21.931 18.339 51.384 66.209 53.39 36.086 1.5162 83.09-7.84 88.821-43.502 2.8925-18.021-9.4425-57.638-81.051-57.638"/>
    <path d="m558.21-861.84c0-8.69-8.1912-15.736-18.292-15.736-7.1212 0-13.295 3.5025-16.306 8.6176-1.435 2.2337-2.2575 4.8187-2.2575 7.5625 0 8.6762 8.1988 15.715 18.298 15.715 7.1175 0 13.292-3.4962 16.312-8.6075 1.425-2.2537 2.2462-4.8125 2.2462-7.5512"/>
    <path d="m537.57-835.02c0-5.0862-5.0288-9.2175-11.21-9.2175-4.385 0-8.165 2.0575-10.009 5.045-0.88 1.32-1.3738 2.8413-1.3738 4.45 0 5.0863 5.0175 9.2075 11.2 9.2075 4.3688 0 8.1775-2.0475 10.018-5.0487 0.88-1.3113 1.375-2.8113 1.375-4.4363"/>
    <path d="m517.22-821.81c0-3.105-3.0712-5.6325-6.8425-5.6325-2.6775 0-4.9875 1.2588-6.1125 3.0837-0.535 0.805-0.83875 1.7338-0.83875 2.7138 0 3.1037 3.0662 5.6212 6.8375 5.6212 2.6675 0 4.9925-1.2475 6.1188-3.0837 0.535-0.7988 0.8375-1.7125 0.8375-2.7025"/>
   </g>
   <g transform="matrix(-.38936 0 0 .38936 420.24 512.15)">
    <path d="m792.42-732.67c0-23.451-33.069-42.464-73.862-42.464-28.771 0-53.698 9.4563-65.892 23.256-5.7871 6.0588-9.083 13.018-9.083 20.418 0 23.45 33.069 42.462 73.862 42.462 28.772 0 53.695-9.4537 65.892-23.255 5.79-6.0587 9.0825-13.015 9.0825-20.418"/>
    <path d="m731.27-693.65c-3.3921 15.145-13.552 23.119-27.99 28.78 18.559-2.8663 35.834-12.315 45.606-28.355-1.9912-0.565-13.586 0.8562-17.616-0.425"/>
   </g>
   <g transform="matrix(.21838 .083389 -.083389 .21838 -124.18 332.97)">
    <path d="m1252-795.16-71.701-1.5037 22.332-33.741-36.644 19.802-6.9962-39.375-33.451 30.152-14.262-17.892-19.681 24.362-19.119-15.772-3.3389 23.75-40.966-18.002 9.2896 39.475-35.893 6.0088 27.205 23.306-27.428 19.174 32.073 1.87-20.058 38.04 41.717-15.3 12.455 24.372 20.734-18.53 20.181 45.019 14.024-48.874 24.034 12.769 8.1725-24.915 35.059 15.969-8.17-36.296 31.271 1.6537-16.279-29.226 55.438-26.295"/>
    <g transform="matrix(.125 0 0 -.125 986.69 -265.57)">
     <g clip-path="url(#b)">
      <path d="m1167 3327.1-55.46-474.98 98.35-37.9-42.89 512.88"/>
     </g>
    </g>
    <g transform="matrix(.125 0 0 -.125 986.69 -265.57)">
     <g clip-path="url(#a)">
      <path d="m1530.2 3389.7 386.48-419.43 16.91 134.9-403.39 284.53"/>
     </g>
    </g>
    <path d="m1096.6-946.62-13.366 55.697 18.462-9.273-9.4922 62.89 0.6549-49.514-17.668 7.5168 1.3972-60.839 20.013-6.4788"/>
   </g>
  </g>
  <g id="bg" style="fill:#f7f7f7">
   <path d="m112.27 262.51q0.44011 0.37674 0.59296 0.95807 0.16356 0.58662-0.11632 1.1544-0.63895 1.2962-2.0106 1.4856-1.3664 0.17866-3.0803-0.66624-0.69631-0.34324-1.3455-0.86301l5.2766-6.7064q0.98403 0.21877 1.766 0.60425 2.4317 1.1987 1.7083 2.6663-0.39605 0.80344-1.174 1.139-0.77793 0.33556-1.6171 0.22814zm-1.0353-0.78999q0.89984 0.44358 1.8015 0.26221 0.90693-0.19208 1.3082-1.0062 0.53335-1.082-1.3628-2.0166-0.52491-0.25875-1.0705-0.39453l-1.9834 2.5109zm-3.0791 3.329q1.2319 0.60727 2.3315 0.48354 1.1156-0.12917 1.6172-1.1468 0.33796-0.68559-0.10336-1.276-0.43062-0.58511-1.309-1.0181l-1.1141-0.54918-2.3282 2.9402q0.37026 0.30235 0.90588 0.56639z"/>
   <path d="m114.56 268.93q-1.007-0.49637-1.3271-1.3866-0.30946-0.8849 0.18163-1.8812 0.71289-1.4462 2.2641-1.9998 1.5565-0.5643 2.9384 0.1169 0.99625 0.4911 1.3164 1.3813 0.33088 0.89546-0.15493 1.881-0.70761 1.4355-2.2586 2.0158-1.535 0.57487-2.9598-0.12746zm-0.47138-3.0686q-0.38548 0.782-0.15177 1.4964 0.24443 0.71969 1.005 1.0946 1.1034 0.5439 2.3504 0.0401 1.247-0.5038 1.8173-1.6607 0.3802-0.77129 0.13049-1.4803-0.23372-0.7144-0.9943-1.0893-1.082-0.53334-2.3344-0.0455-1.2524 0.48781-1.8227 1.6448z"/>
   <path d="m124.12 272.05q-0.20142 0.27354-0.30704 0.48779-0.17426 0.35351-0.17802 0.63128l-0.70069-0.1723q0.0513-0.37417 0.22028-0.71697 0.11617-0.23568 0.24879-0.39666l1.4953-1.926q0.28637-0.36483 0.43423-0.66478 0.62311-1.2641-0.70523-1.9189-0.66417-0.3274-1.5921-0.0658-0.92262 0.25092-1.3522 0.79816l-2.3333 2.9776-0.62132-0.30628 3.0545-3.9004q0.21198-0.29497 0.31759-0.50921 0.15842-0.32138 0.17818-0.60458l0.68469 0.17773q-0.0513 0.37418-0.21499 0.70627-0.11618 0.23567-0.2488 0.39666 1.3849-0.6755 2.6168-0.0682 1.7247 0.85018 0.92733 2.4678-0.1901 0.38564-0.52414 0.82018z"/>
   <path d="m125.9 274.17q-1.7342 2.1944-4.0209 1.1337l0.29104-0.48236q1.0599 0.41596 1.758 0.13426 0.68212-0.27626 1.4564-1.2528l3.6699-4.6356 0.63203 0.31156zm5.2147-6.3108q-0.13202 0.26782-0.41461 0.35488-0.2666 0.0816-0.53441-0.0504-0.40708-0.20067-0.22225-0.5756 0.13201-0.26781 0.39318-0.36543 0.27188-0.0923 0.52898 0.0344 0.18211 0.0898 0.25785 0.26026 0.081 0.15978-9e-3 0.34189z"/>
   <path d="m129.73 276.4q-1.007-0.49638-1.3271-1.3866-0.30946-0.8849 0.18163-1.8812 0.71289-1.4462 2.2641-1.9998 1.5564-0.5643 2.9384 0.1169 0.99625 0.4911 1.3164 1.3813 0.33089 0.89546-0.15493 1.881-0.7076 1.4355-2.2586 2.0158-1.535 0.57486-2.9598-0.12746zm-0.47138-3.0686q-0.38549 0.78201-0.15177 1.4964 0.24443 0.71969 1.005 1.0946 1.1034 0.54391 2.3504 0.0401 1.247-0.5038 1.8173-1.6607 0.3802-0.77129 0.13049-1.4803-0.23372-0.71441-0.9943-1.0893-1.082-0.53335-2.3344-0.0455-1.2524 0.4878-1.8227 1.6447z"/>
   <path d="m138.79 280.64-0.68997-0.16701q0.13126-0.40134 0.27383-0.69058 0.0634-0.12854 0.2221-0.39651-1.4866 0.63869-2.8364-0.0267-1.5533-0.76569-0.77705-2.3404 0.20066-0.40708 0.59837-0.91675l1.3789-1.7437q0.21198-0.29497 0.31759-0.50922 0.15842-0.32137 0.17818-0.60457l0.68469 0.17773q-0.067 0.43302-0.23068 0.7651-0.095 0.19283-0.21168 0.34838l-1.3947 1.7759q-0.33947 0.41854-0.53486 0.8149-0.61255 1.2426 0.52297 1.8024 0.80343 0.39605 1.6996 0.19869 0.89621-0.19736 1.4053-0.85187l2.3387-2.9616 0.63203 0.31156-2.9274 3.6967q-0.20685 0.25755-0.37055 0.58963-0.1637 0.33209-0.27897 0.72799z"/>
   <path d="m146.22 278.09q-0.0537-0.0531-0.18226-0.11648-0.79272-0.39077-1.704-0.0277-0.90602 0.35231-1.4735 1.0712l-2.0628 2.6449-0.62132-0.30628 3.0438-3.9057q0.20142-0.27354 0.30703-0.48779 0.17426-0.35351 0.17803-0.63127l0.6954 0.183q-0.0516 0.32077-0.17833 0.57787-0.1637 0.33208-0.42924 0.60065 1.368-0.8303 2.5142-0.26527 0.14997 0.0739 0.29482 0.18527z"/>
   <path d="m53.478 263.72c-0.07469-0.0597-0.13444-0.0896-0.22406-0.0896h-2.0165c-0.19418 0-0.2838 0.0896-0.29874 0.28381l-0.20912 3.57-1.3891 0.0598c0.02987 0 0.05975 0.0149 0.07469 0.0149 0 0-0.01495 0.0598-0.05975 0.0598-0.04481 0-0.07469-0.0149-0.07469-0.0299l-0.02987-0.0448-0.58255 0.0149 0.23899-3.57c0.01495-0.16431-0.1195-0.31368-0.31368-0.31368l-1.9119 0.0448c-0.19418 0-0.28381 0.10456-0.29874 0.2838l-0.65723 9.7539c0 0.19418 0.1195 0.32861 0.31368 0.32861l2.1958-0.0448c0.20912 0 0.29874-0.10456 0.29874-0.29874l0.05975-3.555c0.32862-0.1195 0.67217-0.239 1.0307-0.32862 0.07469-0.0149 0.14937-0.0299 0.22406-0.0299 0.05975-0.0149 0.13443-0.0299 0.20912-0.0299l0.26887-0.0448c0.08962-0.0149 0.17925-0.0149 0.2838-0.0299l-0.16431 3.1368c0.02987 0.0299 0.05975 0.0299 0.05975 0.0598-0.02987 0.0149-0.04481 0.0299-0.05975 0.0299l-0.01495 0.41824h0.04481v0.0448c0 0.0149-0.02987 0.0299-0.05975 0.0448v0.17925c0 0.17924 0.13443 0.29874 0.29874 0.29874h2.2107c0.20912 0 0.29874-0.0896 0.29874-0.29874 0-1.4937 0-3.0173 0.04481-4.5409 0.04481-1.7178 0.16431-3.4355 0.28381-5.1384 0.01495-0.0896-0.01495-0.1643-0.07469-0.23899zm-4.9591 0.62736c-0.01495 0-0.04481 0-0.05975-0.0149l-0.04481-0.0299c-0.23899 0-0.4033-0.0149-0.50786-0.0149-0.10456 0-0.14937-0.0149-0.16431-0.0149-0.01492 0-0.05975 0.0149-0.10456 0.0149l-0.10456 0.0299c-0.08962 0-0.17924-0.0299-0.25393-0.0597 0.05975-0.0149 0.08962-0.0299 0.1195-0.0149 0.02987 0 0.05975-0.0299 0.10456-0.0747h0.1195v0.0448c0 0.0149 0.01495 0.0149 0.04481 0.0149h0.08962c0.04481 0 0.10456 0 0.14937-0.0149h0.08962c0.04481 0 0.10456-0.0149 0.13444-0.0149h0.02987s0.22406 0.0299 0.2838 0.0299c0.05975 0.0299 0.08962 0.0448 0.1195 0.0747zm-1.5236 0.14937c-0.04481 0-0.07469-0.0149-0.08962-0.0448v-0.14937c0.01495 0 0.02987-0.0149 0.04481-0.0149 0.02987 0 0.05975-0.0149 0.08962-0.0149v0.0448s-0.01495 0.0149-0.01495 0.0299c0 0.0299 0.01495 0.0299 0.02987 0.0448s0.04481 0.0149 0.04481 0.0448c-0.05975 0.0299-0.08962 0.0598-0.10456 0.0598zm0.13443 0.20912h0.04481v0.0747h-0.04481zm4.2123 0.1195c0 0.0149 0.01492 0.0149 0.02987 0.0299l-0.07469 0.0598c-0.01492-0.0149-0.05975-0.0598-0.05975-0.0896zm0.76179 0.0747h0.04481v0.0597h-0.04481zm-0.28381 0.22405h0.04481v0.0299h-0.04481zm-0.07468 0.25393h0.02987v0.0598h-0.02987zm-4.3467 0.23899 0.02987-0.0299h0.01492l-0.01492 0.0448zm0.86635 0.28381h-0.02987l-0.14937-0.0598v-0.0896l0.07469-0.0448h0.05975c0.01495 0.0149 0.01495 0.0299 0.01495 0.0598-0.01495 0.0149-0.01495 0.0448 0 0.0598 0.02987 0.0149 0.04481 0.0448 0.04481 0.0597zm3.1368-0.16431h-0.10456v-0.0299h0.10456zm0.08962 0.16431v0.0299h-0.1195v-0.0299zm0.68711 0.85142 0.07468 0.0747c-0.01495 0-0.04481-0.0299-0.08962-0.0597-0.02987-0.0149-0.05975-0.0448-0.05975-0.0598zm-2.5094 1.0008c-0.01495 0.0149-0.01495 0.0299-0.01495 0.0299 0.01495 0.0149-0.01495 0-0.07469-0.0299-0.02987-0.0149-0.04481-0.0299-0.04481-0.0448v-0.0299c0.01495 0.0149 0.01495 0 0.02987-0.0149 0.02987 0 0.07468 0.0149 0.1195 0.0598 0 0-0.01495 0.0149-0.01495 0.0299zm0.38836 0 0.02987 0.0299h-0.02987l-0.02987-0.0149zm-0.76179 0.20912c0-0.0149 0.01495-0.0448 0.04481-0.0597h0.08962c-0.02987 0.0597-0.07468 0.0747-0.13443 0.0597zm0.46305 0.0149 0.01492-0.0149v-0.0149h0.1195l0.01495 0.0149c0 0.0149 0.01495 0.0149 0.01495 0.0299l-0.04481 0.0448c-0.02987 0-0.05975-0.0299-0.1195-0.0598zm-0.16431 0.22405c-0.01495 0.0149-0.02987 0.0149-0.02987 0.0299l-0.04481-0.0747c-0.01492-0.0747-0.02987-0.0747 0.02987-0.0896 0.07469-0.0299 0.10456-0.0299 0.10456-0.0299 0 0.0149 0 0.0149 0.01495 0.0149 0 0.0149 0.01495 0.0299 0.01495 0.0448 0 0.0299-0.05975 0.0747-0.08962 0.10456zm-0.19418-0.10455h-0.07468v-0.0299h0.07468zm1.18 0.10455c-0.01495 0.0299-0.07468 0.0448-0.19418 0.0598-0.02987-0.0149-0.02987-0.0299-0.02987-0.0747 0-0.0299 0.10456-0.0896 0.1195-0.10456 0.02987 0.0299 0.05975 0.0448 0.08962 0.0448s0.05975-0.0149 0.08962-0.0448c0 0.0149 0.02987 0.0149 0.05975 0.0149-0.08962 0.0448-0.1195 0.0896-0.13444 0.10456zm0.43318-0.0448-0.04481 0.0448s-0.01495 0-0.01495-0.0149c0 0-0.01495 0-0.01495-0.0299zm-1.6879 0.0896-0.04481-0.0448h0.01495c0.01495 0 0.01495-0.0149 0.02987-0.0149 0 0 0.01492 0.0149 0.01492 0.0299-0.01492 0-0.01492 0.0149-0.01492 0.0299zm0.9261 0.38836c-0.04481-0.0299-0.10456-0.0747-0.17924-0.0896-0.07469-0.0299-0.10456-0.0597-0.1195-0.0896l-0.08962-0.0149c0-0.0299 0.02987-0.0598 0.07469-0.0598l0.01492-0.0149h0.01495c0.01495-0.0149 0.02987-0.0299 0.04481-0.0299h0.07469v0.0149c0.02987 0 0.10456 0 0.10456-0.0896 0 0.0448 0.05975 0.0896 0.13443 0.0896 0 0 0.01495-0.0149 0.02987-0.0149h0.08962c-0.02987 0.0149-0.08962 0.10456-0.08962 0.13443-0.01495-0.0448-0.04481-0.0598-0.07468-0.0598-0.04481 0-0.08962 0.0149-0.13444 0.0448 0.02987 0.0299 0.05975 0.0448 0.08962 0.0448s0.02987 0 0.02987-0.0149h0.02987c0.05975 0 0.10456 0.0299 0.14937 0.0896v0.0598zm0.49292-0.34355v0.0149l-0.08962-0.0299 0.02987-0.0149zm-1.5086 0.14937c0-0.0149 0.01495-0.0299 0.02988-0.0299l0.04481 0.0299zm1.5684 0.0299c0.04481 0 0.07469 0.0149 0.08962 0.0448h-0.1195zm0.49292 0.10456c-0.01492-0.0149-0.02987-0.0149-0.05975-0.0299l0.02987-0.0747c0.07469 0 0.10456 0.0149 0.13444 0.0149h0.04481c0.01495 0.0149 0.02987 0.0149 0.04481 0.0149l0.02987 0.0299c-0.01495 0.0149-0.02987 0.0149-0.02987 0.0149-0.01495 0.015-0.02987 0.015-0.04481 0.015-0.02987 0.0149-0.05975 0.0149-0.08962 0.0149zm-1.8522 0.0747h-0.02987v-0.0448h0.02987zm1.4041 0.0299v-0.0299h0.07468v0.0299zm-0.65723 0.0896h-0.02987v-0.0448h0.02987zm0.34355 0.23899c-0.02987 0.0299-0.04481 0.0448-0.07469 0.0448l-0.05975-0.0149c-0.01495 0-0.01495-0.0149-0.02987-0.0149 0 0-0.01495 0-0.01495-0.0149l0.01495-0.0747c0.04481 0.0149 0.08962 0.0299 0.1195 0.0299h0.10456c-0.01495 0-0.02987 0.0149-0.05975 0.0448zm0.23899 0.0299c0.02987 0 0 0-0.05975-0.0299l0.02987-0.0448h0.13444v0.0747s-0.01495 0.0149-0.04481 0.0149zm0.9261 0.0747 0.01495-0.0149h0.14937c0.01495 0.0299 0.02987 0.0448 0.04481 0.0448l-0.04481 0.0448-0.16431-0.0149zm0.47799 0.25393c-0.01495 0-0.01495-0.0149-0.01495-0.0448s0.01495-0.0448 0.05975-0.0448c0 0.0149 0.01495 0.0149 0.01495 0.0299 0 0 0.01495 0.0149 0.02987 0.0149-0.05975 0.0747-0.05975 0.0598-0.08962 0.0448zm-1.0008-0.0448c-0.01495 0.0149-0.01495 0.0448-0.04481 0.0597l-0.02987-0.0747c0.02987 0 0.05975 0 0.07469 0.0149zm1.8373 0.44811c-0.04481 0.0149-0.10456-0.0149-0.10456-0.0448v-0.26887h0.10456zm-1.2398 0.0149-0.01495 0.0598h-0.02987l0.01495-0.0598zm-4.1077 0.13444h0.07468c0.04481 0 0.07469 0 0.1195-0.0149v0.0149l0.01495 0.0149v0.0149c-0.01495 0-0.04481-0.0149-0.08962-0.0149s-0.08962-0.0149-0.1195-0.0149zm0.25393 0.10456v-0.0598h0.02987l0.01495-0.0149s0.01495-0.0149 0.02987-0.0149c0.02987 0 0.05975 0 0.07469 0.0149v0.0448c-0.01495 0.0149-0.05975 0.0299-0.1195 0.0299zm-0.79167 0.0299 0.239-0.0597s0 0.0149 0.02987 0.0299c0.02987 0.0149 0.02987 0.0299 0.02987 0.0598s-0.01495 0.0598-0.05975 0.0896c-0.02988 0.0149-0.05975 0.0299-0.07469 0.0448-0.01495 0.0149-0.02987 0.0149-0.04481 0.0149-0.01492-0.0149-0.02987-0.0598-0.05975-0.0896-0.01492-0.0299-0.02987-0.0598-0.05975-0.0896zm0.97091 0.0598h0.01495l0.04481 0.0149-0.02987 0.0149zm3.4654 0.37343-0.01495 0.0149h-0.07469l-0.02987-0.0896h0.07469s0.01492 0 0.04481 0.0299c0.01495 0.0149 0.02987 0.0299 0.02987 0.0448zm-3.3608 0.1195h-0.07469v-0.0448h0.1195zm3.4953 0.20911h0.04481c0.01495 0.0149 0.02987 0.0448 0.02987 0.0598v0.0448h-0.07469zm-3.7642 0.0598c0.02987 0 0.07469 0.0299 0.07469 0.0448-0.05975 0.0299-0.08962 0.0448-0.10456 0.0597h-0.07468c0.01495-0.0299 0.04481-0.0597 0.10456-0.10456zm2.7783 0.13444c0-0.0299 0.02987-0.0448 0.05975-0.0597l0.05975 0.0299v0.0149c0 0.0149 0 0.0149-0.02987 0.0149zm1.1651 0.0896c0.01495-0.0448 0.04481-0.0598 0.07469-0.0598 0 0.0149-0.02987 0.0598-0.07469 0.0598zm-5.2877 0.32862h0.02988v0.0448h-0.02988zm1.3892 0.23899s0-0.0299-0.01495-0.0598c0-0.0149-0.01495-0.0299-0.01495-0.0448 0-0.0299 0.01495-0.0448 0.01495-0.0448 0.01495 0 0.01495 0 0.02987-0.0149 0.05975 0.0149 0.07469 0.0448 0.07469 0.0747s-0.02987 0.0598-0.08962 0.0896zm2.7036-0.0747c0-0.0149 0.02987-0.0299 0.05975-0.0448h0.05975v0.0448c-0.01492 0-0.02987 0-0.04481 0.0149-0.01495 0-0.04481 0-0.07468-0.0149zm-4.0629 0-0.02988-0.0149 0.02988-0.0149 0.02987 0.0149zm5.4371 0.0149h0.01495c0-0.0149 0-0.0149 0.01495-0.0149l0.01492 0.0149s0 0.0149 0.01495 0.0149v0.0149l-0.05975 0.0299c0-0.0149 0-0.0149-0.01495-0.0299-0.01492-0.0149-0.01492-0.0149 0.01495-0.0299zm-0.10456 0.26887c-0.04481 0-0.05975 0-0.07469 0.0149v-0.0448c-0.01495-0.0299-0.01495-0.0597-0.01495-0.1195 0.01495 0 0.02987 0.0149 0.04481 0.0299l0.04481 0.0448zm-4.9442-0.0448c-0.01492-0.0149-0.02987-0.0149-0.05975-0.0149-0.01495 0-0.01495-0.0149-0.01495-0.0448h0.07469c0.01495 0.0149 0.02987 0.0149 0.02987 0.0149 0 0.0299 0 0.0448-0.02987 0.0448zm0.95597 0.0299h-0.02987c-0.01495 0-0.02987 0-0.02987-0.0149 0.02987-0.0149 0.02987-0.0299 0.02987-0.0448 0.01495 0 0.01495 0.0149 0.02987 0.0299 0.01495 0.0149 0.01495 0.0299 0 0.0299zm4.6006 0.13444c-0.02987-0.0149-0.05975-0.0149-0.10456-0.0149h-0.05975c0 0.0149-0.01495 0.0149-0.04481 0.0149-0.02987-0.0299-0.02987-0.0597-0.04481-0.0896 0-0.0149-0.01495-0.0448-0.02988-0.0896 0.04481 0 0.07469-0.0149 0.10456 0h0.04481c-0.01495 0-0.01495 0.0149-0.01495 0.0149l-0.01492 0.0149c-0.01495 0.0149-0.01495 0.0299-0.01495 0.0448l0.04481 0.0149h0.01495c0-0.0149 0.01495-0.0149 0.01495-0.0149 0.02987-0.0149 0.04481-0.0299 0.05975-0.0299 0.01492 0 0.02987 0.0149 0.04481 0.0299 0 0.0149 0.01495 0.0149 0.02987 0.0299zm-5.0637-0.0597c-0.01492 0-0.04481 0-0.04481-0.0149-0.02987 0-0.04481-0.0149-0.05975-0.0149 0.01495-0.0598 0.04481-0.0896 0.10456-0.0896 0.02987 0 0.04481 0.0149 0.05975 0.0149 0 0.0149 0.01495 0.0149 0.02987 0.0149 0.02987 0 0.05975 0 0.05975-0.0149 0.01495-0.0149 0.02987-0.0149 0.02987-0.0149-0.04481 0.0598-0.13443 0.1195-0.17924 0.1195zm4.5558-0.0299c0-0.0299 0.02987-0.0448 0.07468-0.0597l0.01495 0.0597v0.0299zm-0.1195 0.17925-0.02988 0.0299h-0.02987c-0.02987 0-0.04481 0.0149-0.05975 0.0149-0.01495 0.0149-0.02987 0.0149-0.04481 0.0149-0.02987 0-0.04481-0.0149-0.05975-0.0299-0.01495 0-0.01495-0.0299-0.04481-0.0598h0.08962c0.02987-0.0149 0.05975 0 0.07469 0.0149 0.01492 0 0.02987-0.0299 0.04481-0.0747l0.05975 0.0448zm-3.8687-0.0448 0.02987-0.0299 0.01495 0.0149s0 0.0149 0.01495 0.0149zm3.1368 0.0598-0.02987-0.0149 0.02987-0.0149 0.02987 0.0149zm-3.794 0.20912h-0.13444c0-0.0149-0.01495-0.0149-0.01495-0.0149-0.01495 0-0.01495-0.0149-0.01495-0.0299 0-0.0299 0.02987-0.0598 0.05975-0.0747 0.02987 0.0149 0.05975 0.0149 0.08962 0.0149 0.02987 0.0149 0.05975 0.0299 0.05975 0.0597 0 0.0149-0.01495 0.0299-0.04481 0.0448zm4.7052-0.0149c0.01495 0.0149 0.04481 0.0299 0.05975 0.0299 0.02987 0 0.04481 0 0.07468 0.0299-0.01495 0-0.01495 0.0149-0.01495 0.0299-0.01495 0.0149-0.02987 0.0149-0.05975 0.0149-0.02987 0-0.07469-0.0149-0.1195-0.0448zm-5.5267 0.0598h0.02988v0.0747h-0.02988zm1.7925 0.0747h-0.07469v-0.0299h0.07469zm3.1069-0.0149c0.01495 0 0.02987 0.0149 0.05975 0.0299 0 0.0149 0.01495 0.0299 0.04481 0.0448-0.07469 0-0.10456-0.0149-0.10456-0.0747zm0.23899 0.25393c-0.01492-0.0448 0.02987-0.13443 0.02987-0.14937 0 0.0149 0 0.0448 0.01495 0.0598 0.01492 0.0448 0.01492 0.0747 0.02987 0.0896zm-1.0755-0.10456 0.01495-0.0149h0.01495c0.02987 0 0.05975 0.0149 0.05975 0.0299-0.02987 0.0149-0.04481 0.0149-0.05975 0.0149h-0.01495v-0.0149zm-4.2421 0.10456c-0.02987 0.0149-0.04481 0.0149-0.04481 0.0149-0.07469 0-0.13444-0.0149-0.16431-0.0597 0-0.0299 0.01495-0.0448 0.04481-0.0448 0.05975 0 0.10456 0.0149 0.16431 0.0299zm5.9002 0.19418c-0.02988 0.0149-0.04481 0.0448-0.02988 0.0747-0.01492 0-0.02987 0-0.02987 0.0149h-0.02987c-0.01492-0.0299-0.02987-0.0448-0.01492-0.0598 0-0.0149-0.02987-0.0149-0.05975-0.0149 0-0.0149 0.02987-0.0448 0.08962-0.0747l0.04481-0.0299c0.01495 0 0.02988-0.0149 0.04481-0.0299l0.02987 0.0598c0 0.0299-0.01492 0.0448-0.04481 0.0597zm-5.6761 0.10457c-0.01492 0.0149-0.01492 0.0299-0.01492 0.0448-0.01495 0.0299-0.01495 0.0448-0.01495 0.0747v-0.1643h0.04481c-0.01495 0.0299-0.01495 0.0299-0.01495 0.0448zm4.4513 0.0149-0.02987 0.0299c-0.01495 0-0.07469 0-0.04481-0.0448zm1.0157 0.20912c-0.01492 0-0.02988 0-0.04481-0.0299 0-0.0149 0.01495-0.0299 0.02987-0.0299h0.07468c0 0.0149 0.01495 0.0299 0.02987 0.0299l-0.04481 0.0448c-0.02987-0.0149-0.04481-0.0149-0.04481-0.0149zm0.37343 0.0597h-0.02987v-0.0747h0.02987zm-1.8821 0.0598c-0.02987 0-0.05975-0.0448 0-0.0747 0.02987 0.0149 0.05975 0.0149 0.05975 0.0149 0.02987 0 0.05975 0.0149 0.08962 0.0299zm0.14937 0.20912c-0.02987-0.0299 0-0.14937 0.05975-0.17925 0.04481 0.0149 0.07469 0.0299 0.08962 0.0299 0.02987 0 0.02987-0.0149 0.05975-0.0149 0.01495-0.0149 0.02987-0.0149 0.04481-0.0149h0.01495v0.0299c-0.04481 0.0448-0.08962 0.0747-0.13443 0.0896-0.04481 0-0.08962 0.0299-0.13444 0.0597zm1.2248 0.0597v-0.0448h0.04481c0 0.0149 0.01495 0.0149 0.04481 0.0299-0.04481 0.0149-0.07469 0.0149-0.08962 0.0149zm0.38836 0.0598c-0.02987 0.0149-0.07469 0.0299-0.14937 0.0448l-0.01495-0.0149c0-0.0149-0.01495-0.0299-0.01495-0.0299v-0.0448c0-0.0149 0.01495-0.0149 0.01495-0.0149 0-0.0149 0.01495-0.0149 0.02987-0.0149 0.01495 0 0.04481 0 0.05975 0.0149 0.02988 0.0149 0.04481 0.0299 0.07469 0.0299zm-1.2248 0.10456h-0.05975c-0.05975 0-0.13443-0.0597-0.13443-0.0896 0-0.0149 0.01495-0.0448 0.04481-0.0747 0.05975 0.0598 0.13443 0.0896 0.20912 0.0896-0.02988 0.0448-0.04481 0.0747-0.05975 0.0747z"/>
   <path d="m62.479 273.73-1.1203-6.2586c-0.13444-0.71698-0.32862-1.5236-0.35849-1.6431-0.08963-0.32862-0.19418-0.70205-0.31368-1.0307-0.22406-0.50787-0.56761-0.98585-1.1502-1.0307-0.31368-0.0299-0.61242-0.0299-0.86635 0.0149-0.34355 0.0448-0.67217 0.1195-1.0008 0.17925-0.10456 0.0299-0.17925 0.0896-0.22406 0.17924-0.47799 1.1203-0.95597 2.2555-1.4041 3.3907-0.32862 0.83647-0.6423 1.6879-0.91116 2.5542-0.35849 1.1651-0.71698 2.3601-1.0307 3.5252-0.02987 0.20912 0.08962 0.38836 0.2838 0.38836l2.2107 0.0448c0.14937 0 0.25393-0.0747 0.29874-0.22405l0.32862-1.3742 2.2555-0.44811 0.14937 1.8223c0.01492 0.17924 0.1195 0.26886 0.29874 0.26886h2.2555c0.19418 0 0.32862-0.1643 0.29874-0.35848zm-4.7351-9.4104h0.05975v0.0896h-0.05975zm1.8223 0.35849h0.04481v0.1195h-0.04481zm-0.1195 0.23899c0 0.0149 0.02988 0.0149 0.07469 0.0149 0 0.0598-0.01492 0.0896-0.02988 0.1195l-0.04481-0.0448zm-1.6132 0.0896c-0.04481 0.0747-0.07468 0.13444-0.07468 0.17925v-0.19418s0.01495 0.0149 0.02987 0.0149zm1.897 0.0299c-0.02987 0.0299-0.04481 0.0448-0.04481 0.0598h-0.05975c0-0.0299 0-0.0299-0.01495-0.0448v-0.0598l0.16431 0.0149c-0.01495 0-0.02987 0.0149-0.04481 0.0299zm-0.14937-0.0299 0.02987 0.0598v0.0299l-0.02987-0.0448zm0.31368 0.16431c0.04481 0 0.08962-0.0149 0.13444-0.0299l-0.02987 0.0448c0 0.0448 0.02987 0.0598 0.07468 0.0896-0.02987 0.0149-0.04481 0.0299-0.05975 0.0299h-0.19418l-0.02987-0.0299c0.02987-0.0747 0.05975-0.10456 0.10456-0.10456zm-0.04481 0.40331c0.04481 0 0.08962 0.0149 0.13443 0.0448-0.01495 0.0149-0.01495 0.0149-0.01495 0.0299 0 0.0149-0.01495 0.0299-0.02988 0.0448-0.02987-0.0149-0.04481-0.0299-0.07469-0.0299-0.02987 0-0.05975-0.0149-0.07469-0.0299 0-0.0448 0.02987-0.0597 0.05975-0.0597zm-1.2099 0.0896h0.01495l-0.01495 0.0448-0.02988-0.0149zm0.20912 0.11949s0.01495-0.0149 0.05975-0.0149c0.01495 0.0149 0.02987 0.0448 0.02987 0.0896-0.02987 0-0.04481 0.0149-0.05975 0h-0.07469l-0.01495-0.0747zm1.2547 0.26887c0.04481 0 0.07469 0.0299 0.07469 0.0747 0 0.0149-0.02987 0.0448-0.05975 0.0598h-0.08962c-0.01495-0.015-0.02987-0.0299-0.02987-0.0448 0-0.0299 0.01492-0.0448 0.02987-0.0448 0.02987-0.0149 0.05975-0.0149 0.07468-0.0448zm-3.2862 0.58255c0.01495 0.0747 0.01495 0.16431 0 0.23899-0.02987 0-0.08962-0.13443-0.08962-0.16431 0-0.0299 0.10456-0.10455 0.08962-0.0747zm1.0307 0.19418c0-0.0149 0-0.0299 0.01492-0.0299l0.07469 0.0299c-0.01495 0.0299-0.02988 0.0299-0.05975 0.0149-0.02987 0-0.02987 0.0149-0.02987 0.0149zm-0.98585 0.239v0.17924h-0.05975v-0.16431zm1.7178 0.0747c0.01495 0.0149 0.02987 0.0299 0.02987 0.0448 0 0 0.01495 0.0149 0.01495 0.0299l-0.04481 0.11949c-0.1195 0.0597-0.16431 0.0448-0.20912-0.0896 0.05975-0.0896 0.13444-0.1195 0.20912-0.10456zm1.6879 0.0149v0.0299h-0.10456v-0.0299zm0.05975 0.26887h-0.08962l-0.01495-0.0299s0-0.0149 0.01495-0.0448c0.05975 0 0.08962 0.0299 0.08962 0.0747zm-2.3302 2.3899 0.73192-2.4049c0.07468 0.31368 0.13443 0.62736 0.19418 0.94104 0.04481 0.23899 0.07469 0.47798 0.10456 0.71698l0.08962 0.71698zm0.46305-2.3003-0.04481 0.1195-0.02987-0.0149 0.04481-0.1195zm1.3742 0.0597 0.02987 0.0299-0.02987 0.0149-0.04481-0.0299zm-1.8671 1.0904c-0.08962 0.20913-0.23899 0.67218-0.23899 0.6423l-0.05975 0.16431c-0.05975 0.0598-0.08962 0.10456-0.08962 0.13443-0.04481 0.0598-0.08962 0.14937-0.10456 0.239-0.01495 0.0747-0.04481 0.1643-0.08962 0.25393-0.01495 0.0149-0.04481 0.0299-0.04481 0.0448-0.02987 0.0149-0.04481 0.0149-0.07468 0-0.01495 0-0.02987-0.0448-0.02987-0.10456 0.01492-0.0598 0.04481-0.1195 0.07468-0.17925 0.04481-0.0747 0.07469-0.13443 0.08962-0.20911 0-0.0598 0.01495-0.10457 0.02987-0.13444 0.02987-0.10456 0.02987-0.14937 0.13444-0.26887 0.08962-0.10456 0.10456-0.14937 0.13444-0.23899 0 0 0.01495-0.0747 0.05975-0.20912 0.05975-0.19418 0.1195-0.35849 0.10456-0.32862 0.01495-0.0597 0.02987-0.0896 0.04481-0.10456 0.02987-0.0149 0.04481-0.0448 0.04481-0.0597 0.01495 0 0.02987-0.0448 0.05975-0.10457 0.02987-0.0747 0.04481-0.1643 0.07468-0.26886 0.01495 0 0.04481-0.0299 0.07469-0.0598 0.02987-0.0299 0.04481-0.0448 0.07468-0.0598l0.07469 0.0299c-0.08962 0.17924-0.13443 0.26886-0.14937 0.31367 0 0.0299-0.01495 0.0747-0.02987 0.1195-0.01495 0.0448-0.08962 0.16431-0.16431 0.20912zm1.9717-0.49292v-0.0598l0.10456 0.0149c-0.01495 0-0.01495 0.0149-0.01495 0.0149v0.0299zm0.29874 0.10456v-0.0299l0.08962 0.0299v0.0299zm-0.62736 0.0747h0.07469c0 0.0299-0.05975 0.0448-0.07469 0zm0.85142 0.46305c0 0.0448-0.01495 0.0597-0.07469 0.0597zm-1.1203 0.0448s0.02987 0.0149 0.05975 0.0149c0.01495 0.0149 0.02987 0.0299 0.02987 0.0448h-0.08962zm0.62736 0.20912h-0.01495v0.0448h-0.13444c-0.04481-0.0448-0.02987-0.0747 0.01495-0.10456h-0.08962c0-0.0448 0.01492-0.0747 0.04481-0.0896 0.10456 0.0149 0.16431 0.0597 0.17925 0.14937zm0.38836-0.1195c0-0.0149 0.01495-0.0299 0.02987-0.0299h0.02987s0.01495 0.0299 0.02987 0.0299c0 0.0299-0.04481 0.0299-0.08962 0.0299zm-0.20912 0c0.05975 0 0.08962 0 0.08962 0.0149l-0.02987 0.0448c-0.02987 0-0.02987-0.0149-0.04481-0.0299-0.01495-0.0149-0.01495-0.0149-0.01495-0.0299zm0.20912 0.1195h0.1195c0.04481 0 0.08962 0.0299 0.1195 0.0598-0.08962 0.0448-0.16431 0.0598-0.23899 0.0149zm-0.4033 0.25393c0-0.0448 0.02987-0.0747 0.07469-0.0896 0.01495 0 0.02987 0 0.04481 0.0149 0.01495 0 0.02987 0.0149 0.04481 0.0149v0.0747h-0.08962c-0.01495-0.0149-0.04481-0.0149-0.07469-0.0149zm-0.47798-0.0149h-0.1195v-0.0299h0.1195zm1.195 0.0299c-0.04481 0.0299-0.07469 0.0598-0.08962 0.0896-0.01495 0.0299-0.05975 0.0448-0.1195 0.0597 0.05975 0.0598 0.10456 0.0896 0.14937 0.0896 0.04481 0 0.07469 0.0299 0.10456 0.0747-0.02987 0-0.04481 0.0149-0.05975 0.0149h-0.20912c-0.08962-0.14937-0.13443-0.20911-0.13443-0.25393 0-0.0448-0.01495-0.0149 0.16431-0.13443h0.14937c0.01495 0 0.02987 0.0149 0.04481 0.0598zm-3.5849 0.0896c0 0.0299-0.01495 0.0747-0.04481 0.11949-0.02987-0.0149-0.04481-0.0448-0.04481-0.0896 0-0.0299 0.01495-0.0896 0.02987-0.13444h0.05975zm2.9127 0.0299h-0.02987c-0.01495 0.0149-0.01495 0.0149-0.02987 0.0149v0.0149l-0.07469-0.0598v-0.0598h0.10456l0.01495 0.0299c0 0.0149 0.01495 0.0299 0.01495 0.0598zm0.16431 0.0149c0.01495 0 0.02987 0.0149 0.04481 0.0149 0 0-0.01495 0.0896-0.05975 0.14937l-0.02987-0.17924h0.02987c0 0.0149 0.01495 0.0149 0.01495 0.0149zm-0.35849 0.0747h0.22406c0 0.0299-0.05975 0.0747-0.10456 0.0747-0.04481 0-0.08962-0.0149-0.10456-0.0149-0.02987 0-0.05975 0-0.08962 0.0149l-0.04481-0.0747c0.02987 0 0.07468-0.0149 0.1195 0zm-0.13444 0.22406-0.02987-0.0149 0.01495-0.0448h0.02987zm0.19418 0.14937c-0.01495 0-0.01495 0.0149-0.01495 0.0299l-0.10456-0.0299c0.01492-0.0149 0.01492-0.0149 0.01492-0.0299l0.02987-0.0299c0.04481 0 0.07469 0.0149 0.08962 0.0149 0 0.0299 0 0.0299-0.01495 0.0448zm-0.23899 0 0.02987-0.0299c0.01495 0.0149 0 0.0299-0.02987 0.0299zm0.82154 0.16431c-0.01495 0-0.07468-0.0299-0.08962-0.0299 0-0.0149 0-0.0149 0.01495-0.0149 0.02987 0 0.04481-0.0149 0.04481-0.0149 0.02987 0.0299 0.04481 0.0448 0.04481 0.0597zm-0.26887 0.20912v-0.0896c-0.02987-0.0747-0.05975-0.11949-0.10456-0.13443-0.01492 0-0.04481-0.0149-0.04481-0.0299 0.07468-0.0149 0.14937 0.0149 0.23899 0.0747 0 0.0299 0.01495 0.0598 0.02987 0.0896 0 0.0448 0.01495 0.0747 0.02987 0.0896zm-0.59748-0.0896h-0.04481v-0.0597h0.04481zm1.2697 0.0896 0.08962 0.0149v0.0149h-0.08962zm-0.9261 0.0299v0.0747h-0.05975v-0.0747zm-0.43318 0.10456h0.04481v0.0299h-0.04481zm-0.44811 0.10456h-0.07468v-0.0299h0.07468zm0.31368 0.20912-0.02987-0.0299h-0.05975c0.04481-0.0299 0.07469-0.0448 0.10456-0.0448 0 0.0299 0 0.0598-0.01495 0.0747zm0.49293 0.0299 0.08962-0.0896c0 0.0149 0.01492 0.0299 0.04481 0.0299 0.02987 0.0299 0.04481 0.0448 0.04481 0.0598 0 0.0299-0.04481 0.0747-0.10456 0.11949-0.04481 0-0.1195-0.0299-0.14937-0.0448 0.04481-0.0299 0.05975-0.0598 0.07469-0.0747zm0.38836 0.38836v0.0299h-0.07469v-0.0299zm-0.17924 0.0299v0.1195c-0.05975-0.0299-0.08962-0.0598-0.08962-0.1195zm0.61242 0.0598c0.04481 0 0.05975-0.0149 0.07469-0.0598 0 0.0747 0 0.1195 0.01495 0.13444l0.05975 0.0448c0.01495 0 0.02987 0 0.04481 0.0299-0.05975 0.0149-0.08962 0.0299-0.08962 0.0149-0.01495 0.0149-0.04481 0.0149-0.08962 0.0149-0.08962 0-0.13444-0.10456-0.13444-0.13443zm-3.3011 0.13444h-0.16431v-0.0747h0.16431zm-0.47798 0.29874c-0.01495 0.0149-0.02988 0.0149-0.04481 0.0149-0.1195 0-0.19418-0.10456-0.19418-0.14937 0-0.0299 0.02987-0.1195 0.14937-0.1195 0.02988 0 0.14937 0.0598 0.17925 0.0747 0 0.0299 0.01492 0.0598 0.02987 0.0896 0 0 0 0.0299 0.02987 0.0896zm2.6887-0.19418h-0.04481v-0.0598h0.04481zm1.5833-0.0448h0.05975v0.0299h-0.05975zm-1.4638 0.0448h0.20912v0.0448h-0.14938c0-0.0149-0.01492-0.0299-0.05975-0.0448zm-0.76179 0.0597-0.01495-0.0299 0.04481-0.0149 0.01495 0.0299zm2.5244 2.0016c-0.04481 0-0.14937-0.1195-0.14937-0.16431v-0.0299c0.01495-0.0149 0.01495-0.0299 0.01495-0.0448-0.05975-0.0299-0.08962-0.0747-0.10456-0.11949 0-0.0598-0.01492-0.10456-0.01492-0.13444-0.01495-0.0149-0.02987-0.0149-0.04481-0.0448-0.01492 0-0.02987-0.0149-0.02987-0.0299-0.02987-0.0149-0.02987-0.0299-0.04481-0.0448l-0.04481-0.0448h0.01495v-0.0149h0.01495v-0.20912h-0.08962c-0.02988 0.0149-0.04481 0.0149-0.07469 0.0149-0.07468 0-0.13443 0-0.17924-0.0149 0.16431-0.0747-0.10456-0.16431-0.16431-0.19419v-0.13443c0-0.0149 0.01495-0.0448 0.02987-0.0598 0.01495-0.0149 0.01495-0.0299 0.01495-0.0448s0-0.0149 0.01495-0.0149 0.02987-0.0149 0.02987-0.0299c0.01495-0.0299-0.04481-0.0598-0.08962-0.0448 0.01495-0.0149 0.01495-0.0448 0.02987-0.10456 0-0.0448 0.04481-0.0747 0.13444-0.0747 0.02987 0 0.05975 0 0.10456-0.0299 0 0 0-0.0149-0.02987-0.0299-0.01495-0.0149-0.02987-0.0299-0.05975-0.0448-0.02987-0.0448-0.02987-0.0747 0-0.10456-0.05975-0.0448-0.08962-0.0598-0.05975-0.0448-0.01495-0.0149-0.02987-0.0299-0.02987-0.0448 0-0.0896 0.19418-0.16431 0.2838-0.16431 0.01495 0 0.17925 0.0448 0.22406 0.0747v0.11949l-0.05975-0.0448c-0.08962 0-0.13444 0.0149-0.13444 0.0747v0.14937l0.04481 0.0299c0.02987-0.0149 0.05975-0.0448 0.10456-0.0747l0.10456-0.0896c0.05975 0.10455 0.05975 0.17924 0.02987 0.19418-0.02987 0-0.04481 0.0299-0.04481 0.0598s0.01492 0.0597 0.04481 0.10456c0.07469 0.11949 0.07469 0.22405 0.02987 0.31368-0.01492 0.0448 0.02987 0.0896 0.1195 0.13443-0.05975 0.0448-0.07469 0.0747-0.07469 0.10456 0 0.0149 0.01495 0.0299 0.02987 0.0747 0.02987 0.0448 0.04481 0.0598 0.05975 0.0747 0.02987 0.14937 0.04481 0.26887 0.05975 0.35849 0.01495 0.0896 0.02987 0.20912 0.05975 0.35849-0.02987 0.0299-0.04481 0.0299-0.07468 0.0299zm-5.6313-1.7925-0.04481-0.0299v-0.0299c0.05975 0.0149 0.07469 0.0299 0.04481 0.0597zm0.64229 0.239c0 0.0149 0 0.0149-0.01495 0.0149s-0.02987 0-0.02987-0.0149c0-0.0299 0.01492-0.0597 0.02987-0.0747 0.02988 0.0299 0.04481 0.0448 0.01495 0.0747zm3.9733 0.14937c-0.01495 0.0299-0.02987 0.0299-0.02987 0.0448-0.01495-0.0149-0.02987-0.0149-0.04481-0.0448-0.01495 0-0.01495-0.0299-0.01495-0.0448h0.10456c0 0.0149 0 0.0448-0.01495 0.0448zm-4.4363 0.0149c0-0.0149 0.01495-0.0149 0.01495-0.0149 0.01495 0 0.01495 0 0.02988-0.0149 0.05975 0 0.08962 0.0149 0.08962 0.0448v0.0747l-0.02988 0.0149-0.10456-0.0448zm3.8388 0.0448h-0.10456v-0.0598h0.10456zm0.17924 0.0598c0.05975 0.0149 0.08962 0.0149 0.08962 0.0598h-0.08962zm-3.9733 0.23899c-0.01495 0.0149-0.02988 0.0299-0.04481 0.0299-0.07469 0-0.13443-0.10456-0.13443-0.1195 0.1195 0 0.19418-0.0448 0.239-0.13443 0.01492 0.0149 0.02987 0.0299 0.05975 0.0448 0.01492 0 0.02987 0.0149 0.04481 0.0299v0.0597l-0.10456 0.0299c-0.02987 0.0299-0.05975 0.0299-0.05975 0.0598zm3.8239 0-0.01495-0.10456c0.01495 0.0149 0.02987 0.0149 0.07469 0.0299l0.08962 0.0448zm-3.2264 0.29874c-0.02987-0.0149-0.05975-0.0149-0.05975-0.0149-0.01495-0.0149-0.02987-0.0149-0.05975-0.0448 0.01495 0 0.02987 0 0.05975-0.0149h0.02987c0-0.0149 0.01495-0.0149 0.02987-0.0149l0.02987 0.0299c0 0.0299 0 0.0448-0.02987 0.0598zm-0.71698 0.0896c-0.04481 0.0149-0.07468 0.0149-0.08962 0 0-0.0299 0.02987-0.0598 0.07469-0.0598 0.02987 0 0.08962 0.0598 0.10456 0.0598zm0.26887 0.0598-0.08962-0.0598c0-0.0149 0.02987-0.0299 0.08962-0.0598 0.04481 0.0149 0.05975 0.0448 0.05975 0.0747-0.01495 0-0.02987 0.0149-0.05975 0.0448zm3.8687-0.0448c0.02987-0.0149 0.05975-0.0299 0.07469-0.0448 0.02987 0.0299 0.05975 0.0598 0.05975 0.0896h-0.16431zm0.2838 0.74686c0 0.0149 0 0.0149-0.01495 0.0299-0.04481-0.0299-0.13444-0.13443-0.16431-0.19418h0.14937c0 0.0448 0.01495 0.0896 0.04481 0.14937-0.01495 0-0.01495 0.0149-0.01495 0.0149z"/>
   <path d="m66.057 264.03-0.35849 7.0503 3.4206-0.0448c0.17924 0 0.31368 0.13444 0.31368 0.31368l-0.04481 2.151c0 0.19418-0.10456 0.29874-0.29874 0.29874l-5.7209 0.2838c-0.10456 0-0.16431-0.0299-0.22406-0.0896-0.05975-0.0598-0.08962-0.11949-0.08962-0.22406l0.46305-9.8137c0.01495-0.19418 0.1195-0.28381 0.31368-0.28381l1.9269 0.0448c0.16431 0 0.29874 0.14938 0.29874 0.31368zm-0.71698 0.43318 0.02987 0.0149 0.02987-0.0598h-0.02987zm0.55267 2.6588v-0.0597h-0.02987c0-0.0149-0.01495-0.0149-0.02987-0.0149-0.04481 0-0.05975 0.0149-0.05975 0.0597 0 0.0149 0 0.0149 0.01495 0.0149 0 0.0149 0.01495 0.0299 0.04481 0.0299 0.01495-0.0149 0.02987-0.0149 0.02987-0.0149s0.01495-0.0149 0.02987-0.0149zm-0.46305 0.53774-0.13444-0.0149v0.0747h0.08962c0.01495 0 0.02987-0.0149 0.04481-0.0299 0.01492-0.0299 0.01492-0.0299 0-0.0299zm-0.56761 0.77673v-0.0598h-0.04481l-0.05975 0.0299c0.02988 0.0149 0.02988 0.0299 0.02988 0.0299 0 0.0149 0.02987 0.0299 0.05975 0.0149 0.01495 0 0.01495-0.0149 0.01495-0.0149zm-0.43318 2.0912c0-0.0598-0.16431-0.10456-0.17924-0.10456-0.02987 0-0.07469 0.0149-0.1195 0.0598-0.02987 0.0448-0.04481 0.0747-0.04481 0.10456 0 0.0149 0 0.0299 0.01495 0.0598s0.05975 0.0299 0.1195 0.0299c0.08962 0 0.20912-0.0896 0.20912-0.14938zm-0.08962 1.419v-0.0747l-0.1195-0.0149v0.0747h0.07468c0.01495 0.0149 0.01495 0.0149 0.04481 0.0149zm0.98585 0.0598-0.1195-0.0149v0.0299l0.1195 0.0299zm1.419 0.0149h-0.10456c-0.02987 0.0299-0.04481 0.0597-0.04481 0.0597 0.01495 0.0299 0.04481 0.0448 0.1195 0.0448 0.04481 0 0.07468-0.0448 0.07468-0.0598zm-0.70204 0.20912c-0.02988 0.0149-0.04481 0.0299-0.05975 0.0598 0.01495 0.0149 0.02987 0.0149 0.04481 0.0149h0.04481v-0.0299c0.01495 0 0.01495 0 0.02987-0.0149v-0.0149c0.01495 0 0.01495-0.0149 0.02987-0.0149zm-0.23899 0.0598c-0.02987-0.0149-0.04481-0.0299-0.05975-0.0299v0.0448c0 0.0149 0.01495 0.0299 0.02987 0.0448 0.04481 0 0.05975-0.0448 0.02987-0.0597zm0.55267-0.0299-0.01492 0.0448 0.08962 0.0299 0.02987-0.0448zm-1.6879 0.14937v-0.0598c-0.01495 0-0.02987 0-0.02987-0.0149-0.01492 0-0.02987-0.0149-0.02987-0.0149-0.04481 0-0.05975 0.0299-0.05975 0.0597 0 0.0299 0 0.0299 0.01495 0.0299l0.04481 0.0299c0-0.0149 0.02987-0.0299 0.05975-0.0299zm0.32862 0.17925v-0.10456h-0.02987c-0.01495-0.0149-0.02987-0.0149-0.04481-0.0149-0.01495 0.0448-0.01495 0.0896 0 0.14937 0.04481-0.0299 0.05975-0.0299 0.07469-0.0299zm1.434-0.10456-0.08962 0.0299c-0.05975 0.0149-0.07469 0.0299-0.07469 0.0598s0.01495 0.10456 0.1195 0.10456c0.02987 0 0.17924-0.0299 0.17924-0.10456 0 0-0.05975-0.0896-0.13443-0.0896zm-1.5086 0.26887 0.05975-0.0448c-0.01495 0-0.02987 0-0.02987-0.0299s-0.02987-0.0448-0.05975-0.0299c-0.01492 0.0149-0.02988 0.0149-0.04481 0.0149 0 0.0149 0.02987 0.0149 0.04481 0.0448 0.01495 0 0.01495 0.0149 0.01495 0.0299 0 0 0.01495 0 0.01495 0.0149zm1.5236 0.19418 0.02987-0.0299c-0.01492-0.0149-0.01492-0.0149-0.02987-0.0149v-0.0149h-0.059751c-0.02987 0.0149-0.04481 0.0299-0.04481 0.0448zm-2.4646 0.0299 0.17925 0.0299 0.05975-0.0598-0.02987-0.0149c-0.01495 0-0.02987-0.0149-0.05975-0.0149-0.05975 0-0.13444 0.0448-0.14937 0.0598zm-0.10456 0 0.01492 0.0299 0.02987-0.0149-0.01495-0.0149zm4.989 0.10456c0.04481-0.0149 0.01495-0.0598 0-0.0598s-0.02987 0.0149-0.02987 0.0448 0.01495 0.0299 0.02987 0.0149zm-3.6745 0.0448v-0.0597c-0.01495 0-0.01495 0-0.02987-0.0149h-0.07469s0 0.0149-0.01495 0.0149c-0.01492 0-0.01492 0.0149-0.01492 0.0299 0 0.0299 0 0.0448 0.01492 0.0448 0.01495 0 0.02987 0.0149 0.04481 0.0299 0-0.0149 0.01492-0.0299 0.02987-0.0299s0.02987 0 0.04481-0.0149zm1.5833 0.10456v-0.0448s-0.01495-0.0149-0.05975-0.0299c-0.01495-0.0149-0.02987-0.0299-0.04481-0.0299-0.05975 0-0.1195 0.0448-0.13443 0.0747v0.0448h0.05975c0.02987 0 0.05975-0.0149 0.07469 0 0.02987 0 0.05975 0 0.10456-0.0149zm-2.7932-0.0598v0.0299l0.07469-0.0299-0.01495-0.0149zm1.5833 0.0299h-0.05975s-0.02987-0.0149-0.05975-0.0149c0 0.0299-0.01492 0.0299 0 0.0299v0.0299c0.02987-0.0149 0.05975-0.0149 0.07469-0.0149 0.02987 0 0.04481-0.0149 0.04481-0.0299zm-0.38837 0.0747 0.01495-0.0149s-0.02987-0.0149-0.05975-0.0149v0.0448c0.01495 0 0.02988 0 0.04481-0.0149z"/>
   <path d="m72.797 264.03-0.35849 7.0503 3.4206-0.0448c0.17925 0 0.31368 0.13444 0.31368 0.31368l-0.04481 2.151c0 0.19418-0.10456 0.29874-0.29874 0.29874l-5.7209 0.2838c-0.10456 0-0.16431-0.0299-0.22406-0.0896-0.05975-0.0598-0.08962-0.11949-0.08962-0.22406l0.46305-9.8137c0.01495-0.19418 0.1195-0.28381 0.31368-0.28381l1.9269 0.0448c0.16431 0 0.29874 0.14938 0.29874 0.31368zm-0.71698 0.43318 0.02987 0.0149 0.02987-0.0598h-0.02987zm0.55267 2.6588v-0.0597h-0.02987c0-0.0149-0.01495-0.0149-0.02987-0.0149-0.04481 0-0.05975 0.0149-0.05975 0.0597 0 0.0149 0 0.0149 0.01495 0.0149 0 0.0149 0.01495 0.0299 0.04481 0.0299 0.01495-0.0149 0.02987-0.0149 0.02987-0.0149s0.01495-0.0149 0.02987-0.0149zm-0.46305 0.53774-0.13444-0.0149v0.0747h0.08962c0.01495 0 0.02987-0.0149 0.04481-0.0299 0.01495-0.0299 0.01495-0.0299 0-0.0299zm-0.56761 0.77673v-0.0598h-0.04481l-0.05975 0.0299c0.02988 0.0149 0.02988 0.0299 0.02988 0.0299 0 0.0149 0.02987 0.0299 0.05975 0.0149 0.01495 0 0.01495-0.0149 0.01495-0.0149zm-0.43318 2.0912c0-0.0598-0.16431-0.10456-0.17924-0.10456-0.02987 0-0.07469 0.0149-0.1195 0.0598-0.02987 0.0448-0.04481 0.0747-0.04481 0.10456 0 0.0149 0 0.0299 0.01495 0.0598s0.05975 0.0299 0.1195 0.0299c0.08962 0 0.20912-0.0896 0.20912-0.14938zm-0.08962 1.419v-0.0747l-0.1195-0.0149v0.0747h0.07468c0.01495 0.0149 0.01495 0.0149 0.04481 0.0149zm0.98585 0.0598-0.1195-0.0149v0.0299l0.1195 0.0299zm1.419 0.0149h-0.10456c-0.02987 0.0299-0.04481 0.0597-0.04481 0.0597 0.01495 0.0299 0.04481 0.0448 0.1195 0.0448 0.04481 0 0.07468-0.0448 0.07468-0.0598zm-0.70204 0.20912c-0.02988 0.0149-0.04481 0.0299-0.05975 0.0598 0.01495 0.0149 0.02987 0.0149 0.04481 0.0149h0.04481v-0.0299c0.01495 0 0.01495 0 0.02987-0.0149v-0.0149c0.01495 0 0.01495-0.0149 0.02987-0.0149zm-0.23899 0.0598c-0.02987-0.0149-0.04481-0.0299-0.05975-0.0299v0.0448c0 0.0149 0.01495 0.0299 0.02987 0.0448 0.04481 0 0.05975-0.0448 0.02987-0.0597zm0.55267-0.0299-0.01492 0.0448 0.08962 0.0299 0.02987-0.0448zm-1.6879 0.14937v-0.0598c-0.01495 0-0.02987 0-0.02987-0.0149-0.01492 0-0.02987-0.0149-0.02987-0.0149-0.04481 0-0.05975 0.0299-0.05975 0.0597 0 0.0299 0 0.0299 0.01495 0.0299l0.04481 0.0299c0-0.0149 0.02987-0.0299 0.05975-0.0299zm0.32862 0.17925v-0.10456h-0.02987c-0.01495-0.0149-0.02987-0.0149-0.04481-0.0149-0.01495 0.0448-0.01495 0.0896 0 0.14937 0.04481-0.0299 0.05975-0.0299 0.07469-0.0299zm1.434-0.10456-0.08962 0.0299c-0.05975 0.0149-0.07469 0.0299-0.07469 0.0598s0.01495 0.10456 0.1195 0.10456c0.02987 0 0.17924-0.0299 0.17924-0.10456 0 0-0.05975-0.0896-0.13443-0.0896zm-1.5086 0.26887 0.05975-0.0448c-0.01495 0-0.02987 0-0.02987-0.0299s-0.02987-0.0448-0.05975-0.0299c-0.01492 0.0149-0.02988 0.0149-0.04481 0.0149 0 0.0149 0.02987 0.0149 0.04481 0.0448 0.01495 0 0.01495 0.0149 0.01495 0.0299 0 0 0.01495 0 0.01495 0.0149zm1.5236 0.19418 0.02987-0.0299c-0.01492-0.0149-0.01492-0.0149-0.02987-0.0149v-0.0149h-0.05975c-0.02987 0.0149-0.04481 0.0299-0.04481 0.0448zm-2.4646 0.0299 0.17924 0.0299 0.05975-0.0598-0.02987-0.0149c-0.01495 0-0.02987-0.0149-0.05975-0.0149-0.05975 0-0.13444 0.0448-0.14937 0.0598zm-0.10456 0 0.01492 0.0299 0.02987-0.0149-0.01495-0.0149zm4.989 0.10456c0.04481-0.0149 0.01495-0.0598 0-0.0598-0.01492 0-0.02987 0.0149-0.02987 0.0448s0.01495 0.0299 0.02987 0.0149zm-3.6745 0.0448v-0.0597c-0.01495 0-0.01495 0-0.02987-0.0149h-0.07469s0 0.0149-0.01495 0.0149c-0.01492 0-0.01492 0.0149-0.01492 0.0299 0 0.0299 0 0.0448 0.01492 0.0448 0.01495 0 0.02988 0.0149 0.04481 0.0299 0-0.0149 0.01495-0.0299 0.02987-0.0299 0.01495 0 0.02987 0 0.04481-0.0149zm1.5833 0.10456v-0.0448s-0.01495-0.0149-0.05975-0.0299c-0.01495-0.0149-0.02987-0.0299-0.04481-0.0299-0.05975 0-0.1195 0.0448-0.13443 0.0747v0.0448h0.05975c0.02988 0 0.05975-0.0149 0.07469 0 0.02987 0 0.05975 0 0.10456-0.0149zm-2.7932-0.0598v0.0299l0.07468-0.0299-0.01495-0.0149zm1.5833 0.0299h-0.05975s-0.02987-0.0149-0.05975-0.0149c0 0.0299-0.01495 0.0299 0 0.0299v0.0299c0.02988-0.0149 0.05975-0.0149 0.07469-0.0149 0.02988 0 0.04481-0.0149 0.04481-0.0299zm-0.38837 0.0747 0.01495-0.0149s-0.02987-0.0149-0.05975-0.0149v0.0448c0.01495 0 0.02987 0 0.04481-0.0149z"/>
   <path d="m83.688 268.75c0.1195-1.5535-0.07469-2.6439-0.5228-3.5998-0.46305-0.94103-1.434-1.6281-2.7484-1.6281-0.61242 0-1.1651 0.17925-1.673 0.5228-1.3294 0.94104-1.8522 2.6588-2.0912 4.1973-0.02987 0.14937-0.04481 0.31368-0.05975 0.44811 0.01495 0.0149 0.02987 0.0299 0.02987 0.0448 0.01492 0.0299 0.02987 0.0896 0.02987 0.13444-0.01495 0.0299-0.01495 0.0747-0.01495 0.10455v0.29875c0 0.0149 0 0.0448 0.01495 0.0598v0.10455c0 0.0299 0 0.0598 0.01495 0.10456v0.0896l-0.02987 0.0597c-0.02987 0.25394-0.04481 0.34356-0.10456 0.44812 0.01495 0.32861 0.04481 0.65723 0.10456 0.97091v-0.0299c0.02987 0.0149 0.04481 0.0299 0.04481 0.0448-0.01495 0.0149-0.01495 0.0299-0.01495 0.0448l-0.01495 0.0299c0.1195 0.58255 0.32862 1.0904 0.61242 1.5236 0.01495 0.0448 0.04481 0.0747 0.07469 0.11949h0.02988v0.0299c0.58255 0.8066 1.3742 1.2099 2.4049 1.2099 1.1203 0 2.0314-0.46305 2.7186-1.3892l0.20912-0.2838-0.02987-0.0448 0.08962-0.0747h0.01495c0.19418-0.32862 0.35849-0.71698 0.50786-1.1352l-0.04481-0.0299c0-0.0299 0.04481 0.0149 0.05975-0.0299 0.04481-0.10456 0.05975-0.14937 0.07469-0.23899h-0.08962v-0.0149h0.08962l0.10456-0.43317c-0.04481-0.0149-0.07468-0.0299-0.07468-0.0597h-0.08962c-0.01495-0.0149-0.04481-0.0149-0.07469-0.0149v-0.015s0-0.0299 0.01492-0.0448h0.13444c0 0.0149 0.01495 0.0299 0.04481 0.0598l0.04481 0.0448c0.07469-0.38837 0.17924-1.0456 0.20912-1.5833h-0.01495v-0.0448zm-2.5991-4.7052c0.04481 0.0149 0.08962 0.0299 0.13444 0.0299h0.05975c0.01492 0.0149 0.02987 0.0149 0.05975 0.0149v0.0149l0.02987 0.0299-0.10456 0.0299c-0.04481 0-0.10456 0.0149-0.13443 0.0149-0.02987 0-0.05975-0.0149-0.08962-0.0598 0-0.0299 0.01492-0.0448 0.04481-0.0747zm0.02987 0.16431v0.0448c-0.01492 0.0299 0.01495 0.0747 0.08962 0.0598 0.01495 0 0.01495 0 0.02987-0.0149h0.04481c0.02987 0 0.05975-0.0149 0.08962-0.0448s0.04481-0.0448 0.05975-0.0448c0.01495-0.0149 0.01495-0.0299 0.01495-0.0448 0-0.0299 0-0.0448 0.01495-0.0598 0.01495 0.0149 0.04481 0.0299 0.08962 0.0299 0.02987 0 0.05975 0 0.05975 0.0149-0.02987 0.0448-0.05975 0.0597-0.08962 0.0597s-0.05975 0.0149-0.08962 0.0299c0 0.0299-0.01492 0.0448-0.01492 0.0448 0 0.0149-0.01495 0.0299-0.04481 0.0299-0.01495 0-0.05975 0.0149-0.14937 0.0149-0.04481 0.0299-0.05975 0.0597-0.02987 0.0747 0.01495 0.0149 0 0.0299-0.02987 0.0299-0.08962 0-0.1195-0.0149-0.13444-0.0598 0-0.0448-0.02987-0.0598-0.07469-0.0747 0.01495-0.0299 0.08962-0.0747 0.16431-0.0896zm-1.6431 0.0149s0.01495 0.015 0.01495 0.0299c0.01495 0 0.01495 0.0149 0.01495 0.0149-0.01495 0.0149-0.04481 0.0299-0.05975 0.0299-0.02987 0-0.04481-0.0149-0.04481-0.0149-0.01492 0-0.01492-0.0149-0.01492-0.0299 0 0 0-0.0149-0.01495-0.0149-0.01495-0.015-0.04481-0.015-0.10456-0.015zm0.2838 0h0.14937l-0.07469 0.0598h-0.07468zm1.0008 0.0299h0.10456v0.0299h-0.10455zm0.98585 0.0448h0.07469v0.0299h-0.07469zm-1.7178 0.10456c-0.01495 0.0149-0.02987 0.0299-0.05975 0.0299-0.04481 0-0.08962-0.0299-0.10456-0.0747v-0.0149h0.01492v-0.0149h0.08962c0 0.0448 0.01495 0.0747 0.05975 0.0747zm1.1053 4.8695c-0.01495 0-0.01495 0-0.02987-0.0149-0.05975 0.58255-0.17925 1.1352-0.35849 1.658-0.14937 0.44812-0.4033 0.86635-0.9261 0.77673-0.08962 0-0.14937-0.0299-0.20912-0.0598-0.38837-0.23899-0.43318-1.0157-0.43318-1.419 0-1.0755 0.07468-2.2555 0.37343-3.3011 0.10456-0.4033 0.37343-1.195 0.85141-1.3294 0.26887-0.0597 0.46305 0.0598 0.58255 0.34356 0.04481 0.0896 0.08962 0.20912 0.1195 0.35849 0.01492-0.0299 0.04481-0.0448 0.08962-0.0598 0.02987 0.0299 0.02987 0.0598 0.02987 0.0747h-0.08962l-0.01495-0.0149h-0.01492c0.05975 0.2838 0.08962 0.58254 0.10456 0.91116 0.01495 0.65723-0.01495 1.2696-0.07468 1.9568 0.04481 0 0.1195 0.0448 0.08962 0.0299-0.01495 0.0149-0.02987 0.0448-0.02987 0.0598 0 0.0149-0.02987 0.0149-0.04481 0.0149 0 0 0 0.0149-0.01495 0.0149zm-1.5535-3.0024c-0.02987 0.0149-0.05975 0.0299-0.08962 0.0299l-0.02988-0.0747h0.10456s0.01495 0.0299 0.01495 0.0448zm1.9119 0.89623h-0.11949c-0.02987-0.0149-0.05975-0.0448-0.05975-0.0597s0.02987-0.0299 0.05975-0.0448l0.05975-0.0448c0.01495-0.0149 0.01495-0.0149 0.01495-0.0448 0-0.0149 0-0.0299 0.01495-0.0299 0.05975 0 0.10456 0.0149 0.14937 0.0448v0.13444l-0.05975 0.0299c-0.02987 0-0.05975 0.0149-0.05975 0.0149zm0.25393 0.0448 0.04481 0.0299c0.02987 0.0149 0.02987 0.0299 0.02987 0.0299-0.01495 0-0.02987 0-0.04481 0.0149h-0.02987zm-0.4033 0.8066c0.04481 0 0.08962 0.0149 0.1195 0.0448v0.0299c-0.01495 0.0149-0.02988 0.0149-0.02988 0.0149-0.02987 0-0.05975 0-0.08962-0.0149-0.02987 0-0.05975-0.0149-0.08962-0.0149v-0.0299c0-0.0149 0.04481-0.0299 0.08962-0.0299zm-4.4961 0.19419s-0.01495-0.0149-0.04481-0.0149c-0.01495-0.0149-0.02988-0.0149-0.02988-0.0299 0-0.0299 0.02988-0.0598 0.07469-0.10456 0.01495 0.0299 0.01495 0.0448 0.01495 0.0747-0.01495 0.0299-0.01495 0.0598-0.01495 0.0747zm4.8695-0.13444-0.01495 0.0149v0.0149h-0.04481c-0.01495 0-0.02987-0.0149-0.04481-0.0299 0.02987-0.0149 0.04481-0.0149 0.05975-0.0149 0.02987 0 0.04481 0 0.04481 0.0149zm1.9269 0.0896c-0.04481 0-0.08962 0-0.1195 0.0149 0-0.0149 0.01495-0.0149 0.01495-0.0299l0.02987-0.0299 0.14937 0.0299c-0.01495 0-0.04481 0-0.07469 0.0149zm-1.7925 0.0299h0.04481v0.0747h-0.04481zm-0.41824 0.0299 0.02988 0.0896-0.07468 0.0448c-0.04481 0.0149-0.07469 0.0299-0.07469 0.0448-0.01495-0.0299-0.02987-0.0299-0.02987-0.0299-0.01495 0-0.02987 0-0.02987-0.0149v-0.0448c0.04481-0.0299 0.1195-0.0598 0.17924-0.0896zm0.53774 0.0896c0.02987-0.0149 0.02987-0.0299 0.02987-0.0598 0.02987 0.0598 0.02987 0.0896 0.02987 0.11949h-0.10456c0-0.0149 0.01495-0.0299 0.04481-0.0597zm-5.1533 0.0597h-0.02987v-0.0597h0.02987zm5.7956 0.14938c0.02987 0 0.04481-0.0149 0.05975-0.0299 0.04481 0.0299 0.04481 0.0598 0 0.10456-0.02987-0.0448-0.05975-0.0598-0.10456-0.0598 0 0 0.01492-0.0149 0.04481-0.0149zm-0.9261 0.26886c-0.04481-0.0149-0.08962-0.0448-0.1195-0.0896-0.02987-0.0299-0.04481-0.0597-0.04481-0.0597 0-0.015 0-0.0299 0.01495-0.0598 0.01492-0.0149 0.01492-0.0299 0-0.0448 0 0 0.02987 0 0.04481-0.0149 0.02987 0 0.02987-0.0149 0.02987-0.0149 0.04481 0.0448 0.05975 0.0747 0.04481 0.10456 0 0.0448 0.01492 0.0896 0.07468 0.1195 0 0.0149-0.01492 0.0299-0.04481 0.0597zm-0.37343-0.19418s-0.01495 0.0149-0.02987 0.0149c0 0-0.01495 0-0.02987 0.0149-0.02987-0.0149-0.02987-0.0448 0-0.10456 0.01495 0 0.05975 0.0448 0.05975 0.0747zm1.5833-0.0448c0 0.0299-0.01495 0.0598-0.02987 0.0747l-0.02987-0.0299c-0.01495-0.0149-0.01495-0.0149-0.01495-0.0448zm-0.97091 0.10456c0-0.0149 0.01495-0.0448 0.01495-0.0448 0 0.0149 0.01495 0.0299 0.01495 0.0448 0.01495 0.0299 0 0.0448-0.02987 0.0149zm1.195-0.0448 0.10456 0.0299v0.0149l-0.10456-0.0149zm-0.62736 0.0598 0.02987-0.0299c0.07469 0.0149 0.16431 0.0448 0.31368 0.0896-0.02987 0.0149-0.04481 0.0299-0.07469 0.0598-0.04481 0.0149-0.02987 0.0448 0.02987 0.0896-0.07468 0.015-0.13443 0-0.20912-0.0299l0.08962-0.0896c-0.01495-0.0448-0.04481-0.0598-0.08962-0.0598-0.07469 0-0.10456 0.0149-0.1195 0.0149 0-0.0149 0.01495-0.0149 0.02987-0.0448zm0.88129-0.0299h0.20912v0.0299h-0.20912zm-0.04481 0.1195c0.02987-0.0149 0.04481-0.0149 0.05975-0.0149v0.0299c0.01495 0.0149 0.01495 0.0149 0.01495 0.0299l-0.08962 0.0149c-0.01495 0-0.02988-0.0299-0.02988-0.0598zm0.23899 0.0747h-0.08962c0.01495-0.0448 0.04481-0.0448 0.08962 0zm-2.2854 0.22406v-0.1195c0.01492-0.0299 0.02987-0.0598 0.02987-0.0896 0 0 0.01495 0 0.05975-0.0299l0.07469 0.0448c0.01495 0.0149 0.04481 0.0299 0.07468 0.0448l0.17924 0.0896c-0.13443 0.0448-0.26887 0.0896-0.29874 0.0896-0.02987 0-0.04481-0.0149-0.05975-0.0149-0.02987-0.0149-0.05975-0.0149-0.05975-0.0149zm1.7626-0.20912c0 0.0299 0 0.0448-0.02987 0.0448 0 0 0 0.0149-0.02987 0.0448h-0.07468c-0.02988-0.0149-0.04481-0.0299-0.04481-0.0598 0.04481-0.0299 0.10456-0.0448 0.17924-0.0299zm0.08962 0.0747c0.02987-0.0448 0.02987-0.0747 0.02987-0.0747 0.02987 0 0.14937 0.0299 0.14937 0.0747 0 0.0149 0 0.0299-0.01495 0.0448-0.01495 0.015-0.01495 0.0299-0.01495 0.0448-0.08962 0.0149-0.14937 0-0.17925-0.0149h-0.07468c0 0.0149 0.01495 0.0299 0.02987 0.0448s0.02987 0.0299 0.05975 0.0448c-0.07469 0-0.13444 0-0.13444 0.0448 0 0.0149 0.01495 0.0299 0.04481 0.0448 0.02987 0.0299 0.04481 0.0299 0.05975 0.0448l-0.04481 0.0299c-0.01495 0.0149-0.01495 0.0299-0.01495 0.0448s0 0.0299 0.01495 0.0299h0.02987v0.0598c0.01495 0.0299 0.02987 0.0448 0.08962 0.0448-0.01495 0.0149-0.04481 0.0299-0.07468 0.0448-0.01495 0.0299-0.04481 0.0299-0.07469 0.0448-0.01492 0-0.04481 0.0149-0.08962 0.0149l-0.10456 0.0299v0.0149c0 0.0149 0.02988 0.0299 0.08962 0.0299h0.02988s0 0.0747 0.04481 0.10456c-0.05975 0.0149-0.10456 0.0149-0.14937 0-0.02987 0-0.05975-0.0299-0.05975-0.0598-0.02987-0.0299-0.02987-0.0448-0.04481-0.0747 0-0.0149-0.01495-0.0448-0.04481-0.0747h0.07468c0.01495 0 0.04481-0.0149 0.07469-0.0299 0.02987-0.0299 0.05975-0.0299 0.08962-0.0299h0.02987c0 0.0149 0 0.0149 0.01495 0.0149l0.04481-0.0299c-0.02987-0.0299-0.07468-0.0597-0.10456-0.0747-0.04481-0.0299-0.07469-0.0299-0.07469-0.0299h-0.05975c-0.01495 0-0.05975 0.0299-0.07469-0.0299-0.01495-0.0299-0.01495-0.0747-0.01495-0.13443l0.23899-0.10456v-0.0299c0.01495 0 0 0-0.01495-0.0299-0.01495 0.0299-0.02988 0.0299-0.07469 0.0299 0-0.0299 0.02987-0.0598 0.07469-0.0598h0.04481c0-0.0149 0.01495-0.0149 0.02987-0.0149 0.02988 0 0.04481 0 0.04481 0.0149h0.02987c0.02987 0 0.05975-0.0149 0.07468-0.0448zm-0.65723 0.11949 0.02987 0.015-0.02987 0.0299h-0.02987zm0.89623 0.015 0.10456 0.0149-0.01495 0.0149c0 0.0149-0.01495 0.0299-0.01495 0.0299-0.05975-0.0149-0.07468-0.0299-0.07468-0.0597zm-1.8522 0.19418c-0.05975 0-0.08962-0.0149-0.1195-0.0598 0.05975-0.0896 0.14937-0.0747 0.22406-0.0747 0.01495 0 0.02987 0.0149 0.02987 0.0149 0.01492 0 0.01492 0.0149 0.01492 0.0448 0 0.0448-0.1195 0.0747-0.14937 0.0747zm1.912-0.0448h-0.02987c0 0.0149-0.01495 0.0149-0.04481 0.0149-0.07468 0-0.1195-0.0299-0.13444-0.10456l0.1195 0.0448c0.04481 0.0149 0.07468 0.0299 0.08962 0.0448zm0.16431-0.0299h-0.07468v-0.0299h0.07468zm-1.4788 0.14937c0.01495 0 0.01495 0.0299 0.01495 0.0597h-0.07468c-0.04481-0.0299-0.05975-0.0597-0.04481-0.10456h0.08962c0 0.0149 0.01495 0.0299 0.01495 0.0448zm1.18 0.0896h-0.07469v-0.0149l-0.02987-0.0149c0-0.0149 0.01495-0.0299 0.02987-0.0448 0.01495 0 0.02987-0.0149 0.07469-0.0448 0.04481 0.0149 0.05975 0.0299 0.05975 0.0448s0.01495 0.0448 0.02987 0.0747c-0.01492 0.0149-0.04481 0.0149-0.08962 0zm-1.434-0.0448-0.10456 0.0149v-0.0747c0.01495 0 0.07469 0.0299 0.10456 0.0597zm0.43318 0.0149s0 0.0149 0.01495 0.0149h0.01495c0 0.0149 0 0.0149 0.01495 0.0149-0.07469 0.0299-0.10456 0.0597-0.08962 0.0747 0.01495 0.0299 0 0.0597-0.01495 0.0896h-0.04481c-0.01495 0-0.02987-0.0149-0.02987-0.0448 0 0 0.04481-0.10456 0.13443-0.14937zm0.37343 0.0598 0.01495-0.0598h0.10456c0.01495 0.0299 0.01495 0.0448 0 0.0598zm-0.20912 0v-0.0299h0.1195v0.0299zm-1.0307-0.0149c0.02988 0 0.05975 0 0.05975 0.0149h0.02987c-0.05975 0.0299-0.14937 0.0448-0.22406 0.0597l0.04481-0.0448c0.02987-0.0149 0.05975-0.0299 0.08962-0.0299zm-3.1069 0.10456c-0.02987-0.0299-0.04481-0.0448-0.02987-0.0747l0.02987 0.0448c0.01495 0 0.01495 0.0149 0 0.0299zm4.8396 0.14937c-0.02987-0.0149-0.04481-0.0299-0.05975-0.0448-0.02987-0.0149-0.07468-0.0149-0.1195-0.0149 0.01495-0.0149 0.04481-0.0149 0.08962-0.0149h0.08962c0.05975 0 0.08962-0.0299 0.08962-0.0747 0 0.0299 0.01495 0.0597 0.02988 0.0747 0.02987 0.0299 0.01495 0.0598-0.04481 0.0896 0.01492 0.0299 0.04481 0.0448 0.10456 0.0448-0.10456 0.0299-0.13444-0.0149-0.17925-0.0598zm0.37343-0.0299c-0.04481 0-0.07468-0.0149-0.08962-0.0299-0.1195-0.0747-0.01492-0.0448 0.04481-0.0448-0.02988 0 0 0.0149 0.10456 0.0299-0.02987 0.0299-0.04481 0.0448-0.05975 0.0448zm-1.1352-0.0149v0.0149l-0.02987 0.0299s-0.01495-0.0149-0.07469-0.0299v-0.0597c0.05975 0 0.08962 0.0149 0.10456 0.0448zm0.13444-0.0299c0 0.0149-0.01495 0.0299-0.04481 0.0448-0.01495 0-0.02987-0.0149-0.02987-0.0448zm-0.80661 0.0896c0 0.0149-0.01492 0.0448-0.04481 0.0598l-0.02987-0.0896c0.02987 0 0.05975 0.0149 0.07468 0.0299zm1.7925 0.0299-0.01495 0.0149h-0.02987c0-0.0149 0-0.0149 0.01495-0.0299 0-0.0149 0.01492-0.0299 0.01492-0.0299 0.01495 0 0.05975 0.0448 0.01495 0.0448zm-2.3302 0.0598v-0.0747c0.02987 0.0149 0.08962 0.0299 0.16431 0.0299 0.04481 0.0149 0.1195 0.0299 0.19418 0.0299v0.0598c-0.02987 0.0299-0.05975 0.0448-0.1195 0.0448-0.04481 0-0.08962-0.0149-0.1195-0.0448-0.02987-0.0299-0.04481-0.0598-0.05975-0.0896-0.02987 0.0299-0.05975 0.0448-0.05975 0.0448zm0.97091-0.0149c0.02987 0 0.07468 0.0299 0.10456 0.0598-0.02987 0.0149-0.04481 0.0299-0.07468 0.0598-0.04481-0.0149-0.05975-0.0299-0.05975-0.0598 0-0.0149 0.01495-0.0299 0.01495-0.0299 0.01495 0 0.01495 0 0.01495-0.0299zm-5.3923 0.38837h-0.02987v-0.37343h0.02987zm5.691-0.25393v-0.0448h0.04481v0.0448zm0.32862 0.10456c-0.02987 0-0.07468 0-0.10456-0.0149-0.05975-0.0149-0.10456-0.0149-0.14937-0.0149v-0.0747c0.01495 0 0.02987 0 0.04481-0.0149 0.01495-0.0149 0.02988-0.0149 0.02988-0.0299 0.01495 0.0149 0.04481 0.0299 0.07469 0.0448 0.02987 0.0149 0.05975 0.0299 0.07468 0.0299 0.02987 0 0.08962-0.0149 0.16431-0.0598 0 0.0149-0.02987 0.0299-0.04481 0.0747-0.01495 0.0448-0.04481 0.0598-0.08962 0.0598zm-1.5385-0.0448c-0.02987 0.0149-0.05975 0.0299-0.05975 0.0448 0-0.0149 0-0.0299-0.01495-0.0299 0-0.0149 0-0.0299 0.01495-0.0299h0.01495s0.01495 0.0149 0.04481 0.0149zm2.0763 0.0299c-0.01492 0.0149-0.01492 0.0149-0.01492 0.0299-0.01495 0-0.01495 0.0149-0.01495 0.0149 0-0.0149-0.01495-0.0299-0.01495-0.0299-0.01495-0.0149-0.01495-0.0299 0-0.0448h0.08962zm-1.2398-0.0149c0.05975 0 0.08962 0 0.10456 0.0299 0 0.0299-0.01495 0.0448-0.07469 0.0597zm1.1502 0.0299h-0.10456v-0.0299h0.10456zm-4.7351 0.0896c-0.02987 0-0.01495-0.0448 0-0.0448zm4.5708 0 0.04481-0.0299 0.01492 0.0149s0 0.0149 0.01495 0.0149zm-0.53773 0.11949c-0.02988-0.0149-0.04481-0.0149-0.04481-0.0149 0.04481-0.0299 0.08962-0.0448 0.13444-0.0448 0.07468 0.0149 0.10456-0.0149 0.08962-0.0747 0 0.0149 0 0.0149 0.01495 0.0149h0.02987c-0.01495 0-0.02987 0.0149-0.02987 0.0299 0 0.0149 0 0.0299 0.01495 0.0598 0 0.0149-0.01495 0.0448-0.02987 0.0747-0.01495-0.0149-0.04481-0.0299-0.07469-0.0299-0.04481 0-0.07468 0-0.10456-0.0149zm-1.3443-0.11949v0.0598c0.01495 0 0.02987 0 0.05975 0.0299 0.02987-0.0299 0.05975-0.0448 0.08962-0.0598 0.02987-0.0299 0.05975-0.0299 0.08962-0.0299l0.05975 0.0149c0.05975 0.0149 0.10456 0.0149 0.1195 0.0149h0.16431l0.01495 0.0149v0.0448c-0.05975 0.0299-0.16431 0.0598-0.20912 0.0598h-0.05975c-0.01495-0.0149-0.02987-0.0149-0.05975-0.0149-0.10456 0-0.23899 0.0299-0.26887 0.0598-0.02987-0.0747-0.02987-0.13444 0-0.19418zm0.97091 0.0299c0.02987 0 0.07468 0.0149 0.13443 0.0299 0 0.0597-0.01495 0.0896-0.04481 0.10456-0.01495 0-0.04481 0-0.05975-0.0149h-0.13444c0-0.0149 0-0.0299-0.01495-0.0299 0 0-0.01492 0-0.01492-0.0299 0-0.0747 0.07468-0.0598 0.13444-0.0598zm0.89623 0.56761-0.02987 0.0448c-0.05975 0-0.10456-0.0149-0.13444-0.0448 0.05975-0.0149 0.08962-0.0299 0.05975-0.0299 0.02987 0 0.05975 0 0.07469-0.0149v-0.0448l-0.17925-0.0448c-0.07468 0-0.13443-0.0149-0.17924-0.0299l0.02987-0.0448c0.1195-0.0747 0.16431-0.1195 0.14937-0.16431 0.01495-0.0149 0.04481-0.0149 0.07469-0.0448 0.01495 0 0.02987-0.0149 0.04481-0.0299l-0.13443-0.10456c0.07469-0.0149 0.13443 0 0.17924 0.0149 0.04481 0.0299 0.07469 0.0597 0.10456 0.0896-0.02987 0-0.07469 0.0299-0.13444 0.0747 0.01495 0.0299 0.04481 0.0448 0.07469 0.0448 0.01492 0.0299 0.05975 0.0299 0.08962 0.0448v0.0448l-0.01495 0.0149c0 0.0149-0.02987 0.0149-0.04481 0.0149h-0.05975c0-0.0149-0.01495-0.0448-0.01495-0.0747-0.02987 0-0.07468 0.0149-0.08962 0.0149-0.05975 0.0149-0.10456 0.0299-0.13444 0.0299 0.07469 0.0448 0.13444 0.0598 0.17925 0.0598h0.01495c0-0.0149 0-0.0149 0.02987-0.0149 0.01495 0 0.04481 0.0149 0.07469 0.0448 0.02987 0.0299 0.05975 0.0597 0.08962 0.0597-0.01495 0.0149-0.08962 0.0747-0.1195 0.0896zm-5.9002-0.44811-0.07468-0.0149v-0.0149h0.07468zm-0.43318 0.0598c-0.01495 0.0149-0.01495 0.0299-0.01495 0.0448-0.02987-0.0149-0.04481-0.0149-0.05975-0.0299-0.01495-0.0149-0.02987-0.0299-0.02987-0.0448s0.01492-0.0299 0.02987-0.0299h0.05975c0.01495 0.0149 0.02987 0.0299 0.01495 0.0598zm5.8404 0.11949c-0.01495 0-0.02987 0-0.04481 0.0149-0.01495-0.0149-0.01495-0.0747-0.01495-0.16431 0.02988 0.0149 0.02988 0.0448 0.02988 0.0598l0.04481 0.0896zm0.05975-0.13443h0.08962c0.01495 0.0149 0.05975 0.0149 0.10456 0.0149-0.01495 0-0.02987 0.0149-0.02987 0.0299 0 0-0.01495 0.0149-0.02987 0.0149h-0.14937zm-5.1981 0.20912-0.04481 0.0448h-0.13443c-0.01495-0.0299-0.02987-0.0598-0.02987-0.0896 0-0.0299 0.02987-0.14937 0.1195-0.14937 0.02987 0 0.05975 0 0.05975 0.0149h0.02987zm4.9143 0.35849c-0.05975 0.0149-0.10456 0.0149-0.16431 0 0-0.0598 0.01495-0.10456 0.04481-0.14937-0.04481-0.0149-0.08962-0.0299-0.13444-0.0299-0.05975 0-0.08962 0-0.13443-0.0149-0.01495-0.0598 0-0.1195 0.04481-0.17925 0.05975 0.0149 0.08962 0.0299 0.08962 0.0448 0 0.0299 0.01492 0.0598 0.04481 0.0896 0.01495-0.0299 0.02988-0.0747 0.02988-0.10456v-0.0896l-0.02988-0.0299h0.16431c0-0.0149 0.07469 0.1195 0.07469 0.14937 0 0.0149-0.01495 0.0448-0.04481 0.0747-0.02987 0.0299-0.04481 0.0597-0.04481 0.0747 0 0.0149 0.01495 0.0299 0.04481 0.0448 0.02987 0.0149 0.04481 0.0448 0.04481 0.0597 0 0.0299 0 0.0448-0.01495 0.0448 0 0-0.01495 0-0.01495 0.0149zm-0.85142-0.37343v-0.0299h0.08962v0.0299zm0.13443 0.10456c0.02987-0.0149 0.04481-0.0299 0.05975-0.0448l0.02987 0.0598c-0.04481 0.0299-0.08962 0.0299-0.13444 0 0 0 0.01495-0.0149 0.04481-0.0149zm0.88129 0.0448v-0.0747h0.04481v0.0747zm-5.2877-0.0299 0.04481-0.0299v0.11949c-0.04481-0.0299-0.05975-0.0598-0.05975-0.0598 0-0.0149 0-0.0299 0.01495-0.0299zm6.0495-0.0149v0.0448h-0.02987v-0.0448zm-2.0912 0.1195c0-0.0149 0-0.0149 0.01495-0.0448 0 0.0149 0.01495 0.0299 0.02987 0.0299s0.02987 0.0149 0.02987 0.0149c-0.02987 0.0149-0.05975 0-0.07469 0zm1.3593-0.0299c0.01495 0.0149 0.02987 0.0149 0.04481 0.0149 0 0.0299-0.01492 0.0448-0.05975 0.0598l-0.02987-0.0896c0.01495 0 0.04481 0.0149 0.04481 0.0149zm0.14937-0.0149h0.08962c0.02988 0 0.04481 0 0.04481 0.0149-0.02987 0.0149-0.04481 0.0149-0.07468 0.0149-0.01495-0.0149-0.04481-0.0299-0.05975-0.0299zm-5.4969 0.14937s0-0.0149 0.01495-0.0299c0-0.0149 0-0.0149 0.01495-0.0149 0.04481 0.0149 0.05975 0.0448 0.04481 0.0747-0.01495 0.0299 0.01495 0.0597 0.05975 0.0896v0.0448c-0.01495 0-0.04481 0-0.05975 0.0149-0.01495 0-0.01495-0.0299-0.01495-0.0598 0.01495-0.0149 0-0.0299 0-0.0597-0.01495-0.0299-0.02987-0.0299-0.04481-0.0299-0.01495 0-0.01495-0.0149-0.01495-0.0299zm5.5715-0.0149 0.01495 0.0149s0 0.0149 0.01495 0.0299c-0.05975 0.0299-0.10456 0.0299-0.13443 0-0.02987-0.0149-0.05975 0-0.08962 0.0448l-0.04481-0.0299c-0.01495 0-0.02987-0.0149-0.02987-0.0149 0.07469 0 0.14937-0.0149 0.26887-0.0448zm-0.56761 0.25393c-0.07469 0.0299-0.14937 0.0598-0.22406 0.0598h-0.08962c0-0.0299-0.01495-0.0448-0.01495-0.0896v-0.10456c0.07469-0.015 0.13444-0.0448 0.19418-0.0448h0.08962v0.0598c0 0.0149-0.04481 0.0299-0.10456 0.0448v0.0448l0.08962 0.0299c0.02988 0 0.04481-0.0149 0.05975-0.0299 0.01495-0.0149 0.01495-0.0299 0.02987-0.0299 0.01495 0 0.01495-0.0149 0.02987-0.0299 0.01495 0 0.05975 0.0149 0.07468 0.0299v0.11949c-0.05975 0-0.08962-0.0149-0.13443-0.0598zm0.50786-0.11949v0.0299h-0.07468v-0.0299zm0.26887 0.23899h-0.17925v-0.0896c0.04481-0.0149 0.07469-0.0299 0.13444-0.0299 0.02987 0 0.05975-0.0149 0.10456-0.0299-0.02987 0.0299-0.04481 0.0747-0.04481 0.10456 0.01495 0.0149 0.04481 0.0149 0.07469 0.0149 0.01492 0 0.04481 0.0149 0.07468 0.0149-0.02987 0-0.08962 0.0149-0.16431 0.0149zm-5.7508-0.0747c0.01492 0 0.01492-0.0149 0.02987-0.0149 0-0.0149 0-0.0149 0.01495-0.0299h0.05975c0 0.0598 0.01495 0.1195 0 0.16431v0.17925c-0.01495 0-0.04481 0-0.05975 0.0149l-0.02987-0.0149s0-0.0149 0.01495-0.0149l0.04481-0.0299c-0.05975-0.0598-0.08962-0.17924-0.08962-0.20912 0-0.0149 0-0.0299 0.01495-0.0448zm4.6902 0.13443-0.04481-0.0299v-0.0597c0.02987 0.0149 0.08962 0.0448 0.14937 0.0896zm1.0008 0.0598c-0.01495 0-0.01495 0-0.04481 0.0299l-0.07469-0.0747c0.02987 0 0.05975 0 0.07469 0.015 0.04481 0 0.05975 0.0149 0.07469 0.0149-0.01495 0-0.01495 0.0149-0.02987 0.0149zm-0.239 0.0448 0.01495-0.0598c0.04481 0 0.08962 0.0448 0.08962 0.0598zm-1.1203 0.0896c0 0.0299-0.02987 0.0597-0.05975 0.0597v-0.0747s0.01495 0.0149 0.02987 0.0149zm1.2398 0.19418c0-0.0149 0.01495-0.0299 0.01495-0.0448 0-0.0299 0.01495-0.0448 0.02987-0.0448 0 0.0299 0.01495 0.0598 0.05975 0.0896zm-5.467-0.0149c0 0.0149-0.01495 0.0149-0.02987 0.0299-0.01495 0-0.01495 0.0149-0.02988 0.0299v-0.0597zm5.3624 0.19418c-0.01495-0.0149-0.02987-0.0299-0.07469-0.0448l-0.07468-0.0448h0.08962c0.04481 0 0.07468 0 0.08962 0.0149-0.01495 0.0149-0.02987 0.0448-0.02987 0.0747zm-5.3923 0.73192c-0.01495 0-0.01495-0.0149-0.01495-0.0149l-0.01495-0.0149c0-0.0149 0-0.0149 0.01495-0.0299 0.01495 0 0.02987-0.0149 0.05975-0.0299-0.02987-0.015-0.05975-0.0299-0.07469-0.0299 0-0.0448-0.01495-0.0896-0.02987-0.1195-0.01492-0.0448-0.01492-0.0598-0.01492-0.0747 0-0.0896-0.01495-0.0747 0.10456-0.14937-0.01495-0.0149-0.04481-0.0299-0.07468-0.0299l0.01495-0.26887c0.01495 0.0149 0.01495 0.0299 0.01495 0.0598v0.0747c0 0.0149 0.02987 0.0299 0.10456 0.0597 0 0.13444-0.01495 0.239-0.02987 0.31368-0.02987 0-0.05975 0.0149-0.07468 0.0299 0.01495 0.0149 0.02987 0.0299 0.04481 0.0149h0.04481c0 0.0149 0 0.0448 0.01495 0.0448 0.01495 0.0299 0.01495 0.0448 0.01495 0.0598 0 0.0299-0.1195 0.10456-0.10456 0.10456zm5.3325-0.68711c-0.02987 0.0149-0.04481 0.0149-0.05975 0.0149l-0.02987-0.0448s0-0.0149-0.01495-0.0299c0.05975 0 0.10456 0 0.1195 0.0149 0 0 0 0.0149-0.01495 0.0448zm-0.239 0.0598-0.02987-0.0149 0.02987-0.0448h0.02987zm0.44812 0.0597h-0.074684v-0.0448h0.07469zm-0.8066 0.0747c0.02987-0.0149 0.05975-0.0299 0.17924-0.0597l0.02987 0.0747h-0.04481c-0.01495 0.0149-0.04481 0.0149-0.05975 0.0149-0.04481 0-0.07468 0-0.10456-0.0299zm-0.43318 0.35849c-0.01495 0-0.14937-0.0448-0.22406-0.0896v-0.0299c0-0.0299-0.01495-0.0299-0.02987-0.0598-0.01495 0-0.02987 0-0.04481-0.0299-0.01492 0-0.02987-0.0149-0.04481-0.0299 0.01495-0.0299 0.02987-0.0598 0.02987-0.10456 0-0.0448 0.02987-0.0598 0.08962-0.0598h0.02987l0.02987 0.0149 0.02988 0.0299c0 0.0299 0 0.0448 0.02987 0.0598 0.02987 0.0149 0.08962 0.0299 0.14937 0.0448 0.07469 0.0299 0.14937 0.0747 0.19418 0.11949-0.01495 0.0299-0.20912 0.13444-0.23899 0.13444zm-2.7783 0.0747c-0.01495 0-0.05975-0.0149-0.08962-0.0448-0.01495-0.0149-0.02987-0.0299-0.04481-0.0299-0.02987-0.0299-0.07468-0.0597-0.1195-0.0597-0.01495-0.14938 0.14937-0.20912 0.31368-0.26887h0.07469c0 0.0597 0 0.0896-0.01495 0.10456 0.01495 0 0.10456 0.0448 0.10456 0.10456 0 0.0896-0.10456 0.19418-0.22406 0.19418zm3.4803-0.29874c0 0.0448-0.01495 0.0896-0.05975 0.11949h-0.1195c0-0.0149 0-0.0299 0.01495-0.0299v-0.0448l-0.02987-0.0448c-0.01492-0.0149-0.04481-0.0299-0.04481-0.0448h0.02987c0.01492 0 0.02987 0 0.02987-0.0149 0.01495 0 0.04481-0.0149 0.07469-0.0149 0.02987 0 0.04481 0.0149 0.04481 0.0149 0 0.0149 0.02987 0.0149 0.04481 0.0149h0.01495zm-4.9143 0.44811c-0.01495 0-0.02987 0.0149-0.04481 0.0149-0.01495 0-0.02987 0-0.02987 0.0149h-0.04481v-0.0896c0.01495 0 0.02988 0 0.02988-0.0149h0.05975l0.02987 0.0149zm3.3011 0.16431c-0.02987 0.0299-0.05975 0.0299-0.07469 0.0299-0.01492 0-0.04481 0.0149-0.05975 0.0299l-0.26887-0.0299c0.10456-0.0747 0.19418-0.1195 0.26887-0.1195h0.10456l0.02987 0.0299zm0.8066 0.0299c-0.01492 0-0.02987-0.0149-0.02987-0.0299 0-0.0149 0.01495-0.0299 0.04481-0.0299 0.04481-0.0299 0.05975-0.0299 0.07468-0.0448 0 0.0149 0.02987 0.0747 0.02987 0.0896l-0.05975 0.0448c-0.01492-0.0149-0.02987-0.0299-0.05975-0.0299zm-0.94104 0.20912h-0.05975c-0.02987 0.0149-0.04481 0.0149-0.05975 0.0149-0.01492 0.0149-0.01492 0.0149-0.01492 0-0.01495 0-0.01495-0.0149-0.01495-0.0448 0-0.0149 0.01495-0.0448 0.07469-0.0598h0.04481c0 0.0149 0.01495 0.0149 0.02987 0.0149zm-1.2248 0c-0.04481 0-0.05975-0.0149-0.07469-0.0299l0.05975-0.0299c0 0.0149 0 0.0299 0.01495 0.0299zm2.3003 0.1195-0.04481-0.0448 0.04481-0.0299c0.01495 0.0149 0.01495 0.0448 0 0.0747zm-0.16431 0.0448c-0.04481 0-0.07468 0-0.08962 0.0149l-0.02987-0.0299c-0.01495 0-0.02987-0.0149-0.02987-0.0299 0-0.0448 0.02987-0.0598 0.05975-0.0598h0.05975c0.04481 0.0149 0.05975 0.0598 0.02988 0.10456zm-0.9261 0.13443c-0.02987 0.0149-0.04481 0.0299-0.05975 0.0299-0.04481 0-0.08962-0.0299-0.13444-0.0598 0.01495-0.0299 0.05975-0.0598 0.10456-0.0598h0.04481l0.04481 0.0299z"/>
   <path d="m73.682 229.33h-0.7166v-4.2518h-4.5504v4.2518h-0.7166v-8.5514h0.7166v3.7024h4.5504v-3.7024h0.7166z"/>
   <path d="m75.845 226.33q0.03583 1.1585 0.69271 1.8632 0.66882 0.70465 1.7795 0.70465 1.0391 0 2.1378-0.42996l0.05972 0.58522q-1.0629 0.4419-2.2692 0.4419-1.3735 0-2.2453-0.84797-0.87186-0.85991-0.87186-2.2095 0-1.4451 0.83602-2.3886 0.84797-0.95546 2.2095-0.95546 2.5678 0 2.6275 3.2366zm4.2398-0.59716q-0.02389-0.93157-0.57328-1.481-0.53744-0.56133-1.4212-0.56133-0.8838 0-1.481 0.58522-0.59716 0.57327-0.72854 1.4571z"/>
   <path d="m84.629 228.9-0.07166 0.59716q-2.2692-0.10749-2.2692-3.2366v-6.0074h0.71659v5.7566q0 0.68076 0.05972 1.1466 0.05972 0.46578 0.21498 0.89574 0.1672 0.42995 0.50162 0.64493 0.33441 0.20304 0.84797 0.20304z"/>
   <path d="m88.221 228.9-0.07166 0.59716q-2.2692-0.10749-2.2692-3.2366v-6.0074h0.71659v5.7566q0 0.68076 0.05972 1.1466 0.05972 0.46578 0.21498 0.89574 0.16721 0.42995 0.50162 0.64493 0.33441 0.20304 0.84797 0.20304z"/>
   <path d="m95.193 226.3q0 1.3615-0.87186 2.2812-0.85991 0.91963-2.2095 0.91963-1.3615 0-2.2214-0.90769-0.85991-0.91962-0.85991-2.2931 0-1.3615 0.87186-2.2812 0.87186-0.91963 2.2095-0.91963 1.3496 0 2.2095 0.91963 0.87186 0.91962 0.87186 2.2812zm-3.0814 2.6036q1.0391 0 1.6959-0.75243 0.66882-0.75242 0.66882-1.8512 0-1.0988-0.65688-1.8512-0.65688-0.75242-1.7079-0.75242-1.0391 0-1.7079 0.75242-0.65688 0.75243-0.65688 1.8512 0 1.0988 0.65688 1.8512 0.66882 0.75243 1.7079 0.75243z"/>
   <path d="m11.898 245.22-1.2614 0.20499 0.39621-6.199 0.99024-0.16092zm0.59307-8.2638q0.06897 0.42439-0.20939 0.79632-0.26657 0.37002-0.69096 0.43898-0.29471 0.0479-0.52577-0.10815-0.23106-0.15605-0.27895-0.45077-0.06705-0.4126 0.21322-0.77274 0.28027-0.36015 0.69287-0.42719 0.28293-0.046 0.51207 0.0983 0.24093 0.14235 0.28691 0.42527z"/>
   <path d="m20.357 241.28-1.1199 0.18199 0.19744-4.146-4.3618 0.70881-0.19744 4.146-1.1199 0.182 0.42022-8.7318 1.1199-0.182-0.17755 3.5983 4.3618-0.70882 0.17755-3.5983 1.1199-0.18199z"/>
   <path d="m28.218 236.87q-0.06837 1.3663-0.97608 2.4818-0.90963 1.1037-2.3714 1.3413-1.1317 0.18391-1.9836-0.36735-0.842-0.56496-1.0221-1.6731-0.05939-0.36545-0.03625-0.7443 0.07028-1.3545 0.98979-2.4719 0.91759-1.1292 2.3676-1.3648 1.1553-0.18774 1.9855 0.37914 0.8283 0.55509 1.0103 1.675 0.05939 0.36545 0.03626 0.7443zm-5.2601 1.4356q0.12452 0.76626 0.65899 1.1513 0.53447 0.38504 1.2889 0.26243 0.94309-0.15325 1.553-0.94206 0.60991-0.78881 0.65102-1.7272 0.02284-0.30621-0.02314-0.58914-0.12261-0.75447-0.66886-1.1376-0.54626-0.38313-1.2889-0.26244-0.95488 0.15517-1.553 0.94207-0.59812 0.78689-0.65102 1.7272-0.01871 0.25714 0.03301 0.57543z"/>
   <path d="m30.727 237.33q0.1092 0.67195 0.45372 0.93056 0.35631 0.2567 1.0359 0.19466l-0.17712 1.0694q-2.092 0.23107-2.4177-1.773-0.09195-0.56585-0.05423-1.1528l0.28952-6.0365 1.1199-0.18199-0.2826 5.7813q-0.03448 0.7558 0.03257 1.1684z"/>
   <path d="m35.914 238.92q-1.1199 0.182-1.9501-0.38488t-1.0103-1.675q-0.25862-1.5915 0.65793-2.9504 0.91656-1.3589 2.4726-1.6118 1.9687-0.31992 3.1999 0.6295l-0.16988 3.6455q0.0065 0.33774 0.03139 0.49099 0.09195 0.56585 0.41997 1.0207l-1.0854 0.39419q-0.27188-0.25831-0.4378-0.98154-0.70186 1.1909-2.1283 1.4227zm0.06498-1.0148q0.8252-0.1341 1.4384-0.75403 0.61315-0.61994 0.64159-1.3385l0.10314-2.1947q-0.80855-0.5825-2.0346-0.38326-1.061 0.17241-1.6836 1.1811-0.61271 0.99496-0.43071 2.1149 0.2682 1.6504 1.9658 1.3745z"/>
   <path d="m42.023 235.23-0.99024 0.16092 0.18402-6.1646 1.2732-0.2069zm0.2822 1.5876q0.06705 0.4126-0.19952 0.78262-0.26848 0.35823-0.68108 0.42528-0.3065 0.0498-0.52577-0.10816-0.22118-0.16975-0.27099-0.47626-0.06513-0.40081 0.19156-0.75712 0.26848-0.35823 0.68108-0.42528 0.29471-0.0479 0.52577 0.10816 0.23106 0.15605 0.27895 0.45076z"/>
   <path d="m126.68 221.93v1.2421q-0.59482-0.55401-1.2713-0.8281-0.67064-0.27409-1.4288-0.27409-1.4929 0-2.286 0.91557-0.79311 0.90974-0.79311 2.6359 0 1.7203 0.79311 2.6359 0.7931 0.90974 2.286 0.90974 0.75811 0 1.4288-0.27409 0.67648-0.27409 1.2713-0.82809v1.2305q-0.61815 0.41988-1.3121 0.62982-0.68813 0.20994-1.4579 0.20994-1.9769 0-3.1141-1.2072-1.1372-1.213-1.1372-3.3066 0-2.0994 1.1372-3.3066 1.1372-1.213 3.1141-1.213 0.78144 0 1.4696 0.20994 0.69396 0.20411 1.3004 0.61816z"/>
   <path d="m128 226.98v-0.52485h4.9336q-0.07-1.108-0.67064-1.6854-0.59483-0.58316-1.662-0.58316-0.61816 0-1.2013 0.15162-0.57734 0.15162-1.1488 0.45487v-1.0147q0.57734-0.24493 1.1838-0.37323 0.60649-0.12829 1.2305-0.12829 1.5629 0 2.4726 0.90974 0.91557 0.90973 0.91557 2.461 0 1.6037-0.86892 2.5484-0.86308 0.9389-2.3327 0.9389-1.318 0-2.0877-0.84559-0.76395-0.85143-0.76395-2.3093zm1.073 0.31491q0.0117 0.88058 0.48986 1.4054 0.48403 0.52485 1.2771 0.52485 0.89807 0 1.4346-0.50736 0.54235-0.50735 0.62399-1.4288z"/>
   <path d="m135.13 229.96v-0.89225q1.0614-0.16328 1.3879-0.89807 0.39655-1.0322 0.39655-3.6739v-1.0672h4.4146v6.5315h-1.073v-5.6742h-2.2685v0.64731q0 2.5193-0.51319 3.6506-0.54817 1.2072-2.3443 1.3763z"/>
   <path d="m149.02 226.43v0.52485h-4.9336q0.07 1.108 0.66481 1.6912 0.60066 0.57734 1.6678 0.57734 0.61816 0 1.1955-0.15163 0.58317-0.15162 1.1547-0.45487v1.0147q-0.57733 0.24493-1.1838 0.37323-0.6065 0.1283-1.2305 0.1283-1.5629 0-2.4785-0.90974-0.90974-0.90974-0.90974-2.461 0-1.6037 0.86309-2.5426 0.86892-0.94473 2.3385-0.94473 1.318 0 2.0819 0.85142 0.76978 0.84559 0.76978 2.3035zm-1.073-0.31491q-0.0117-0.88058-0.49569-1.4054-0.4782-0.52484-1.2713-0.52484-0.89808 0-1.4404 0.50735-0.53652 0.50735-0.61816 1.4288z"/>
   <path d="m150.74 223.43h1.5687l1.8545 4.3737 1.8603-4.3737h1.557v6.5315h-1.0788v-5.5051l-1.802 4.2513h-1.073l-1.8078-4.2513v5.5051h-1.0789z"/>
   <path d="m160.66 227.47h-1.0032l-0.13138-6.0552h1.3018zm-0.48967 0.93157q0.35829 0 0.6091 0.25081 0.26275 0.25081 0.26275 0.60911 0 0.35829-0.26275 0.62104-0.25081 0.25081-0.6091 0.25081-0.3583 0-0.60911-0.25081-0.25081-0.26275-0.25081-0.62104 0-0.3583 0.25081-0.60911t0.60911-0.25081z"/>
   <path d="m168.27 250.52-0.81704-0.24869c-0.0224 0.1795-0.061 0.34549-0.16177 0.65257-0.0807 0.26313-0.19498 0.58651-0.32703 0.94462-0.67164-0.20509-1.402-0.49193-1.94-0.81171l-0.19373 0.66457c0.54658 0.2829 1.2471 0.57251 1.9074 0.78468-0.20053 0.52688-0.40966 1.0906-0.59175 1.6218-0.64183-0.20787-1.3169-0.48181-1.8761-0.83571l-0.20232 0.70146c0.52168 0.30627 1.1712 0.56455 1.8499 0.78101-0.14708 0.42267-0.26069 0.78508-0.32085 1.0433-0.35235 1.5123 0.52603 2.2906 1.7802 2.5828 1.8258 0.4254 3.2364-0.12092 3.5566-1.4949 0.18477-0.79305 0.0287-1.5002-0.44428-2.3493l-0.85017-0.0231c0.53996 0.72857 0.7108 1.4975 0.56685 2.1154-0.2213 0.94981-1.2597 1.3592-2.6614 1.0327-1.0512-0.24493-1.4203-0.91424-1.2119-1.8087 0.0516-0.22132 0.1452-0.53977 0.26803-0.90003 0.11066 0.0258 0.22131 0.0516 0.33197 0.0773 0.62706 0.1461 1.2052 0.25164 1.8289 0.32889l0.18173-0.69653c-0.66698-0.0582-1.3189-0.18091-1.946-0.32701-0.0553-0.0129-0.11066-0.0258-0.17521-0.0408 0.19131-0.52903 0.40044-1.0928 0.59175-1.6218 0.0184 4e-3 0.0461 0.0107 0.0645 0.015 0.74694 0.17403 1.2882 0.27098 1.8913 0.35315l0.17959-0.68731c-0.55419-0.0416-1.1898-0.15083-1.8999-0.31627 0.14556-0.37441 0.26687-0.68641 0.35039-0.91973 0.0749-0.19642 0.14772-0.38363 0.27028-0.61757z"/>
   <path d="m176.53 252.52-0.92922-0.22622c-7e-3 0.28031-0.0659 0.61658-0.14538 0.95778-0.22559 0.96825-0.86137 3.2798-1.1794 4.6446-0.35021 1.5031 0.43381 2.2691 1.7617 2.5785 2.0287 0.47267 3.489-0.41208 4.3294-1.1399l-0.37953-0.74952c-0.88739 0.80434-2.0585 1.5328-3.746 1.1397-0.87604-0.20411-1.4285-0.71199-1.1922-1.7264 0.32012-1.374 0.89172-3.5352 1.1806-4.5665 0.0801-0.30216 0.18298-0.61847 0.29999-0.91203z"/>
   <path d="m186.72 254.82-0.81704-0.2487c-0.0224 0.17951-0.061 0.34549-0.16177 0.65258-0.0807 0.26312-0.19498 0.5865-0.32703 0.94462-0.67164-0.2051-1.402-0.49193-1.94-0.81172l-0.19373 0.66457c0.54658 0.2829 1.2471 0.57251 1.9074 0.78468-0.20053 0.52688-0.40966 1.0906-0.59175 1.6218-0.64183-0.20787-1.3169-0.48182-1.8761-0.83571l-0.20233 0.70146c0.52169 0.30626 1.1712 0.56454 1.8499 0.78101-0.14708 0.42266-0.26069 0.78508-0.32085 1.0433-0.35235 1.5123 0.52603 2.2906 1.7802 2.5828 1.8258 0.4254 3.2364-0.12093 3.5566-1.4949 0.18477-0.79304 0.0287-1.5002-0.44428-2.3493l-0.85017-0.0231c0.53996 0.72857 0.7108 1.4975 0.56685 2.1154-0.2213 0.94981-1.2597 1.3592-2.6614 1.0327-1.0512-0.24493-1.4203-0.91423-1.2119-1.8087 0.0516-0.22132 0.1452-0.53977 0.26803-0.90004 0.11066 0.0258 0.22131 0.0516 0.33197 0.0773 0.62706 0.1461 1.2052 0.25164 1.8289 0.32889l0.18173-0.69653c-0.66698-0.0582-1.3189-0.18092-1.946-0.32701-0.0553-0.0129-0.11066-0.0258-0.17521-0.0408 0.19131-0.52902 0.40044-1.0928 0.59175-1.6218 0.0184 4e-3 0.0461 0.0107 0.0645 0.015 0.74694 0.17403 1.2882 0.27097 1.8913 0.35315l0.17959-0.68731c-0.55419-0.0416-1.1898-0.15084-1.8999-0.31627 0.14556-0.37441 0.26687-0.68642 0.35039-0.91973 0.0749-0.19643 0.14772-0.38363 0.27028-0.61757z"/>
   <path d="m194.97 256.81-0.92922-0.22622c-7e-3 0.28032-0.0659 0.61659-0.14538 0.95778-0.22559 0.96825-0.86137 3.2798-1.1794 4.6446-0.35021 1.5031 0.43381 2.2691 1.7617 2.5785 2.0287 0.47267 3.489-0.41208 4.3294-1.1399l-0.37953-0.74953c-0.88739 0.80434-2.0585 1.5329-3.746 1.1397-0.87604-0.20411-1.4285-0.71199-1.1922-1.7264 0.32012-1.374 0.89172-3.5352 1.1806-4.5665 0.0801-0.30216 0.18298-0.61847 0.29999-0.91204z"/>
  </g>
 </g>
</svg>
