<svg width="1016" height="184" version="1.1" viewBox="0 0 268.82 48.683" xmlns="http://www.w3.org/2000/svg">
 <path d="m5.2691.9153c-2.1411 0-4.0282 1.5013-4.0282 3.5321v40.087c0 2.0308 1.887 3.5321 4.0282 3.5321h258.57c2.1411 0 4.0282-1.5013 4.0282-3.5321v-40.087c0-2.0308-1.887-3.5321-4.0282-3.5321zm0 1.773h258.57c1.3396 0 2.2546.85827 2.2546 1.759v26.39h-263.08v-26.39c0-.90076.9155-1.759 2.2551-1.759zm-2.2551 28.678h131.04v14.925h-128.78c-1.3396 0-2.2551-.85827-2.2551-1.759zm131.57 0h131.51v13.167c0 .90076-.915 1.759-2.2546 1.759h-129.26z" stroke-width=".26458"/>
 <path d="m36.392 13.747h-.77892l-.3302-4.6989-1.9134 4.6989h-.53339l-1.9134-4.6989-.3302 4.6989h-.77046l.43179-6.0621h.83819l2.015 5.0461 2.0066-5.0461h.84666z" fill-opacity=".99216" stroke-width=".26458"/>
 <path d="m37.873 11.684q.0508.66886.48259 1.0583.44026.381 1.1515.381t1.6256-.3302l.09313.70272q-.93979.34713-1.7695.34713-1.016 0-1.6933-.61806t-.67732-1.6002q0-1.0583.63499-1.7272.64346-.66886 1.6848-.66886 1.9558 0 1.9981 2.4553zm2.7432-.66886q-.06773-.49953-.41486-.81279-.33866-.31326-.87206-.31326-.52493 0-.92286.3302-.38946.32173-.48259.79586z" fill-opacity=".99216" stroke-width=".26458"/>
 <path d="m47.475 9.276q.78739 0 1.2531.59266.46566.58419.46566 1.4562v2.4045h-.79586v-2.396q0-.58419-.28786-.98212-.28786-.40639-.78739-.40639-.41486 0-.77892.3302-.36406.32173-.36406.71966v2.7347h-.80432v-2.6077q0-1.1769-.98212-1.1769-.42333 0-.82126.38946-.39793.38946-.39793.81279v2.5823h-.80432v-3.1834q0-.79586-.1016-1.1599h.75352q.08467.2032.08467.49953.16933-.23706.58419-.42333.41486-.18626.80432-.18626.82972 0 1.3546.71119.67732-.71119 1.6256-.71119z" fill-opacity=".99216" stroke-width=".26458"/>
 <path d="m55.029 11.472q0 .99905-.63499 1.6848-.63499.68579-1.5917.68579-.94826 0-1.5409-.59266 0 .32173-.04233.47413h-.76199q.0508-.62652.0508-1.1599v-5.2577h.80432v2.523q.60112-.60113 1.5578-.60113.92286 0 1.5409.65193.61806.65193.61806 1.5917zm-2.2944 1.6679q.71966 0 1.1091-.44873.39793-.4572.39793-1.2192 0-.68579-.39793-1.1345-.39793-.44873-1.0583-.44873-.52493 0-.99905.36406-.47413.3556-.47413.83819v.99059q0 .50799.40639.78739.41486.27093 1.016.27093z" fill-opacity=".99216" stroke-width=".26458"/>
 <path d="m56.479 11.684q.0508.66886.48259 1.0583.44026.381 1.1515.381t1.6256-.3302l.09313.70272q-.93979.34713-1.7695.34713-1.016 0-1.6933-.61806-.67732-.61806-.67732-1.6002 0-1.0583.63499-1.7272.64346-.66886 1.6848-.66886 1.9558 0 1.9981 2.4553zm2.7432-.66886q-.06773-.49953-.41486-.81279-.33866-.31326-.87206-.31326-.52493 0-.92286.3302-.38946.32173-.48259.79586z" fill-opacity=".99216" stroke-width=".26458"/>
 <path d="m61.675 9.9639q.11853-.24553.48259-.45719.37253-.21166.71119-.21166.27093 0 .4064.033866v.68579q-.1016-.025399-.28786-.025399-1.2107 0-1.2107 1.4562v2.3029h-.80432v-2.8617q0-1.016-.1524-1.5324h.71119q.14393.23706.14393.60959z" fill-opacity=".99216" stroke-width=".26458"/>
 <path d="m67.882 13.509q0 1.9727-2.0658 2.0235l-.08467-.65192q.36406-.0254.60112-.09313.23706-.06773.38946-.18626.1524-.11006.2286-.32173.0762-.2032.1016-.44873.0254-.24553.0254-.65192v-3.7676h.80432zm-.4064-5.9859q.254 0 .43179.1778.1778.1778.1778.43179t-.1778.43179q-.1778.1778-.43179.1778t-.4318-.1778q-.1778-.1778-.1778-.43179t.1778-.43179q.1778-.1778.4318-.1778z" fill-opacity=".99216" stroke-width=".26458"/>
 <path d="m73.443 11.551q0 .97365-.66039 1.634-.66039.66039-1.634.66039-.97366 0-1.634-.66039-.66039-.66039-.66039-1.634 0-.96519.66039-1.634.66039-.66886 1.634-.66886.97365 0 1.634.66886.66039.66886.66039 1.634zm-2.2944 1.6171q.66039 0 1.0753-.46566.42333-.46566.42333-1.1515t-.42333-1.1515q-.41486-.46566-1.0753-.46566-.66039 0-1.0837.46566t-.42333 1.1515.42333 1.1515 1.0837.46566z" fill-opacity=".99216" stroke-width=".26458"/>
 <path d="m75.206 13.747h-.80432v-4.3264h.80432zm-.42333-6.2145q.254 0 .4318.1778.18626.1778.18626.43179t-.18626.43179q-.1778.1778-.4318.1778t-.43179-.1778q-.1778-.1778-.1778-.43179t.1778-.43179q.1778-.1778.43179-.1778z" fill-opacity=".99216" stroke-width=".26458"/>
 <path d="m78.685 9.276q.88052 0 1.3885.54186.50799.54186.50799 1.4562v2.4553h-.80432v-2.4553q0-1.3292-1.2107-1.3292-.43179 0-.86359.39793-.43179.39793-.43179.80432v2.5823h-.80432v-3.1834q0-.79586-.1016-1.1599h.75352q.08467.2032.08467.52493.60959-.63499 1.4816-.63499z" fill-opacity=".99216" stroke-width=".26458"/>
 <path d="m82.341 11.684q.0508.66886.48259 1.0583.44026.381 1.1515.381t1.6256-.3302l.09313.70272q-.93979.34713-1.7695.34713-1.016 0-1.6933-.61806-.67732-.61806-.67732-1.6002 0-1.0583.63499-1.7272.64346-.66886 1.6848-.66886 1.9558 0 1.9981 2.4553zm2.7432-.66886q-.06773-.49953-.41486-.81279-.33866-.31326-.87206-.31326-.52493 0-.92286.3302-.38946.32173-.48259.79586z" fill-opacity=".99216" stroke-width=".26458"/>
 <path d="m91.102 13.747h-.76199q-.04233-.1524-.04233-.47413-.60959.59266-1.5409.59266-.96519 0-1.6002-.66039-.62653-.66886-.62653-1.7102 0-.98212.60959-1.6086.61806-.63499 1.5578-.63499.94825 0 1.5494.60113v-2.523h.80432v5.2577q0 .53339.0508 1.1599zm-2.2775-.58419q.60113 0 1.0075-.27093.41486-.2794.41486-.78739v-.99059q0-.47413-.48259-.83819-.47413-.36406-.99059-.36406-.65193 0-1.0583.44873-.39793.44873-.39793 1.1345 0 .76199.38946 1.2192.39793.44873 1.1176.44873z" fill-opacity=".99216" stroke-width=".26458"/>
 <path d="m34.341 18.669h-2.2267v5.6387h-.50799v-5.6387h-2.2267v-.42333h4.9614z" fill-opacity=".99216" stroke-width=".26458"/>
 <path d="m36.757 22.214h-2.2267v-.42333h2.2267z" fill-opacity=".99216" stroke-width=".26458"/>
 <path d="m39.323 24.013q.58419 0 .97365-.3556.38946-.3556.38946-.92286 0-.58419-.38946-.99905-.38946-.41486-.98212-.44873-.59266.03387-.98212.44873-.381.4064-.381.99905 0 .56726.38946.92286.38946.3556.98212.3556zm0-5.4355q-.50799 0-.84666.31326-.33866.31326-.33866.79586 0 .82972 1.1769 1.1176 1.1853-.29633 1.1853-1.1176 0-.47413-.33866-.78739-.33866-.32173-.83819-.32173zm.58419 2.4638q.55033.11853.91439.57573.37253.44873.37253 1.0753 0 .82126-.51646 1.2869-.50799.45719-1.3631.45719t-1.3631-.45719q-.50799-.46566-.50799-1.2869 0-.63499.36406-1.0837t.92286-.56726q-.43179-.127-.77046-.49106-.3302-.37253-.3302-.82972 0-.68579.48259-1.1261.49106-.44026 1.2107-.44026.71119 0 1.1938.44026.49106.44026.49106 1.1261 0 .45719-.33866.82972-.3302.36406-.76199.49106z" fill-opacity=".99216" stroke-width=".26458"/>
 <path d="m43.937 18.166q.49106 0 .86359.28786.381.2794.59266.76199.22013.47413.3302 1.0329.11006.55033.11006 1.1515 0 .73659-.2032 1.4139-.2032.67732-.65192 1.1599-.44026.47413-1.0414.47413t-1.0499-.47413q-.44873-.47413-.65192-1.1515-.2032-.67732-.2032-1.4224 0-.59266.11006-1.1515t.3302-1.0329q.22013-.47413.60113-.76199.381-.28786.86359-.28786zm0 .42333q-.49953 0-.82972.45719t-.44873 1.0583q-.11853.59266-.11853 1.2785 0 .44026.08467.88899.08467.44873.24553.84666.16086.39793.44026.65192.2794.254.62653.254t.61806-.254q.2794-.254.44026-.65192.16086-.4064.24553-.84666.08467-.44873.08467-.88899 0-.49106-.0762-.95672-.06773-.46566-.22013-.88899-.1524-.4318-.44026-.68579-.2794-.26246-.65192-.26246z" fill-opacity=".99216" stroke-width=".26458"/>
 <path d="m48.552 18.166q.49106 0 .86359.28786.381.2794.59266.76199.22013.47413.3302 1.0329.11006.55033.11006 1.1515 0 .73659-.2032 1.4139-.2032.67732-.65192 1.1599-.44026.47413-1.0414.47413t-1.0499-.47413q-.44873-.47413-.65193-1.1515-.2032-.67732-.2032-1.4224 0-.59266.11006-1.1515.11007-.55879.3302-1.0329.22013-.47413.60113-.76199t.86359-.28786zm0 .42333q-.49953 0-.82972.45719t-.44873 1.0583q-.11853.59266-.11853 1.2785 0 .44026.08467.88899.08467.44873.24553.84666.16086.39793.44026.65192.2794.254.62652.254t.61806-.254q.2794-.254.44026-.65192.16086-.4064.24553-.84666.08467-.44873.08467-.88899 0-.49106-.0762-.95672-.06773-.46566-.22013-.88899-.1524-.4318-.44026-.68579-.2794-.26246-.65192-.26246z" fill-opacity=".99216" stroke-width=".26458"/>
 <path d="m53.073 25.812q.77046-.06773 1.0499-.45719.28786-.38946.28786-1.2615v-4.0978h.50799v4.2333q0 1.9388-1.7949 1.9812zm1.5748-7.5352q.1778 0 .28786.11853.11853.11007.11853.28786 0 .1778-.11853.28786-.11006.1016-.28786.1016-.1778 0-.28786-.1016-.1016-.11007-.1016-.28786 0-.1778.1016-.28786.11007-.11853.28786-.11853z" fill-opacity=".99216" stroke-width=".26458"/>
 <path d="m60.291 22.161q0 .96519-.61806 1.6171-.60959.65192-1.5663.65192-.96519 0-1.5748-.64346-.60959-.65193-.60959-1.6256 0-.96519.61806-1.6171.61806-.65192 1.5663-.65192.95672 0 1.5663.65192.61806.65192.61806 1.6171zm-2.1844 1.8457q.73659 0 1.2023-.53339.47413-.53339.47413-1.3123t-.46566-1.3123-1.2107-.53339q-.73659 0-1.2107.53339-.46566.53339-.46566 1.3123t.46566 1.3123q.47413.53339 1.2107.53339z" fill-opacity=".99216" stroke-width=".26458"/>
 <path d="m61.794 24.331h-.50799v-4.3264h.50799zm-.27093-6.0451q.1778 0 .28786.11853.11853.11006.11853.28786t-.11853.28786q-.11006.1016-.28786.1016t-.28786-.1016q-.1016-.11006-.1016-.28786t.1016-.28786q.11006-.11853.28786-.11853z" fill-opacity=".99216" stroke-width=".26458"/>
 <path d="m66.755 24.331h-.50799v-2.4553q0-1.5409-1.2869-1.5409-.50799 0-.92286.43179-.41486.4318-.41486.93979v2.6246h-.50799v-3.2596q0-.381-.08467-1.0668h.47413q.08467.26246.1016.77046.49106-.86359 1.4562-.86359 1.6933 0 1.6933 1.9642z" fill-opacity=".99216" stroke-width=".26458"/>
 <path d="m68.271 22.188q.0254.82126.49106 1.3208.47413.49953 1.2615.49953.73659 0 1.5155-.3048l.04233.41486q-.75352.31326-1.6086.31326-.97365 0-1.5917-.60112-.61806-.60959-.61806-1.5663 0-1.0245.59266-1.6933.60113-.67732 1.5663-.67732 1.8203 0 1.8626 2.2944zm3.0056-.42333q-.01693-.66039-.4064-1.0499-.381-.39793-1.0075-.39793-.62653 0-1.0499.41486-.42333.4064-.51646 1.0329z" fill-opacity=".99216" stroke-width=".26458"/>
 <path d="m72.533 22.108q0-.94826.52493-1.5748.53339-.62653 1.4224-.62653 1.0753 0 1.634.91439v-2.9294h.50799v5.3763q0 .76199.03387 1.0583h-.46566q-.0254-.3302-.0254-.76199-.60112.88052-1.6086.88052-.94826 0-1.4901-.65193-.53339-.66039-.53339-1.6848zm2.0912 1.9134q.62652 0 1.0583-.4064.43179-.41486.43179-1.0245v-.71966q0-.65192-.44873-1.0922-.44026-.44873-1.0922-.44873-.73659 0-1.1345.49953t-.39793 1.2954q0 1.8965 1.5832 1.8965z" fill-opacity=".99216" stroke-width=".26458"/>
 <path d="m82.082 24.436q-.52493 0-.82126-.38946-.28786-.39793-.28786-.99905v-2.6754h-.86359v-.381h.86359v-1.2869l.50799-.2286v1.5155h1.38v.381h-1.38v2.6754q0 .96519.64346.96519.39793 0 .58419-.0762l.0508.381q-.26246.11853-.67732.11853z" fill-opacity=".99216" stroke-width=".26458"/>
 <path d="m87.36 21.87v2.4553h-.50799v-2.4553q0-1.5409-1.2869-1.5409-.50799 0-.92286.4318-.41486.43179-.41486.93979v2.6246h-.50799v-6.4346h.50799v2.8786q.52493-.86359 1.4393-.86359 1.6933 0 1.6933 1.9642z" fill-opacity=".99216" stroke-width=".26458"/>
 <path d="m88.874 22.188q.0254.82126.49106 1.3208.47413.49953 1.2615.49953.73659 0 1.5155-.3048l.04233.41486q-.75352.31326-1.6086.31326-.97366 0-1.5917-.60112-.61806-.60959-.61806-1.5663 0-1.0245.59266-1.6933.60112-.67732 1.5663-.67732 1.8203 0 1.8626 2.2944zm3.0056-.42333q-.01693-.66039-.4064-1.0499-.381-.39793-1.0075-.39793-.62652 0-1.0499.41486-.42333.4064-.51646 1.0329z" fill-opacity=".99216" stroke-width=".26458"/>
 <path d="m99.827 24.331h-.50799v-2.4553q0-1.5409-1.2869-1.5409-.50799 0-.92286.43179-.41486.4318-.41486.93979v2.6246h-.50799v-3.2596q0-.381-.08467-1.0668h.47413q.08467.26246.1016.77046.49106-.86359 1.4562-.86359 1.6933 0 1.6933 1.9642z" fill-opacity=".99216" stroke-width=".26458"/>
 <path d="m101.34 22.188q.0254.82126.49106 1.3208.47413.49953 1.2615.49953.73659 0 1.5155-.3048l.0423.41486q-.75353.31326-1.6086.31326-.97366 0-1.5917-.60112-.61806-.60959-.61806-1.5663 0-1.0245.59266-1.6933.60112-.67732 1.5663-.67732 1.8203 0 1.8626 2.2944zm3.0056-.42333q-.0169-.66039-.4064-1.0499-.38099-.39793-1.0075-.39793-.62652 0-1.0498.41486-.42333.4064-.51646 1.0329z" fill-opacity=".99216" stroke-width=".26458"/>
 <path d="m107.3 24.436q-.52493 0-.82126-.38946-.28786-.39793-.28786-.99905v-2.6754h-.86359v-.381h.86359v-1.2869l.50799-.2286v1.5155h1.38v.381h-1.38v2.6754q0 .96519.64346.96519.39793 0 .58419-.0762l.0508.381q-.26246.11853-.67732.11853z" fill-opacity=".99216" stroke-width=".26458"/>
 <path d="m114.74 19.992-1.5578 4.3264h-.43179l-1.2446-3.8184-1.3123 3.8184h-.46566l-1.4054-4.3264h.51646l1.1514 3.7422 1.2954-3.7422h.47413l1.2192 3.7422 1.2615-3.7422z" fill-opacity=".99216" stroke-width=".26458"/>
 <path d="m119.44 22.161q0 .96519-.61806 1.6171-.60959.65192-1.5663.65192-.96519 0-1.5748-.64346-.60959-.65193-.60959-1.6256 0-.96519.61806-1.6171t1.5663-.65192q.95672 0 1.5663.65192.61806.65192.61806 1.6171zm-2.1844 1.8457q.73659 0 1.2022-.53339.47413-.53339.47413-1.3123t-.46566-1.3123-1.2107-.53339q-.73659 0-1.2107.53339-.46566.53339-.46566 1.3123t.46566 1.3123q.47413.53339 1.2107.53339z" fill-opacity=".99216" stroke-width=".26458"/>
 <path d="m122.44 20.335q-.0508-.01693-.1524-.01693-.55879 0-.94825.45719-.381.44873-.381 1.2107v2.3283h-.50799v-2.9125q0-.95672-.127-1.4139h.43179q.13547.27093.13547.86359.40639-.95672 1.3038-.95672.11853 0 .24553.0254z" fill-opacity=".99216" stroke-width=".26458"/>
 <path d="m126.72 24.304-.49952.14393-2.0574-2.3706-.44872.43179v1.8203h-.508v-6.4346h.508v4.0555l2.1505-2.015.508.1016-1.8542 1.761z" fill-opacity=".99216" stroke-width=".26458"/>
 <path d="m133.38 22.743q0 .78739-.59266 1.2446-.58419.4572-1.4647.4572-.99905 0-1.6679-.46566l.2032-.4318q.62652.47413 1.5155.47413.66886 0 1.0837-.32173.41486-.32173.41486-.91439 0-.57573-.33019-.86359-.3302-.29633-.99059-.49953-1.6933-.55033-1.6933-1.7102 0-.71119.54186-1.1261.54186-.42333 1.3377-.42333.84665 0 1.3885.32173-.0169.03387-.1016.18626-.0762.14393-.11006.21166-.55033-.29633-1.1853-.29633-.59266 0-.98212.2794-.381.2794-.381.78739 0 .83819 1.3123 1.2954.42333.1524.67732.2794.26247.11853.52493.32173t.381.49953q.11853.29633.11853.69426z" fill-opacity=".99216" stroke-width=".26458"/>
 <path d="m137.97 24.304-.49952.14393-2.0574-2.3706-.44872.43179v1.8203h-.508v-6.4346h.508v4.0555l2.1505-2.015.508.1016-1.8542 1.761z" fill-opacity=".99216" stroke-width=".26458"/>
 <path d="m140.15 24.331q-.75352 1.6933-1.9981 1.9896l-.11853-.39793q1.0837-.24553 1.6425-1.7356 0-.0762-.0339-.1524l-1.7949-4.0301h.53339l1.6171 3.666 1.5155-3.666h.54186z" fill-opacity=".99216" stroke-width=".26458"/>
 <path d="m146.39 24.331h-.508v-2.4553q0-1.5409-1.2869-1.5409-.508 0-.92286.43179-.41486.4318-.41486.93979v2.6246h-.50799v-3.2596q0-.381-.0847-1.0668h.47413q.0847.26246.1016.77046.49106-.86359 1.4562-.86359 1.6933 0 1.6933 1.9642z" fill-opacity=".99216" stroke-width=".26458"/>
 <path d="m147.91 22.188q.0254.82126.49106 1.3208.47413.49953 1.2615.49953.73659 0 1.5155-.3048l.0423.41486q-.75353.31326-1.6086.31326-.97366 0-1.5917-.60112-.61806-.60959-.61806-1.5663 0-1.0245.59266-1.6933.60112-.67732 1.5663-.67732 1.8203 0 1.8626 2.2944zm3.0056-.42333q-.0169-.66039-.4064-1.0499-.38099-.39793-1.0075-.39793-.62652 0-1.0498.41486-.42333.4064-.51646 1.0329z" fill-opacity=".99216" stroke-width=".26458"/>
 <path d="m153.87 24.436q-.52493 0-.82126-.38946-.28786-.39793-.28786-.99905v-2.6754h-.86359v-.381h.86359v-1.2869l.50799-.2286v1.5155h1.38v.381h-1.38v2.6754q0 .96519.64346.96519.39793 0 .58419-.0762l.0508.381q-.26246.11853-.67732.11853z" fill-opacity=".99216" stroke-width=".26458"/>
 <path d="m58.828 41.343h-.55033l-.70272-1.9473h-2.6077l-.68579 1.9473h-.55033l2.2944-6.1637h.50799zm-1.4054-2.3706-1.143-3.2342-1.1599 3.2342z" fill-opacity=".99216" stroke-width=".26458"/>
 <path d="m61.551 36.925q.93979 0 1.4816.66039.54186.65192.54186 1.6679 0 .95672-.53339 1.5832-.52493.62652-1.4139.62652-1.0753 0-1.634-.92286v2.9294h-.50799v-5.3763q0-.79586-.03387-1.0753h.46566q.0254.3302.0254.78739.60113-.88052 1.6086-.88052zm-.06773.42333q-.62653 0-1.0583.4064-.4318.4064-.4318 1.016v.72812q0 .64346.44873 1.0922.44873.44873 1.0922.44873.73659 0 1.1345-.49106.39793-.49106.39793-1.3039 0-.88052-.39793-1.3885-.38946-.50799-1.1853-.50799z" fill-opacity=".99216" stroke-width=".26458"/>
 <path d="m66.662 36.925q.93979 0 1.4816.66039.54186.65192.54186 1.6679 0 .95672-.53339 1.5832-.52493.62652-1.4139.62652-1.0753 0-1.634-.92286v2.9294h-.50799v-5.3763q0-.79586-.03387-1.0753h.46566q.0254.3302.0254.78739.60112-.88052 1.6086-.88052zm-.06773.42333q-.62653 0-1.0583.4064-.4318.4064-.4318 1.016v.72812q0 .64346.44873 1.0922.44873.44873 1.0922.44873.73659 0 1.1345-.49106.39793-.49106.39793-1.3039 0-.88052-.39793-1.3885-.38946-.50799-1.1853-.50799z" fill-opacity=".99216" stroke-width=".26458"/>
 <path d="m71.695 37.374q-.0508-.01693-.1524-.01693-.55879 0-.94826.45719-.381.44873-.381 1.2107v2.3283h-.50799v-2.9125q0-.95672-.127-1.4139h.43179q.13546.27093.13546.86359.4064-.95672 1.3038-.95672.11853 0 .24553.0254z" fill-opacity=".99216" stroke-width=".26458"/>
 <path d="m76.523 39.2q0 .96519-.61806 1.6171-.60959.65192-1.5663.65192-.96519 0-1.5748-.64346-.60959-.65193-.60959-1.6256 0-.96519.61806-1.6171.61806-.65192 1.5663-.65192.95672 0 1.5663.65192.61806.65192.61806 1.6171zm-2.1844 1.8457q.73659 0 1.2023-.53339.47413-.53339.47413-1.3123t-.46566-1.3123-1.2107-.53339q-.73659 0-1.2107.53339-.46566.53339-.46566 1.3123t.46566 1.3123q.47413.53339 1.2107.53339z" fill-opacity=".99216" stroke-width=".26458"/>
 <path d="m81.167 37.03-1.9473 4.3264h-.44026l-1.8711-4.3264h.50799l1.6002 3.793 1.6425-3.793z" fill-opacity=".99216" stroke-width=".26458"/>
 <path d="m82.053 39.226q.0254.82126.49106 1.3208.47413.49953 1.2615.49953.73659 0 1.5155-.3048l.04233.41486q-.75352.31326-1.6086.31326-.97365 0-1.5917-.60112-.61806-.60959-.61806-1.5663 0-1.0245.59266-1.6933.60113-.67732 1.5663-.67732 1.8203 0 1.8626 2.2944zm3.0056-.42333q-.01693-.66039-.40639-1.0499-.381-.39793-1.0075-.39793-.62653 0-1.0499.41486-.42333.4064-.51646 1.0329z" fill-opacity=".99216" stroke-width=".26458"/>
 <path d="m189.69 35.178q.97366 0 1.5917.41486.62652.41486.62652 1.2192 0 1.1684-1.1684 1.6002.60959.33866.88052 1.0329.2794.68579.45719 1.8965h-.50799q-.34713-2.7601-1.7018-2.7601h-1.1599v2.7601h-.50799v-6.0197q.73659-.14393 1.4901-.14393zm.14394 2.9802q.71119 0 1.1345-.32173.4318-.32173.4318-.95672 0-1.2785-1.7102-1.2785-.70272 0-.98212.08467v2.4722z" fill-opacity=".99216" stroke-width=".26458"/>
 <path d="m193.21 39.226q.0254.82126.49106 1.3208.47413.49953 1.2615.49953.73659 0 1.5155-.3048l.0423.41486q-.75352.31326-1.6086.31326-.97366 0-1.5917-.60112-.61806-.60959-.61806-1.5663 0-1.0245.59266-1.6933.60113-.67732 1.5663-.67732 1.8203 0 1.8626 2.2944zm3.0056-.42333q-.0169-.66039-.4064-1.0499-.38099-.39793-1.0075-.39793-.62652 0-1.0498.41486-.42333.4064-.51646 1.0329z" fill-opacity=".99216" stroke-width=".26458"/>
 <path d="m196.6 42.825q.77046-.06773 1.0499-.45719.28786-.38946.28786-1.2615v-4.0978h.50799v4.2333q0 1.9388-1.7949 1.9812zm1.5748-7.5352q.1778 0 .28787.11853.11853.11007.11853.28786 0 .1778-.11853.28786-.11007.1016-.28787.1016t-.28786-.1016q-.1016-.11007-.1016-.28786 0-.1778.1016-.28786.11006-.11853.28786-.11853z" fill-opacity=".99216" stroke-width=".26458"/>
 <path d="m199.93 39.226q.0254.82126.49106 1.3208.47413.49953 1.2615.49953.73659 0 1.5155-.3048l.0423.41486q-.75352.31326-1.6086.31326-.97366 0-1.5917-.60112-.61806-.60959-.61806-1.5663 0-1.0245.59266-1.6933.60112-.67732 1.5663-.67732 1.8203 0 1.8626 2.2944zm3.0056-.42333q-.0169-.66039-.4064-1.0499-.38099-.39793-1.0075-.39793-.62652 0-1.0498.41486-.42333.4064-.51646 1.0329z" fill-opacity=".99216" stroke-width=".26458"/>
 <path d="m206.47 37.348q-.80433 0-1.2784.50799-.47413.50799-.47413 1.3377 0 .82126.48259 1.3377.4826.50799 1.27.50799.71119 0 1.1853-.3048l.1778.41486q-.55879.31326-1.3377.31326-1.0499 0-1.6679-.60959-.61806-.61806-.61806-1.6594t.61806-1.651q.61806-.61806 1.6679-.61806.78739 0 1.3377.3048l-.1778.42333q-.47412-.3048-1.1853-.3048z" fill-opacity=".99216" stroke-width=".26458"/>
 <path d="m210.09 41.475q-.52492 0-.82125-.38946-.28787-.39793-.28787-.99905v-2.6754h-.86359v-.381h.86359v-1.2869l.508-.2286v1.5155h1.38v.381h-1.38v2.6754q0 .96519.64345.96519.39793 0 .5842-.0762l.0508.381q-.26247.11853-.67733.11853z" fill-opacity=".99216" stroke-width=".26458"/>
 <path d="m17.315 24.41h5.3982l-6.9465-7.5456-3.2617 2.307z" color="#000000" enable-background="new" stroke-width=".26458"/>
 <path d="m17.315 8.2971h5.3982l-7.418 8.0554-2.781 2.8268-2.6172-2.8268z" color="#000000" enable-background="new" stroke-width=".26458"/>
</svg>
