<svg width="1016" height="190" version="1.1" viewBox="0 0 268.82 50.27" xmlns="http://www.w3.org/2000/svg">
 <path d="m5.7181 0.52869c-2.8748 0-5.1889 2.3146-5.1889 5.1894v38.835c0 2.8748 2.3141 5.1889 5.1889 5.1889h257.38c2.8748 0 5.1889-2.3141 5.1889-5.1889v-38.835c0-2.8748-2.3141-5.1894-5.1889-5.1894zm251.72 5.2917a6.0855 6.0855 0 0 1 6.0855 6.0855 6.0855 6.0855 0 0 1-6.0855 6.0855 6.0855 6.0855 0 0 1-6.0855-6.0855 6.0855 6.0855 0 0 1 6.0855-6.0855zm-239.68 0.79944h6.4917l-8.921 9.6874-3.2882 3.3425 3.8551-2.7265 8.3541 9.0745h-6.4917l-5.7847-6.3005 1e-3 -5.17e-4 -3.1373-3.3895 8.921-9.6874zm34.336 0.68679h0.8041v2.5229c0.40074-0.40075 0.91976-0.601 1.5575-0.601 0.61524 0 1.129 0.21703 1.541 0.65165 0.41204 0.43462 0.61806 0.96515 0.61806 1.5917 0 0.66603-0.21127 1.228-0.6346 1.6852-0.42332 0.45719-0.95437 0.68575-1.5922 0.68575-0.63217 0-1.1454-0.19763-1.5405-0.59274 0 0.21449-0.01415 0.37228-0.04237 0.47388h-0.76224c0.03387-0.41768 0.05116-0.80405 0.05116-1.1596v-5.2576zm39.739 0.022738h0.80461v5.2576c0 0.35559 0.01678 0.74248 0.05064 1.1602h-0.76224c-0.02822-0.1016-0.04186-0.25991-0.04186-0.4744-0.40639 0.39511-0.92014 0.59274-1.541 0.59274-0.64346 0-1.1771-0.22017-1.6004-0.66043-0.41769-0.4459-0.62633-1.0158-0.62633-1.71 0-0.65474 0.20288-1.1911 0.60927-1.6087 0.41204-0.42332 0.93158-0.63511 1.5581-0.63511 0.63217 0 1.1485 0.20025 1.5493 0.601v-2.5229zm-22.771 0.19379c0.16933 0 0.31298 0.059236 0.4315 0.17777 0.11853 0.11853 0.17777 0.26218 0.17777 0.4315s-0.05924 0.31349-0.17777 0.43202-0.26218 0.17777-0.4315 0.17777c-0.16933 0-0.31348-0.059236-0.43202-0.17777-0.11853-0.11853-0.17777-0.26269-0.17777-0.43202s0.05924-0.31297 0.17777-0.4315 0.26269-0.17777 0.43202-0.17777zm7.3071 0.0093c0.16933 0 0.31297 0.059236 0.4315 0.17777 0.12417 0.11853 0.18655 0.26269 0.18655 0.43202s-0.06238 0.31297-0.18655 0.4315c-0.11853 0.11853-0.26217 0.17777-0.4315 0.17777s-0.31349-0.059236-0.43202-0.17777c-0.11853-0.11853-0.17777-0.26218-0.17777-0.4315 0-0.16933 0.05924-0.31349 0.17777-0.43202s0.26269-0.17777 0.43202-0.17777zm-44.529 0.15245h0.8382l2.0149 5.0463 2.0066-5.0463h0.84699l0.4315 6.0622h-0.77877l-0.33022-4.699-1.9136 4.699h-0.53331l-1.9136-4.699-0.33022 4.699h-0.7705l0.43202-6.0622zm9.1515 1.5436c1.3039 0 1.9702 0.81832 1.9984 2.4552l-3.5306 5.17e-4c0.03387 0.44591 0.1948 0.7982 0.48266 1.0578 0.29351 0.254 0.67721 0.38138 1.1514 0.38138 0.47416 0 1.0162-0.11008 1.6258-0.33022l0.09302 0.70281c-0.62653 0.23142-1.2163 0.34675-1.7694 0.34675-0.67733 0-1.2419-0.20602-1.6935-0.61806-0.45153-0.41204-0.67747-0.94517-0.67749-1.5999 0-0.70553 0.21178-1.2811 0.63511-1.727 0.42897-0.4459 0.99045-0.66922 1.6847-0.66922zm18.606 0c1.3039 0 1.9696 0.81832 1.9978 2.4552l-3.5306 5.17e-4c0.03387 0.44591 0.19481 0.7982 0.48266 1.0578 0.29351 0.254 0.67721 0.38138 1.1514 0.38138 0.47416 0 1.0162-0.11008 1.6258-0.33022l0.09302 0.70281c-0.62652 0.23142-1.2163 0.34675-1.7694 0.34675-0.67733 0-1.2419-0.20602-1.6935-0.61806-0.45154-0.41204-0.67697-0.94517-0.67697-1.5999 0-0.70553 0.21127-1.2811 0.63459-1.727 0.42897-0.4459 0.99097-0.66922 1.6852-0.66922zm25.862 0c1.3039 0 1.9702 0.81832 1.9984 2.4552l-3.5306 5.17e-4c0.03387 0.44591 0.19429 0.7982 0.48215 1.0578 0.29351 0.254 0.67773 0.38138 1.1519 0.38138 0.47416 0 1.0157-0.11008 1.6252-0.33022l0.09354 0.70281c-0.62652 0.23142-1.2168 0.34675-1.7699 0.34675-0.67733 0-1.2414-0.20602-1.6929-0.61806-0.45154-0.41204-0.67749-0.94517-0.67749-1.5999 0-0.70553 0.21178-1.2811 0.63511-1.727 0.42897-0.4459 0.99045-0.66922 1.6847-0.66922zm-12.725 0.019637c0.6491 0 1.1938 0.2228 1.634 0.6687 0.44026 0.44591 0.66043 0.99061 0.66043 1.634 0 0.6491-0.22017 1.1938-0.66043 1.634-0.44026 0.44026-0.98496 0.66043-1.634 0.66043-0.6491 0-1.1938-0.22017-1.634-0.66043-0.44026-0.44026-0.66043-0.98496-0.66043-1.634 0-0.64346 0.22018-1.1882 0.66043-1.634 0.44026-0.4459 0.98496-0.6687 1.634-0.6687zm-26.653 0.027906c0.55315 0 1.0045 0.23695 1.3545 0.71108 0.45155-0.47412 0.99358-0.71108 1.6258-0.71108 0.52492 0 0.94218 0.19763 1.2527 0.59274 0.31044 0.38946 0.46613 0.87492 0.46613 1.4563v2.4045h-0.79634v-2.3963c0-0.38946-0.09594-0.71658-0.28784-0.98186-0.1919-0.27092-0.45403-0.4067-0.78704-0.4067-0.27657 0-0.53658 0.11009-0.77929 0.33022-0.2427 0.21449-0.36381 0.45458-0.36381 0.71986v2.7348h-0.8041v-2.6081c0-0.7846-0.32764-1.1767-0.98238-1.1767-0.28222 0-0.55587 0.13001-0.82115 0.38965-0.26529 0.25964-0.39791 0.53066-0.39791 0.81288v2.5823h-0.80461v-3.1838c0-0.53057-0.03355-0.91694-0.10129-1.1596h0.75345c0.05645 0.13547 0.08475 0.30165 0.08475 0.4992 0.11289-0.15804 0.30738-0.29906 0.58395-0.42324 0.27657-0.12417 0.54497-0.18604 0.80461-0.18604zm34.19 0c0.58701 0 1.0499 0.18034 1.3886 0.54158 0.33866 0.36124 0.50799 0.8467 0.50799 1.4563v2.4557h-0.80461v-2.4557c0-0.88613-0.40315-1.3291-1.2103-1.3291-0.28786 0-0.57617 0.13263-0.86404 0.39791-0.28786 0.26529-0.4315 0.53369-0.4315 0.80461v2.5823h-0.80461v-3.1838c0-0.53057-0.03355-0.91694-0.10129-1.1596h0.75345c0.05645 0.13547 0.08475 0.31055 0.08475 0.52504 0.40639-0.42332 0.90025-0.63511 1.4816-0.63511zm-15.816 0.019121c0.18062 0 0.31587 0.011013 0.40618 0.03359v0.68575c-0.06773-0.016934-0.16367-0.025322-0.28784-0.025322-0.80713 0-1.2103 0.48546-1.2103 1.4563v2.3027h-0.80461v-2.8614c0-0.67733-0.05085-1.1885-0.15245-1.5327h0.71108c0.09595 0.15804 0.14418 0.36144 0.14418 0.60979 0.07902-0.16369 0.23996-0.31624 0.48266-0.45734 0.24835-0.14111 0.48531-0.21136 0.71108-0.21136zm4.2091 0.11627h0.8041v4.0975c0 1.3151-0.68834 1.9898-2.0655 2.0237l-0.08475-0.65216c0.24271-0.01693 0.44296-0.04786 0.601-0.09302 0.15804-0.04515 0.28804-0.10702 0.38964-0.18604 0.1016-0.07337 0.17762-0.18084 0.22841-0.32195 0.0508-0.13547 0.08487-0.28487 0.1018-0.44856s0.02532-0.38124 0.02532-0.65216v-3.7673zm7.3237 0.0093h0.80461v4.3264h-0.80461zm-35.072 0.46819c-0.34995 0-0.65767 0.11008-0.92295 0.33022-0.25964 0.21449-0.42058 0.47974-0.48266 0.79583h2.6924c-0.04515-0.33302-0.18355-0.60404-0.41497-0.81288-0.22577-0.20884-0.51619-0.31316-0.87179-0.31316zm13.456 0c-0.34995 0-0.68336 0.1211-0.99944 0.36381-0.31608 0.23707-0.47388 0.51648-0.47388 0.8382v0.99065c0 0.33866 0.13526 0.6013 0.40618 0.78756 0.27657 0.18062 0.61521 0.27079 1.016 0.27079 0.47977 0 0.84988-0.1494 1.1095-0.44856 0.26529-0.3048 0.39791-0.71158 0.39791-1.2196 0-0.45719-0.13263-0.83518-0.39791-1.1343-0.26528-0.29915-0.6181-0.44856-1.0583-0.44856zm5.1496 0c-0.34995 0-0.65767 0.11008-0.92295 0.33022-0.25964 0.21449-0.42006 0.47974-0.48215 0.79583h2.6924c-0.04515-0.33302-0.18355-0.60404-0.41497-0.81288-0.22577-0.20884-0.51671-0.31316-0.87231-0.31316zm25.862 0c-0.34995 0-0.65767 0.11008-0.92295 0.33022-0.25964 0.21449-0.42058 0.47974-0.48266 0.79583h2.6924c-0.04515-0.33302-0.18355-0.60404-0.41497-0.81288-0.22577-0.20884-0.51619-0.31316-0.87179-0.31316zm4.976 0.022738c-0.43462 0-0.78692 0.1494-1.0578 0.44856-0.26529 0.29915-0.39843 0.67765-0.39843 1.1348 0 0.50799 0.13 0.91426 0.38964 1.2191 0.26529 0.29915 0.638 0.44856 1.1178 0.44856 0.40075 0 0.73627-0.09017 1.0072-0.27079 0.27657-0.18626 0.41497-0.4489 0.41497-0.78756v-0.99065c0-0.31608-0.16094-0.5955-0.48266-0.8382-0.31609-0.24271-0.64635-0.36381-0.99065-0.36381zm-17.625 0.022221c-0.44026 0-0.80146 0.15517-1.0837 0.46561s-0.42322 0.69414-0.42324 1.1514c-1.4e-5 0.45723 0.141 0.84093 0.42324 1.1514 0.28223 0.31044 0.64344 0.46561 1.0837 0.46561s0.79879-0.15517 1.0754-0.46561c0.28222-0.31044 0.42324-0.69414 0.42324-1.1514 0-0.45722-0.14102-0.84092-0.42324-1.1514-0.27657-0.31044-0.63511-0.46561-1.0754-0.46561zm12.571 7.9567h0.50799v2.8784c0.34995-0.57573 0.82963-0.86352 1.4392-0.86352 1.1289 0 1.6935 0.65479 1.6935 1.9642v2.4557h-0.50799v-2.4557c0-1.0273-0.42883-1.5405-1.2868-1.5405-0.33866 0-0.64637 0.14364-0.92295 0.4315-0.27657 0.28786-0.41497 0.60134-0.41497 0.94001v2.6247h-0.50799v-6.4348zm-7.6053 1e-3h0.50799v5.3765c0 0.50799 0.01153 0.86081 0.03411 1.0583h-0.46561c-0.01693-0.22013-0.02532-0.47438-0.02532-0.76224-0.40074 0.58701-0.93706 0.88058-1.6087 0.88058-0.63217 0-1.1291-0.21754-1.4904-0.65216-0.35559-0.44026-0.53331-1.0017-0.53331-1.6847 0-0.63217 0.17509-1.1569 0.52504-1.5746 0.35559-0.41768 0.82948-0.62684 1.4222-0.62684 0.71686 0 1.2616 0.3051 1.634 0.91468v-2.9296zm47.092 0.0031h0.50799v4.0556l2.1503-2.0149 0.50798 0.10129-1.8542 1.7612 2.2014 2.5058-0.49971 0.14418-2.0573-2.3704-0.44855 0.4315v1.8206h-0.50799v-6.4348zm11.25 0h0.50798v4.0556l2.1503-2.0149 0.50798 0.10129-1.8542 1.7612 2.2014 2.5058-0.49971 0.14418-2.0573-2.3704-0.44856 0.4315v1.8206h-0.50798v-6.4348zm-95.133 0.25942c0.47412 0 0.872 0.14679 1.1937 0.44029 0.32737 0.29351 0.49093 0.66882 0.49093 1.126 0 0.30479-0.11271 0.58158-0.33848 0.82993-0.22013 0.2427-0.47438 0.40626-0.76224 0.49093 0.36688 0.07902 0.67198 0.27089 0.91468 0.57568 0.24835 0.29915 0.37208 0.65769 0.37208 1.0754 0 0.54751-0.17195 0.97634-0.51625 1.2868-0.33866 0.30479-0.79317 0.45734-1.3632 0.45734-0.57007 0-1.0241-0.15255-1.3627-0.45734-0.33866-0.31044-0.50798-0.73927-0.50798-1.2868 0-0.42332 0.1211-0.78453 0.36381-1.0837 0.24271-0.29914 0.55042-0.48838 0.92295-0.56741-0.28786-0.08467-0.54473-0.24823-0.77051-0.49093-0.22013-0.24835-0.33022-0.52514-0.33022-0.82993 0-0.45719 0.16094-0.8325 0.48266-1.126 0.32737-0.2935 0.73103-0.44029 1.2108-0.44029zm92.414 0.0083c0.56443 0 1.0273 0.10746 1.3886 0.32195-0.0113 0.02258-0.0448 0.08444-0.10128 0.18604-0.0508 0.09595-0.0875 0.16672-0.11007 0.21188-0.36689-0.19755-0.76216-0.29663-1.1855-0.29663-0.3951 0-0.72222 0.09331-0.98186 0.27957-0.254 0.18627-0.38138 0.4489-0.38138 0.78756 0 0.55879 0.43773 0.99074 1.3126 1.2955 0.28222 0.1016 0.50764 0.19439 0.67697 0.27906 0.17498 0.07902 0.35007 0.18649 0.52504 0.32195 0.17497 0.13547 0.30183 0.30165 0.38086 0.4992 0.079 0.19755 0.11886 0.42925 0.11886 0.69454 0 0.52492-0.19763 0.93958-0.59274 1.2444-0.38946 0.3048-0.87752 0.45734-1.4645 0.45734-0.66603 0-1.2223-0.15517-1.6681-0.46561l0.20309-0.43202c0.41768 0.31609 0.92307 0.4744 1.5157 0.4744 0.44591 0 0.80711-0.10746 1.0837-0.32195 0.27658-0.21448 0.41497-0.51906 0.41497-0.91417 0-0.38382-0.11009-0.67162-0.33022-0.86352-0.22013-0.19755-0.55039-0.36425-0.99065-0.49972-1.1288-0.36689-1.6934-0.93675-1.6934-1.71 0-0.47412 0.18085-0.84995 0.54209-1.1266 0.36124-0.28222 0.80684-0.42324 1.3374-0.42324zm-87.8 0.0036c0.32737 0 0.61517 0.09594 0.86352 0.28784 0.254 0.18627 0.45163 0.43999 0.59274 0.76172 0.14675 0.31608 0.25684 0.66052 0.33022 1.033 0.07337 0.36689 0.11007 0.75059 0.11007 1.1514 0 0.49106-0.06762 0.96235-0.20309 1.4139-0.13546 0.45155-0.35302 0.83843-0.65216 1.1602-0.29351 0.31608-0.64054 0.47388-1.0413 0.47388s-0.75039-0.1578-1.0496-0.47388c-0.29915-0.31609-0.5167-0.69979-0.65216-1.1514-0.13547-0.45154-0.20309-0.92595-0.20309-1.4227 0-0.39511 0.0367-0.77881 0.11007-1.1514 0.07337-0.37256 0.18346-0.71699 0.33022-1.033 0.14675-0.31609 0.347-0.56981 0.601-0.76172s0.5418-0.28784 0.86352-0.28784zm4.6153 0c0.32737 0 0.61517 0.09594 0.86352 0.28784 0.254 0.18627 0.45163 0.43999 0.59274 0.76172 0.14675 0.31608 0.25684 0.66052 0.33022 1.033 0.07337 0.36689 0.11007 0.75059 0.11007 1.1514 0 0.49106-0.06814 0.96235-0.20361 1.4139s-0.3525 0.83843-0.65165 1.1602c-0.29351 0.31608-0.64053 0.47388-1.0413 0.47388-0.40076 0-0.7509-0.1578-1.0501-0.47388-0.29915-0.31609-0.5167-0.69979-0.65216-1.1514-0.13546-0.45154-0.20309-0.92595-0.20309-1.4227 0-0.39511 0.0367-0.77881 0.11007-1.1514 0.07338-0.37252 0.18346-0.71696 0.33022-1.033 0.14675-0.31609 0.34701-0.56981 0.601-0.76172 0.254-0.19191 0.54232-0.28784 0.86404-0.28784zm-19.173 0.07958h4.9615v0.42324h-2.2268v5.639h-0.50799v-5.639h-2.2268v-0.42324zm25.269 0.03101c0.11853 0 0.21447 0.03984 0.28784 0.11886 0.07902 0.07338 0.11834 0.16931 0.11834 0.28784s-0.03932 0.21447-0.11834 0.28784c-0.07337 0.06773-0.16931 0.10129-0.28784 0.10129s-0.21447-0.03355-0.28784-0.10129c-0.06773-0.07338-0.1018-0.16932-0.1018-0.28784 0-0.11853 0.03407-0.21447 0.1018-0.28784 0.07338-0.07902 0.16932-0.11886 0.28784-0.11886zm6.8751 0.0093c0.11853 0 0.21447 0.03932 0.28784 0.11834 0.07902 0.07337 0.11834 0.16931 0.11834 0.28784s-0.03932 0.21447-0.11834 0.28784c-0.07337 0.06773-0.16931 0.1018-0.28784 0.1018s-0.21447-0.03407-0.28784-0.1018c-0.06773-0.07337-0.1018-0.16931-0.1018-0.28784s0.03407-0.21447 0.1018-0.28784c0.07337-0.07902 0.16931-0.11834 0.28784-0.11834zm19.958 0.18966v1.5157h1.3803v0.38086h-1.3803v2.6753c0 0.64346 0.21441 0.96533 0.64338 0.96533 0.26528 0 0.4603-0.02568 0.58447-0.07648l0.05064 0.38138c-0.17497 0.07902-0.40091 0.11834-0.67749 0.11834-0.34995 0-0.6236-0.13001-0.82115-0.38964-0.19191-0.26529-0.28784-0.59818-0.28784-0.99892v-2.6753h-0.86352v-0.38086h0.86352v-1.2873zm25.218 0v1.5157h1.3803v0.38086h-1.3803v2.6753c0 0.64346 0.2144 0.96533 0.64338 0.96533 0.26528 0 0.46029-0.02568 0.58446-0.07648l0.0507 0.38138c-0.17498 0.07902-0.4004 0.11834-0.67697 0.11834-0.34996 0-0.62412-0.13001-0.82167-0.38964-0.1919-0.26529-0.28784-0.59818-0.28784-0.99892v-2.6753h-0.86352v-0.38086h0.86352v-1.2873l0.50799-0.22841zm46.57 0v1.5157h1.3798v0.38086h-1.3798v2.6753c0 0.64346 0.21441 0.96533 0.64338 0.96533 0.26529 0 0.45978-0.02568 0.58395-0.07648l0.0512 0.38138c-0.17497 0.07902-0.40095 0.11834-0.67748 0.11834-0.34996 0-0.6236-0.13001-0.82115-0.38964-0.19191-0.26529-0.28784-0.59818-0.28784-0.99892v-2.6753h-0.86353v-0.38086h0.86353v-1.2873l0.50798-0.22841zm-113.95 0.1018c-0.33866 0-0.62121 0.10432-0.84699 0.31316-0.22577 0.20884-0.33848 0.47409-0.33848 0.79583 0 0.55314 0.39209 0.92586 1.1767 1.1178 0.7902-0.19755 1.1855-0.57027 1.1855-1.1178 0-0.31609-0.11271-0.5782-0.33848-0.78704-0.22577-0.21449-0.50519-0.32195-0.8382-0.32195zm4.6137 0.01189c-0.33302 0-0.60929 0.15255-0.82942 0.45734s-0.37005 0.65761-0.44907 1.0583c-0.07902 0.39511-0.11834 0.82126-0.11834 1.2785 0 0.29351 0.0283 0.58969 0.08475 0.88885 0.05645 0.29915 0.13823 0.58118 0.24547 0.84647s0.25402 0.48284 0.44029 0.65216c0.18626 0.16933 0.39491 0.25373 0.62633 0.25373s0.43744-0.0844 0.61806-0.25373c0.18626-0.16933 0.33305-0.38688 0.44029-0.65216 0.10724-0.27093 0.18902-0.55297 0.24547-0.84647 0.05645-0.29915 0.08475-0.59534 0.08475-0.88885 0-0.32737-0.02517-0.64662-0.07597-0.95706-0.04515-0.31044-0.11854-0.60663-0.22014-0.88885-0.1016-0.28787-0.24838-0.51643-0.44029-0.68576-0.18626-0.17497-0.40382-0.26252-0.65216-0.26252zm4.6153 0c-0.33302 0-0.60981 0.15255-0.82993 0.45734s-0.36953 0.65761-0.44856 1.0583c-0.07902 0.39511-0.11886 0.82126-0.11886 1.2785 0 0.29351 0.0283 0.58969 0.08475 0.88885 0.05644 0.29915 0.13823 0.58118 0.24547 0.84647s0.25402 0.48284 0.44029 0.65216c0.18627 0.16933 0.39543 0.25373 0.62684 0.25373s0.43743-0.0844 0.61806-0.25373c0.18627-0.16933 0.33305-0.38688 0.44029-0.65216 0.10724-0.27093 0.18902-0.55297 0.24547-0.84647 0.05645-0.29915 0.08475-0.59534 0.08475-0.88885 0-0.32737-0.02568-0.64662-0.07648-0.95706-0.04515-0.31044-0.11854-0.60663-0.22014-0.88885-0.1016-0.28787-0.24838-0.51643-0.44029-0.68576-0.18627-0.17497-0.4033-0.26252-0.65165-0.26252zm9.5546 1.3028c0.63781 0 1.16 0.21704 1.5663 0.65165 0.41204 0.43461 0.61806 0.97353 0.61806 1.617v5.17e-4c0 0.64346-0.20602 1.1824-0.61806 1.617-0.40639 0.43461-0.92853 0.65165-1.5663 0.65165-0.64346 0-1.1687-0.21441-1.5751-0.64338-0.40639-0.43462-0.60927-0.97665-0.60927-1.6258 0-0.64346 0.20602-1.1824 0.61806-1.617 0.41204-0.43461 0.93418-0.65165 1.5663-0.65165zm59.149 0c0.63777 0 1.1599 0.21704 1.5663 0.65165 0.41204 0.43461 0.61806 0.97353 0.61806 1.617v5.17e-4c0 0.64346-0.20602 1.1824-0.61806 1.617-0.4064 0.43461-0.92857 0.65165-1.5663 0.65165-0.64346 0-1.1687-0.21441-1.5751-0.64338-0.40639-0.43462-0.60927-0.97665-0.60927-1.6258 0-0.64346 0.20601-1.1824 0.61805-1.617 0.41204-0.43461 0.93418-0.65164 1.5663-0.65165zm-47.334 0.0015c1.2135 0 1.8342 0.76487 1.8624 2.2945h-3.5135c0.01693 0.5475 0.18049 0.98784 0.49093 1.3209 0.31609 0.33302 0.73653 0.4992 1.2614 0.4992 0.49106 0 0.99642-0.1017 1.5157-0.3049l0.04238 0.41497c-0.50234 0.20884-1.0387 0.31316-1.6087 0.31316-0.6491 0-1.1796-0.20026-1.5917-0.601-0.41204-0.40639-0.61806-0.92853-0.61806-1.5663 0-0.683 0.19763-1.2471 0.59274-1.6929 0.40075-0.45154 0.92289-0.67749 1.5663-0.67749zm20.603 0c1.2135 0 1.8348 0.76487 1.863 2.2945h-3.5135c0.01693 0.5475 0.18049 0.98784 0.49093 1.3209 0.31609 0.33302 0.73652 0.4992 1.2614 0.4992 0.49106 0 0.99642-0.1017 1.5157-0.3049l0.04186 0.41497c-0.50235 0.20884-1.0381 0.31316-1.6082 0.31316-0.6491 0-1.1796-0.20026-1.5917-0.601-0.41204-0.40639-0.61806-0.92853-0.61806-1.5663 0-0.683 0.19711-1.2471 0.59222-1.6929 0.40074-0.45154 0.92288-0.67749 1.5663-0.67749zm12.466 0c1.2135 0 1.8342 0.76487 1.8624 2.2945h-3.5135c0.0169 0.5475 0.18101 0.98784 0.49145 1.3209 0.31609 0.33302 0.73653 0.4992 1.2614 0.4992 0.49106 0 0.9959-0.1017 1.5152-0.3049l0.0424 0.41497c-0.50236 0.20884-1.0387 0.31316-1.6087 0.31316-0.64911 0-1.1796-0.20026-1.5916-0.601-0.41204-0.40639-0.61806-0.92853-0.61806-1.5663 0-0.683 0.19763-1.2471 0.59273-1.6929 0.40075-0.45154 0.92288-0.67749 1.5663-0.67749zm46.57 0c1.2135 0 1.8342 0.76487 1.8624 2.2945h-3.5135c0.0169 0.5475 0.18049 0.98784 0.49093 1.3209 0.31609 0.33302 0.73652 0.4992 1.2614 0.4992 0.49106 0 0.99641-0.1017 1.5157-0.3049l0.0424 0.41497c-0.50235 0.20884-1.0387 0.31316-1.6087 0.31316-0.6491 0-1.1796-0.20026-1.5916-0.601-0.41204-0.40639-0.61806-0.92853-0.61806-1.5663 0-0.683 0.19763-1.2471 0.59274-1.6929 0.40074-0.45154 0.92288-0.67749 1.5663-0.67749zm-27.367 1e-3c0.079 0 0.1608 0.0084 0.24547 0.02532v0.41497c-0.0339-0.01129-0.0847-0.01705-0.15245-0.01705-0.37252 0-0.68863 0.15255-0.94827 0.45734-0.254 0.29915-0.38086 0.70281-0.38086 1.2108v2.3281h-0.50799v-2.9125c0-0.63781-0.0425-1.1091-0.12712-1.4139h0.43202c0.0903 0.18062 0.13539 0.46842 0.13539 0.86352 0.27093-0.63781 0.70554-0.95654 1.3038-0.95654zm-57.133 0.01654c1.1289 0 1.6935 0.65478 1.6935 1.9642v2.4557h-0.50798v-2.4557c0-1.0273-0.42883-1.5405-1.2868-1.5405-0.33866 0-0.64637 0.14364-0.92295 0.4315-0.27657 0.28786-0.41497 0.60135-0.41497 0.94001v2.6247h-0.50798v-3.2598c0-0.254-0.0283-0.60942-0.08475-1.0666h0.4744c0.05645 0.17497 0.09052 0.43184 0.1018 0.7705 0.32737-0.57573 0.81232-0.86404 1.4557-0.86404zm33.072 0c1.1289 0 1.6935 0.65478 1.6935 1.9642v2.4557h-0.50799v-2.4557c0-1.0273-0.42934-1.5405-1.2873-1.5405-0.33866 0-0.64586 0.14364-0.92244 0.4315-0.27657 0.28786-0.41497 0.60135-0.41497 0.94001v2.6247h-0.50798v-3.2598c0-0.254-0.0283-0.60942-0.08475-1.0666h0.47388c0.05645 0.17497 0.09052 0.43184 0.1018 0.7705 0.32737-0.57573 0.81284-0.86404 1.4563-0.86404zm46.563 0c1.1289 0 1.6929 0.65478 1.6929 1.9642v2.4557h-0.50799v-2.4557c0-1.0273-0.42882-1.5405-1.2868-1.5405-0.33866 0-0.64638 0.14364-0.92295 0.4315s-0.41497 0.60135-0.41497 0.94001v2.6247h-0.50798v-3.2598c0-0.254-0.0278-0.60942-0.0842-1.0666h0.47387c0.0565 0.17497 0.0905 0.43184 0.10181 0.7705 0.32737-0.57573 0.81283-0.86404 1.4563-0.86404zm-36.374 0.08062h0.51677l1.1514 3.7425 1.295-3.7425h0.4744l1.2191 3.7425 1.2614-3.7425h0.49972l-1.5581 4.3264h-0.4315l-1.2449-3.8184-1.3121 3.8184h-0.46561l-1.4056-4.3264zm-53.912 0.0036h0.50799v4.2334c0 1.2925-0.59815 1.953-1.7947 1.9813l-0.05116-0.39791c0.51364-0.04515 0.86378-0.1977 1.0501-0.45734 0.1919-0.25964 0.28784-0.68008 0.28784-1.2614v-4.098zm6.8751 0.0093h0.50798v4.3264h-0.50798zm76.561 0h0.53331l1.617 3.666 1.5157-3.666h0.5421l-1.9053 4.3264c-0.50234 1.1289-1.1681 1.792-1.9978 1.9896l-0.11834-0.39791c0.72246-0.16369 1.2698-0.74246 1.6423-1.7358 0-0.0508-0.0115-0.10165-0.0341-0.15245l-1.7948-4.0298zm-79.74 0.31058c-0.49106 0-0.89472 0.17772-1.2108 0.53331-0.31044 0.35559-0.46561 0.79332-0.46561 1.3126 0 0.51927 0.15518 0.95649 0.46561 1.3121 0.31609 0.35559 0.71975 0.53331 1.2108 0.53331 0.49106 0 0.89154-0.17772 1.202-0.53331 0.31609-0.35559 0.4744-0.79281 0.4744-1.3121 0-0.51927-0.15517-0.957-0.46561-1.3126-0.31044-0.35559-0.7141-0.53331-1.2108-0.53331zm59.149 0c-0.49106 0-0.89473 0.17772-1.2108 0.53331-0.31044 0.35559-0.46561 0.79332-0.46561 1.3126 0 0.51927 0.15517 0.95649 0.46561 1.3121 0.31609 0.35559 0.71975 0.53331 1.2108 0.53331 0.49101 0 0.8916-0.17772 1.202-0.53331 0.31609-0.35559 0.47388-0.79281 0.47388-1.3121 0-0.51927-0.15517-0.957-0.46561-1.3126-0.31044-0.35559-0.71362-0.53331-1.2103-0.53331zm-47.393 0.0015c-0.41769 0-0.76783 0.13839-1.0501 0.41497-0.28222 0.27093-0.45417 0.61484-0.51625 1.0325l2.9802 5.17e-4c-0.01129-0.44026-0.14654-0.79041-0.40618-1.0501-0.254-0.26529-0.59004-0.39791-1.0077-0.39791zm20.603 0c-0.41768 0-0.76783 0.13839-1.0501 0.41497-0.28222 0.27093-0.45417 0.61484-0.51625 1.0325l2.9802 5.17e-4c-0.01129-0.44026-0.14705-0.79041-0.4067-1.0501-0.254-0.26529-0.58952-0.39791-1.0072-0.39791zm12.466 0c-0.41768 0-0.76789 0.13839-1.0501 0.41497-0.28222 0.27093-0.45417 0.61484-0.51626 1.0325l2.9802 5.17e-4c-0.0113-0.44026-0.14703-0.79041-0.4067-1.0501-0.25399-0.26529-0.58951-0.39791-1.0072-0.39791zm46.57 0c-0.41768 0-0.76789 0.13839-1.0501 0.41497-0.28222 0.27093-0.45416 0.61484-0.51625 1.0325l2.9802 5.17e-4c-0.0113-0.44026-0.14704-0.79041-0.4067-1.0501-0.25399-0.26529-0.58951-0.39791-1.0072-0.39791zm-74.929 0.01292c-0.49106 0-0.86904 0.1667-1.1343 0.49972-0.26527 0.33302-0.3979 0.76497-0.39791 1.2955 0 1.2643 0.52792 1.896 1.5834 1.896v5.17e-4c0.41768 0 0.77049-0.13577 1.0583-0.4067 0.28786-0.27657 0.4315-0.61781 0.4315-1.0242v-0.71986c0-0.43461-0.1494-0.79842-0.44856-1.0919-0.29351-0.29915-0.65783-0.44907-1.0925-0.44907zm-35.259 0.95706c-0.39511 0.02258-0.72222 0.17198-0.98186 0.44856-0.254 0.27093-0.38086 0.60382-0.38086 0.99892 0 0.37817 0.12949 0.68589 0.38913 0.92295 0.25964 0.23707 0.58727 0.35554 0.98238 0.35554 0.38946 0 0.71396-0.11847 0.9736-0.35554s0.38913-0.54478 0.38913-0.92295c0-0.38946-0.12949-0.72234-0.38913-0.99892-0.25964-0.27657-0.58728-0.42598-0.98238-0.44856zm-4.7843 0.50385h2.2268v0.42324h-2.2268zm-27.122 9.9592h119.59c2.0521 0 3.7042 1.6521 3.7042 3.7042v5.8209c0 2.0521-1.6521 3.7042-3.7042 3.7042h-119.59c-2.0521 0-3.7042-1.6521-3.7042-3.7042v-5.8209c0-2.0521 1.6521-3.7042 3.7042-3.7042zm131.23 0h119.59c2.0521 0 3.7042 1.6521 3.7042 3.7042v5.8209c0 2.0521-1.6521 3.7042-3.7042 3.7042h-119.59c-2.0521 0-3.7042-1.6521-3.7042-3.7042v-5.8209c0-2.0521 1.6521-3.7042 3.7042-3.7042z"/>
 <path d="m140.23 31.75c-2.0521 0-3.7042 1.6521-3.7042 3.7042v5.8209c0 2.0521 1.6521 3.7042 3.7042 3.7042h119.59c2.0521 0 3.7042-1.6521 3.7042-3.7042v-5.8209c0-2.0521-1.6521-3.7042-3.7042-3.7042zm48.93 2.8991c0.64909 0 1.1796 0.13788 1.5916 0.41445 0.41768 0.27657 0.62633 0.68335 0.62633 1.2196 0 0.77893-0.38897 1.3121-1.1679 1.5999 0.4064 0.22577 0.69944 0.5702 0.88006 1.033 0.18627 0.45719 0.33882 1.0894 0.45735 1.8965h-0.50799c-0.23142-1.8401-0.79861-2.7601-1.7017-2.7601h-1.1602v2.7601h-0.50798v-6.0199c0.49106-0.09595 0.98803-0.14366 1.4904-0.14366zm8.4848 0.11162c0.11854 0 0.21445 0.03932 0.28785 0.11834 0.079 0.07338 0.11834 0.16931 0.11834 0.28784s-0.0393 0.21447-0.11834 0.28784c-0.0734 0.06773-0.16931 0.1018-0.28785 0.1018-0.11853 0-0.21444-0.03407-0.28784-0.1018-0.0677-0.07338-0.1018-0.16932-0.1018-0.28784 0-0.11853 0.0341-0.21447 0.1018-0.28784 0.0734-0.07902 0.16931-0.11834 0.28784-0.11834zm11.314 0.2248v1.5157h1.3798v0.38086h-1.3798v2.6753c0 0.64346 0.21442 0.96533 0.64338 0.96533 0.26529 0 0.45977-0.02568 0.58395-0.07648l0.0512 0.38138c-0.17498 0.07902-0.40091 0.11834-0.67748 0.11834-0.34995 0-0.6236-0.13-0.82115-0.38964-0.19194-0.26529-0.28784-0.59817-0.28784-0.99892v-2.6753h-0.86353v-0.38086h0.86353v-1.2873zm-19.799 0.08682c-0.46848 0-0.7956 0.0283-0.98187 0.08475v2.4717l1.126 5.17e-4c0.47413 0 0.85211-0.10746 1.1343-0.32195 0.28786-0.21449 0.4315-0.53322 0.4315-0.95654 0-0.85233-0.56987-1.2785-1.71-1.2785zm16.805 1.3234c0.52493 0 0.97105 0.10118 1.3379 0.30438l-0.17777 0.42375c-0.31608-0.2032-0.71135-0.3049-1.1855-0.3049-0.53622 0-0.96245 0.16933-1.2785 0.50799-0.31609 0.33866-0.47388 0.78426-0.47388 1.3374 0 0.5475 0.16042 0.99363 0.48215 1.3379 0.32173 0.33866 0.74528 0.50799 1.2702 0.50799 0.47412 0 0.8694-0.1017 1.1855-0.3049l0.17777 0.41497c-0.37253 0.20884-0.81865 0.31316-1.3379 0.31316-0.69993 0-1.2556-0.20288-1.6676-0.60927-0.41204-0.41204-0.61806-0.96564-0.61806-1.6599 0-0.69423 0.20602-1.2441 0.61806-1.6506 0.41204-0.41204 0.96773-0.61806 1.6676-0.61806zm-11.635 0.0067c1.2135 0 1.8348 0.76486 1.863 2.2945h-3.5135c0.0169 0.54751 0.18049 0.98784 0.49093 1.3209 0.31609 0.33302 0.73652 0.4992 1.2614 0.4992 0.49106 0 0.99641-0.10118 1.5157-0.30438l0.0419 0.41445c-0.50234 0.20884-1.0381 0.31368-1.6082 0.31368-0.6491 0-1.1796-0.20078-1.5916-0.60152-0.41204-0.40639-0.61806-0.92853-0.61806-1.5663 0-0.683 0.19711-1.2471 0.59222-1.6929 0.40075-0.45155 0.92289-0.67749 1.5663-0.67749zm6.7201 0c1.2135 0 1.8342 0.76486 1.8624 2.2945h-3.5135c0.0169 0.54751 0.18101 0.98784 0.49145 1.3209 0.31608 0.33302 0.73652 0.4992 1.2614 0.4992 0.49106 0 0.9959-0.10118 1.5152-0.30438l0.0424 0.41445c-0.50235 0.20884-1.0386 0.31368-1.6087 0.31368-0.6491 0-1.1796-0.20078-1.5916-0.60152-0.41204-0.40639-0.61806-0.92853-0.61806-1.5663 0-0.683 0.19763-1.2471 0.59274-1.6929 0.40074-0.45155 0.92288-0.67749 1.5663-0.67749zm-3.6432 0.077h0.50798v4.2334c0 1.2925-0.59814 1.953-1.7947 1.9813l-0.0507-0.39843c0.51364-0.04515 0.86328-0.19719 1.0496-0.45683 0.19195-0.25964 0.28785-0.68008 0.28785-1.2614zm-3.1358 0.34624c-0.41768 0-0.76789 0.1384-1.0501 0.41497-0.28222 0.27093-0.45415 0.61536-0.51625 1.033h2.9802c-0.0113-0.44026-0.14704-0.7904-0.4067-1.0501-0.254-0.26529-0.58952-0.39791-1.0072-0.39791zm6.7196 0c-0.41768 0-0.76737 0.1384-1.0496 0.41497-0.28222 0.27093-0.45415 0.61536-0.51625 1.033h2.9797c-0.0113-0.44026-0.14652-0.7904-0.40619-1.0501-0.25399-0.26529-0.59003-0.39791-1.0077-0.39791z" opacity=".75"/>
 <path d="m8.9959 31.75c-2.0521 0-3.7042 1.6521-3.7042 3.7042v5.8209c0 2.0521 1.6521 3.7042 3.7042 3.7042h119.59c2.0521 0 3.7042-1.6521 3.7042-3.7042v-5.8209c0-2.0521-1.6521-3.7042-3.7042-3.7042zm48.617 2.9001h0.50799l2.2945 6.164h-0.55036l-0.70281-1.9477h-2.6076l-0.68576 1.9477h-0.55036zm0.25374 0.55915-1.1596 3.234h2.3027zm5.2716 1.1865c0.62652 0 1.1204 0.22017 1.4816 0.66043 0.36124 0.43461 0.54209 0.99082 0.54209 1.6681 0 0.63781-0.17823 1.1652-0.53382 1.5829-0.34995 0.41768-0.82124 0.62684-1.4139 0.62684-0.71686 0-1.2616-0.30771-1.634-0.92295v2.9296h-0.50798v-5.3765c0-0.53057-0.01101-0.88911-0.03359-1.0754h0.46561c0.01692 0.22013 0.02532 0.48277 0.02532 0.78756 0.40075-0.58701 0.93706-0.88058 1.6087-0.88058zm5.1109 0c0.62652 0 1.1204 0.22017 1.4816 0.66043 0.36124 0.43461 0.54209 0.99082 0.54209 1.6681 0 0.63781-0.17772 1.1652-0.53331 1.5829-0.34995 0.41768-0.82124 0.62684-1.4139 0.62684-0.71687 0-1.2616-0.30771-1.634-0.92295v2.9296h-0.50799v-5.3765c0-0.53057-0.01153-0.88911-0.03411-1.0754h0.46561c0.01692 0.22013 0.02532 0.48277 0.02532 0.78756 0.40075-0.58701 0.93706-0.88058 1.6087-0.88058zm7.6766 0.0062c0.63781 0 1.1599 0.21704 1.5663 0.65165 0.41204 0.43461 0.61806 0.97404 0.61806 1.6175s-0.20602 1.1824-0.61806 1.617c-0.40639 0.43461-0.92853 0.65165-1.5663 0.65165-0.64346 0-1.1682-0.21441-1.5746-0.64338-0.40639-0.43462-0.60979-0.97613-0.60979-1.6252 0-0.64346 0.20602-1.1829 0.61806-1.6175 0.41204-0.43461 0.93417-0.65165 1.5663-0.65165zm9.3654 5.17e-4c1.2135 0 1.8342 0.76486 1.8624 2.2945h-3.5135c0.01693 0.54751 0.18101 0.98784 0.49145 1.3209 0.31609 0.33302 0.73652 0.4992 1.2614 0.4992 0.49106 0 0.9959-0.10118 1.5152-0.30438l0.04238 0.41445c-0.50235 0.20884-1.0387 0.31368-1.6087 0.31368-0.6491 0-1.1796-0.20078-1.5917-0.60152-0.41204-0.40639-0.61806-0.92853-0.61806-1.5663 0-0.683 0.19763-1.2471 0.59274-1.6929 0.40075-0.45155 0.92289-0.67749 1.5663-0.67749zm-12.255 0.0021c0.07902 0 0.1608 0.0084 0.24547 0.02532l5.17e-4 0.41497c-0.03387-0.01125-0.08472-0.01705-0.15245-0.01705-0.37252 0-0.68863 0.15255-0.94827 0.45734-0.254 0.29915-0.38138 0.70281-0.38138 1.2108v2.3281h-0.50799v-2.9125c0-0.63781-0.04194-1.1091-0.12661-1.4139h0.4315c0.0903 0.18062 0.13539 0.46894 0.13539 0.86404 0.27093-0.63781 0.70555-0.95706 1.3038-0.95706zm5.4592 0.09612h0.50798l1.5999 3.7931 1.6428-3.7931h0.50798l-1.9472 4.3264h-0.44029zm-15.425 0.31833c-0.41768 0-0.7705 0.13576-1.0583 0.4067-0.28787 0.27093-0.43202 0.60957-0.43202 1.016v0.72813c0 0.42897 0.14992 0.79278 0.44907 1.0919 0.29915 0.29915 0.66296 0.44907 1.0919 0.44907 0.49106 0 0.86956-0.16356 1.1348-0.49093 0.26529-0.32737 0.39791-0.76244 0.39791-1.3043 0-0.58701-0.13263-1.0499-0.39791-1.3886-0.25964-0.33866-0.65491-0.50799-1.1855-0.50799zm5.1109 0c-0.41769 0-0.7705 0.13576-1.0583 0.4067-0.28786 0.27093-0.4315 0.60957-0.4315 1.016v0.72813c0 0.42897 0.1494 0.79278 0.44856 1.0919 0.29915 0.29915 0.66347 0.44907 1.0925 0.44907 0.49106 0 0.86904-0.16356 1.1343-0.49093 0.26528-0.32737 0.39791-0.76244 0.39791-1.3043 0-0.58701-0.13263-1.0499-0.39791-1.3886-0.25964-0.33866-0.65491-0.50799-1.1855-0.50799zm7.7443 0.0062c-0.49106 0-0.8942 0.17771-1.2103 0.53331-0.31044 0.35559-0.46613 0.79332-0.46613 1.3126 0 0.51927 0.15569 0.95649 0.46613 1.3121 0.31608 0.35559 0.71923 0.53331 1.2103 0.53331 0.49106 0 0.89205-0.17772 1.2025-0.53331 0.31609-0.35559 0.47388-0.79281 0.47388-1.3121 0-0.51927-0.15517-0.957-0.46561-1.3126-0.31044-0.35559-0.7141-0.53331-1.2108-0.53331zm9.306 5.16e-4c-0.41768 0-0.76732 0.1384-1.0496 0.41497-0.28222 0.27093-0.45468 0.61536-0.51677 1.033h2.9802c-0.01129-0.44026-0.14654-0.7904-0.40618-1.0501-0.254-0.26529-0.59004-0.39791-1.0077-0.39791z" opacity=".75"/>
 <path d="m257.44 5.8204a6.0855 6.0855 0 0 0-6.0855 6.0855 6.0855 6.0855 0 0 0 6.0855 6.0855 6.0855 6.0855 0 0 0 6.0855-6.0855 6.0855 6.0855 0 0 0-6.0855-6.0855zm-2.0578 3.2324c0.20291 7e-6 0.40575 0.07759 0.56122 0.23306l1.4966 1.4966 1.4966-1.4966c0.31095-0.31094 0.81148-0.31095 1.1224 0 0.31094 0.31094 0.31094 0.812 0 1.1229l-1.4966 1.4961 1.4971 1.4971c0.31094 0.31094 0.31094 0.81148 0 1.1224-0.31095 0.31094-0.812 0.31094-1.123 0l-1.4966-1.4966-1.4966 1.4966c-0.31095 0.31094-0.812 0.31094-1.123 0-0.31095-0.31095-0.31095-0.81148 0-1.1224l1.4966-1.4966-1.4966-1.4966c-0.31094-0.31094-0.31094-0.812 0-1.1229 0.15548-0.15548 0.35884-0.23306 0.56173-0.23306z" opacity=".75"/>
</svg>
