<svg viewBox="0 0 48 48" width="48" height="48">
 <path d="m24.028 0.9267c-2.051 5.0277-3.288 8.3165-5.571 13.194 1.4 1.484 3.118 3.212 5.909 5.164-3-1.235-5.047-2.474-6.576-3.76-2.922 6.097-7.5 14.782-16.79 31.475 7.3018-4.215 12.962-6.814 18.237-7.806-0.227-0.974-0.355-2.028-0.347-3.128l0.0087-0.23392c0.11586-4.678 2.5494-8.2755 5.4321-8.0312 2.8827 0.24425 5.1235 4.2368 5.0076 8.9149-0.0218 0.88026-0.12108 1.7271-0.29456 2.5125 5.2178 1.0207 10.817 3.6129 18.02 7.7713-1.4203-2.6148-2.688-4.9719-3.8986-7.2168-1.9069-1.478-3.896-3.4016-7.9532-5.4841 2.7887 0.72463 4.7854 1.5607 6.3418 2.4951-12.308-22.917-13.305-25.962-17.526-35.867z"/>
</svg>
