<svg viewBox="0 0 267 267">
 <path d="m133.5 0.375c-73.493 0-133.07 59.556-133.12 133.04l-0.005 103.01c0.03955 16.69 13.571 30.19 30.266 30.19h102.91c73.5-0.02 133.07-59.61 133.07-133.11 0-73.529-59.6-133.14-133.12-133.14zm39.09 31.521c34.31 0 62.45 28.138 62.45 62.45 0 34.314-28.14 62.454-62.45 62.454h-32.98v33.08c0 28.05-18.49 51.78-43.948 59.68-0.034 0.01-0.069 0.02-0.103 0.03-0.017 0.01-0.034 0.01-0.051 0.01-0.904 0.28-1.818 0.54-2.738 0.78-0.01 0-0.02 0.01-0.03 0.01-0.014 0-0.029 0-0.043 0.01-4.983 1.29-10.199 1.99-15.57 1.99-34.313 0-62.451-28.14-62.451-62.45s28.139-62.45 62.451-62.45h32.973v-33.078c0-28.055 18.5-51.792 43.96-59.685 0.03-0.008 0.05-0.014 0.07-0.022 0.92-0.286 1.85-0.545 2.78-0.789 0.05-0.012 0.09-0.021 0.14-0.033 4.97-1.289 10.18-1.987 15.54-1.987zm-18.46 2.809c0.83-0.256 1.67-0.491 2.52-0.713-0.85 0.222-1.68 0.457-2.52 0.713zm-58.622 214.9c-0.812 0.25-1.634 0.48-2.459 0.7 0.826-0.22 1.646-0.45 2.459-0.7zm77.072-217.67c-0.98 0-1.95 0.029-2.92 0.074 0.97-0.045 1.94-0.074 2.92-0.074zm-3.71 0.119c-0.7 0.041-1.4 0.094-2.09 0.158 0.69-0.064 1.39-0.117 2.09-0.158zm-3.03 0.248c-0.91 0.098-1.82 0.21-2.73 0.347 0.91-0.137 1.82-0.249 2.73-0.347zm-2.97 0.388c-0.85 0.134-1.7 0.288-2.55 0.456 0.85-0.168 1.7-0.322 2.55-0.456zm-3.43 0.643c-0.63 0.135-1.26 0.28-1.88 0.434 0.62-0.154 1.25-0.299 1.88-0.434zm39.21 11.168c0.25 0.785 0.43 1.594 0.51 2.42-0.08-0.826-0.26-1.635-0.51-2.42zm-26.07 16.934c-18.19 0-32.94 14.736-32.97 32.927v28.659c0 2.29 1.66 4.19 3.85 4.57h29.13c18.5 0 33.23-14.74 33.23-33.244 0-15.982-10.98-29.137-25.9-32.434-1.85-0.225-3.84-0.478-7.34-0.478zm9.37 0.697c0.19 0.016 0.39 0.03 0.58 0.043-0.19-0.013-0.39-0.027-0.58-0.043zm1.16 0.078c0.43 0.02 0.88 0.033 1.37 0.033-0.49 0-0.94-0.014-1.37-0.033zm-105.98 94.491c-18.509 0-33.24 14.73-33.24 33.24 0 15.98 10.989 29.14 25.906 32.44 1.846 0.22 3.842 0.47 7.334 0.47 18.192 0 32.943-14.73 32.983-32.92v-28.66c0-2.29-1.67-4.19-3.86-4.57h-29.123zm-11.895 65.35c0.491 0 0.939 0.01 1.368 0.03-0.429-0.02-0.879-0.03-1.368-0.03zm-1.623 0.07c-1.057 0.09-2.065 0.27-3.019 0.53 0.954-0.26 1.962-0.44 3.019-0.53zm3.745 0.01c0.121 0.01 0.246 0.01 0.365 0.02-0.118-0.01-0.245-0.01-0.365-0.02zm24.824 28.39c-0.63 0.15-1.263 0.3-1.901 0.44 0.638-0.14 1.271-0.29 1.901-0.44zm-2.799 0.63c-0.9 0.18-1.804 0.34-2.717 0.48 0.913-0.14 1.817-0.3 2.717-0.48zm-2.76 0.49c-0.914 0.14-1.837 0.25-2.764 0.35 0.927-0.1 1.85-0.21 2.764-0.35zm-3.668 0.44c-0.702 0.06-1.407 0.11-2.115 0.16 0.708-0.05 1.413-0.1 2.115-0.16zm-2.896 0.2c-0.971 0.05-1.946 0.08-2.928 0.08 0.982 0 1.956-0.03 2.928-0.08z"/>
 <path opacity=".6" d="m172.59 31.896c-6.4415 0-12.664 0.99211-18.525 2.8301 5.8529-1.8145 12.074-2.793 18.523-2.793 5.2349 0 8.9569 0.59073 13.803 1.8574 7.066 1.8491 12.842 7.6423 12.844 14.381 0 8.1451-5.9121 14.07-14.75 14.07-1.8212-0.000001-3.1481-0.15818-4.5586-0.33008 14.915 3.2959 25.902 16.451 25.902 32.434 0 18.508-14.731 33.24-33.238 33.24h-29.125c0.26168 0.0455 0.52802 0.0801 0.80273 0.0801l21.666 0.004c8.0721 0 14.594 6.437 14.594 14.531 0.004 8.1446-6.5888 14.557-14.748 14.557h-26.168v0.0391h32.979c34.313 0 62.449-28.139 62.449-62.451s-28.137-62.449-62.449-62.449zm-95.459 95.596c-34.312 0-62.451 28.136-62.451 62.449s28.138 62.451 62.451 62.451c6.4454 0 12.671-0.99385 18.535-2.834-5.8564 1.8169-12.082 2.7969-18.535 2.7969-5.2349 0-8.9569-0.59073-13.803-1.8574-7.066-1.8491-12.839-7.6423-12.842-14.381 0-8.1451 5.9121-14.07 14.75-14.07 1.8229 0 3.149 0.1584 4.5606 0.33007-14.916-3.2957-25.906-16.453-25.906-32.436 0-18.508 14.732-33.238 33.24-33.238h29.123c-0.26168-0.0455-0.52802-0.0801-0.80273-0.0801l-21.664-0.004c-8.0721 0-14.596-6.439-14.596-14.533-0.004-8.1446 6.5907-14.557 14.75-14.557h26.166v-0.0371h-32.977z"/>
</svg>
