<svg viewBox="0 0 61.508 59.106">
 <path d="m28.45 14.209a14.204 14.204 0 01-14.204 14.204 14.204 14.204 0 01-14.204-14.204 14.204 14.204 0 0114.204-14.204 14.204 14.204 0 0114.204 14.204z"/>
 <path d="m8.4264 34.12h11.631c3.6819 0 6.646 2.9641 6.646 6.646v11.631c0 3.6819-2.9641 6.646-6.646 6.646h-11.631c-3.6819 0-6.646-2.9641-6.646-6.646v-11.631c0-3.6819 2.9641-6.646 6.646-6.646z"/>
 <path d="m40.303.3457a4.0377 4.0377 0 00-4.0371 4.0371v19.869a4.0377 4.0377 0 006.0566 3.498l17.207-9.9355a4.0377 4.0377 0 000-6.9922v-.001954l-2.5469-1.4707-14.66-8.4629a4.0377 4.0377 0 00-2.0195-.54102z"/>
 <path d="m58.675 46.648c0 1.3807-1.1115 2.4923-2.4923 2.4923h-19.938c-1.3807 0-2.4923-1.1115-2.4923-2.4923 0-1.3807 1.1115-2.4923 2.4923-2.4923h19.938c1.3807 0 2.4923 1.1115 2.4923 2.4923zm-12.461-12.461c1.3807 0 2.4923 1.1115 2.4923 2.4923v19.938c0 1.3807-1.1115 2.4923-2.4923 2.4923-1.3807 0-2.4923-1.1115-2.4923-2.4923v-19.938c0-1.3807 1.1115-2.4923 2.4923-2.4923z"/>
</svg>
