<svg width="90" height="28" version="1.1" viewBox="0 0 23.812 7.4083" xmlns="http://www.w3.org/2000/svg">
 <defs>
  <clipPath id="a">
   <path d="m0 500h500v-500h-500z"/>
  </clipPath>
 </defs>
 <g transform="translate(0 -289.59)">
  <g transform="matrix(.35278 0 0 -.35278 -90.283 309.68)">
   <g clip-path="url(#a)">
    <g transform="translate(250.24 42.339)">
     <path d="m67.385 2.458 3.478 3.375h-2.367l-2.703-2.554v6.04h-1.932v-10.658h1.932v2.901l2.717-2.901h2.377zm-6.746-3.797h1.932v7.172h-1.932zm.955 10.762c-.698 0-1.229-.548-1.229-1.243 0-.697.531-1.23 1.229-1.23.695 0 1.236.533 1.236 1.23 0 .695-.541 1.243-1.236 1.243m-3.852-7.172c0 1.095-.711 1.976-1.849 1.976-1.096 0-1.844-.844-1.844-1.976 0-1.133.748-1.977 1.844-1.977 1.138 0 1.849.881 1.849 1.977m1.985 0c0-2.154-1.497-3.775-3.473-3.775-.961 0-1.643.378-2.109.932v-3.708h-1.924v10.133h1.886v-.792c.467.585 1.155.984 2.139.984 1.984 0 3.481-1.621 3.481-3.774m-10.286.673c-.177.918-.734 1.436-1.562 1.436-.91 0-1.443-.547-1.613-1.436zm1.94-.666c0-.222-.016-.488-.037-.652h-5.086c.207-1.036.933-1.487 1.844-1.487.621 0 1.294.252 1.812.689l1.133-1.244c-.815-.748-1.85-1.088-3.057-1.088-2.199 0-3.722 1.496-3.722 3.753s1.48 3.796 3.627 3.796c2.064 0 3.478-1.532 3.486-3.767m-9.594.666c-.178.918-.732 1.436-1.56 1.436-.911 0-1.444-.547-1.614-1.436zm1.94-.666c0-.222-.016-.488-.038-.652h-5.084c.208-1.036.932-1.487 1.842-1.487.623 0 1.295.252 1.815.689l1.133-1.244c-.815-.748-1.852-1.088-3.057-1.088-2.199 0-3.725 1.496-3.725 3.753s1.481 3.796 3.627 3.796c2.065 0 3.479-1.532 3.487-3.767m-7.743 3.767c-.88 0-1.568-.303-2.019-.976v.784h-1.873v-7.172h1.931v3.908c0 1.066.616 1.614 1.51 1.614.168 0 .35-.017.526-.046l1.021 1.551c-.248.209-.682.337-1.096.337m-6.853.674c0 .666.293.938.844 1.007.576.071 1.087-.122 1.382-.238v1.728c-.433.187-.947.308-1.589.308-1.674 0-2.569-1.103-2.569-2.782v-.889h-1.34v-1.717h1.34v-5.455h1.932v5.455h2.228v1.717h-2.228zm-9.84-1.61c0 .75-.609 1.36-1.359 1.36s-1.362-.61-1.362-1.36.612-1.36 1.362-1.36 1.359.61 1.359 1.36m-4.248-.419c0 1.02-.83 1.851-1.85 1.851-1.019 0-1.849-.831-1.849-1.851s.83-1.85 1.849-1.85c1.02 0 1.85.83 1.85 1.85m6.342-.53c.025-.192.041-.387.045-.581-1.375-1.202-3.791-1.986-6.672-2.16-2.641-.159-4.674.248-5.348.732-.09.412-.137.836-.137 1.261 0 3.277 2.729 5.943 6.081 5.943 3.058 0 5.652-2.233 6.031-5.195m-6.578-3.496c-.387-.024-.776-.036-1.159-.036-.878 0-1.732.061-2.478.18-.391.062-.846.154-1.27.292 1.047-1.861 3.069-3.125 5.389-3.125 2.856 0 5.262 1.916 5.949 4.503-.681-.449-1.506-.825-2.459-1.122-1.179-.368-2.554-.607-3.972-.692m7.002 8.858c-.309-.038-.536-.304-.53-.608l-.416-.364c-.418.43-.89.813-1.408 1.14l-.404-.642c1.135-.715 2.021-1.726 2.564-2.924l.69.312c-.25.554-.567 1.071-.942 1.545l.403.351c.06-.012.125-.016.189-.007.332.04.566.341.525.672-.039.331-.339.566-.671.525m-9.452-.082c.936.447 1.942.674 2.997.674.496 0 .992-.053 1.474-.158l.16.741c-.535.116-1.084.175-1.634.175-.172 0-.342-.006-.51-.017l-.074.626c.187.149.296.389.265.644-.045.393-.402.674-.795.628-.392-.045-.674-.402-.627-.795.03-.254.19-.461.405-.564l.072-.624c-.713-.116-1.402-.332-2.059-.646zm-1.949-1.399c-.941-.966-1.562-2.167-1.791-3.473l-.748.132c.108.604.289 1.189.539 1.743l-.451.234c-.057-.026-.117-.045-.184-.052-.33-.039-.63.198-.669.529-.038.331.199.631.529.67.31.036.592-.169.66-.466l.465-.241c.305.521.676 1.009 1.107 1.453z"/>
    </g>
   </g>
  </g>
 </g>
</svg>
