<svg viewBox="0 0 594.66 622.5">
 <path d="m243.88 0.0058594c-11.13 0.079107-22.12 1.0729-32.67 3.0019-112.71 20.613-192.01 118.11-198.73 182.36-3.291 31.52 13.697 55.11 23.071 65.53 25.333 28.14 75.819 49.63 108.28 67.45-46.926 40.01-68.454 59.55-89.652 81.81-31.72 33.31-54.043 69.97-54.112 96.23-0.023575 8.46-1.3895 35.44 9.6137 56.73 4.1383 8.01 15.908 34.72 51.369 54.73 22.665 12.79 54.961 17.49 86.571 12.98 97.83-13.96 228.86-96.94 322.35-174.21 59.59-49.25 103.15-96.97 115.73-120.47 10.15-18.96 11.28-52.98 5.39-74.32-16.73-60.63-152.69-184.81-263.87-234.8-25.48-11.448-54.88-17.226-83.34-17.024zm-0.19 1.748c30.38-0.4234 60.43 6.6505 86.73 19.574 89.8 44.126 241.46 168.13 252.65 230.5 13.84 77.08-257.62 285.77-422.75 318.34-64.069 12.58-118.7 16.01-143.63-51.65-21.602-58.66 20.304-101.57 81.98-157.94 25.61-23.4 46.04-40.89 76.76-66.84 1.77-1.76-147.99-53.39-152.78-112.65-4.931-60.91 91.49-173.32 214.96-179.15 2.03-0.0959 4.06-0.1579 6.08-0.1861zm1.36 13.496c-5.64-0.083-11.42 0.17-17.39 0.799-60.63 6.39-72.24 14.193-127.17 55.752-18.414 13.928-52.298 47.819-60.98 88.029-3.307 15.31 0.602 28.53 11.631 37.8 35.313 29.69 94.419 53.77 142.9 77.06 14.21 6.82 4.8 19.18-18.1 39.01-57.79 50.03-135.92 110.94-141.38 157.34-2.57 21.87 4.916 51.59 31.46 66.79 31.006 17.77 95.37 6.17 138.35-9.83 62.81-23.39 145.31-75.01 210.81-125.74 68.11-52.76 131.43-119.78 134.57-130.71 3.84-13.42 3.46-25.81-3.96-40.07-11.66-22.38-27.25-39.01-43.98-57.63-44.9-47.34-92.41-88.93-149.26-120.8-35.91-20.146-68.05-37.217-107.5-37.8zm31.87 75.197c7.5 0.04 14.39 0.925 20.04 2.473 36.1 9.89 96.15 52.75 90.79 91.99-7.03 51.5-51.99 72.39-104.14 65.14-30.42-4.23-91.24-38.48-86.65-97.75 3.58-46.33 47.46-62.024 79.96-61.853zm-0.84 54.243c-8.25-0.05-14.95 2.03-18.02 6.78-14.44 22.38-7.87 38.22 5.52 48.34 1.46-3.5 6.91-4.84 13.87-4.71 16.67 0.32 41.96 9.09 41.81 16.96 0.55-0.26 1.03-0.54 1.44-0.85 44.21-33.27-12.23-66.31-44.62-66.52z"/>
</svg>
