<svg viewBox="0 0 256 256">
 <path d="m105.13 2.0021c-4.5254 0.03215-8.9908 0.43611-13.278 1.2202-45.814 8.3784-78.045 48.008-80.775 74.121-1.3394 12.812 5.5656 22.403 9.3755 26.636 10.297 11.44 30.818 20.174 44.012 27.414-19.075 16.264-27.825 24.206-36.441 33.254-12.893 13.539-21.966 28.441-21.994 39.114-0.0097 3.4381-0.56495 14.402 3.9074 23.057 1.6819 3.2546 6.466 14.112 20.879 22.245 9.2122 5.1981 22.339 7.1112 35.188 5.2776 39.764-5.675 93.019-39.401 131.02-70.809 24.22-20.017 41.923-39.416 47.037-48.967 4.1261-7.7062 4.586-21.534 2.1926-30.208-6.7997-24.645-62.065-75.118-107.25-95.434-10.353-4.6546-22.307-7.003-33.872-6.9209zm-0.0778 0.7105c12.346-0.17209 24.564 2.7031 35.253 7.9561 36.497 17.935 98.14 68.337 102.69 93.688 5.6238 31.331-104.71 116.15-171.83 129.39-26.04 5.1117-48.246 6.5061-58.377-20.995-8.7815-23.84 8.2513-41.28 33.32-64.192 10.41-9.5143 18.713-16.624 31.201-27.167 0.71833-0.71834-60.154-21.704-62.102-45.789-2.0021-24.757 37.19-70.448 87.375-72.817 0.82377-0.03876 1.6475-0.06395 2.4705-0.07542zm0.55173 5.4856c-2.2906-0.03387-4.642 0.06914-7.0669 0.32469-24.645 2.5972-29.365 5.7689-51.691 22.661-7.4828 5.6614-21.256 19.436-24.784 35.779-1.344 6.224 0.24494 11.597 4.7274 15.366 14.353 12.067 38.376 21.857 58.084 31.32 5.7726 2.7719 1.9506 7.7984-7.3583 15.857-23.49 20.336-55.248 45.09-57.465 63.953-1.0448 8.8885 1.998 20.966 12.787 27.147 12.603 7.2202 38.765 2.5081 56.234-3.9971 25.528-9.5061 59.061-30.486 85.683-51.109 27.684-21.445 53.424-48.683 54.697-53.125 1.5635-5.4552 1.4082-10.494-1.6092-16.287-4.7384-9.0973-11.073-15.857-17.875-23.424-18.251-19.241-37.562-36.147-60.666-49.103-14.599-8.1865-27.662-15.125-43.696-15.362zm9.6033 38.198c5.7554 0.0046 12.399 1.8145 19.532 5.2633 17.805 8.6082 36.089 31.219-0.15878 44.233-9.8566 3.5388-41.117-8.6916-40.16-25.381 0.93755-16.564 9.0017-24.125 20.786-24.115zm3.0103 14.413c-3.3561-0.02187-6.0773 0.82386-7.3242 2.7555-5.8709 9.0951-3.2018 15.535 2.2434 19.65 0.59311-1.4232 2.8077-1.9697 5.638-1.9156 6.7744 0.12945 17.054 3.6955 16.993 6.8923 0.22223-0.10362 0.41883-0.21783 0.58508-0.34295 17.969-13.523-4.9695-26.953-18.136-27.039z"/>
</svg>
