<svg viewBox="0 0 64 64">
 <path d="m31.996 1.724c-17.14 0-31.04 13.896-31.04 31.044 0 13.712 8.892 25.348 21.228 29.452 1.552 0.284 2.12-0.672 2.12-1.496 0-0.736-0.028-2.688-0.04-5.28-8.636 1.876-10.456-4.16-10.456-4.16-1.412-3.584-3.448-4.54-3.448-4.54-2.82-1.924 0.212-1.888 0.212-1.888 3.116 0.22 4.756 3.2 4.756 3.2 2.768 4.744 7.264 3.372 9.032 2.58 0.284-2.008 1.084-3.372 1.972-4.148-6.892-0.788-14.136-3.448-14.136-15.344 0-3.388 1.208-6.16 3.196-8.328-0.32-0.788-1.388-3.944 0.304-8.216 0 0 2.608-0.836 8.536 3.184 2.476-0.692 5.128-1.036 7.768-1.048 2.636 0.012 5.292 0.356 7.772 1.044 5.928-4.016 8.528-3.184 8.528-3.184 1.692 4.272 0.628 7.428 0.308 8.216 1.988 2.168 3.192 4.94 3.192 8.328 0 11.924-7.256 14.548-14.172 15.316 1.116 0.96 2.108 2.852 2.108 5.748 0 4.148-0.04 7.496-0.04 8.516 0 0.832 0.56 1.796 2.136 1.492 12.324-4.112 21.208-15.74 21.208-29.448 0-17.14-13.9-31.04-31.044-31.04z"/>
</svg>
