<svg viewBox="0 0 136 31" width="136" height="31">
 <path d="m12.779 27.019h9.0509l-11.647-12.651-5.4686 3.868z"/>
 <path d="m12.779 0.0074618h9.0509l-12.437 13.506-4.663 4.74-4.388-4.74z"/>
 <path d="m27.44 1.9832v20.151h3.512v-7.2542c0-2.1302 1.4393-3.8862 3.512-3.8862 1.8711 0 3.2241 1.0939 3.2241 3.6847v7.4557h3.512v-7.4845c0-4.174-1.7848-6.9088-5.8149-6.9088-1.612 0-3.1665 0.48937-4.4331 2.1302v-7.8875h-3.512z"/>
 <path d="m55.279 9.8995c-0.807-1.4106-2.62-2.3029-4.52-2.3029-4.1453-0.028792-7.3981 2.5332-7.3981 7.4269 0 4.9801 3.1089 7.5708 7.3118 7.5421 1.5833-0.02879 3.7998-0.83481 4.6058-2.5044l0.17272 2.0726h3.3104v-14.192h-3.368l-0.11515 1.9575zm-4.2028 0.83481c5.527 0 5.527 8.6072 0 8.6072-2.3317 0-4.2028-1.612-4.2028-4.318 0-2.7059 1.8711-4.2892 4.2028-4.2892z"/>
 <path d="m71.466 8.2874c-0.979-0.6621-2.13-0.806-3.253-0.806-3.9725 0-7.1966 2.7635-7.1966 7.1966s2.7635 7.139 7.1966 7.139c1.756 0 3.5983 0.89238 3.5983 2.8499s-1.5833 3.0514-3.5983 3.0514c-2.0151 0-3.7135-1.209-3.7135-3.0514h-3.4832c0 3.8286 3.0802 6.333 7.1966 6.333 4.1165 0 7.1103-2.4181 7.1103-6.333 0-1.8136-0.57573-3.512-2.9362-4.6922 2.3317-1.0651 2.9938-3.5407 2.9938-5.2967 0-1.5545-0.40301-2.965-1.4969-4.2028l1.582-2.0149-2.59-1.9574-1.411 1.7847zm-3.253 2.3896c2.0151 0 3.6847 1.5545 3.6847 4.0013s-1.6696 3.9437-3.6847 3.9437c-2.0438 0-3.7135-1.4681-3.7135-3.9437s1.6696-4.0013 3.7135-4.0013z"/>
 <path d="m77.734 7.942v7.4557c0 4.4043 2.4756 6.9663 5.8724 6.9663 1.9863 0 3.3392-0.69087 4.8073-2.1302l0.23029 1.9287h3.1377v-14.221h-3.4832v7.2542c0 2.159-1.4681 3.9725-3.6271 3.9725-2.2453 0-3.4256-1.6408-3.4256-3.7998v-7.4269h-3.512z"/>
 <path d="m98.42 7.8844v14.249h-3.512v-14.249h3.512zm-3.8286-3.9437c0 2.7347 4.1453 2.7347 4.1453 0s-4.1453-2.7347-4.1453 0z"/>
 <path d="m111.41 18.017c-0.86359 0.8636-1.9863 1.1802-3.1089 1.1802-2.1878 0-4.0301-1.4393-4.0301-4.1453 0-2.4756 1.7272-4.2028 4.0877-4.2028 0.97873 0 2.015 0.37422 2.8499 1.1227l2.2166-2.3317c-1.5545-1.5257-3.1089-2.1014-5.124-2.1014-4.1165 0-7.5421 2.4756-7.5421 7.5133 0 5.0376 3.4256 7.5133 7.5421 7.5133 2.1014 0 3.8286-0.6333 5.4694-2.2453l-2.3605-2.3029z"/>
 <path d="m115.32 1.9832v20.151h3.512v-7.2542c0-2.1302 1.4393-3.8862 3.512-3.8862 1.8711 0 3.2241 1.0939 3.2241 3.6847v7.4557h3.512v-7.4845c0-4.174-1.7848-6.9088-5.8149-6.9088-1.612 0-3.1665 0.48937-4.4331 2.1302v-7.8875h-3.512z"/>
 <path d="m135.53 7.8844v14.249h-3.512v-14.249h3.512zm-3.8286-3.9437c0 2.7347 4.1453 2.7347 4.1453 0s-4.1453-2.7347-4.1453 0z"/>
</svg>
