<svg viewBox="0 0 227.28 93.663">
 <g transform="translate(0 -203.34)">
  <path d="m206.13 204.88c-2.1167 0-3.4131.55531-3.8365 1.6666-.0265.0529-.0262.10625-.0527.15917l-.0269.0527c-.0794.29104-.0793.58218-.0264.89968.18521 1.3494.37052 3.7834-.0264 4.7889l-18.304 47.544c-.0197.0193-.0376.034-.0579.0548-2.0902 2.1696-9.2076 8.6518-14.393 10.61-14.235 5.3181 3.8895-18.891 5.3976-20.822 3.3602-4.2333 10.874-11.563 13.123-15.267 1.6404-2.8046 1.561-5.0007-2.249-5.0007-2.884.0794-8.1224 2.0902-10.53 3.9688-.55563.55562-.3175.84707.39687.55603.47625-.15875 1.0055-.47666 1.5612-.68833 2.7252-1.4817 1.6401 1.6408 1.0051 2.805-3.2808 5.715-9.0485 13.732-12.091 17.727-1.4552 1.9579-3.0958 3.9157-4.7098 5.5826-2.9369 2.7781-8.7312 7.7259-13.097 9.3664-14.235 5.3181 3.8895-18.892 5.3976-20.823 3.3602-4.2069 10.848-11.536 13.097-15.214 1.6404-2.8046 1.561-5.0007-2.249-5.0007-2.884.0794-8.1229 2.0902-10.531 3.9688-.55562.55563-.3175.84708.39688.55604.47625-.15875 1.0055-.47666 1.5611-.68833 2.7252-1.4817 1.6406 1.6408 1.0056 2.805-3.2808 5.715-9.0491 13.732-12.092 17.727-2.4871 3.3338-5.5559 6.72-7.8843 8.5721-.92604.76729-.39697 1.482.55553.84697.84666-.55562 2.09-1.7993 3.4923-3.2809-2.5665 5.1594-4.7095 12.409 2.0903 13.256 5.7944.79375 12.674-5.133 17.119-9.4986.47625-.47625 1.0319-1.0054 1.5875-1.5875l.39688-.39688c-2.5665 5.1594-4.6831 12.382 2.1167 13.229 6.549.88562 14.463-6.7378 18.699-11.065l-7.2957 18.95-.34416.89968.0532.0264c-1.4288 5.2388 1.3227 10.901 6.535 12.885 1.2435.47625 2.5399.71468 3.8628.71468 4.1275 0 7.8051-2.3021 9.6836-5.9004l.0532.0264 26.802-69.744c.29104-.79375 2.0108-2.54 3.175-3.5719.23812-.18521.42374-.39687.55603-.66146l.0264-.0527.0791-.15864c.50271-1.3229-.39677-2.8577-2.6722-4.5775-1.9315-1.4552-4.683-2.9105-7.6993-4.0747-3.5983-1.3758-7.1173-2.1694-9.6573-2.1694zm-.0527 1.8521c2.2754 0 5.6621.76698 8.9958 2.0634 2.884 1.1112 5.4501 2.4607 7.2228 3.8101 1.8521 1.4288 2.0904 2.2493 2.064 2.4345l-.0264.0264c0 .0264-.0267.0526-.0796.0791l-.0527.0532c-.52916.47625-3.1485 2.8307-3.7042 4.3124l-26.353 68.501-.10542.23823c-1.3494 3.4396-4.604 5.6358-8.2817 5.6358-1.0848 0-2.1431-.18552-3.175-.5824-4.5508-1.7462-6.8527-6.879-5.1594-11.43l.0796-.18552 26.352-68.58c.68791-1.8256.18521-5.3444.13229-5.7412v-.15922c.0794-.15875.58219-.47594 2.0903-.47594zm2.5187 1.9167a7.3552 1.9314 21.04 0 0-1.5906.55656 7.3552 1.9314 21.04 0 0 6.1717 4.4431 7.3552 1.9314 21.04 0 0 7.5582.83819 7.3552 1.9314 21.04 0 0-6.1717-4.4431 7.3552 1.9314 21.04 0 0-5.9676-1.3948zm-91.17 13.217c-3.0996-.0121-7.3745 1.7489-12.049 6.0327-9.2075 8.5196-15.24 17.41-20.452 28.946-1.7992 2.1696-3.122 3.9683-4.7889 5.3971-.18521.15875-.34416.34406-.47646.50281-4.4979 3.8629-11.589 9.0751-16.007 9.1545-3.1221.0794-4.4448-2.2489-3.8892-5.318.84667-4.7625 5.7941-10.372 10.001-12.329 5.4769-2.4871 8.6782 2.3282 1.4816 6.2441-2.7252 1.4023-6.0322 2.1699-7.3551 2.1699-1.561 0-1.4025.6349-.07958.68782 2.1696.0794 5.7151-.84677 8.0434-1.958 7.3554-3.4925 7.8053-10.054-.15865-10.292-8.6783-.3175-19.05 7.1173-18.971 16.404.07938 4.2069 3.4397 6.4823 8.0434 6.4823 7.6729-.0794 14.526-5.9265 20.108-11.033.79375-.66146 1.5876-1.4026 2.3549-2.1699-1.9579 5.0006-2.9634 9.6047-2.4872 13.018.3175 2.4871 1.7197 3.6514 2.8045 4.6038.23812.15875.68792-2e-4.39688-.47645-1.6404-1.9579-1.1638-7.7524 1.0852-13.335 1.8785 3.7042 9.2072 8.4667 16.88 6.7469 2.249-.55563 4.1274-1.799 4.1274-3.7569 0-.18521-.39687-.18521-.39687 0 0 1.1642-1.3228 2.1168-2.8045 2.3549-3.4925.55563-10.451-3.5719-13.732-7.8052 3.4925 1.3229 10.689-.60865 14.076-3.0164 3.1221-2.249 4.3656-4.7628 4.6302-6.8001.39687-3.3338-3.2807-5.318-8.3607-3.3336-3.2808 1.3229-7.1967 4.2071-11.245 9.6046 4.2862-7.1173 12.726-18.653 21.008-26.061 10.081-8.9694 15.928-7.2496 6.8792 2.249-3.7306 3.8894-10.768 8.9692-15.637 11.165-1.4817.635-.76698 1.4819.31781 1.0056 5.1594-2.249 12.012-6.9585 16.166-10.848 8.0392-7.7267 6.4043-14.212.48679-14.235zm93.969 16.246s-3.6514 4.2068-6.9851 5.7149c-3.3338 1.5081-5.7942 1.1115-8.784 2.8577s-4.4979 4.1801-4.4979 4.1801l-12.171 31.671c-1.3229 3.5719.6349 7.7522 4.2597 9.1545s7.7258-.44969 9.1281-3.9951zm-154.78 2.4846c-1.0995-.0345-2.4072.56823-3.3895 1.696-1.5081 1.6669-1.7726 3.6773-.55552 4.6033 1.1642.92605 3.281.39729 4.7098-1.1638 1.4817-1.6404 1.7197-3.7309.55552-4.6834-.3638-.28939-.82056-.43651-1.3203-.45217zm85.608 2.3182c-.38298-.0148-.80553.036-1.2619.17157-1.6404.47625-3.2015 3.5715-4.3656 6.3231-3.5719 5.3975-9.6041 12.7-13.837 16.536-3.7306 3.2015-7.197 4.0485-2.9636-1.9575 1.7198-2.4077 3.8894-5.001 5.1594-7.5675 2.9633-6.4823-3.3598-9.366-8.4398-5.4767-2.9633 2.249-6.959 6.9585-10.081 9.525-.84667.68791-.6349 1.72.23822 1.0056 2.4871-2.0108 6.8791-6.6412 10.61-9.3664 3.1221-2.4077 4.3659-.84656 2.5668 1.1643-2.4871 2.884-6.8791 7.8842-7.9639 11.086-1.561 4.7625.31709 6.8792 3.4127 6.8792 4.2862 0 10.689-6.72 15.002-12.012 1.4023-1.7992 2.9631-3.8895 4.286-5.9268-3.7306 7.2496-7.6463 14.605-12.488 21.219-6.8792 9.3662-15.478 16.404-23.601 16.404-5.8738 0-10.927-3.9685-12.012-9.8423-.0794-.635-.84677-.7676-.76739.0791 1.3229 8.0433 7.514 11.139 15.002 11.139 8.2021 0 16.087-4.7629 21.617-10.61 11.165-11.8 12.515-25.056 15.928-32.464 1.614-3.2544 3.0955-3.4133 4.2597-3.2546 3.1254.34727 2.3816-2.9516-.29921-3.0551zm-92.837 7.0151c-.06322.00079-.12402.004-.1819.009-.3175 0-.84667.55573-.39688.7674.635.23812.92604.76739.92604 1.5611-.55562 3.2015-4.5243 6.879-6.1118 8.1225-.39688.39688.15865 1.2436.55552.92605.84667-.68792 2.6457-2.0902 4.1274-3.9688-2.4077 5.3975-7.1171 12.33-8.9163 14.764-7.0379 9.7631-17.727 18.733-25.083 18.733-5.8737 0-10.848-3.9691-11.933-9.8428-.07938-.635-.92614-.76709-.7674.0796 1.3229 8.0433 7.514 11.139 15.002 11.139 8.2021 0 17.833-5.9532 23.125-12.012 8.5725-9.8425 14.155-21.14 12.647-27.543-.5457-2.2572-2.0448-2.7472-2.9931-2.7342zm145.16 1.1916c.30138-.004.58426.1602.70332.45786.15875.39687 0 .84636-.39688 1.0051-.39687.15875-.84687 0-1.0056-.39688-.15875-.39687.0265-.84636.39688-1.0051.0992-.0397.20184-.0597.3023-.061zm-94.913.31575c3.3513.006 3.6856 4.2118-.13643 7.1272-2.9633 2.249-8.8372 3.9683-10.689 2.8836l-.39687-.23772c-.23813-.39687-.47635-.76739-.6351-1.1643 1.4817-1.7992 3.2019-3.4133 4.9217-4.9744 2.9431-2.6392 5.2993-3.6375 6.936-3.6344zm99.954 4.855c.45021-.01.88181.24815 1.0604.68471.26459.58208-.00026 1.2698-.58239 1.5079-.58208.26458-1.2698.00021-1.5079-.58188-.29104-.58208-2e-4-1.2703.58188-1.5084.14552-.0661.29796-.099.44803-.10232zm-7.7106 5.6069c.8384-.0161 1.6471.45507 2.0242 1.2687.47625 1.0848-.00053 2.355-1.0852 2.8577-1.1112.47625-2.3809 1e-4-2.8572-1.0847-.47625-1.0848-1e-4-2.355 1.0847-2.8577.2712-.11906.55408-.17859.83354-.18397zm-3.4814 5.0028c.45021-.01.88181.24815 1.0604.68471.29104.58208.0267 1.2433-.58188 1.5079-.58208.26458-1.2703 2e-4-1.5084-.58188-.26458-.58208.00026-1.2703.58239-1.5084.14552-.0661.29745-.099.44752-.10232zm4.6168 8.9581c.30138-.004.58426.16019.70332.45785.15875.39687 0 .84636-.39687 1.0051-.39688.15875-.84636 0-1.0051-.39688-.15875-.37041 0-.8199.39687-1.0051.0992-.0397.20134-.0597.30179-.061z" opacity=".98" stroke-width=".26458"/>
 </g>
</svg>
