<svg viewBox="0 0 41 50">
 <path d="m21.418 0.65823c-0.317-0.00058-0.648 0.01272-0.992 0.0402-8.711 0.70157-6.401 9.9046-6.53 12.986-0.15908 2.2536-0.616 4.0296-2.1659 6.2327-1.8209 2.1654-4.3846 5.6702-5.5991 9.3185-0.57318 1.7219-0.84593 3.4769-0.59404 5.1379-0.078906 0.07066-0.15403 0.1447-0.22545 0.22095-0.53463 0.57076-0.92966 1.2623-1.3698 1.7279-0.41123 0.41021-0.99713 0.56624-1.641 0.79724-0.6441 0.2311-1.3513 0.57181-1.7805 1.3955 0 0 0 0.000288-0.0002876 0.000403-0.0007006 0.0014-0.001465 0.0027-0.002195 0.004-0.38859 0.72579-0.27306 1.5616-0.15439 2.336 0.11868 0.77435 0.23883 1.5061 0.079348 2.0025-0.50976 1.3933-0.57484 2.3571-0.21599 3.0562 0.35962 0.70054 1.099 1.0098 1.9347 1.1843 1.6714 0.34909 3.9349 0.26234 5.7188 1.2078l0.1526-0.288-0.1517 0.29c1.9097 0.99847 3.8459 1.3531 5.3905 1.0003 1.1199-0.25579 2.029-0.92264 2.4959-1.9488 1.2082-0.0059 2.534-0.51764 4.6577-0.63457 1.4407-0.11605 3.2405 0.51162 5.3106 0.39667 0.05411 0.2246 0.13243 0.44062 0.23963 0.6459 0.0011 0.0021 0.0021 0.0042 0.0032 0.0063 0.80249 1.6047 2.2936 2.3387 3.8826 2.2133 1.5911-0.12557 3.2828-1.0638 4.6503-2.6912l-0.25069-0.21068 0.25261 0.20836c1.3034-1.5804 3.4669-2.2358 4.9014-3.101 0.71727-0.43262 1.2993-0.97433 1.3443-1.7611 0.04494-0.7864-0.41674-1.6677-1.4784-2.8461l-0.000288-0.000287c-0.000402-0.000518-0.000828-0.000978-0.0012-0.0015-0.34882-0.39419-0.51522-1.1248-0.69405-1.9028-0.17871-0.77754-0.37818-1.6163-1.0165-2.1598-0.0013-0.0011-0.0026-0.0021-0.0038-0.0033-0.254-0.221-0.518-0.372-0.784-0.473 0.888-2.632 0.539-5.253-0.356-7.621-1.1-2.907-3.019-5.44-4.485-7.172-1.641-2.07-3.246-4.035-3.215-6.938 0.049-4.4293 0.487-12.644-7.308-12.655zm1.0553 6.8244c0.44232 0 0.82009 0.12965 1.2081 0.41131 0.39422 0.28612 0.67822 0.64431 0.90712 1.1445 0.22466 0.48747 0.33275 0.96434 0.34335 1.5302 0 0.01484 0 0.02755 0.0042 0.04239 0.0042 0.58072-0.09537 1.0746-0.3158 1.579-0.12577 0.28783-0.27021 0.52941-0.44309 0.73856-0.05869-0.02818-0.11965-0.05527-0.18287-0.08127-0.43822-0.18769-0.77438-0.30713-1.0546-0.40435 0.10156-0.12208 0.18613-0.26687 0.26049-0.44786 0.11233-0.2734 0.16744-0.54046 0.17803-0.85837 0-0.01272 0.0042-0.02332 0.0042-0.03815 0.0064-0.30519-0.03391-0.56589-0.12293-0.83294-0.093-0.2791-0.212-0.4805-0.383-0.6479-0.172-0.1674-0.344-0.2437-0.549-0.2501-0.0096-0.000581-0.01925-0.000581-0.02874-0.000581-0.19338 0.000581-0.3613 0.066895-0.53503 0.21234-0.18227 0.15261-0.31791 0.34758-0.43025 0.61888-0.11233 0.27128-0.16744 0.54045-0.17803 0.86049-0.0021 0.01272-0.0021 0.02332-0.0021 0.03603-0.0037 0.17592 0.0075 0.33707 0.03464 0.49356-0.39569-0.19717-0.76857-0.33159-1.1185-0.41488-0.01995-0.15133-0.03149-0.30749-0.03517-0.47078v-0.04451c-0.0064-0.57861 0.08902-1.0746 0.31156-1.579 0.22254-0.50443 0.49807-0.86686 0.88593-1.1615 0.38786-0.2946 0.76936-0.43024 1.2208-0.43448h0.02113zm-6.054 0.47932c0.29343 0.000696 0.55599 0.098723 0.82758 0.3156 0.2946 0.23525 0.51714 0.53621 0.70365 0.9601s0.28612 0.84777 0.31368 1.348v0.0042c0.01336 0.21008 0.01172 0.40782-0.0048 0.59933-0.05803 0.01649-0.1149 0.03434-0.17061 0.05352-0.31639 0.10891-0.59522 0.25733-0.83824 0.4178 0.02376-0.16786 0.0273-0.33818 0.0091-0.52808-0.0021-0.0106-0.0021-0.01907-0.0021-0.02967-0.02543-0.25221-0.07842-0.46416-0.16744-0.67822-0.09537-0.22253-0.20135-0.37938-0.34123-0.50019-0.12677-0.10948-0.24654-0.15975-0.37832-0.15876-0.01363 0-0.02742 0.0007535-0.04133 0.00191-0.14836 0.012706-0.27129 0.084766-0.38786 0.22677s-0.19287 0.31792-0.24797 0.55105c-0.05511 0.23314-0.06994 0.46204-0.04663 0.72485 0 0.01059 0.0021 0.01908 0.0021 0.02967 0.02543 0.25434 0.0763 0.46628 0.16743 0.68034 0.09326 0.22042 0.20135 0.37726 0.34123 0.49806 0.02343 0.02023 0.0466 0.03841 0.06967 0.05464-0.1455 0.11198-0.21498 0.16361-0.33421 0.25122-0.07647 0.05611-0.16755 0.12292-0.27341 0.20095-0.23085-0.21626-0.41095-0.48806-0.56841-0.84592-0.18651-0.42388-0.28612-0.84778-0.3158-1.348v-0.0042c-0.02755-0.50018 0.02119-0.93043 0.15896-1.3755 0.13776-0.44509 0.32216-0.76724 0.5892-1.0322 0.26705-0.26493 0.53622-0.39845 0.8605-0.4154 0.02533-0.00139 0.05044-0.00202 0.07531-0.00191zm2.7534 3.4701c0.68199-0.0026 1.5027 0.22096 2.4962 0.85977 0.61028 0.39687 1.0852 0.43004 2.1787 0.89837l0.0013 0.000581 0.0013 0.000518c0.52612 0.21587 0.83493 0.49724 0.98581 0.79353 0.15087 0.2963 0.15456 0.6176 0.02828 0.9556-0.25256 0.67602-1.0587 1.3875-2.19 1.7407l-0.0011 0.00046-0.001 0.00046c-0.5516 0.17922-1.0326 0.57498-1.5996 0.89924-0.56704 0.32424-1.2087 0.58576-2.0812 0.53529v0c-0.74275-0.04329-1.1867-0.29544-1.5882-0.61808-0.40147-0.32265-0.75131-0.72798-1.2636-1.0288l-0.0013-0.000788-0.0013-0.000788c-0.82516-0.4664-1.2757-1.0058-1.417-1.4735-0.14139-0.46765-0.0087-0.86682 0.40071-1.1736 0.46029-0.34495 0.78003-0.5796 0.99302-0.7359 0.21159-0.15526 0.29962-0.21348 0.367-0.27818 0.000345-0.000518 0.000707-0.000737 0.0011-0.0011 0 0 0.000287-0.000518 0.000287-0.000518 0.34585-0.32737 0.89716-0.9238 1.7282-1.2099 0.28603-0.09846 0.60519-0.16199 0.96242-0.1634zm4.769 2.8205c-0.2943 0.01755-0.60253 0.16907-0.96143 0.36944s-0.76249 0.45668-1.1999 0.70908c-0.87476 0.50481-1.8817 0.98759-2.8824 0.98759-1.0023 0-1.803-0.46289-2.4036-0.93884-0.30031-0.23798-0.54816-0.47768-0.74618-0.66312-0.09901-0.09272-0.18488-0.17175-0.265-0.23347-0.08011-0.06172-0.14531-0.12293-0.27937-0.12293l-0.0064 0.28169c-0.0096 0.09426-0.01946 0.09135-0.01556 0.09392 0.0063 0.0041 0.03736 0.01483 0.07365 0.04279 0.0589 0.04538 0.14067 0.11935 0.23771 0.21022 0.19408 0.18175 0.45198 0.43164 0.76949 0.68326 0.63502 0.50322 1.5182 1.0195 2.6353 1.0195 1.1187 0 2.1772-0.52289 3.069-1.0375 0.44589-0.25732 0.85087-0.51418 1.1952-0.70643 0.34435-0.19226 0.63407-0.31282 0.80181-0.32282l-0.02226-0.37236zm0.99442 1.3388c0.74303 2.929 2.4712 7.1596 3.582 9.2242 0.59041 1.0954 1.765 3.4227 2.2725 6.2266 0.32156-0.0099 0.67564 0.03687 1.0548 0.13385 1.3269-3.4398-1.1252-7.145-2.2464-8.1769-0.45268-0.43926-0.47444-0.63606-0.25003-0.62676 1.2165 1.0758 2.8135 3.2396 3.3945 5.6819 0.26494 1.1137 0.32143 2.2844 0.03716 3.4398 0.13908 0.05778 0.28033 0.1206 0.42349 0.18836 2.1299 1.0371 2.9176 1.939 2.5388 3.1699-0.12474-0.0044-0.24744-0.0039-0.36712-0.001-0.01117 0.000288-0.02225 0.000581-0.03338 0.000851 0.30843-0.97568-0.37484-1.6953-2.1955-2.5191-1.8884-0.83082-3.3932-0.74816-3.6476 0.93679-0.01628 0.08828-0.02937 0.17823-0.03934 0.26943-0.14108 0.04899-0.28294 0.11155-0.42515 0.18936-0.88674 0.4852-1.3707 1.3656-1.6399 2.4454-0.26897 1.0789-0.34608 2.3833-0.42031 3.8495v0.00076c-0.04535 0.73727-0.34847 1.7345-0.6559 2.7906-3.0935 2.2067-7.387 3.1627-11.032 0.67491-0.24705-0.39081-0.53044-0.77802-0.82215-1.1599-0.18628-0.24388-0.37763-0.48628-0.56788-0.72526 0.37422 0.000288 0.6923-0.06099 0.94938-0.17756 0.31969-0.14496 0.54431-0.3778 0.65544-0.6767 0.22225-0.59782-0.000972-1.4411-0.71246-2.4042-0.71145-0.96297-1.9164-2.0498-3.687-3.1356 0 0-0.000288 0-0.000288-0.000287-1.3008-0.809-2.0282-1.801-2.3687-2.878-0.3406-1.077-0.2928-2.241-0.0304-3.391 0.50375-2.2071 1.7981-4.3537 2.6239-5.7008 0.22234-0.1636 0.07944 0.30368-0.83605 2.0037-0.82048 1.5543-2.3544 5.1414-0.2542 7.9414 0.05612-1.9926 0.532-4.0249 1.3309-5.9258 1.1636-2.6377 3.5975-7.2118 3.7908-10.857 0.09967 0.07237 0.44216 0.30346 0.59477 0.39025 0.000287 0.00046 0.000673 0.00046 0.000978 0.000517 0.4465 0.26294 0.78184 0.64729 1.2162 0.99634 0.43518 0.34974 0.97884 0.65182 1.8002 0.69968 0.9587 0.05548 1.6894-0.24146 2.288-0.58378 0.59774-0.3418 1.0753-0.72006 1.5277-0.86771 0.000707-0.00046 0.0014-0.00046 0.002-0.00065 0.95596-0.29894 1.716-0.82806 2.1486-1.4452zm6.0718 16.768c0.3872-0.0018 0.85625 0.1273 1.3697 0.35699 1.3819 0.63795 1.8142 1.1848 1.437 1.988-0.31792 0.60616-1.6786 1.5705-2.6112 1.3162-0.95163-0.24586-1.4158-1.6171-1.2611-2.6535 0.08288-0.70379 0.48095-1.0049 1.0656-1.0077zm-1.5635 1.8939c0.07811 1.2674 0.70516 2.56 1.8141 2.8397 1.2135 0.31974 2.9632-0.72148 3.7019-1.5708 0.1473-0.0059 0.29131-0.01311 0.43117-0.01649 0.64801-0.01565 1.1915 0.02134 1.7468 0.50701l0.0019 0.0016 0.002 0.0016c0.42674 0.36154 0.62959 1.0448 0.80552 1.8102 0.17592 0.76541 0.3166 1.599 0.8442 2.1929l0.000788 0.000851 0.00073 0.000852c1.0143 1.1256 1.3403 1.8864 1.3126 2.372-0.02776 0.48561-0.37935 0.84611-1.0286 1.2377-1.2979 0.78283-3.5976 1.4636-5.0665 3.2428-1.2755 1.5179-2.8307 2.3515-4.2005 2.4596-1.3697 0.1081-2.5515-0.46039-3.2482-1.8588l-0.0016-0.0032-0.0016-0.0031c-0.43222-0.8222-0.25217-2.1197 0.11193-3.4884 0.36411-1.3687 0.88723-2.774 0.95726-3.9162v-0.0018-0.0017c0.07408-1.4635 0.15599-2.7416 0.40183-3.7277 0.24584-0.98613 0.63294-1.654 1.3188-2.0293 0.03194-0.01748 0.06365-0.03396 0.09517-0.04954zm-22.273 0.09564c0.10237 0.000402 0.21071 0.009 0.32613 0.02643 0.77639 0.11761 1.4534 0.66045 2.1057 1.5452 0.6523 0.88476 1.2593 2.0925 1.8832 3.4322l0.000794 0.0016 0.00073 0.0016c0.5014 1.0465 1.5594 2.1972 2.456 3.371 0.89661 1.1739 1.5905 2.3522 1.5002 3.254l-0.000403 0.0039-0.000287 0.0039c-0.11689 1.5381-0.98455 2.3755-2.3165 2.6797-1.3315 0.30412-3.1366 0.000978-4.9396-0.9413-0.0005177-0.000288-0.00107-0.000518-0.00159-0.000852-1.995-1.056-4.368-0.951-5.8902-1.269-0.7613-0.159-1.258-0.398-1.486-0.842-0.22805-0.444-0.23314-1.219 0.2514-2.54l0.00213-0.0058 0.00192-0.0059c0.23961-0.73912 0.062288-1.5478-0.054046-2.3069-0.11633-0.75906-0.17322-1.4495 0.08597-1.9307l0.00119-0.0022 0.00118-0.0023c0.33186-0.63968 0.81862-0.86835 1.4227-1.0851 0.60412-0.21675 1.3205-0.38697 1.8862-0.95388l0.00293-0.003 0.00292-0.003c0.52296-0.55169 0.91578-1.2432 1.3755-1.734 0.38791-0.41412 0.77609-0.6886 1.3612-0.69266h0.0204z"/>
</svg>
