<svg viewBox="0 0 48 48">
 <g transform="matrix(.39773 0 0 .39744 -96.891 -131.46)">
  <path d="m0 2v15.355h5.6582v2.758l0.0078 9.213c0 8.911 7.746 15.674 16.672 15.674h25.662v-27.199c0-8.9195-7.738-15.672-16.672-15.672l-7.465-0.0177-23.863-0.1113zm1.1777 1.0918l22.638 0.1055 7.082 0.0156c8.476 0 15.815 6.4077 15.815 14.869v25.803h-24.344c-8.468 0-15.816-6.415-15.816-14.869l-0.0081-10.264v-2.617h-5.3672v-13.043zm3.4571 3.4687v6.1275h2.1484c1.4582 0 3.2129 1.369 3.2129 3.378l0.0139 12.942c0 6.308 5.536 11.422 12.359 11.422h16.846c2.159 0 4.049-1.367 4.049-3.467v-18.881c0-6.308-5.535-11.422-12.366-11.422l-7.089 0.0002v-0.0157l-19.174-0.084zm8.6812 3.8395h3.524v18.057c0 2.416 1.649 4.297 3.582 4.297l12.014 0.047c2.504 0 4.453-1.724 4.453-3.77l-0.02-9.59c0-0.622-0.204-1.107-0.648-1.556-0.446-0.451-0.918-0.655-1.532-0.655-0.626 0-1.092 0.203-1.539 0.655-0.444 0.449-0.648 0.934-0.648 1.556v8.207h-3.725v-8.207c0-0.622-0.203-1.107-0.648-1.556-0.447-0.452-0.911-0.655-1.537-0.655-0.614 0-1.087 0.204-1.533 0.655-0.445 0.449-0.647 0.934-0.647 1.556v8.207h-3.726v-8.207c0-1.623 0.6-3.062 1.742-4.214 1.142-1.153 2.564-1.747 4.164-1.747 1.57 0 2.933 0.586 4.041 1.653 1.111-1.069 2.486-1.653 4.056-1.653 1.6 0 3.022 0.594 4.165 1.747 1.141 1.152 1.74 2.591 1.74 4.214l0.013 10.245c-0.176 1.715-0.899 3.239-2.138 4.511h-0.008c-1.457 1.482-3.261 2.244-5.316 2.244l-13.377 0.002c-1.637-0.175-3.094-0.949-4.305-2.144-1.418-1.411-2.147-3.157-2.147-5.147v-18.752z" transform="matrix(2.5143 0 0 2.5161 243.61 330.77)"/>
  <path opacity=".3" d="m304.96 413.22v9.25h22c5.1677 0 9.681-1.9274 13.344-5.6562h0.0313c3.1151-3.2005 4.9324-7.0278 5.375-11.344v-5.25h-9.3438v3.5938c0 5.147-4.8904 9.4688-11.188 9.4688l-20.219-0.0625z"/>
 </g>
</svg>
