<svg viewBox="0 0 115.75 137.35">
 <path d="m49.47 32.33h38.74c20.8 0 28.63 10.53 27.42 26-2 25.54-17.44 39.67-37.92 39.67h-10.34c-2.81 0-4.7 1.86-5.46 6.9l-4.39 29.3c-.29 1.9-1.29 3-2.79 3.15h-24.34c-2.29 0-3.1-1.75-2.5-5.54l14.84-93.93c.58-3.76 2.64-5.55 6.74-5.55z" fill-opacity=".5"/>
 <path d="m25.24 0h38.78c10.92 0 23.88.35 32.54 8 5.79 5.11 8.83 13.24 8.13 22-2.38 29.61-20.09 46.2-43.85 46.2h-19.12c-3.26 0-5.41 2.16-6.33 8l-5.34 34c-.35 2.2-1.3 3.5-3 3.66h-23.93c-2.65 0-3.59-2-2.9-6.42l17.2-108.98c.69-4.38 3.1-6.46 7.82-6.46z" fill-opacity=".9"/>
</svg>
