<svg viewBox="0 0 570.00001 720.00001">
 <g transform="translate(0 -332.36)">
  <path d="m157.7 334.02 0.0137 0.002c-3.6193 0.11232-7.5186 1.4493-11.939 4.9375-10.83-4.1763-21.329-5.6272-30.719 2.875-14.5-1.8808-19.213 2.0002-22.783 6.5312-3.183-0.066-23.818-3.2722-33.281 10.844-23.781-2.814-31.297 13.988-22.781 29.656-4.8569 7.519-9.8896 14.947 1.4688 29.281-4.018 7.9835-1.5274 16.644 7.9375 27.125-2.4979 11.223 2.4118 19.142 11.219 25.312-1.6471 15.358 14.084 24.287 18.781 27.469 1.8037 8.9487 5.5632 17.392 23.531 22.061 2.9632 13.336 13.762 15.64 24.219 18.439-34.562 20.09-64.201 46.522-64 111.38l-5.0625 9.0312c-39.63 24.1-75.284 101.56-19.529 164.52 3.6419 19.708 9.7491 33.862 15.188 49.529 8.1338 63.131 61.218 92.693 75.219 96.189 20.517 15.628 42.368 30.457 71.938 40.844 27.875 28.749 58.075 39.706 88.439 39.688 0.44515-0.0002 0.89848 0.01 1.3438 0 30.364 0.019 60.562-10.938 88.438-39.688 29.569-10.387 51.42-25.216 71.938-40.844 14.001-3.4959 67.085-33.058 75.219-96.189 5.4379-15.667 11.547-29.821 15.189-49.529 55.754-62.965 20.1-140.43-19.531-164.53l-5.0703-9.0293c0.20067-64.852-29.438-91.286-64-111.38 10.457-2.7984 21.256-5.1009 24.219-18.438 17.968-4.6698 21.728-13.114 23.531-22.062 4.6978-3.1813 20.428-12.111 18.781-27.469 8.8067-6.1716 13.717-14.09 11.219-25.312 9.4649-10.481 11.956-19.141 7.9375-27.125 11.36-14.328 6.3188-21.754 1.4688-29.273 8.51-15.668 1.0009-32.47-22.789-29.656-9.46-14.116-30.089-10.91-33.279-10.844-3.57-4.531-8.2812-8.412-22.781-6.5312-9.39-8.5022-19.889-7.0514-30.719-2.875-12.86-10.148-21.37-2.0132-31.09 1.0625-15.57-5.0877-19.131 1.881-26.781 4.7188-16.98-3.5881-22.139 4.2238-30.279 12.469l-9.4688-0.1875c-25.611 15.093-38.334 45.826-42.844 61.625-4.5121-15.802-17.206-46.535-42.812-61.625l-9.4688 0.1875c-8.15-8.245-13.311-16.057-30.291-12.469-7.65-2.8378-11.199-9.8064-26.779-4.7188-6.3797-2.0185-12.247-6.2144-19.156-6zm257.67 18.131c-3.556 4.3967-8.5233 8.6894-3.2539 13.74 7.263-4.6043 14.571-9.202 31.82-12.475-3.8871 4.3993-11.923 8.798-7.0508 13.197 9.119-3.536 19.208-6.1032 30.373-7.5938-5.3462 4.464-9.8057 8.8372-5.4238 12.295 9.759-3.0477 23.202-7.1544 36.34-3.6172l-8.3164 8.498c-0.923 1.1372 19.454 0.88621 32.904 1.0859-4.9085 6.922-9.9136 13.601-12.836 25.49 1.333 1.3711 7.9988 0.60938 14.283 0-6.444 13.772-17.638 17.249-20.25 23.143 3.937 3.0259 9.3995 2.2391 15.369 0.18164-4.639 9.703-14.369 16.35-22.057 24.225 1.944 1.4004 5.3389 2.2361 13.379 1.2656-7.103 7.664-15.685 14.672-25.855 20.973 1.801 2.1127 7.995 2.0293 13.74 2.1699-9.212 9.153-21.068 13.899-32.18 19.887 5.5388 3.8415 9.497 2.945 13.738 2.8926-7.859 6.5546-21.221 9.9652-33.627 13.922 2.3594 3.7224 4.7196 4.7402 9.7637 5.7852-13.131 7.377-31.94 4.0036-37.244 7.7734 1.2806 3.7079 4.8923 6.122 9.2207 8.1367-21.14 1.246-78.955-0.78122-90.037-45.199 21.639-24.139 61.137-52.468 129.07-87.5-52.857 17.96-100.55 41.9-140.46 74.844-46.93-22.182-14.579-78.128 8.3164-100.34 1.1609 5.8653 2.4749 9.5726 3.9766 10.666 7.455-8.112 13.546-16.418 23.143-24.225 0.0312 4.585-2.2779 9.5594 3.4355 13.197 5.145-7.027 12.1-13.298 21.334-18.621-4.4477 7.7866-0.76425 10.152 1.627 13.379 7.053-6.139 13.752-12.359 26.758-17.176zm-256.75 0.006c13.006 4.817 19.705 11.035 26.758 17.174 2.3912-3.2271 6.0766-5.5923 1.6289-13.379 9.2342 5.3227 16.189 11.596 21.334 18.623 5.7134-3.6379 3.4024-8.6142 3.4336-13.199 9.5966 7.8065 15.688 16.115 23.143 24.227 1.5017-1.0934 2.8176-4.8027 3.9785-10.668 22.895 22.212 55.246 78.158 8.3164 100.34-39.918-32.922-87.588-56.857-140.41-74.814 67.903 35.013 107.39 63.341 129.02 87.467-11.082 44.418-68.897 46.445-90.037 45.199 4.3284-2.0147 7.9401-4.4288 9.2207-8.1367-5.3045-3.7698-24.113-0.39643-37.244-7.7734 5.0441-1.045 7.4043-2.0628 9.7637-5.7852-12.406-3.9567-25.77-7.3673-33.629-13.922 4.2413 0.0524 8.2014 0.94892 13.74-2.8926-11.112-5.9882-22.968-10.734-32.18-19.887 5.7452-0.14063 11.937-0.0572 13.738-2.1699-10.17-6.3007-18.751-13.309-25.854-20.973 8.04 0.97052 11.435 0.13476 13.379-1.2656-7.6878-7.8742-17.418-14.522-22.057-24.225 5.9696 2.0575 11.43 2.8443 15.367-0.18164-2.6124-5.8935-13.804-9.3702-20.248-23.143 6.2844 0.60938 12.95 1.3711 14.283 0-2.917-11.884-7.923-18.564-12.832-25.486 13.45-0.2 33.829 0.053 32.906-1.084l-8.3164-8.498c13.138-3.5372 26.581 0.56749 36.34 3.6152 4.3819-3.4577-0.0776-7.829-5.4238-12.293 11.165 1.4906 21.254 4.0578 30.373 7.5938 4.8724-4.3993-3.1637-8.7999-7.0508-13.199 17.249 3.2726 24.557 7.8703 31.82 12.475 5.2694-5.0508 0.3001-9.3416-3.2559-13.738zm123.82 182.96c1.168-0.0264 2.3378-0.0246 3.5098 0.006 33.278-0.366 74.481 24.83 74.316 48.57-0.145 20.954-28.938 37.917-74.061 37.594-44.186-0.527-73.943-21.315-73.838-41.619 0.0843-16.188 33.865-43.732 70.072-44.551zm-106.93 14.113c6.5631 0.0357 13.308 0.62273 20.182 1.7832 23.15 3.89-110.94 120.98-113.01 94.859-1.8792-60.678 39.386-96.933 92.828-96.643zm213.97 2c53.44-0.29187 94.707 35.957 92.828 96.641-2.0669 26.121-136.16-90.968-113.01-94.857 6.8726-1.1605 13.619-1.7474 20.182-1.7832zm-22.582 72.717a86.13 72.999 55.966 0 1 3.1856 0.043 86.13 72.999 55.966 0 1 56.693 154.05 86.13 72.999 55.966 1 1 -94.967 -143.71 86.13 72.999 55.966 0 1 35.088 -10.383zm-164.39 4.043a72.999 86.13 34.034 0 1 0.004 0 72.999 86.13 34.034 0 1 38.273 10.34 72.999 86.13 34.034 0 1 -94.969 143.71 72.999 86.13 34.034 0 1 56.691 -154.05zm287.26 44.037c1.0214-0.0169 2.1003 0.12088 3.2383 0.42578 60.416 34.5 49.921 111.27 17.334 137.48-28.699 12.749-52.235-137.38-20.572-137.91zm-414.29 1.998c31.659 0.52189 8.127 150.65-20.572 137.9-32.587-26.21-43.082-102.97 17.334-137.47 1.1378-0.305 2.217-0.44457 3.2383-0.42773zm214.35 103.27a81.39 75.051 0 0 1 79.441 75.426 81.39 75.051 0 1 1 -162.78 0 81.39 75.051 0 0 1 83.336 -75.426zm177.95 28.309c6.3574-0.16573 12.308 1.619 17.674 5.7695 14.449 14.398 22.925 68.615-2.3711 101.08-34.837 48.338-81.998 50.22-99.566 36.756-18.374-17.33-4.3491-71.137 20.838-100.64v-0.01c21.616-24.407 44.353-42.46 63.426-42.957zm-367.9 11.49c20.979-0.43073 46.728 16.148 67.6 40.365 23.279 28.046 33.89 77.319 14.463 91.844-18.379 11.088-63.012 6.5228-94.736-39.051-21.395-38.242-18.637-77.158-3.6152-88.59 4.914-2.9934 10.415-4.4478 16.289-4.5684zm194.62 134.27c31.762 0.19607 70.328 11.635 70.408 26.508 0.5427 15.405-39.79 50.212-78.826 49.539-40.427 1.7439-80.068-33.116-79.549-45.199-0.60506-17.716 49.226-31.549 81.719-30.736 2.0436-0.0892 4.1306-0.1244 6.248-0.11133z"/>
 </g>
</svg>
