<svg viewBox="0 0 48 48">
 <path d="m24 2c-12.15 0-22 9.849-22 22 0 12.15 9.85 22 22 22s22-9.85 22-22c0-12.151-9.85-22-22-22zm7.2754 6.1152c0.56417-0.039873 1.1451 0.08266 1.6719 0.38672 1.4049 0.81111 1.8873 2.6068 1.0762 4.0117-0.81069 1.4043-2.607 1.8855-4.0117 1.0742-1.404-0.811-1.884-2.607-1.073-4.0118 0.506-0.8781 1.397-1.3945 2.337-1.461zm-7.275 3.1248c1.1812 0 2.3229 0.16456 3.4082 0.46484 0.19205 1.1798 0.89315 2.2656 2.0098 2.9102 1.1149 0.64375 2.4049 0.70889 3.5215 0.28711 2.1721 2.1354 3.585 5.04 3.791 8.2754l-4.1855 0.06055c-0.384-4.383-4.062-7.819-8.544-7.819-1.2916 0-2.5147 0.28772-3.6133 0.79883l-2.041-3.658c1.704-0.845 3.623-1.321 5.654-1.321zm-7.0781 2.1426 2.1465 3.5977c-2.2057 1.5525-3.6484 4.1167-3.6484 7.0195 0 2.9032 1.4427 5.4672 3.6484 7.0195l-2.1465 3.5977c-2.571-1.718-4.483-4.344-5.277-7.419 0.927-0.756 1.521-1.908 1.521-3.199s-0.59368-2.443-1.5215-3.1992c0.79417-3.0751 2.707-5.7005 5.2773-7.418zm-7.881 7.679c1.6219 0 2.9355 1.315 2.9355 2.9375 0 1.6221-1.3136 2.9375-2.9355 2.9375-1.6225 0-2.9375-1.3154-2.9375-2.9375 0-1.6225 1.315-2.9375 2.9375-2.9375zm23.504 3.6992 4.1855 0.06055c-0.20574 3.2357-1.6192 6.1418-3.791 8.2773-1.1168-0.42206-2.4067-0.35845-3.5215 0.28516-1.1167 0.64488-1.8177 1.7305-2.0098 2.9102-1.0854 0.30057-2.227 0.46484-3.4082 0.46484-2.0311 0-3.9495-0.47619-5.6543-1.3203l2.0391-3.6582c1.0987 0.5111 2.3236 0.79883 3.6152 0.79883 4.4824 0 8.1597-3.4354 8.5449-7.8184zm-0.86133 9.2637c0.94026 0.06648 1.8331 0.58331 2.3398 1.4609 0.8111 1.4048 0.33026 3.2008-1.0742 4.0117-1.4049 0.81111-3.2006 0.33068-4.0117-1.0742-0.81096-1.4043-0.33068-3.2006 1.0742-4.0117 0.52668-0.30406 1.1077-0.4266 1.6719-0.38672z"/>
</svg>
